%TF.GenerationSoftware,KiCad,Pcbnew,(6.0.9-0)*%
%TF.CreationDate,2022-11-28T12:31:09+01:00*%
%TF.ProjectId,Hlabs motor cotrol cnc proto,486c6162-7320-46d6-9f74-6f7220636f74,rev?*%
%TF.SameCoordinates,Original*%
%TF.FileFunction,Legend,Top*%
%TF.FilePolarity,Positive*%
%FSLAX46Y46*%
G04 Gerber Fmt 4.6, Leading zero omitted, Abs format (unit mm)*
G04 Created by KiCad (PCBNEW (6.0.9-0)) date 2022-11-28 12:31:09*
%MOMM*%
%LPD*%
G01*
G04 APERTURE LIST*
%ADD10C,0.187500*%
%ADD11C,0.150000*%
%ADD12C,0.120000*%
G04 APERTURE END LIST*
D10*
X82678571Y-138131785D02*
X82678571Y-137381785D01*
X82678571Y-137738928D02*
X83107142Y-137738928D01*
X83107142Y-138131785D02*
X83107142Y-137381785D01*
X83821428Y-138131785D02*
X83464285Y-138131785D01*
X83464285Y-137381785D01*
X84392857Y-138131785D02*
X84392857Y-137738928D01*
X84357142Y-137667500D01*
X84285714Y-137631785D01*
X84142857Y-137631785D01*
X84071428Y-137667500D01*
X84392857Y-138096071D02*
X84321428Y-138131785D01*
X84142857Y-138131785D01*
X84071428Y-138096071D01*
X84035714Y-138024642D01*
X84035714Y-137953214D01*
X84071428Y-137881785D01*
X84142857Y-137846071D01*
X84321428Y-137846071D01*
X84392857Y-137810357D01*
X84750000Y-138131785D02*
X84750000Y-137381785D01*
X84750000Y-137667500D02*
X84821428Y-137631785D01*
X84964285Y-137631785D01*
X85035714Y-137667500D01*
X85071428Y-137703214D01*
X85107142Y-137774642D01*
X85107142Y-137988928D01*
X85071428Y-138060357D01*
X85035714Y-138096071D01*
X84964285Y-138131785D01*
X84821428Y-138131785D01*
X84750000Y-138096071D01*
X85392857Y-138096071D02*
X85464285Y-138131785D01*
X85607142Y-138131785D01*
X85678571Y-138096071D01*
X85714285Y-138024642D01*
X85714285Y-137988928D01*
X85678571Y-137917500D01*
X85607142Y-137881785D01*
X85500000Y-137881785D01*
X85428571Y-137846071D01*
X85392857Y-137774642D01*
X85392857Y-137738928D01*
X85428571Y-137667500D01*
X85500000Y-137631785D01*
X85607142Y-137631785D01*
X85678571Y-137667500D01*
X86607142Y-138131785D02*
X86607142Y-137381785D01*
X86892857Y-137381785D01*
X86964285Y-137417500D01*
X87000000Y-137453214D01*
X87035714Y-137524642D01*
X87035714Y-137631785D01*
X87000000Y-137703214D01*
X86964285Y-137738928D01*
X86892857Y-137774642D01*
X86607142Y-137774642D01*
X87464285Y-138131785D02*
X87392857Y-138096071D01*
X87357142Y-138060357D01*
X87321428Y-137988928D01*
X87321428Y-137774642D01*
X87357142Y-137703214D01*
X87392857Y-137667500D01*
X87464285Y-137631785D01*
X87571428Y-137631785D01*
X87642857Y-137667500D01*
X87678571Y-137703214D01*
X87714285Y-137774642D01*
X87714285Y-137988928D01*
X87678571Y-138060357D01*
X87642857Y-138096071D01*
X87571428Y-138131785D01*
X87464285Y-138131785D01*
X87928571Y-137631785D02*
X88214285Y-137631785D01*
X88035714Y-137381785D02*
X88035714Y-138024642D01*
X88071428Y-138096071D01*
X88142857Y-138131785D01*
X88214285Y-138131785D01*
X88571428Y-138131785D02*
X88500000Y-138096071D01*
X88464285Y-138060357D01*
X88428571Y-137988928D01*
X88428571Y-137774642D01*
X88464285Y-137703214D01*
X88500000Y-137667500D01*
X88571428Y-137631785D01*
X88678571Y-137631785D01*
X88750000Y-137667500D01*
X88785714Y-137703214D01*
X88821428Y-137774642D01*
X88821428Y-137988928D01*
X88785714Y-138060357D01*
X88750000Y-138096071D01*
X88678571Y-138131785D01*
X88571428Y-138131785D01*
X89142857Y-138131785D02*
X89142857Y-137631785D01*
X89142857Y-137703214D02*
X89178571Y-137667500D01*
X89250000Y-137631785D01*
X89357142Y-137631785D01*
X89428571Y-137667500D01*
X89464285Y-137738928D01*
X89464285Y-138131785D01*
X89464285Y-137738928D02*
X89500000Y-137667500D01*
X89571428Y-137631785D01*
X89678571Y-137631785D01*
X89750000Y-137667500D01*
X89785714Y-137738928D01*
X89785714Y-138131785D01*
X90250000Y-138131785D02*
X90178571Y-138096071D01*
X90142857Y-138060357D01*
X90107142Y-137988928D01*
X90107142Y-137774642D01*
X90142857Y-137703214D01*
X90178571Y-137667500D01*
X90250000Y-137631785D01*
X90357142Y-137631785D01*
X90428571Y-137667500D01*
X90464285Y-137703214D01*
X90500000Y-137774642D01*
X90500000Y-137988928D01*
X90464285Y-138060357D01*
X90428571Y-138096071D01*
X90357142Y-138131785D01*
X90250000Y-138131785D01*
X90714285Y-137631785D02*
X91000000Y-137631785D01*
X90821428Y-137381785D02*
X90821428Y-138024642D01*
X90857142Y-138096071D01*
X90928571Y-138131785D01*
X91000000Y-138131785D01*
X91357142Y-138131785D02*
X91285714Y-138096071D01*
X91250000Y-138060357D01*
X91214285Y-137988928D01*
X91214285Y-137774642D01*
X91250000Y-137703214D01*
X91285714Y-137667500D01*
X91357142Y-137631785D01*
X91464285Y-137631785D01*
X91535714Y-137667500D01*
X91571428Y-137703214D01*
X91607142Y-137774642D01*
X91607142Y-137988928D01*
X91571428Y-138060357D01*
X91535714Y-138096071D01*
X91464285Y-138131785D01*
X91357142Y-138131785D01*
X92250000Y-138096071D02*
X92178571Y-138131785D01*
X92035714Y-138131785D01*
X91964285Y-138096071D01*
X91928571Y-138060357D01*
X91892857Y-137988928D01*
X91892857Y-137774642D01*
X91928571Y-137703214D01*
X91964285Y-137667500D01*
X92035714Y-137631785D01*
X92178571Y-137631785D01*
X92250000Y-137667500D01*
X92678571Y-138131785D02*
X92607142Y-138096071D01*
X92571428Y-138060357D01*
X92535714Y-137988928D01*
X92535714Y-137774642D01*
X92571428Y-137703214D01*
X92607142Y-137667500D01*
X92678571Y-137631785D01*
X92785714Y-137631785D01*
X92857142Y-137667500D01*
X92892857Y-137703214D01*
X92928571Y-137774642D01*
X92928571Y-137988928D01*
X92892857Y-138060357D01*
X92857142Y-138096071D01*
X92785714Y-138131785D01*
X92678571Y-138131785D01*
X93250000Y-137631785D02*
X93250000Y-138131785D01*
X93250000Y-137703214D02*
X93285714Y-137667500D01*
X93357142Y-137631785D01*
X93464285Y-137631785D01*
X93535714Y-137667500D01*
X93571428Y-137738928D01*
X93571428Y-138131785D01*
X93821428Y-137631785D02*
X94107142Y-137631785D01*
X93928571Y-137381785D02*
X93928571Y-138024642D01*
X93964285Y-138096071D01*
X94035714Y-138131785D01*
X94107142Y-138131785D01*
X94357142Y-138131785D02*
X94357142Y-137631785D01*
X94357142Y-137774642D02*
X94392857Y-137703214D01*
X94428571Y-137667500D01*
X94500000Y-137631785D01*
X94571428Y-137631785D01*
X94928571Y-138131785D02*
X94857142Y-138096071D01*
X94821428Y-138060357D01*
X94785714Y-137988928D01*
X94785714Y-137774642D01*
X94821428Y-137703214D01*
X94857142Y-137667500D01*
X94928571Y-137631785D01*
X95035714Y-137631785D01*
X95107142Y-137667500D01*
X95142857Y-137703214D01*
X95178571Y-137774642D01*
X95178571Y-137988928D01*
X95142857Y-138060357D01*
X95107142Y-138096071D01*
X95035714Y-138131785D01*
X94928571Y-138131785D01*
X95607142Y-138131785D02*
X95535714Y-138096071D01*
X95500000Y-138024642D01*
X95500000Y-137381785D01*
X96178571Y-138096071D02*
X96107142Y-138131785D01*
X95964285Y-138131785D01*
X95892857Y-138096071D01*
X95857142Y-138024642D01*
X95857142Y-137738928D01*
X95892857Y-137667500D01*
X95964285Y-137631785D01*
X96107142Y-137631785D01*
X96178571Y-137667500D01*
X96214285Y-137738928D01*
X96214285Y-137810357D01*
X95857142Y-137881785D01*
X96857142Y-137631785D02*
X96857142Y-138131785D01*
X96535714Y-137631785D02*
X96535714Y-138024642D01*
X96571428Y-138096071D01*
X96642857Y-138131785D01*
X96750000Y-138131785D01*
X96821428Y-138096071D01*
X96857142Y-138060357D01*
X97214285Y-138131785D02*
X97214285Y-137631785D01*
X97214285Y-137774642D02*
X97250000Y-137703214D01*
X97285714Y-137667500D01*
X97357142Y-137631785D01*
X97428571Y-137631785D01*
X83285714Y-138839285D02*
X83464285Y-139339285D01*
X83642857Y-138839285D01*
X84071428Y-138589285D02*
X84142857Y-138589285D01*
X84214285Y-138625000D01*
X84250000Y-138660714D01*
X84285714Y-138732142D01*
X84321428Y-138875000D01*
X84321428Y-139053571D01*
X84285714Y-139196428D01*
X84250000Y-139267857D01*
X84214285Y-139303571D01*
X84142857Y-139339285D01*
X84071428Y-139339285D01*
X84000000Y-139303571D01*
X83964285Y-139267857D01*
X83928571Y-139196428D01*
X83892857Y-139053571D01*
X83892857Y-138875000D01*
X83928571Y-138732142D01*
X83964285Y-138660714D01*
X84000000Y-138625000D01*
X84071428Y-138589285D01*
X84642857Y-139267857D02*
X84678571Y-139303571D01*
X84642857Y-139339285D01*
X84607142Y-139303571D01*
X84642857Y-139267857D01*
X84642857Y-139339285D01*
X84964285Y-138660714D02*
X85000000Y-138625000D01*
X85071428Y-138589285D01*
X85250000Y-138589285D01*
X85321428Y-138625000D01*
X85357142Y-138660714D01*
X85392857Y-138732142D01*
X85392857Y-138803571D01*
X85357142Y-138910714D01*
X84928571Y-139339285D01*
X85392857Y-139339285D01*
X86035714Y-139339285D02*
X86035714Y-138946428D01*
X86000000Y-138875000D01*
X85928571Y-138839285D01*
X85785714Y-138839285D01*
X85714285Y-138875000D01*
X86035714Y-139303571D02*
X85964285Y-139339285D01*
X85785714Y-139339285D01*
X85714285Y-139303571D01*
X85678571Y-139232142D01*
X85678571Y-139160714D01*
X85714285Y-139089285D01*
X85785714Y-139053571D01*
X85964285Y-139053571D01*
X86035714Y-139017857D01*
X87392857Y-139267857D02*
X87357142Y-139303571D01*
X87250000Y-139339285D01*
X87178571Y-139339285D01*
X87071428Y-139303571D01*
X87000000Y-139232142D01*
X86964285Y-139160714D01*
X86928571Y-139017857D01*
X86928571Y-138910714D01*
X86964285Y-138767857D01*
X87000000Y-138696428D01*
X87071428Y-138625000D01*
X87178571Y-138589285D01*
X87250000Y-138589285D01*
X87357142Y-138625000D01*
X87392857Y-138660714D01*
X87821428Y-139339285D02*
X87750000Y-139303571D01*
X87714285Y-139232142D01*
X87714285Y-138589285D01*
X88392857Y-139303571D02*
X88321428Y-139339285D01*
X88178571Y-139339285D01*
X88107142Y-139303571D01*
X88071428Y-139232142D01*
X88071428Y-138946428D01*
X88107142Y-138875000D01*
X88178571Y-138839285D01*
X88321428Y-138839285D01*
X88392857Y-138875000D01*
X88428571Y-138946428D01*
X88428571Y-139017857D01*
X88071428Y-139089285D01*
X88321428Y-138553571D02*
X88214285Y-138660714D01*
X88750000Y-139339285D02*
X88750000Y-138839285D01*
X88750000Y-138910714D02*
X88785714Y-138875000D01*
X88857142Y-138839285D01*
X88964285Y-138839285D01*
X89035714Y-138875000D01*
X89071428Y-138946428D01*
X89071428Y-139339285D01*
X89071428Y-138946428D02*
X89107142Y-138875000D01*
X89178571Y-138839285D01*
X89285714Y-138839285D01*
X89357142Y-138875000D01*
X89392857Y-138946428D01*
X89392857Y-139339285D01*
X90035714Y-139303571D02*
X89964285Y-139339285D01*
X89821428Y-139339285D01*
X89750000Y-139303571D01*
X89714285Y-139232142D01*
X89714285Y-138946428D01*
X89750000Y-138875000D01*
X89821428Y-138839285D01*
X89964285Y-138839285D01*
X90035714Y-138875000D01*
X90071428Y-138946428D01*
X90071428Y-139017857D01*
X89714285Y-139089285D01*
X90392857Y-138839285D02*
X90392857Y-139339285D01*
X90392857Y-138910714D02*
X90428571Y-138875000D01*
X90500000Y-138839285D01*
X90607142Y-138839285D01*
X90678571Y-138875000D01*
X90714285Y-138946428D01*
X90714285Y-139339285D01*
X90964285Y-138839285D02*
X91250000Y-138839285D01*
X91071428Y-138589285D02*
X91071428Y-139232142D01*
X91107142Y-139303571D01*
X91178571Y-139339285D01*
X91250000Y-139339285D01*
X92035714Y-139303571D02*
X92142857Y-139339285D01*
X92321428Y-139339285D01*
X92392857Y-139303571D01*
X92428571Y-139267857D01*
X92464285Y-139196428D01*
X92464285Y-139125000D01*
X92428571Y-139053571D01*
X92392857Y-139017857D01*
X92321428Y-138982142D01*
X92178571Y-138946428D01*
X92107142Y-138910714D01*
X92071428Y-138875000D01*
X92035714Y-138803571D01*
X92035714Y-138732142D01*
X92071428Y-138660714D01*
X92107142Y-138625000D01*
X92178571Y-138589285D01*
X92357142Y-138589285D01*
X92464285Y-138625000D01*
X92750000Y-139125000D02*
X93107142Y-139125000D01*
X92678571Y-139339285D02*
X92928571Y-138589285D01*
X93178571Y-139339285D01*
X93428571Y-139339285D02*
X93428571Y-138589285D01*
X94142857Y-139339285D02*
X93785714Y-139339285D01*
X93785714Y-138589285D01*
X94750000Y-139339285D02*
X94392857Y-139339285D01*
X94392857Y-138589285D01*
X94964285Y-139125000D02*
X95321428Y-139125000D01*
X94892857Y-139339285D02*
X95142857Y-138589285D01*
X95392857Y-139339285D01*
X95642857Y-139339285D02*
X95642857Y-138589285D01*
X96071428Y-139339285D01*
X96071428Y-138589285D01*
X96321428Y-138589285D02*
X96750000Y-138589285D01*
X96535714Y-139339285D02*
X96535714Y-138589285D01*
X88750000Y-140546785D02*
X88321428Y-140546785D01*
X88535714Y-140546785D02*
X88535714Y-139796785D01*
X88464285Y-139903928D01*
X88392857Y-139975357D01*
X88321428Y-140011071D01*
X89214285Y-139796785D02*
X89285714Y-139796785D01*
X89357142Y-139832500D01*
X89392857Y-139868214D01*
X89428571Y-139939642D01*
X89464285Y-140082500D01*
X89464285Y-140261071D01*
X89428571Y-140403928D01*
X89392857Y-140475357D01*
X89357142Y-140511071D01*
X89285714Y-140546785D01*
X89214285Y-140546785D01*
X89142857Y-140511071D01*
X89107142Y-140475357D01*
X89071428Y-140403928D01*
X89035714Y-140261071D01*
X89035714Y-140082500D01*
X89071428Y-139939642D01*
X89107142Y-139868214D01*
X89142857Y-139832500D01*
X89214285Y-139796785D01*
X90321428Y-139761071D02*
X89678571Y-140725357D01*
X90535714Y-139868214D02*
X90571428Y-139832500D01*
X90642857Y-139796785D01*
X90821428Y-139796785D01*
X90892857Y-139832500D01*
X90928571Y-139868214D01*
X90964285Y-139939642D01*
X90964285Y-140011071D01*
X90928571Y-140118214D01*
X90500000Y-140546785D01*
X90964285Y-140546785D01*
X91250000Y-139868214D02*
X91285714Y-139832500D01*
X91357142Y-139796785D01*
X91535714Y-139796785D01*
X91607142Y-139832500D01*
X91642857Y-139868214D01*
X91678571Y-139939642D01*
X91678571Y-140011071D01*
X91642857Y-140118214D01*
X91214285Y-140546785D01*
X91678571Y-140546785D01*
D11*
%TO.C,J1*%
X101292380Y-136315833D02*
X102006666Y-136315833D01*
X102149523Y-136363452D01*
X102244761Y-136458690D01*
X102292380Y-136601547D01*
X102292380Y-136696785D01*
X102292380Y-135315833D02*
X102292380Y-135887261D01*
X102292380Y-135601547D02*
X101292380Y-135601547D01*
X101435238Y-135696785D01*
X101530476Y-135792023D01*
X101578095Y-135887261D01*
D12*
X108440000Y-141932500D02*
X107940000Y-140932500D01*
X119470000Y-139232500D02*
X113800000Y-139232500D01*
X120770000Y-140542500D02*
X102730000Y-140542500D01*
X104030000Y-139232500D02*
X104030000Y-132732500D01*
X104030000Y-132732500D02*
X119470000Y-132732500D01*
X102730000Y-131422500D02*
X120770000Y-131422500D01*
X119470000Y-132732500D02*
X119470000Y-139232500D01*
X120770000Y-131422500D02*
X120770000Y-140542500D01*
X107940000Y-140932500D02*
X107440000Y-141932500D01*
X102730000Y-140542500D02*
X102730000Y-131422500D01*
X109700000Y-139232500D02*
X104030000Y-139232500D01*
X113800000Y-139232500D02*
X113800000Y-140542500D01*
X113800000Y-139232500D02*
X113800000Y-139232500D01*
X107440000Y-141932500D02*
X108440000Y-141932500D01*
X109700000Y-140542500D02*
X109700000Y-139232500D01*
%TD*%
M02*
