%TF.GenerationSoftware,KiCad,Pcbnew,(6.0.9-0)*%
%TF.CreationDate,2022-11-28T12:31:08+01:00*%
%TF.ProjectId,Hlabs motor cotrol cnc proto,486c6162-7320-46d6-9f74-6f7220636f74,rev?*%
%TF.SameCoordinates,Original*%
%TF.FileFunction,Copper,L1,Top*%
%TF.FilePolarity,Positive*%
%FSLAX46Y46*%
G04 Gerber Fmt 4.6, Leading zero omitted, Abs format (unit mm)*
G04 Created by KiCad (PCBNEW (6.0.9-0)) date 2022-11-28 12:31:08*
%MOMM*%
%LPD*%
G01*
G04 APERTURE LIST*
G04 Aperture macros list*
%AMRoundRect*
0 Rectangle with rounded corners*
0 $1 Rounding radius*
0 $2 $3 $4 $5 $6 $7 $8 $9 X,Y pos of 4 corners*
0 Add a 4 corners polygon primitive as box body*
4,1,4,$2,$3,$4,$5,$6,$7,$8,$9,$2,$3,0*
0 Add four circle primitives for the rounded corners*
1,1,$1+$1,$2,$3*
1,1,$1+$1,$4,$5*
1,1,$1+$1,$6,$7*
1,1,$1+$1,$8,$9*
0 Add four rect primitives between the rounded corners*
20,1,$1+$1,$2,$3,$4,$5,0*
20,1,$1+$1,$4,$5,$6,$7,0*
20,1,$1+$1,$6,$7,$8,$9,0*
20,1,$1+$1,$8,$9,$2,$3,0*%
G04 Aperture macros list end*
%TA.AperFunction,ComponentPad*%
%ADD10R,3.000000X3.000000*%
%TD*%
%TA.AperFunction,ComponentPad*%
%ADD11C,3.000000*%
%TD*%
%TA.AperFunction,ComponentPad*%
%ADD12RoundRect,0.625000X-0.625000X1.625000X-0.625000X-1.625000X0.625000X-1.625000X0.625000X1.625000X0*%
%TD*%
%TA.AperFunction,ComponentPad*%
%ADD13RoundRect,0.250000X0.600000X-0.600000X0.600000X0.600000X-0.600000X0.600000X-0.600000X-0.600000X0*%
%TD*%
%TA.AperFunction,ComponentPad*%
%ADD14C,1.700000*%
%TD*%
G04 APERTURE END LIST*
D10*
%TO.P,RV1,1,1*%
%TO.N,+5V*%
X79500000Y-134060000D03*
D11*
%TO.P,RV1,2,2*%
%TO.N,pot_cmd*%
X79500000Y-129060000D03*
%TO.P,RV1,3,3*%
%TO.N,GND*%
X79500000Y-124060000D03*
%TO.P,RV1,4*%
X84500000Y-134060000D03*
%TO.P,RV1,5*%
X84500000Y-129060000D03*
%TO.P,RV1,6*%
X84500000Y-124060000D03*
D12*
%TO.P,RV1,GND*%
X98530000Y-119410000D03*
X98510000Y-134630000D03*
D11*
%TO.P,RV1,M+,M+*%
%TO.N,/M+*%
X110320000Y-113890000D03*
%TO.P,RV1,M-,M-*%
%TO.N,Net-(RV1-PadM-)*%
X104940000Y-113890000D03*
%TD*%
D13*
%TO.P,J1,1,Pin_1*%
%TO.N,GND*%
X107940000Y-137252500D03*
D14*
%TO.P,J1,2,Pin_2*%
%TO.N,/VMOT*%
X107940000Y-134712500D03*
%TO.P,J1,3,Pin_3*%
%TO.N,GND*%
X110480000Y-137252500D03*
%TO.P,J1,4,Pin_4*%
%TO.N,/VMOT*%
X110480000Y-134712500D03*
%TO.P,J1,5,Pin_5*%
%TO.N,pot_cmd*%
X113020000Y-137252500D03*
%TO.P,J1,6,Pin_6*%
%TO.N,+5V*%
X113020000Y-134712500D03*
%TO.P,J1,7,Pin_7*%
%TO.N,I2C SDA*%
X115560000Y-137252500D03*
%TO.P,J1,8,Pin_8*%
%TO.N,I2C SCL*%
X115560000Y-134712500D03*
%TD*%
%TA.AperFunction,Conductor*%
%TO.N,GND*%
G36*
X103294186Y-112511302D02*
G01*
X103340679Y-112564958D01*
X103350783Y-112635232D01*
X103328387Y-112690826D01*
X103231508Y-112825647D01*
X103231501Y-112825658D01*
X103229002Y-112829136D01*
X103100857Y-113071161D01*
X103099385Y-113075184D01*
X103099383Y-113075188D01*
X103092314Y-113094506D01*
X103006743Y-113328337D01*
X102948404Y-113595907D01*
X102926917Y-113868918D01*
X102942682Y-114142320D01*
X102943507Y-114146525D01*
X102943508Y-114146533D01*
X102954127Y-114200657D01*
X102995405Y-114411053D01*
X102996792Y-114415103D01*
X102996793Y-114415108D01*
X103017605Y-114475895D01*
X103084112Y-114670144D01*
X103207160Y-114914799D01*
X103209586Y-114918328D01*
X103209589Y-114918334D01*
X103359843Y-115136953D01*
X103362274Y-115140490D01*
X103546582Y-115343043D01*
X103756675Y-115518707D01*
X103760316Y-115520991D01*
X103985024Y-115661951D01*
X103985028Y-115661953D01*
X103988664Y-115664234D01*
X104056544Y-115694883D01*
X104234345Y-115775164D01*
X104234349Y-115775166D01*
X104238257Y-115776930D01*
X104242377Y-115778150D01*
X104242376Y-115778150D01*
X104496723Y-115853491D01*
X104496727Y-115853492D01*
X104500836Y-115854709D01*
X104505070Y-115855357D01*
X104505075Y-115855358D01*
X104767298Y-115895483D01*
X104767300Y-115895483D01*
X104771540Y-115896132D01*
X104910912Y-115898322D01*
X105041071Y-115900367D01*
X105041077Y-115900367D01*
X105045362Y-115900434D01*
X105317235Y-115867534D01*
X105582127Y-115798041D01*
X105586087Y-115796401D01*
X105586092Y-115796399D01*
X105708632Y-115745641D01*
X105835136Y-115693241D01*
X106071582Y-115555073D01*
X106287089Y-115386094D01*
X106328809Y-115343043D01*
X106474686Y-115192509D01*
X106477669Y-115189431D01*
X106480202Y-115185983D01*
X106480206Y-115185978D01*
X106637257Y-114972178D01*
X106639795Y-114968723D01*
X106667154Y-114918334D01*
X106768418Y-114731830D01*
X106768419Y-114731828D01*
X106770468Y-114728054D01*
X106867269Y-114471877D01*
X106928407Y-114204933D01*
X106952751Y-113932161D01*
X106953193Y-113890000D01*
X106934567Y-113616778D01*
X106879032Y-113348612D01*
X106787617Y-113090465D01*
X106662013Y-112847112D01*
X106652040Y-112832921D01*
X106551418Y-112689751D01*
X106528613Y-112622516D01*
X106545778Y-112553626D01*
X106597463Y-112504952D01*
X106654505Y-112491300D01*
X108606065Y-112491300D01*
X108674186Y-112511302D01*
X108720679Y-112564958D01*
X108730783Y-112635232D01*
X108708387Y-112690826D01*
X108611508Y-112825647D01*
X108611501Y-112825658D01*
X108609002Y-112829136D01*
X108480857Y-113071161D01*
X108479385Y-113075184D01*
X108479383Y-113075188D01*
X108472314Y-113094506D01*
X108386743Y-113328337D01*
X108328404Y-113595907D01*
X108306917Y-113868918D01*
X108322682Y-114142320D01*
X108323507Y-114146525D01*
X108323508Y-114146533D01*
X108334127Y-114200657D01*
X108375405Y-114411053D01*
X108376792Y-114415103D01*
X108376793Y-114415108D01*
X108397605Y-114475895D01*
X108464112Y-114670144D01*
X108587160Y-114914799D01*
X108589586Y-114918328D01*
X108589589Y-114918334D01*
X108739843Y-115136953D01*
X108742274Y-115140490D01*
X108926582Y-115343043D01*
X109136675Y-115518707D01*
X109140316Y-115520991D01*
X109365024Y-115661951D01*
X109365028Y-115661953D01*
X109368664Y-115664234D01*
X109436544Y-115694883D01*
X109614345Y-115775164D01*
X109614349Y-115775166D01*
X109618257Y-115776930D01*
X109622377Y-115778150D01*
X109622376Y-115778150D01*
X109876723Y-115853491D01*
X109876727Y-115853492D01*
X109880836Y-115854709D01*
X109885070Y-115855357D01*
X109885075Y-115855358D01*
X110147298Y-115895483D01*
X110147300Y-115895483D01*
X110151540Y-115896132D01*
X110290912Y-115898322D01*
X110421071Y-115900367D01*
X110421077Y-115900367D01*
X110425362Y-115900434D01*
X110697235Y-115867534D01*
X110962127Y-115798041D01*
X110966087Y-115796401D01*
X110966092Y-115796399D01*
X111088632Y-115745641D01*
X111215136Y-115693241D01*
X111451582Y-115555073D01*
X111667089Y-115386094D01*
X111708809Y-115343043D01*
X111854686Y-115192509D01*
X111857669Y-115189431D01*
X111860202Y-115185983D01*
X111860206Y-115185978D01*
X112017257Y-114972178D01*
X112019795Y-114968723D01*
X112047154Y-114918334D01*
X112148418Y-114731830D01*
X112148419Y-114731828D01*
X112150468Y-114728054D01*
X112247269Y-114471877D01*
X112308407Y-114204933D01*
X112332751Y-113932161D01*
X112333193Y-113890000D01*
X112314567Y-113616778D01*
X112259032Y-113348612D01*
X112167617Y-113090465D01*
X112042013Y-112847112D01*
X112032040Y-112832921D01*
X111931418Y-112689751D01*
X111908613Y-112622516D01*
X111925778Y-112553626D01*
X111977463Y-112504952D01*
X112034505Y-112491300D01*
X128475300Y-112491300D01*
X128543421Y-112511302D01*
X128589914Y-112564958D01*
X128601300Y-112617300D01*
X128601300Y-140365500D01*
X128581298Y-140433621D01*
X128527642Y-140480114D01*
X128475300Y-140491500D01*
X76134500Y-140491500D01*
X76066379Y-140471498D01*
X76019886Y-140417842D01*
X76008500Y-140365500D01*
X76008500Y-137899595D01*
X106582001Y-137899595D01*
X106582338Y-137906114D01*
X106592257Y-138001706D01*
X106595149Y-138015100D01*
X106646588Y-138169284D01*
X106652761Y-138182462D01*
X106738063Y-138320307D01*
X106747099Y-138331708D01*
X106861829Y-138446239D01*
X106873240Y-138455251D01*
X107011243Y-138540316D01*
X107024424Y-138546463D01*
X107178710Y-138597638D01*
X107192086Y-138600505D01*
X107286438Y-138610172D01*
X107292854Y-138610500D01*
X107667885Y-138610500D01*
X107683124Y-138606025D01*
X107684329Y-138604635D01*
X107686000Y-138596952D01*
X107686000Y-137524615D01*
X107681525Y-137509376D01*
X107680135Y-137508171D01*
X107672452Y-137506500D01*
X106600116Y-137506500D01*
X106584877Y-137510975D01*
X106583672Y-137512365D01*
X106582001Y-137520048D01*
X106582001Y-137899595D01*
X76008500Y-137899595D01*
X76008500Y-136339807D01*
X96752001Y-136339807D01*
X96752121Y-136343701D01*
X96754790Y-136386893D01*
X96756126Y-136396472D01*
X96800048Y-136597073D01*
X96803695Y-136608432D01*
X96884306Y-136796059D01*
X96890041Y-136806533D01*
X97004669Y-136975522D01*
X97012282Y-136984724D01*
X97156802Y-137128992D01*
X97166015Y-137136587D01*
X97335206Y-137250922D01*
X97345690Y-137256638D01*
X97533450Y-137336918D01*
X97544821Y-137340547D01*
X97745480Y-137384115D01*
X97755100Y-137385437D01*
X97796387Y-137387890D01*
X97800102Y-137388000D01*
X98237885Y-137388000D01*
X98253124Y-137383525D01*
X98254329Y-137382135D01*
X98256000Y-137374452D01*
X98256000Y-137369884D01*
X98764000Y-137369884D01*
X98768475Y-137385123D01*
X98769865Y-137386328D01*
X98777548Y-137387999D01*
X99219807Y-137387999D01*
X99223701Y-137387879D01*
X99266893Y-137385210D01*
X99276472Y-137383874D01*
X99477073Y-137339952D01*
X99488432Y-137336305D01*
X99676059Y-137255694D01*
X99686533Y-137249959D01*
X99855522Y-137135331D01*
X99864724Y-137127718D01*
X100008992Y-136983198D01*
X100016587Y-136973985D01*
X100130922Y-136804794D01*
X100136638Y-136794310D01*
X100216918Y-136606550D01*
X100220547Y-136595179D01*
X100264115Y-136394520D01*
X100265437Y-136384900D01*
X100267890Y-136343613D01*
X100268000Y-136339898D01*
X100268000Y-134902115D01*
X100263525Y-134886876D01*
X100262135Y-134885671D01*
X100254452Y-134884000D01*
X98782115Y-134884000D01*
X98766876Y-134888475D01*
X98765671Y-134889865D01*
X98764000Y-134897548D01*
X98764000Y-137369884D01*
X98256000Y-137369884D01*
X98256000Y-134902115D01*
X98251525Y-134886876D01*
X98250135Y-134885671D01*
X98242452Y-134884000D01*
X96770116Y-134884000D01*
X96754877Y-134888475D01*
X96753672Y-134889865D01*
X96752001Y-134897548D01*
X96752001Y-136339807D01*
X76008500Y-136339807D01*
X76008500Y-135608134D01*
X77491500Y-135608134D01*
X77498255Y-135670316D01*
X77549385Y-135806705D01*
X77636739Y-135923261D01*
X77753295Y-136010615D01*
X77889684Y-136061745D01*
X77951866Y-136068500D01*
X81048134Y-136068500D01*
X81110316Y-136061745D01*
X81246705Y-136010615D01*
X81363261Y-135923261D01*
X81450615Y-135806705D01*
X81501745Y-135670316D01*
X81503990Y-135649654D01*
X83275618Y-135649654D01*
X83282673Y-135659627D01*
X83313679Y-135685551D01*
X83320598Y-135690579D01*
X83545272Y-135831515D01*
X83552807Y-135835556D01*
X83794520Y-135944694D01*
X83802551Y-135947680D01*
X84056832Y-136023002D01*
X84065184Y-136024869D01*
X84327340Y-136064984D01*
X84335874Y-136065700D01*
X84601045Y-136069867D01*
X84609596Y-136069418D01*
X84872883Y-136037557D01*
X84881284Y-136035955D01*
X85137824Y-135968653D01*
X85145926Y-135965926D01*
X85390949Y-135864434D01*
X85398617Y-135860628D01*
X85627598Y-135726822D01*
X85634679Y-135722009D01*
X85714655Y-135659301D01*
X85723125Y-135647442D01*
X85716608Y-135635818D01*
X84512812Y-134432022D01*
X84498868Y-134424408D01*
X84497035Y-134424539D01*
X84490420Y-134428790D01*
X83282910Y-135636300D01*
X83275618Y-135649654D01*
X81503990Y-135649654D01*
X81508500Y-135608134D01*
X81508500Y-134043204D01*
X82487665Y-134043204D01*
X82502932Y-134307969D01*
X82504005Y-134316470D01*
X82555065Y-134576722D01*
X82557276Y-134584974D01*
X82643184Y-134835894D01*
X82646499Y-134843779D01*
X82765664Y-135080713D01*
X82770020Y-135088079D01*
X82899347Y-135276250D01*
X82909601Y-135284594D01*
X82923342Y-135277448D01*
X84127978Y-134072812D01*
X84134356Y-134061132D01*
X84864408Y-134061132D01*
X84864539Y-134062965D01*
X84868790Y-134069580D01*
X86075730Y-135276520D01*
X86087939Y-135283187D01*
X86099439Y-135274497D01*
X86196831Y-135141913D01*
X86201418Y-135134685D01*
X86327962Y-134901621D01*
X86331530Y-134893827D01*
X86412633Y-134679195D01*
X106577251Y-134679195D01*
X106577548Y-134684348D01*
X106577548Y-134684351D01*
X106583011Y-134779090D01*
X106590110Y-134902215D01*
X106591247Y-134907261D01*
X106591248Y-134907267D01*
X106611119Y-134995439D01*
X106639222Y-135120139D01*
X106723266Y-135327116D01*
X106774019Y-135409938D01*
X106837291Y-135513188D01*
X106839987Y-135517588D01*
X106986250Y-135686438D01*
X107029096Y-135722009D01*
X107056772Y-135744986D01*
X107096408Y-135803889D01*
X107097906Y-135874870D01*
X107060792Y-135935393D01*
X107029739Y-135956032D01*
X107010040Y-135965260D01*
X106872193Y-136050563D01*
X106860792Y-136059599D01*
X106746261Y-136174329D01*
X106737249Y-136185740D01*
X106652184Y-136323743D01*
X106646037Y-136336924D01*
X106594862Y-136491210D01*
X106591995Y-136504586D01*
X106582328Y-136598938D01*
X106582000Y-136605355D01*
X106582000Y-136980385D01*
X106586475Y-136995624D01*
X106587865Y-136996829D01*
X106595548Y-136998500D01*
X108068000Y-136998500D01*
X108136121Y-137018502D01*
X108182614Y-137072158D01*
X108194000Y-137124500D01*
X108194000Y-138592384D01*
X108198475Y-138607623D01*
X108199865Y-138608828D01*
X108207548Y-138610499D01*
X108587095Y-138610499D01*
X108593614Y-138610162D01*
X108689206Y-138600243D01*
X108702600Y-138597351D01*
X108856784Y-138545912D01*
X108869962Y-138539739D01*
X109007807Y-138454437D01*
X109019208Y-138445401D01*
X109087138Y-138377353D01*
X109719977Y-138377353D01*
X109725258Y-138384407D01*
X109886756Y-138478779D01*
X109896042Y-138483229D01*
X110095001Y-138559203D01*
X110104899Y-138562079D01*
X110313595Y-138604538D01*
X110323823Y-138605757D01*
X110536650Y-138613562D01*
X110546936Y-138613095D01*
X110758185Y-138586034D01*
X110768262Y-138583892D01*
X110972255Y-138522691D01*
X110981842Y-138518933D01*
X111173098Y-138425238D01*
X111181944Y-138419965D01*
X111229247Y-138386223D01*
X111237648Y-138375523D01*
X111230660Y-138362370D01*
X110492812Y-137624522D01*
X110478868Y-137616908D01*
X110477035Y-137617039D01*
X110470420Y-137621290D01*
X109726737Y-138364973D01*
X109719977Y-138377353D01*
X109087138Y-138377353D01*
X109133739Y-138330671D01*
X109142751Y-138319260D01*
X109227816Y-138181257D01*
X109233964Y-138168074D01*
X109256297Y-138100741D01*
X109296727Y-138042381D01*
X109326015Y-138024699D01*
X109365694Y-138007596D01*
X110107978Y-137265312D01*
X110115592Y-137251368D01*
X110115461Y-137249535D01*
X110111210Y-137242920D01*
X109369849Y-136501559D01*
X109329966Y-136479780D01*
X109316009Y-136476744D01*
X109265807Y-136426542D01*
X109256871Y-136406032D01*
X109233413Y-136335718D01*
X109227239Y-136322538D01*
X109141937Y-136184693D01*
X109132901Y-136173292D01*
X109018171Y-136058761D01*
X109006760Y-136049749D01*
X108868757Y-135964684D01*
X108854478Y-135958025D01*
X108801193Y-135911107D01*
X108781732Y-135842830D01*
X108802274Y-135774870D01*
X108820475Y-135754290D01*
X108819860Y-135753673D01*
X108937644Y-135636300D01*
X108978096Y-135595989D01*
X109037594Y-135513189D01*
X109108453Y-135414577D01*
X109109776Y-135415528D01*
X109156645Y-135372357D01*
X109226580Y-135360125D01*
X109292026Y-135387644D01*
X109319875Y-135419494D01*
X109379987Y-135517588D01*
X109526250Y-135686438D01*
X109698126Y-135829132D01*
X109752025Y-135860628D01*
X109771955Y-135872274D01*
X109820679Y-135923912D01*
X109833750Y-135993695D01*
X109807019Y-136059467D01*
X109766562Y-136092827D01*
X109758460Y-136097044D01*
X109749734Y-136102539D01*
X109729677Y-136117599D01*
X109721223Y-136128927D01*
X109727968Y-136141258D01*
X110467188Y-136880478D01*
X110481132Y-136888092D01*
X110482965Y-136887961D01*
X110489580Y-136883710D01*
X111233389Y-136139901D01*
X111240410Y-136127044D01*
X111233611Y-136117713D01*
X111229559Y-136115021D01*
X111192602Y-136094620D01*
X111142631Y-136044187D01*
X111127859Y-135974745D01*
X111152975Y-135908339D01*
X111180327Y-135881732D01*
X111234866Y-135842830D01*
X111359860Y-135753673D01*
X111368578Y-135744986D01*
X111477644Y-135636300D01*
X111518096Y-135595989D01*
X111577594Y-135513189D01*
X111648453Y-135414577D01*
X111649776Y-135415528D01*
X111696645Y-135372357D01*
X111766580Y-135360125D01*
X111832026Y-135387644D01*
X111859875Y-135419494D01*
X111919987Y-135517588D01*
X112066250Y-135686438D01*
X112238126Y-135829132D01*
X112292025Y-135860628D01*
X112311445Y-135871976D01*
X112360169Y-135923614D01*
X112373240Y-135993397D01*
X112346509Y-136059169D01*
X112306055Y-136092527D01*
X112293607Y-136099007D01*
X112289474Y-136102110D01*
X112289471Y-136102112D01*
X112178089Y-136185740D01*
X112114965Y-136233135D01*
X112111393Y-136236873D01*
X112009306Y-136343701D01*
X111960629Y-136394638D01*
X111957720Y-136398903D01*
X111957714Y-136398911D01*
X111906153Y-136474497D01*
X111853204Y-136552118D01*
X111852898Y-136552566D01*
X111797987Y-136597569D01*
X111727462Y-136605740D01*
X111663715Y-136574486D01*
X111643017Y-136550001D01*
X111613062Y-136503697D01*
X111602377Y-136494495D01*
X111592812Y-136498898D01*
X110852022Y-137239688D01*
X110844408Y-137253632D01*
X110844539Y-137255465D01*
X110848790Y-137262080D01*
X111590474Y-138003764D01*
X111602484Y-138010323D01*
X111614223Y-138001355D01*
X111648022Y-137954319D01*
X111649277Y-137955221D01*
X111696391Y-137911855D01*
X111766330Y-137899648D01*
X111831767Y-137927191D01*
X111859580Y-137959013D01*
X111917287Y-138053183D01*
X111917291Y-138053188D01*
X111919987Y-138057588D01*
X112066250Y-138226438D01*
X112238126Y-138369132D01*
X112431000Y-138481838D01*
X112639692Y-138561530D01*
X112644760Y-138562561D01*
X112644763Y-138562562D01*
X112749604Y-138583892D01*
X112858597Y-138606067D01*
X112863772Y-138606257D01*
X112863774Y-138606257D01*
X113076673Y-138614064D01*
X113076677Y-138614064D01*
X113081837Y-138614253D01*
X113086957Y-138613597D01*
X113086959Y-138613597D01*
X113298288Y-138586525D01*
X113298289Y-138586525D01*
X113303416Y-138585868D01*
X113308366Y-138584383D01*
X113512429Y-138523161D01*
X113512434Y-138523159D01*
X113517384Y-138521674D01*
X113717994Y-138423396D01*
X113899860Y-138293673D01*
X114058096Y-138135989D01*
X114188453Y-137954577D01*
X114189776Y-137955528D01*
X114236645Y-137912357D01*
X114306580Y-137900125D01*
X114372026Y-137927644D01*
X114399875Y-137959494D01*
X114459987Y-138057588D01*
X114606250Y-138226438D01*
X114778126Y-138369132D01*
X114971000Y-138481838D01*
X115179692Y-138561530D01*
X115184760Y-138562561D01*
X115184763Y-138562562D01*
X115289604Y-138583892D01*
X115398597Y-138606067D01*
X115403772Y-138606257D01*
X115403774Y-138606257D01*
X115616673Y-138614064D01*
X115616677Y-138614064D01*
X115621837Y-138614253D01*
X115626957Y-138613597D01*
X115626959Y-138613597D01*
X115838288Y-138586525D01*
X115838289Y-138586525D01*
X115843416Y-138585868D01*
X115848366Y-138584383D01*
X116052429Y-138523161D01*
X116052434Y-138523159D01*
X116057384Y-138521674D01*
X116257994Y-138423396D01*
X116439860Y-138293673D01*
X116598096Y-138135989D01*
X116728453Y-137954577D01*
X116749320Y-137912357D01*
X116825136Y-137758953D01*
X116825137Y-137758951D01*
X116827430Y-137754311D01*
X116892370Y-137540569D01*
X116921529Y-137319090D01*
X116923156Y-137252500D01*
X116904852Y-137029861D01*
X116850431Y-136813202D01*
X116761354Y-136608340D01*
X116721906Y-136547362D01*
X116642822Y-136425117D01*
X116642820Y-136425114D01*
X116640014Y-136420777D01*
X116489670Y-136255551D01*
X116485619Y-136252352D01*
X116485615Y-136252348D01*
X116318414Y-136120300D01*
X116318410Y-136120298D01*
X116314359Y-136117098D01*
X116273053Y-136094296D01*
X116223084Y-136043864D01*
X116208312Y-135974421D01*
X116233428Y-135908016D01*
X116260780Y-135881409D01*
X116314866Y-135842830D01*
X116439860Y-135753673D01*
X116448578Y-135744986D01*
X116557644Y-135636300D01*
X116598096Y-135595989D01*
X116657594Y-135513189D01*
X116725435Y-135418777D01*
X116728453Y-135414577D01*
X116749320Y-135372357D01*
X116825136Y-135218953D01*
X116825137Y-135218951D01*
X116827430Y-135214311D01*
X116892370Y-135000569D01*
X116921529Y-134779090D01*
X116923156Y-134712500D01*
X116904852Y-134489861D01*
X116850431Y-134273202D01*
X116761354Y-134068340D01*
X116640014Y-133880777D01*
X116489670Y-133715551D01*
X116485619Y-133712352D01*
X116485615Y-133712348D01*
X116318414Y-133580300D01*
X116318410Y-133580298D01*
X116314359Y-133577098D01*
X116277260Y-133556618D01*
X116179532Y-133502670D01*
X116118789Y-133469138D01*
X116113920Y-133467414D01*
X116113916Y-133467412D01*
X115913087Y-133396295D01*
X115913083Y-133396294D01*
X115908212Y-133394569D01*
X115903119Y-133393662D01*
X115903116Y-133393661D01*
X115693373Y-133356300D01*
X115693367Y-133356299D01*
X115688284Y-133355394D01*
X115614452Y-133354492D01*
X115470081Y-133352728D01*
X115470079Y-133352728D01*
X115464911Y-133352665D01*
X115244091Y-133386455D01*
X115031756Y-133455857D01*
X115001447Y-133471635D01*
X114918703Y-133514709D01*
X114833607Y-133559007D01*
X114829474Y-133562110D01*
X114829471Y-133562112D01*
X114805247Y-133580300D01*
X114654965Y-133693135D01*
X114500629Y-133854638D01*
X114393201Y-134012121D01*
X114338293Y-134057121D01*
X114267768Y-134065292D01*
X114204021Y-134034038D01*
X114183324Y-134009554D01*
X114102822Y-133885117D01*
X114102820Y-133885114D01*
X114100014Y-133880777D01*
X113949670Y-133715551D01*
X113945619Y-133712352D01*
X113945615Y-133712348D01*
X113778414Y-133580300D01*
X113778410Y-133580298D01*
X113774359Y-133577098D01*
X113737260Y-133556618D01*
X113639532Y-133502670D01*
X113578789Y-133469138D01*
X113573920Y-133467414D01*
X113573916Y-133467412D01*
X113373087Y-133396295D01*
X113373083Y-133396294D01*
X113368212Y-133394569D01*
X113363119Y-133393662D01*
X113363116Y-133393661D01*
X113153373Y-133356300D01*
X113153367Y-133356299D01*
X113148284Y-133355394D01*
X113074452Y-133354492D01*
X112930081Y-133352728D01*
X112930079Y-133352728D01*
X112924911Y-133352665D01*
X112704091Y-133386455D01*
X112491756Y-133455857D01*
X112461447Y-133471635D01*
X112378703Y-133514709D01*
X112293607Y-133559007D01*
X112289474Y-133562110D01*
X112289471Y-133562112D01*
X112265247Y-133580300D01*
X112114965Y-133693135D01*
X111960629Y-133854638D01*
X111853201Y-134012121D01*
X111798293Y-134057121D01*
X111727768Y-134065292D01*
X111664021Y-134034038D01*
X111643324Y-134009554D01*
X111562822Y-133885117D01*
X111562820Y-133885114D01*
X111560014Y-133880777D01*
X111409670Y-133715551D01*
X111405619Y-133712352D01*
X111405615Y-133712348D01*
X111238414Y-133580300D01*
X111238410Y-133580298D01*
X111234359Y-133577098D01*
X111197260Y-133556618D01*
X111099532Y-133502670D01*
X111038789Y-133469138D01*
X111033920Y-133467414D01*
X111033916Y-133467412D01*
X110833087Y-133396295D01*
X110833083Y-133396294D01*
X110828212Y-133394569D01*
X110823119Y-133393662D01*
X110823116Y-133393661D01*
X110613373Y-133356300D01*
X110613367Y-133356299D01*
X110608284Y-133355394D01*
X110534452Y-133354492D01*
X110390081Y-133352728D01*
X110390079Y-133352728D01*
X110384911Y-133352665D01*
X110164091Y-133386455D01*
X109951756Y-133455857D01*
X109921447Y-133471635D01*
X109838703Y-133514709D01*
X109753607Y-133559007D01*
X109749474Y-133562110D01*
X109749471Y-133562112D01*
X109725247Y-133580300D01*
X109574965Y-133693135D01*
X109420629Y-133854638D01*
X109313201Y-134012121D01*
X109258293Y-134057121D01*
X109187768Y-134065292D01*
X109124021Y-134034038D01*
X109103324Y-134009554D01*
X109022822Y-133885117D01*
X109022820Y-133885114D01*
X109020014Y-133880777D01*
X108869670Y-133715551D01*
X108865619Y-133712352D01*
X108865615Y-133712348D01*
X108698414Y-133580300D01*
X108698410Y-133580298D01*
X108694359Y-133577098D01*
X108657260Y-133556618D01*
X108559532Y-133502670D01*
X108498789Y-133469138D01*
X108493920Y-133467414D01*
X108493916Y-133467412D01*
X108293087Y-133396295D01*
X108293083Y-133396294D01*
X108288212Y-133394569D01*
X108283119Y-133393662D01*
X108283116Y-133393661D01*
X108073373Y-133356300D01*
X108073367Y-133356299D01*
X108068284Y-133355394D01*
X107994452Y-133354492D01*
X107850081Y-133352728D01*
X107850079Y-133352728D01*
X107844911Y-133352665D01*
X107624091Y-133386455D01*
X107411756Y-133455857D01*
X107381447Y-133471635D01*
X107298703Y-133514709D01*
X107213607Y-133559007D01*
X107209474Y-133562110D01*
X107209471Y-133562112D01*
X107185247Y-133580300D01*
X107034965Y-133693135D01*
X106880629Y-133854638D01*
X106754743Y-134039180D01*
X106660688Y-134241805D01*
X106600989Y-134457070D01*
X106577251Y-134679195D01*
X86412633Y-134679195D01*
X86425271Y-134645750D01*
X86427748Y-134637544D01*
X86486954Y-134379038D01*
X86488294Y-134370577D01*
X86489427Y-134357885D01*
X96752000Y-134357885D01*
X96756475Y-134373124D01*
X96757865Y-134374329D01*
X96765548Y-134376000D01*
X98237885Y-134376000D01*
X98253124Y-134371525D01*
X98254329Y-134370135D01*
X98256000Y-134362452D01*
X98256000Y-134357885D01*
X98764000Y-134357885D01*
X98768475Y-134373124D01*
X98769865Y-134374329D01*
X98777548Y-134376000D01*
X100249884Y-134376000D01*
X100265123Y-134371525D01*
X100266328Y-134370135D01*
X100267999Y-134362452D01*
X100267999Y-132920194D01*
X100267879Y-132916299D01*
X100265210Y-132873107D01*
X100263874Y-132863528D01*
X100219952Y-132662927D01*
X100216305Y-132651568D01*
X100135694Y-132463941D01*
X100129959Y-132453467D01*
X100015331Y-132284478D01*
X100007718Y-132275276D01*
X99863198Y-132131008D01*
X99853985Y-132123413D01*
X99684794Y-132009078D01*
X99674310Y-132003362D01*
X99486550Y-131923082D01*
X99475179Y-131919453D01*
X99274520Y-131875885D01*
X99264900Y-131874563D01*
X99223613Y-131872110D01*
X99219898Y-131872000D01*
X98782115Y-131872000D01*
X98766876Y-131876475D01*
X98765671Y-131877865D01*
X98764000Y-131885548D01*
X98764000Y-134357885D01*
X98256000Y-134357885D01*
X98256000Y-131890116D01*
X98251525Y-131874877D01*
X98250135Y-131873672D01*
X98242452Y-131872001D01*
X97800194Y-131872001D01*
X97796299Y-131872121D01*
X97753107Y-131874790D01*
X97743528Y-131876126D01*
X97542927Y-131920048D01*
X97531568Y-131923695D01*
X97343941Y-132004306D01*
X97333467Y-132010041D01*
X97164478Y-132124669D01*
X97155276Y-132132282D01*
X97011008Y-132276802D01*
X97003413Y-132286015D01*
X96889078Y-132455206D01*
X96883362Y-132465690D01*
X96803082Y-132653450D01*
X96799453Y-132664821D01*
X96755885Y-132865480D01*
X96754563Y-132875100D01*
X96752110Y-132916387D01*
X96752000Y-132920102D01*
X96752000Y-134357885D01*
X86489427Y-134357885D01*
X86512031Y-134104616D01*
X86512277Y-134099677D01*
X86512666Y-134062485D01*
X86512523Y-134057519D01*
X86494362Y-133791123D01*
X86493201Y-133782649D01*
X86439419Y-133522944D01*
X86437120Y-133514709D01*
X86348588Y-133264705D01*
X86345191Y-133256854D01*
X86223550Y-133021178D01*
X86219122Y-133013866D01*
X86100031Y-132844417D01*
X86089509Y-132836037D01*
X86076121Y-132843089D01*
X84872022Y-134047188D01*
X84864408Y-134061132D01*
X84134356Y-134061132D01*
X84135592Y-134058868D01*
X84135461Y-134057035D01*
X84131210Y-134050420D01*
X82923814Y-132843024D01*
X82911804Y-132836466D01*
X82900064Y-132845434D01*
X82791935Y-132995911D01*
X82787418Y-133003196D01*
X82663325Y-133237567D01*
X82659839Y-133245395D01*
X82568700Y-133494446D01*
X82566311Y-133502670D01*
X82509812Y-133761795D01*
X82508563Y-133770250D01*
X82487754Y-134034653D01*
X82487665Y-134043204D01*
X81508500Y-134043204D01*
X81508500Y-132511866D01*
X81504224Y-132472500D01*
X83276584Y-132472500D01*
X83282980Y-132483770D01*
X84487188Y-133687978D01*
X84501132Y-133695592D01*
X84502965Y-133695461D01*
X84509580Y-133691210D01*
X85716604Y-132484186D01*
X85723795Y-132471017D01*
X85716473Y-132460780D01*
X85669233Y-132422115D01*
X85662261Y-132417160D01*
X85436122Y-132278582D01*
X85428552Y-132274624D01*
X85185704Y-132168022D01*
X85177644Y-132165120D01*
X84922592Y-132092467D01*
X84914214Y-132090685D01*
X84651656Y-132053318D01*
X84643111Y-132052691D01*
X84377908Y-132051302D01*
X84369374Y-132051839D01*
X84106433Y-132086456D01*
X84098035Y-132088149D01*
X83842238Y-132158127D01*
X83834143Y-132160946D01*
X83590199Y-132264997D01*
X83582577Y-132268881D01*
X83355013Y-132405075D01*
X83347981Y-132409962D01*
X83285053Y-132460377D01*
X83276584Y-132472500D01*
X81504224Y-132472500D01*
X81501745Y-132449684D01*
X81450615Y-132313295D01*
X81363261Y-132196739D01*
X81246705Y-132109385D01*
X81110316Y-132058255D01*
X81048134Y-132051500D01*
X77951866Y-132051500D01*
X77889684Y-132058255D01*
X77753295Y-132109385D01*
X77636739Y-132196739D01*
X77549385Y-132313295D01*
X77498255Y-132449684D01*
X77491500Y-132511866D01*
X77491500Y-135608134D01*
X76008500Y-135608134D01*
X76008500Y-129038918D01*
X77486917Y-129038918D01*
X77502682Y-129312320D01*
X77503507Y-129316525D01*
X77503508Y-129316533D01*
X77524698Y-129424539D01*
X77555405Y-129581053D01*
X77556792Y-129585103D01*
X77556793Y-129585108D01*
X77577605Y-129645895D01*
X77644112Y-129840144D01*
X77767160Y-130084799D01*
X77769586Y-130088328D01*
X77769589Y-130088334D01*
X77898741Y-130276250D01*
X77922274Y-130310490D01*
X78106582Y-130513043D01*
X78316675Y-130688707D01*
X78320316Y-130690991D01*
X78545024Y-130831951D01*
X78545028Y-130831953D01*
X78548664Y-130834234D01*
X78616544Y-130864883D01*
X78794345Y-130945164D01*
X78794349Y-130945166D01*
X78798257Y-130946930D01*
X78802377Y-130948150D01*
X78802376Y-130948150D01*
X79056723Y-131023491D01*
X79056727Y-131023492D01*
X79060836Y-131024709D01*
X79065070Y-131025357D01*
X79065075Y-131025358D01*
X79327298Y-131065483D01*
X79327300Y-131065483D01*
X79331540Y-131066132D01*
X79470912Y-131068322D01*
X79601071Y-131070367D01*
X79601077Y-131070367D01*
X79605362Y-131070434D01*
X79877235Y-131037534D01*
X80142127Y-130968041D01*
X80146087Y-130966401D01*
X80146092Y-130966399D01*
X80268632Y-130915641D01*
X80395136Y-130863241D01*
X80631582Y-130725073D01*
X80727767Y-130649654D01*
X83275618Y-130649654D01*
X83282673Y-130659627D01*
X83313679Y-130685551D01*
X83320598Y-130690579D01*
X83545272Y-130831515D01*
X83552807Y-130835556D01*
X83794520Y-130944694D01*
X83802551Y-130947680D01*
X84056832Y-131023002D01*
X84065184Y-131024869D01*
X84327340Y-131064984D01*
X84335874Y-131065700D01*
X84601045Y-131069867D01*
X84609596Y-131069418D01*
X84872883Y-131037557D01*
X84881284Y-131035955D01*
X85137824Y-130968653D01*
X85145926Y-130965926D01*
X85390949Y-130864434D01*
X85398617Y-130860628D01*
X85627598Y-130726822D01*
X85634679Y-130722009D01*
X85714655Y-130659301D01*
X85723125Y-130647442D01*
X85716608Y-130635818D01*
X84512812Y-129432022D01*
X84498868Y-129424408D01*
X84497035Y-129424539D01*
X84490420Y-129428790D01*
X83282910Y-130636300D01*
X83275618Y-130649654D01*
X80727767Y-130649654D01*
X80847089Y-130556094D01*
X80888809Y-130513043D01*
X81034686Y-130362509D01*
X81037669Y-130359431D01*
X81040202Y-130355983D01*
X81040206Y-130355978D01*
X81197257Y-130142178D01*
X81199795Y-130138723D01*
X81201841Y-130134955D01*
X81328418Y-129901830D01*
X81328419Y-129901828D01*
X81330468Y-129898054D01*
X81427269Y-129641877D01*
X81488407Y-129374933D01*
X81494384Y-129307969D01*
X81512531Y-129104627D01*
X81512532Y-129104616D01*
X81512751Y-129102161D01*
X81513193Y-129060000D01*
X81512048Y-129043204D01*
X82487665Y-129043204D01*
X82502932Y-129307969D01*
X82504005Y-129316470D01*
X82555065Y-129576722D01*
X82557276Y-129584974D01*
X82643184Y-129835894D01*
X82646499Y-129843779D01*
X82765664Y-130080713D01*
X82770020Y-130088079D01*
X82899347Y-130276250D01*
X82909601Y-130284594D01*
X82923342Y-130277448D01*
X84127978Y-129072812D01*
X84134356Y-129061132D01*
X84864408Y-129061132D01*
X84864539Y-129062965D01*
X84868790Y-129069580D01*
X86075730Y-130276520D01*
X86087939Y-130283187D01*
X86099439Y-130274497D01*
X86196831Y-130141913D01*
X86201418Y-130134685D01*
X86327962Y-129901621D01*
X86331530Y-129893827D01*
X86425271Y-129645750D01*
X86427748Y-129637544D01*
X86486954Y-129379038D01*
X86488294Y-129370577D01*
X86512031Y-129104616D01*
X86512277Y-129099677D01*
X86512666Y-129062485D01*
X86512523Y-129057519D01*
X86494362Y-128791123D01*
X86493201Y-128782649D01*
X86439419Y-128522944D01*
X86437120Y-128514709D01*
X86348588Y-128264705D01*
X86345191Y-128256854D01*
X86223550Y-128021178D01*
X86219122Y-128013866D01*
X86100031Y-127844417D01*
X86089509Y-127836037D01*
X86076121Y-127843089D01*
X84872022Y-129047188D01*
X84864408Y-129061132D01*
X84134356Y-129061132D01*
X84135592Y-129058868D01*
X84135461Y-129057035D01*
X84131210Y-129050420D01*
X82923814Y-127843024D01*
X82911804Y-127836466D01*
X82900064Y-127845434D01*
X82791935Y-127995911D01*
X82787418Y-128003196D01*
X82663325Y-128237567D01*
X82659839Y-128245395D01*
X82568700Y-128494446D01*
X82566311Y-128502670D01*
X82509812Y-128761795D01*
X82508563Y-128770250D01*
X82487754Y-129034653D01*
X82487665Y-129043204D01*
X81512048Y-129043204D01*
X81511465Y-129034648D01*
X81494859Y-128791055D01*
X81494858Y-128791049D01*
X81494567Y-128786778D01*
X81439032Y-128518612D01*
X81347617Y-128260465D01*
X81222013Y-128017112D01*
X81212040Y-128002921D01*
X81067008Y-127796562D01*
X81064545Y-127793057D01*
X80878125Y-127592445D01*
X80874810Y-127589731D01*
X80874806Y-127589728D01*
X80731581Y-127472500D01*
X83276584Y-127472500D01*
X83282980Y-127483770D01*
X84487188Y-128687978D01*
X84501132Y-128695592D01*
X84502965Y-128695461D01*
X84509580Y-128691210D01*
X85716604Y-127484186D01*
X85723795Y-127471017D01*
X85716473Y-127460780D01*
X85669233Y-127422115D01*
X85662261Y-127417160D01*
X85436122Y-127278582D01*
X85428552Y-127274624D01*
X85185704Y-127168022D01*
X85177644Y-127165120D01*
X84922592Y-127092467D01*
X84914214Y-127090685D01*
X84651656Y-127053318D01*
X84643111Y-127052691D01*
X84377908Y-127051302D01*
X84369374Y-127051839D01*
X84106433Y-127086456D01*
X84098035Y-127088149D01*
X83842238Y-127158127D01*
X83834143Y-127160946D01*
X83590199Y-127264997D01*
X83582577Y-127268881D01*
X83355013Y-127405075D01*
X83347981Y-127409962D01*
X83285053Y-127460377D01*
X83276584Y-127472500D01*
X80731581Y-127472500D01*
X80669523Y-127421706D01*
X80666205Y-127418990D01*
X80432704Y-127275901D01*
X80428768Y-127274173D01*
X80185873Y-127167549D01*
X80185869Y-127167548D01*
X80181945Y-127165825D01*
X79918566Y-127090800D01*
X79914324Y-127090196D01*
X79914318Y-127090195D01*
X79713834Y-127061662D01*
X79647443Y-127052213D01*
X79503589Y-127051460D01*
X79377877Y-127050802D01*
X79377871Y-127050802D01*
X79373591Y-127050780D01*
X79369347Y-127051339D01*
X79369343Y-127051339D01*
X79250302Y-127067011D01*
X79102078Y-127086525D01*
X79097938Y-127087658D01*
X79097936Y-127087658D01*
X79025008Y-127107609D01*
X78837928Y-127158788D01*
X78833980Y-127160472D01*
X78589982Y-127264546D01*
X78589978Y-127264548D01*
X78586030Y-127266232D01*
X78566125Y-127278145D01*
X78354725Y-127404664D01*
X78354721Y-127404667D01*
X78351043Y-127406868D01*
X78137318Y-127578094D01*
X77948808Y-127776742D01*
X77789002Y-127999136D01*
X77660857Y-128241161D01*
X77659385Y-128245184D01*
X77659383Y-128245188D01*
X77652314Y-128264506D01*
X77566743Y-128498337D01*
X77508404Y-128765907D01*
X77486917Y-129038918D01*
X76008500Y-129038918D01*
X76008500Y-125649654D01*
X78275618Y-125649654D01*
X78282673Y-125659627D01*
X78313679Y-125685551D01*
X78320598Y-125690579D01*
X78545272Y-125831515D01*
X78552807Y-125835556D01*
X78794520Y-125944694D01*
X78802551Y-125947680D01*
X79056832Y-126023002D01*
X79065184Y-126024869D01*
X79327340Y-126064984D01*
X79335874Y-126065700D01*
X79601045Y-126069867D01*
X79609596Y-126069418D01*
X79872883Y-126037557D01*
X79881284Y-126035955D01*
X80137824Y-125968653D01*
X80145926Y-125965926D01*
X80390949Y-125864434D01*
X80398617Y-125860628D01*
X80627598Y-125726822D01*
X80634679Y-125722009D01*
X80714655Y-125659301D01*
X80721545Y-125649654D01*
X83275618Y-125649654D01*
X83282673Y-125659627D01*
X83313679Y-125685551D01*
X83320598Y-125690579D01*
X83545272Y-125831515D01*
X83552807Y-125835556D01*
X83794520Y-125944694D01*
X83802551Y-125947680D01*
X84056832Y-126023002D01*
X84065184Y-126024869D01*
X84327340Y-126064984D01*
X84335874Y-126065700D01*
X84601045Y-126069867D01*
X84609596Y-126069418D01*
X84872883Y-126037557D01*
X84881284Y-126035955D01*
X85137824Y-125968653D01*
X85145926Y-125965926D01*
X85390949Y-125864434D01*
X85398617Y-125860628D01*
X85627598Y-125726822D01*
X85634679Y-125722009D01*
X85714655Y-125659301D01*
X85723125Y-125647442D01*
X85716608Y-125635818D01*
X84512812Y-124432022D01*
X84498868Y-124424408D01*
X84497035Y-124424539D01*
X84490420Y-124428790D01*
X83282910Y-125636300D01*
X83275618Y-125649654D01*
X80721545Y-125649654D01*
X80723125Y-125647442D01*
X80716608Y-125635818D01*
X79512812Y-124432022D01*
X79498868Y-124424408D01*
X79497035Y-124424539D01*
X79490420Y-124428790D01*
X78282910Y-125636300D01*
X78275618Y-125649654D01*
X76008500Y-125649654D01*
X76008500Y-124043204D01*
X77487665Y-124043204D01*
X77502932Y-124307969D01*
X77504005Y-124316470D01*
X77555065Y-124576722D01*
X77557276Y-124584974D01*
X77643184Y-124835894D01*
X77646499Y-124843779D01*
X77765664Y-125080713D01*
X77770020Y-125088079D01*
X77899347Y-125276250D01*
X77909601Y-125284594D01*
X77923342Y-125277448D01*
X79127978Y-124072812D01*
X79134356Y-124061132D01*
X79864408Y-124061132D01*
X79864539Y-124062965D01*
X79868790Y-124069580D01*
X81075730Y-125276520D01*
X81087939Y-125283187D01*
X81099439Y-125274497D01*
X81196831Y-125141913D01*
X81201418Y-125134685D01*
X81327962Y-124901621D01*
X81331530Y-124893827D01*
X81425271Y-124645750D01*
X81427748Y-124637544D01*
X81486954Y-124379038D01*
X81488294Y-124370577D01*
X81512031Y-124104616D01*
X81512277Y-124099677D01*
X81512666Y-124062485D01*
X81512523Y-124057519D01*
X81511547Y-124043204D01*
X82487665Y-124043204D01*
X82502932Y-124307969D01*
X82504005Y-124316470D01*
X82555065Y-124576722D01*
X82557276Y-124584974D01*
X82643184Y-124835894D01*
X82646499Y-124843779D01*
X82765664Y-125080713D01*
X82770020Y-125088079D01*
X82899347Y-125276250D01*
X82909601Y-125284594D01*
X82923342Y-125277448D01*
X84127978Y-124072812D01*
X84134356Y-124061132D01*
X84864408Y-124061132D01*
X84864539Y-124062965D01*
X84868790Y-124069580D01*
X86075730Y-125276520D01*
X86087939Y-125283187D01*
X86099439Y-125274497D01*
X86196831Y-125141913D01*
X86201418Y-125134685D01*
X86327962Y-124901621D01*
X86331530Y-124893827D01*
X86425271Y-124645750D01*
X86427748Y-124637544D01*
X86486954Y-124379038D01*
X86488294Y-124370577D01*
X86512031Y-124104616D01*
X86512277Y-124099677D01*
X86512666Y-124062485D01*
X86512523Y-124057519D01*
X86494362Y-123791123D01*
X86493201Y-123782649D01*
X86439419Y-123522944D01*
X86437120Y-123514709D01*
X86348588Y-123264705D01*
X86345191Y-123256854D01*
X86223550Y-123021178D01*
X86219122Y-123013866D01*
X86100031Y-122844417D01*
X86089509Y-122836037D01*
X86076121Y-122843089D01*
X84872022Y-124047188D01*
X84864408Y-124061132D01*
X84134356Y-124061132D01*
X84135592Y-124058868D01*
X84135461Y-124057035D01*
X84131210Y-124050420D01*
X82923814Y-122843024D01*
X82911804Y-122836466D01*
X82900064Y-122845434D01*
X82791935Y-122995911D01*
X82787418Y-123003196D01*
X82663325Y-123237567D01*
X82659839Y-123245395D01*
X82568700Y-123494446D01*
X82566311Y-123502670D01*
X82509812Y-123761795D01*
X82508563Y-123770250D01*
X82487754Y-124034653D01*
X82487665Y-124043204D01*
X81511547Y-124043204D01*
X81494362Y-123791123D01*
X81493201Y-123782649D01*
X81439419Y-123522944D01*
X81437120Y-123514709D01*
X81348588Y-123264705D01*
X81345191Y-123256854D01*
X81223550Y-123021178D01*
X81219122Y-123013866D01*
X81100031Y-122844417D01*
X81089509Y-122836037D01*
X81076121Y-122843089D01*
X79872022Y-124047188D01*
X79864408Y-124061132D01*
X79134356Y-124061132D01*
X79135592Y-124058868D01*
X79135461Y-124057035D01*
X79131210Y-124050420D01*
X77923814Y-122843024D01*
X77911804Y-122836466D01*
X77900064Y-122845434D01*
X77791935Y-122995911D01*
X77787418Y-123003196D01*
X77663325Y-123237567D01*
X77659839Y-123245395D01*
X77568700Y-123494446D01*
X77566311Y-123502670D01*
X77509812Y-123761795D01*
X77508563Y-123770250D01*
X77487754Y-124034653D01*
X77487665Y-124043204D01*
X76008500Y-124043204D01*
X76008500Y-122472500D01*
X78276584Y-122472500D01*
X78282980Y-122483770D01*
X79487188Y-123687978D01*
X79501132Y-123695592D01*
X79502965Y-123695461D01*
X79509580Y-123691210D01*
X80716604Y-122484186D01*
X80722985Y-122472500D01*
X83276584Y-122472500D01*
X83282980Y-122483770D01*
X84487188Y-123687978D01*
X84501132Y-123695592D01*
X84502965Y-123695461D01*
X84509580Y-123691210D01*
X85716604Y-122484186D01*
X85723795Y-122471017D01*
X85716473Y-122460780D01*
X85669233Y-122422115D01*
X85662261Y-122417160D01*
X85436122Y-122278582D01*
X85428552Y-122274624D01*
X85185704Y-122168022D01*
X85177644Y-122165120D01*
X84922592Y-122092467D01*
X84914214Y-122090685D01*
X84651656Y-122053318D01*
X84643111Y-122052691D01*
X84377908Y-122051302D01*
X84369374Y-122051839D01*
X84106433Y-122086456D01*
X84098035Y-122088149D01*
X83842238Y-122158127D01*
X83834143Y-122160946D01*
X83590199Y-122264997D01*
X83582577Y-122268881D01*
X83355013Y-122405075D01*
X83347981Y-122409962D01*
X83285053Y-122460377D01*
X83276584Y-122472500D01*
X80722985Y-122472500D01*
X80723795Y-122471017D01*
X80716473Y-122460780D01*
X80669233Y-122422115D01*
X80662261Y-122417160D01*
X80436122Y-122278582D01*
X80428552Y-122274624D01*
X80185704Y-122168022D01*
X80177644Y-122165120D01*
X79922592Y-122092467D01*
X79914214Y-122090685D01*
X79651656Y-122053318D01*
X79643111Y-122052691D01*
X79377908Y-122051302D01*
X79369374Y-122051839D01*
X79106433Y-122086456D01*
X79098035Y-122088149D01*
X78842238Y-122158127D01*
X78834143Y-122160946D01*
X78590199Y-122264997D01*
X78582577Y-122268881D01*
X78355013Y-122405075D01*
X78347981Y-122409962D01*
X78285053Y-122460377D01*
X78276584Y-122472500D01*
X76008500Y-122472500D01*
X76008500Y-121119807D01*
X96772001Y-121119807D01*
X96772121Y-121123701D01*
X96774790Y-121166893D01*
X96776126Y-121176472D01*
X96820048Y-121377073D01*
X96823695Y-121388432D01*
X96904306Y-121576059D01*
X96910041Y-121586533D01*
X97024669Y-121755522D01*
X97032282Y-121764724D01*
X97176802Y-121908992D01*
X97186015Y-121916587D01*
X97355206Y-122030922D01*
X97365690Y-122036638D01*
X97553450Y-122116918D01*
X97564821Y-122120547D01*
X97765480Y-122164115D01*
X97775100Y-122165437D01*
X97816387Y-122167890D01*
X97820102Y-122168000D01*
X98257885Y-122168000D01*
X98273124Y-122163525D01*
X98274329Y-122162135D01*
X98276000Y-122154452D01*
X98276000Y-122149884D01*
X98784000Y-122149884D01*
X98788475Y-122165123D01*
X98789865Y-122166328D01*
X98797548Y-122167999D01*
X99239807Y-122167999D01*
X99243701Y-122167879D01*
X99286893Y-122165210D01*
X99296472Y-122163874D01*
X99497073Y-122119952D01*
X99508432Y-122116305D01*
X99696059Y-122035694D01*
X99706533Y-122029959D01*
X99875522Y-121915331D01*
X99884724Y-121907718D01*
X100028992Y-121763198D01*
X100036587Y-121753985D01*
X100150922Y-121584794D01*
X100156638Y-121574310D01*
X100236918Y-121386550D01*
X100240547Y-121375179D01*
X100284115Y-121174520D01*
X100285437Y-121164900D01*
X100287890Y-121123613D01*
X100288000Y-121119898D01*
X100288000Y-119682115D01*
X100283525Y-119666876D01*
X100282135Y-119665671D01*
X100274452Y-119664000D01*
X98802115Y-119664000D01*
X98786876Y-119668475D01*
X98785671Y-119669865D01*
X98784000Y-119677548D01*
X98784000Y-122149884D01*
X98276000Y-122149884D01*
X98276000Y-119682115D01*
X98271525Y-119666876D01*
X98270135Y-119665671D01*
X98262452Y-119664000D01*
X96790116Y-119664000D01*
X96774877Y-119668475D01*
X96773672Y-119669865D01*
X96772001Y-119677548D01*
X96772001Y-121119807D01*
X76008500Y-121119807D01*
X76008500Y-119137885D01*
X96772000Y-119137885D01*
X96776475Y-119153124D01*
X96777865Y-119154329D01*
X96785548Y-119156000D01*
X98257885Y-119156000D01*
X98273124Y-119151525D01*
X98274329Y-119150135D01*
X98276000Y-119142452D01*
X98276000Y-119137885D01*
X98784000Y-119137885D01*
X98788475Y-119153124D01*
X98789865Y-119154329D01*
X98797548Y-119156000D01*
X100269884Y-119156000D01*
X100285123Y-119151525D01*
X100286328Y-119150135D01*
X100287999Y-119142452D01*
X100287999Y-117700194D01*
X100287879Y-117696299D01*
X100285210Y-117653107D01*
X100283874Y-117643528D01*
X100239952Y-117442927D01*
X100236305Y-117431568D01*
X100155694Y-117243941D01*
X100149959Y-117233467D01*
X100035331Y-117064478D01*
X100027718Y-117055276D01*
X99883198Y-116911008D01*
X99873985Y-116903413D01*
X99704794Y-116789078D01*
X99694310Y-116783362D01*
X99506550Y-116703082D01*
X99495179Y-116699453D01*
X99294520Y-116655885D01*
X99284900Y-116654563D01*
X99243613Y-116652110D01*
X99239898Y-116652000D01*
X98802115Y-116652000D01*
X98786876Y-116656475D01*
X98785671Y-116657865D01*
X98784000Y-116665548D01*
X98784000Y-119137885D01*
X98276000Y-119137885D01*
X98276000Y-116670116D01*
X98271525Y-116654877D01*
X98270135Y-116653672D01*
X98262452Y-116652001D01*
X97820194Y-116652001D01*
X97816299Y-116652121D01*
X97773107Y-116654790D01*
X97763528Y-116656126D01*
X97562927Y-116700048D01*
X97551568Y-116703695D01*
X97363941Y-116784306D01*
X97353467Y-116790041D01*
X97184478Y-116904669D01*
X97175276Y-116912282D01*
X97031008Y-117056802D01*
X97023413Y-117066015D01*
X96909078Y-117235206D01*
X96903362Y-117245690D01*
X96823082Y-117433450D01*
X96819453Y-117444821D01*
X96775885Y-117645480D01*
X96774563Y-117655100D01*
X96772110Y-117696387D01*
X96772000Y-117700102D01*
X96772000Y-119137885D01*
X76008500Y-119137885D01*
X76008500Y-112617300D01*
X76028502Y-112549179D01*
X76082158Y-112502686D01*
X76134500Y-112491300D01*
X103226065Y-112491300D01*
X103294186Y-112511302D01*
G37*
%TD.AperFunction*%
%TD*%
M02*
