%TF.GenerationSoftware,KiCad,Pcbnew,(6.0.9-0)*%
%TF.CreationDate,2022-11-28T12:31:09+01:00*%
%TF.ProjectId,Hlabs motor cotrol cnc proto,486c6162-7320-46d6-9f74-6f7220636f74,rev?*%
%TF.SameCoordinates,Original*%
%TF.FileFunction,Legend,Bot*%
%TF.FilePolarity,Positive*%
%FSLAX46Y46*%
G04 Gerber Fmt 4.6, Leading zero omitted, Abs format (unit mm)*
G04 Created by KiCad (PCBNEW (6.0.9-0)) date 2022-11-28 12:31:09*
%MOMM*%
%LPD*%
G01*
G04 APERTURE LIST*
%ADD10C,0.150000*%
%ADD11C,0.120000*%
G04 APERTURE END LIST*
D10*
%TO.C,RV1*%
X80095237Y-119312381D02*
X80428570Y-118836191D01*
X80666665Y-119312381D02*
X80666665Y-118312381D01*
X80285713Y-118312381D01*
X80190475Y-118360001D01*
X80142856Y-118407620D01*
X80095237Y-118502858D01*
X80095237Y-118645715D01*
X80142856Y-118740953D01*
X80190475Y-118788572D01*
X80285713Y-118836191D01*
X80666665Y-118836191D01*
X79809522Y-118312381D02*
X79476189Y-119312381D01*
X79142856Y-118312381D01*
X78285713Y-119312381D02*
X78857141Y-119312381D01*
X78571427Y-119312381D02*
X78571427Y-118312381D01*
X78666665Y-118455239D01*
X78761903Y-118550477D01*
X78857141Y-118598096D01*
D11*
X75580000Y-132680000D02*
X70580000Y-132680000D01*
X87920000Y-138130000D02*
X75580000Y-138130000D01*
X60580000Y-125940000D02*
X60580000Y-132180000D01*
X75580000Y-125440000D02*
X70580000Y-125440000D01*
X75580000Y-119990000D02*
X75580000Y-138130000D01*
X70580000Y-125940000D02*
X60580000Y-125940000D01*
X87920000Y-119990000D02*
X87920000Y-138130000D01*
X70580000Y-132180000D02*
X60580000Y-132180000D01*
X70580000Y-125440000D02*
X70580000Y-132680000D01*
X87920000Y-119990000D02*
X75580000Y-119990000D01*
%TD*%
M02*
