%TF.GenerationSoftware,KiCad,Pcbnew,(6.0.9-0)*%
%TF.CreationDate,2022-12-01T16:18:30+01:00*%
%TF.ProjectId,Hlabs motor cotrol,486c6162-7320-46d6-9f74-6f7220636f74,rev?*%
%TF.SameCoordinates,Original*%
%TF.FileFunction,Copper,L2,Bot*%
%TF.FilePolarity,Positive*%
%FSLAX46Y46*%
G04 Gerber Fmt 4.6, Leading zero omitted, Abs format (unit mm)*
G04 Created by KiCad (PCBNEW (6.0.9-0)) date 2022-12-01 16:18:30*
%MOMM*%
%LPD*%
G01*
G04 APERTURE LIST*
G04 Aperture macros list*
%AMRoundRect*
0 Rectangle with rounded corners*
0 $1 Rounding radius*
0 $2 $3 $4 $5 $6 $7 $8 $9 X,Y pos of 4 corners*
0 Add a 4 corners polygon primitive as box body*
4,1,4,$2,$3,$4,$5,$6,$7,$8,$9,$2,$3,0*
0 Add four circle primitives for the rounded corners*
1,1,$1+$1,$2,$3*
1,1,$1+$1,$4,$5*
1,1,$1+$1,$6,$7*
1,1,$1+$1,$8,$9*
0 Add four rect primitives between the rounded corners*
20,1,$1+$1,$2,$3,$4,$5,0*
20,1,$1+$1,$4,$5,$6,$7,0*
20,1,$1+$1,$6,$7,$8,$9,0*
20,1,$1+$1,$8,$9,$2,$3,0*%
G04 Aperture macros list end*
%TA.AperFunction,ComponentPad*%
%ADD10C,0.300000*%
%TD*%
%TA.AperFunction,ComponentPad*%
%ADD11C,0.508000*%
%TD*%
%TA.AperFunction,ComponentPad*%
%ADD12RoundRect,0.250000X0.600000X-0.600000X0.600000X0.600000X-0.600000X0.600000X-0.600000X-0.600000X0*%
%TD*%
%TA.AperFunction,ComponentPad*%
%ADD13C,1.700000*%
%TD*%
%TA.AperFunction,ComponentPad*%
%ADD14C,0.630000*%
%TD*%
%TA.AperFunction,SMDPad,CuDef*%
%ADD15R,3.300000X2.600000*%
%TD*%
%TA.AperFunction,ComponentPad*%
%ADD16R,3.000000X3.000000*%
%TD*%
%TA.AperFunction,ComponentPad*%
%ADD17C,3.000000*%
%TD*%
%TA.AperFunction,ComponentPad*%
%ADD18RoundRect,0.625000X-0.625000X1.625000X-0.625000X-1.625000X0.625000X-1.625000X0.625000X1.625000X0*%
%TD*%
%TA.AperFunction,ViaPad*%
%ADD19C,0.800000*%
%TD*%
%TA.AperFunction,Conductor*%
%ADD20C,0.250000*%
%TD*%
G04 APERTURE END LIST*
D10*
%TO.P,REF\u002A\u002A,12*%
%TO.N,GND*%
X114312937Y-125234483D03*
%TO.P,REF\u002A\u002A,13*%
X113362937Y-124659483D03*
%TO.P,REF\u002A\u002A,14*%
X113362937Y-125809483D03*
%TO.P,REF\u002A\u002A,15*%
X112412937Y-125234483D03*
%TD*%
D11*
%TO.P,U1,V*%
%TO.N,GND*%
X112969237Y-124840783D03*
X113756637Y-125628183D03*
X112969237Y-125628183D03*
X113756637Y-124840783D03*
%TD*%
D12*
%TO.P,J1,1,Pin_1*%
%TO.N,GND*%
X107940000Y-137252500D03*
D13*
%TO.P,J1,2,Pin_2*%
%TO.N,/VMOT*%
X107940000Y-134712500D03*
%TO.P,J1,3,Pin_3*%
%TO.N,GND*%
X110480000Y-137252500D03*
%TO.P,J1,4,Pin_4*%
%TO.N,/VMOT*%
X110480000Y-134712500D03*
%TO.P,J1,5,Pin_5*%
%TO.N,pot_cmd*%
X113020000Y-137252500D03*
%TO.P,J1,6,Pin_6*%
%TO.N,+5V*%
X113020000Y-134712500D03*
%TO.P,J1,7,Pin_7*%
%TO.N,I2C SDA*%
X115560000Y-137252500D03*
%TO.P,J1,8,Pin_8*%
%TO.N,I2C SCL*%
X115560000Y-134712500D03*
%TD*%
D14*
%TO.P,U2,9,GND*%
%TO.N,GND1*%
X90000000Y-128900000D03*
X88700000Y-128900000D03*
X91300000Y-127600000D03*
D15*
X90000000Y-128250000D03*
D14*
X88700000Y-127600000D03*
X90000000Y-127600000D03*
X91300000Y-128900000D03*
%TD*%
D16*
%TO.P,RV1,1,1*%
%TO.N,+5V*%
X79500000Y-134000000D03*
D17*
%TO.P,RV1,2,2*%
%TO.N,pot_cmd*%
X79500000Y-129000000D03*
%TO.P,RV1,3,3*%
%TO.N,GND*%
X79500000Y-124000000D03*
%TO.P,RV1,4*%
X84500000Y-134000000D03*
%TO.P,RV1,5*%
X84500000Y-129000000D03*
%TO.P,RV1,6*%
X84500000Y-124000000D03*
D18*
%TO.P,RV1,GND*%
X98530000Y-119350000D03*
X98510000Y-134570000D03*
D17*
%TO.P,RV1,M+,M+*%
%TO.N,/M+*%
X119660000Y-124680000D03*
%TO.P,RV1,M-,M-*%
%TO.N,Net-(RV1-PadM-)*%
X119620000Y-134080000D03*
%TD*%
D19*
%TO.N,GND*%
X108750000Y-131750000D03*
X78600000Y-138600000D03*
X122160000Y-137940000D03*
X111820000Y-128430000D03*
X115350000Y-122970000D03*
X116510000Y-128470000D03*
%TO.N,I2C SDA*%
X114102133Y-129353291D03*
%TO.N,I2C SCL*%
X115100888Y-129391934D03*
%TO.N,Net-(U1-Pad1)*%
X90200000Y-133474500D03*
X114591999Y-121827158D03*
%TO.N,Net-(U1-Pad3)*%
X89000000Y-133500000D03*
X113320497Y-120930000D03*
%TO.N,GND1*%
X86750000Y-131500000D03*
X103500000Y-121975500D03*
X93500000Y-126250000D03*
X86750000Y-119000000D03*
X86800000Y-122750000D03*
X86750000Y-125250000D03*
X93750000Y-130250000D03*
X86750000Y-128250000D03*
X89500000Y-119000000D03*
X93750000Y-131500000D03*
X93200000Y-120400000D03*
%TD*%
D20*
%TO.N,pot_cmd*%
X76920000Y-135800000D02*
X80930000Y-139810000D01*
X110462500Y-139810000D02*
X113020000Y-137252500D01*
X79500000Y-129000000D02*
X76920000Y-131580000D01*
X80930000Y-139810000D02*
X110462500Y-139810000D01*
X76920000Y-131580000D02*
X76920000Y-135800000D01*
%TO.N,I2C SDA*%
X115560000Y-137252500D02*
X114280000Y-135972500D01*
X114280000Y-129531158D02*
X114102133Y-129353291D01*
X114280000Y-135972500D02*
X114280000Y-129531158D01*
%TO.N,I2C SCL*%
X115560000Y-134712500D02*
X115560000Y-129851046D01*
X115560000Y-129851046D02*
X115100888Y-129391934D01*
%TO.N,Net-(U1-Pad1)*%
X93636591Y-133474500D02*
X95661091Y-131450000D01*
X111582842Y-121827158D02*
X114591999Y-121827158D01*
X95661091Y-131450000D02*
X101960000Y-131450000D01*
X101960000Y-131450000D02*
X111582842Y-121827158D01*
X90200000Y-133474500D02*
X93636591Y-133474500D01*
%TO.N,Net-(U1-Pad3)*%
X90150707Y-132349293D02*
X89000000Y-133500000D01*
X101773604Y-131000000D02*
X95474695Y-131000000D01*
X95474695Y-131000000D02*
X94125402Y-132349293D01*
X113320497Y-120930000D02*
X113250497Y-120860000D01*
X94125402Y-132349293D02*
X90150707Y-132349293D01*
X113304483Y-121195517D02*
X111578087Y-121195517D01*
X111578087Y-121195517D02*
X101773604Y-131000000D01*
%TD*%
%TA.AperFunction,Conductor*%
%TO.N,GND1*%
G36*
X109574188Y-112511302D02*
G01*
X109620681Y-112564958D01*
X109630785Y-112635232D01*
X109627865Y-112649566D01*
X106175239Y-125678344D01*
X106142540Y-125735160D01*
X103696538Y-128181161D01*
X101548104Y-130329595D01*
X101485792Y-130363621D01*
X101459009Y-130366500D01*
X95553458Y-130366500D01*
X95542274Y-130365973D01*
X95534786Y-130364299D01*
X95526863Y-130364548D01*
X95466728Y-130366438D01*
X95462770Y-130366500D01*
X95434839Y-130366500D01*
X95430924Y-130366995D01*
X95430920Y-130366995D01*
X95430862Y-130367003D01*
X95430833Y-130367006D01*
X95418991Y-130367939D01*
X95374805Y-130369327D01*
X95357439Y-130374372D01*
X95355353Y-130374978D01*
X95336001Y-130378986D01*
X95323763Y-130380532D01*
X95323761Y-130380533D01*
X95315898Y-130381526D01*
X95274781Y-130397806D01*
X95263580Y-130401641D01*
X95221101Y-130413982D01*
X95214282Y-130418015D01*
X95214277Y-130418017D01*
X95203666Y-130424293D01*
X95185916Y-130432990D01*
X95167078Y-130440448D01*
X95160662Y-130445109D01*
X95160661Y-130445110D01*
X95131320Y-130466428D01*
X95121396Y-130472947D01*
X95090155Y-130491422D01*
X95090150Y-130491426D01*
X95083332Y-130495458D01*
X95069008Y-130509782D01*
X95053976Y-130522621D01*
X95037588Y-130534528D01*
X95009407Y-130568593D01*
X95001417Y-130577373D01*
X93899902Y-131678888D01*
X93837590Y-131712914D01*
X93810807Y-131715793D01*
X90229470Y-131715793D01*
X90218286Y-131715266D01*
X90210798Y-131713592D01*
X90202875Y-131713841D01*
X90142740Y-131715731D01*
X90138782Y-131715793D01*
X90110851Y-131715793D01*
X90106936Y-131716288D01*
X90106932Y-131716288D01*
X90106874Y-131716296D01*
X90106845Y-131716299D01*
X90095003Y-131717232D01*
X90050817Y-131718620D01*
X90033451Y-131723665D01*
X90031365Y-131724271D01*
X90012013Y-131728279D01*
X89999775Y-131729825D01*
X89999773Y-131729826D01*
X89991910Y-131730819D01*
X89950793Y-131747099D01*
X89939592Y-131750934D01*
X89897113Y-131763275D01*
X89890294Y-131767308D01*
X89890289Y-131767310D01*
X89879678Y-131773586D01*
X89861928Y-131782283D01*
X89843090Y-131789741D01*
X89836674Y-131794402D01*
X89836673Y-131794403D01*
X89807332Y-131815721D01*
X89797408Y-131822240D01*
X89766167Y-131840715D01*
X89766162Y-131840719D01*
X89759344Y-131844751D01*
X89745020Y-131859075D01*
X89729988Y-131871914D01*
X89713600Y-131883821D01*
X89695024Y-131906276D01*
X89685419Y-131917886D01*
X89677429Y-131926666D01*
X89641000Y-131963095D01*
X89578688Y-131997121D01*
X89551905Y-132000000D01*
X86126000Y-132000000D01*
X86057879Y-131979998D01*
X86011386Y-131926342D01*
X86000000Y-131874000D01*
X86000000Y-130389337D01*
X86020002Y-130321216D01*
X86032110Y-130305946D01*
X86031918Y-130305783D01*
X86034678Y-130302518D01*
X86037669Y-130299431D01*
X86199795Y-130078723D01*
X86212609Y-130055123D01*
X86328418Y-129841830D01*
X86328419Y-129841828D01*
X86330468Y-129838054D01*
X86419858Y-129601490D01*
X86422436Y-129594669D01*
X87842001Y-129594669D01*
X87842371Y-129601490D01*
X87847895Y-129652352D01*
X87851521Y-129667604D01*
X87896676Y-129788054D01*
X87905214Y-129803649D01*
X87981715Y-129905724D01*
X87994276Y-129918285D01*
X88096351Y-129994786D01*
X88111946Y-130003324D01*
X88232394Y-130048478D01*
X88247649Y-130052105D01*
X88298514Y-130057631D01*
X88305328Y-130058000D01*
X89727885Y-130058000D01*
X89743124Y-130053525D01*
X89744329Y-130052135D01*
X89746000Y-130044452D01*
X89746000Y-130039884D01*
X90254000Y-130039884D01*
X90258475Y-130055123D01*
X90259865Y-130056328D01*
X90267548Y-130057999D01*
X91694669Y-130057999D01*
X91701490Y-130057629D01*
X91752352Y-130052105D01*
X91767604Y-130048479D01*
X91888054Y-130003324D01*
X91903649Y-129994786D01*
X92005724Y-129918285D01*
X92018285Y-129905724D01*
X92094786Y-129803649D01*
X92103324Y-129788054D01*
X92148478Y-129667606D01*
X92152105Y-129652351D01*
X92157631Y-129601486D01*
X92158000Y-129594672D01*
X92158000Y-128522115D01*
X92153525Y-128506876D01*
X92152135Y-128505671D01*
X92144452Y-128504000D01*
X92073325Y-128504000D01*
X92047680Y-128511530D01*
X91389095Y-129170115D01*
X91326783Y-129204141D01*
X91255968Y-129199076D01*
X91210905Y-129170115D01*
X90662812Y-128622022D01*
X90648868Y-128614408D01*
X90647035Y-128614539D01*
X90640420Y-128618790D01*
X90266812Y-128992398D01*
X90254000Y-129015860D01*
X90254000Y-130039884D01*
X89746000Y-130039884D01*
X89746000Y-129023325D01*
X89738470Y-128997680D01*
X89362812Y-128622022D01*
X89348868Y-128614408D01*
X89347035Y-128614539D01*
X89340420Y-128618790D01*
X88789095Y-129170115D01*
X88726783Y-129204141D01*
X88655968Y-129199076D01*
X88610905Y-129170115D01*
X87957602Y-128516812D01*
X87940068Y-128507237D01*
X88670300Y-128507237D01*
X88673538Y-128514328D01*
X88687188Y-128527978D01*
X88701132Y-128535592D01*
X88702965Y-128535461D01*
X88709580Y-128531210D01*
X88723978Y-128516812D01*
X88729206Y-128507237D01*
X91270300Y-128507237D01*
X91273538Y-128514328D01*
X91287188Y-128527978D01*
X91301132Y-128535592D01*
X91302965Y-128535461D01*
X91309580Y-128531210D01*
X91323978Y-128516812D01*
X91329487Y-128506723D01*
X91322186Y-128504000D01*
X91281325Y-128504000D01*
X91270300Y-128507237D01*
X88729206Y-128507237D01*
X88729487Y-128506723D01*
X88722186Y-128504000D01*
X88681325Y-128504000D01*
X88670300Y-128507237D01*
X87940068Y-128507237D01*
X87934140Y-128504000D01*
X87860116Y-128504000D01*
X87844877Y-128508475D01*
X87843672Y-128509865D01*
X87842001Y-128517548D01*
X87842001Y-129594669D01*
X86422436Y-129594669D01*
X86425751Y-129585895D01*
X86425752Y-129585891D01*
X86427269Y-129581877D01*
X86478290Y-129359107D01*
X86487449Y-129319117D01*
X86487450Y-129319113D01*
X86488407Y-129314933D01*
X86512751Y-129042161D01*
X86512949Y-129023325D01*
X86513167Y-129002484D01*
X86513167Y-129002483D01*
X86513193Y-129000000D01*
X86494567Y-128726778D01*
X86439032Y-128458612D01*
X86347617Y-128200465D01*
X86239775Y-127991525D01*
X86232735Y-127977885D01*
X87842000Y-127977885D01*
X87846475Y-127993124D01*
X87847865Y-127994329D01*
X87855548Y-127996000D01*
X87926675Y-127996000D01*
X87935949Y-127993277D01*
X88670513Y-127993277D01*
X88677814Y-127996000D01*
X88718675Y-127996000D01*
X88727949Y-127993277D01*
X91270513Y-127993277D01*
X91277814Y-127996000D01*
X91318675Y-127996000D01*
X91329700Y-127992763D01*
X91326462Y-127985672D01*
X91312812Y-127972022D01*
X91298868Y-127964408D01*
X91297035Y-127964539D01*
X91290420Y-127968790D01*
X91276022Y-127983188D01*
X91270513Y-127993277D01*
X88727949Y-127993277D01*
X88729700Y-127992763D01*
X88726462Y-127985672D01*
X88712812Y-127972022D01*
X88698868Y-127964408D01*
X88697035Y-127964539D01*
X88690420Y-127968790D01*
X88676022Y-127983188D01*
X88670513Y-127993277D01*
X87935949Y-127993277D01*
X87952320Y-127988470D01*
X88610905Y-127329885D01*
X88673217Y-127295859D01*
X88744032Y-127300924D01*
X88789095Y-127329885D01*
X89337188Y-127877978D01*
X89351132Y-127885592D01*
X89352965Y-127885461D01*
X89359580Y-127881210D01*
X89733188Y-127507602D01*
X89746000Y-127484140D01*
X89746000Y-127476675D01*
X90254000Y-127476675D01*
X90261530Y-127502320D01*
X90637188Y-127877978D01*
X90651132Y-127885592D01*
X90652965Y-127885461D01*
X90659580Y-127881210D01*
X91210905Y-127329885D01*
X91273217Y-127295859D01*
X91344032Y-127300924D01*
X91389095Y-127329885D01*
X92042398Y-127983188D01*
X92065860Y-127996000D01*
X92139884Y-127996000D01*
X92155123Y-127991525D01*
X92156328Y-127990135D01*
X92157999Y-127982452D01*
X92157999Y-126905331D01*
X92157629Y-126898510D01*
X92152105Y-126847648D01*
X92148479Y-126832396D01*
X92103324Y-126711946D01*
X92094786Y-126696351D01*
X92018285Y-126594276D01*
X92005724Y-126581715D01*
X91903649Y-126505214D01*
X91888054Y-126496676D01*
X91767606Y-126451522D01*
X91752351Y-126447895D01*
X91701486Y-126442369D01*
X91694672Y-126442000D01*
X90272115Y-126442000D01*
X90256876Y-126446475D01*
X90255671Y-126447865D01*
X90254000Y-126455548D01*
X90254000Y-127476675D01*
X89746000Y-127476675D01*
X89746000Y-126460116D01*
X89741525Y-126444877D01*
X89740135Y-126443672D01*
X89732452Y-126442001D01*
X88305331Y-126442001D01*
X88298510Y-126442371D01*
X88247648Y-126447895D01*
X88232396Y-126451521D01*
X88111946Y-126496676D01*
X88096351Y-126505214D01*
X87994276Y-126581715D01*
X87981715Y-126594276D01*
X87905214Y-126696351D01*
X87896676Y-126711946D01*
X87851522Y-126832394D01*
X87847895Y-126847649D01*
X87842369Y-126898514D01*
X87842000Y-126905328D01*
X87842000Y-127977885D01*
X86232735Y-127977885D01*
X86223978Y-127960919D01*
X86223978Y-127960918D01*
X86222013Y-127957112D01*
X86209380Y-127939136D01*
X86067012Y-127736567D01*
X86067011Y-127736566D01*
X86064545Y-127733057D01*
X86061619Y-127729908D01*
X86033700Y-127699863D01*
X86001981Y-127636346D01*
X86000000Y-127614092D01*
X86000000Y-125389337D01*
X86020002Y-125321216D01*
X86032110Y-125305946D01*
X86031918Y-125305783D01*
X86034678Y-125302518D01*
X86037669Y-125299431D01*
X86199795Y-125078723D01*
X86201841Y-125074955D01*
X86328418Y-124841830D01*
X86328419Y-124841828D01*
X86330468Y-124838054D01*
X86427269Y-124581877D01*
X86488407Y-124314933D01*
X86512751Y-124042161D01*
X86513193Y-124000000D01*
X86494567Y-123726778D01*
X86439032Y-123458612D01*
X86347617Y-123200465D01*
X86222013Y-122957112D01*
X86209380Y-122939136D01*
X86067012Y-122736567D01*
X86067011Y-122736566D01*
X86064545Y-122733057D01*
X86061619Y-122729908D01*
X86033700Y-122699863D01*
X86001981Y-122636346D01*
X86000000Y-122614092D01*
X86000000Y-121061784D01*
X96771500Y-121061784D01*
X96774591Y-121111795D01*
X96820852Y-121323082D01*
X96906232Y-121521809D01*
X97027650Y-121700807D01*
X97103626Y-121776650D01*
X97176479Y-121849376D01*
X97176482Y-121849379D01*
X97180726Y-121853615D01*
X97359935Y-121974721D01*
X97558811Y-122059754D01*
X97564671Y-122061026D01*
X97564670Y-122061026D01*
X97765416Y-122104612D01*
X97765418Y-122104612D01*
X97770179Y-122105646D01*
X97780610Y-122106266D01*
X97816360Y-122108390D01*
X97816369Y-122108390D01*
X97818216Y-122108500D01*
X99241784Y-122108500D01*
X99291795Y-122105409D01*
X99503082Y-122059148D01*
X99701809Y-121973768D01*
X99880807Y-121852350D01*
X99956650Y-121776374D01*
X100029376Y-121703521D01*
X100029379Y-121703518D01*
X100033615Y-121699274D01*
X100154721Y-121520065D01*
X100239754Y-121321189D01*
X100285646Y-121109821D01*
X100288500Y-121061784D01*
X100288500Y-117638216D01*
X100285409Y-117588205D01*
X100239148Y-117376918D01*
X100153768Y-117178191D01*
X100032350Y-116999193D01*
X99884801Y-116851902D01*
X99883521Y-116850624D01*
X99883518Y-116850621D01*
X99879274Y-116846385D01*
X99700065Y-116725279D01*
X99501189Y-116640246D01*
X99410852Y-116620632D01*
X99294584Y-116595388D01*
X99294582Y-116595388D01*
X99289821Y-116594354D01*
X99279390Y-116593734D01*
X99243640Y-116591610D01*
X99243631Y-116591610D01*
X99241784Y-116591500D01*
X97818216Y-116591500D01*
X97768205Y-116594591D01*
X97556918Y-116640852D01*
X97358191Y-116726232D01*
X97179193Y-116847650D01*
X97103350Y-116923626D01*
X97030624Y-116996479D01*
X97030621Y-116996482D01*
X97026385Y-117000726D01*
X96905279Y-117179935D01*
X96820246Y-117378811D01*
X96774354Y-117590179D01*
X96771500Y-117638216D01*
X96771500Y-121061784D01*
X86000000Y-121061784D01*
X86000000Y-120000000D01*
X76134500Y-120000000D01*
X76066379Y-119979998D01*
X76019886Y-119926342D01*
X76008500Y-119874000D01*
X76008500Y-112617300D01*
X76028502Y-112549179D01*
X76082158Y-112502686D01*
X76134500Y-112491300D01*
X109506067Y-112491300D01*
X109574188Y-112511302D01*
G37*
%TD.AperFunction*%
%TD*%
%TA.AperFunction,Conductor*%
%TO.N,GND*%
G36*
X128543421Y-112511302D02*
G01*
X128589914Y-112564958D01*
X128601300Y-112617300D01*
X128601300Y-140365500D01*
X128581298Y-140433621D01*
X128527642Y-140480114D01*
X128475300Y-140491500D01*
X110986349Y-140491500D01*
X110918228Y-140471498D01*
X110871735Y-140417842D01*
X110861631Y-140347568D01*
X110891125Y-140282988D01*
X110895431Y-140278506D01*
X110899607Y-140275472D01*
X110927798Y-140241395D01*
X110935788Y-140232616D01*
X112564549Y-138603855D01*
X112626861Y-138569829D01*
X112678762Y-138569479D01*
X112858597Y-138606067D01*
X112863772Y-138606257D01*
X112863774Y-138606257D01*
X113076673Y-138614064D01*
X113076677Y-138614064D01*
X113081837Y-138614253D01*
X113086957Y-138613597D01*
X113086959Y-138613597D01*
X113298288Y-138586525D01*
X113298289Y-138586525D01*
X113303416Y-138585868D01*
X113308366Y-138584383D01*
X113512429Y-138523161D01*
X113512434Y-138523159D01*
X113517384Y-138521674D01*
X113717994Y-138423396D01*
X113899860Y-138293673D01*
X114058096Y-138135989D01*
X114188453Y-137954577D01*
X114189776Y-137955528D01*
X114236645Y-137912357D01*
X114306580Y-137900125D01*
X114372026Y-137927644D01*
X114399875Y-137959494D01*
X114459987Y-138057588D01*
X114606250Y-138226438D01*
X114778126Y-138369132D01*
X114971000Y-138481838D01*
X115179692Y-138561530D01*
X115184760Y-138562561D01*
X115184763Y-138562562D01*
X115292017Y-138584383D01*
X115398597Y-138606067D01*
X115403772Y-138606257D01*
X115403774Y-138606257D01*
X115616673Y-138614064D01*
X115616677Y-138614064D01*
X115621837Y-138614253D01*
X115626957Y-138613597D01*
X115626959Y-138613597D01*
X115838288Y-138586525D01*
X115838289Y-138586525D01*
X115843416Y-138585868D01*
X115848366Y-138584383D01*
X116052429Y-138523161D01*
X116052434Y-138523159D01*
X116057384Y-138521674D01*
X116257994Y-138423396D01*
X116439860Y-138293673D01*
X116598096Y-138135989D01*
X116728453Y-137954577D01*
X116749320Y-137912357D01*
X116825136Y-137758953D01*
X116825137Y-137758951D01*
X116827430Y-137754311D01*
X116892370Y-137540569D01*
X116921529Y-137319090D01*
X116922485Y-137279952D01*
X116923074Y-137255865D01*
X116923074Y-137255861D01*
X116923156Y-137252500D01*
X116904852Y-137029861D01*
X116850431Y-136813202D01*
X116761354Y-136608340D01*
X116714024Y-136535179D01*
X116642822Y-136425117D01*
X116642820Y-136425114D01*
X116640014Y-136420777D01*
X116489670Y-136255551D01*
X116485619Y-136252352D01*
X116485615Y-136252348D01*
X116318414Y-136120300D01*
X116318410Y-136120298D01*
X116314359Y-136117098D01*
X116273053Y-136094296D01*
X116223084Y-136043864D01*
X116208312Y-135974421D01*
X116233428Y-135908016D01*
X116260780Y-135881409D01*
X116319035Y-135839856D01*
X116439860Y-135753673D01*
X116445718Y-135747836D01*
X116563385Y-135630579D01*
X116598096Y-135595989D01*
X116634939Y-135544717D01*
X116725435Y-135418777D01*
X116728453Y-135414577D01*
X116749320Y-135372357D01*
X116825136Y-135218953D01*
X116825137Y-135218951D01*
X116827430Y-135214311D01*
X116892370Y-135000569D01*
X116921529Y-134779090D01*
X116923156Y-134712500D01*
X116904852Y-134489861D01*
X116850431Y-134273202D01*
X116761354Y-134068340D01*
X116755259Y-134058918D01*
X117606917Y-134058918D01*
X117622682Y-134332320D01*
X117623507Y-134336525D01*
X117623508Y-134336533D01*
X117637628Y-134408500D01*
X117675405Y-134601053D01*
X117676792Y-134605103D01*
X117676793Y-134605108D01*
X117757770Y-134841621D01*
X117764112Y-134860144D01*
X117787812Y-134907267D01*
X117875650Y-135081913D01*
X117887160Y-135104799D01*
X117889586Y-135108328D01*
X117889589Y-135108334D01*
X117963944Y-135216520D01*
X118042274Y-135330490D01*
X118045161Y-135333663D01*
X118045162Y-135333664D01*
X118123261Y-135419494D01*
X118226582Y-135533043D01*
X118229877Y-135535798D01*
X118229878Y-135535799D01*
X118274382Y-135573010D01*
X118436675Y-135708707D01*
X118440316Y-135710991D01*
X118665024Y-135851951D01*
X118665028Y-135851953D01*
X118668664Y-135854234D01*
X118752240Y-135891970D01*
X118914345Y-135965164D01*
X118914349Y-135965166D01*
X118918257Y-135966930D01*
X118967931Y-135981644D01*
X119176723Y-136043491D01*
X119176727Y-136043492D01*
X119180836Y-136044709D01*
X119185070Y-136045357D01*
X119185075Y-136045358D01*
X119447298Y-136085483D01*
X119447300Y-136085483D01*
X119451540Y-136086132D01*
X119590912Y-136088322D01*
X119721071Y-136090367D01*
X119721077Y-136090367D01*
X119725362Y-136090434D01*
X119997235Y-136057534D01*
X120262127Y-135988041D01*
X120266087Y-135986401D01*
X120266092Y-135986399D01*
X120427988Y-135919339D01*
X120515136Y-135883241D01*
X120706332Y-135771515D01*
X120747879Y-135747237D01*
X120747880Y-135747236D01*
X120751582Y-135745073D01*
X120967089Y-135576094D01*
X120990893Y-135551531D01*
X121119540Y-135418777D01*
X121157669Y-135379431D01*
X121160202Y-135375983D01*
X121160206Y-135375978D01*
X121317257Y-135162178D01*
X121319795Y-135158723D01*
X121338146Y-135124925D01*
X121448418Y-134921830D01*
X121448419Y-134921828D01*
X121450468Y-134918054D01*
X121547269Y-134661877D01*
X121608407Y-134394933D01*
X121609595Y-134381628D01*
X121632531Y-134124627D01*
X121632531Y-134124625D01*
X121632751Y-134122161D01*
X121632900Y-134108000D01*
X121633167Y-134082484D01*
X121633167Y-134082483D01*
X121633193Y-134080000D01*
X121630730Y-134043875D01*
X121614859Y-133811055D01*
X121614858Y-133811049D01*
X121614567Y-133806778D01*
X121598900Y-133731123D01*
X121563899Y-133562112D01*
X121559032Y-133538612D01*
X121467617Y-133280465D01*
X121342013Y-133037112D01*
X121332040Y-133022921D01*
X121217673Y-132860194D01*
X121184545Y-132813057D01*
X121031401Y-132648254D01*
X121001046Y-132615588D01*
X121001043Y-132615585D01*
X120998125Y-132612445D01*
X120994810Y-132609731D01*
X120994806Y-132609728D01*
X120789523Y-132441706D01*
X120786205Y-132438990D01*
X120552704Y-132295901D01*
X120548768Y-132294173D01*
X120305873Y-132187549D01*
X120305869Y-132187548D01*
X120301945Y-132185825D01*
X120038566Y-132110800D01*
X120034324Y-132110196D01*
X120034318Y-132110195D01*
X119826885Y-132080673D01*
X119767443Y-132072213D01*
X119623589Y-132071460D01*
X119497877Y-132070802D01*
X119497871Y-132070802D01*
X119493591Y-132070780D01*
X119489347Y-132071339D01*
X119489343Y-132071339D01*
X119418445Y-132080673D01*
X119222078Y-132106525D01*
X119217938Y-132107658D01*
X119217936Y-132107658D01*
X119145008Y-132127609D01*
X118957928Y-132178788D01*
X118953980Y-132180472D01*
X118709982Y-132284546D01*
X118709978Y-132284548D01*
X118706030Y-132286232D01*
X118686125Y-132298145D01*
X118474725Y-132424664D01*
X118474721Y-132424667D01*
X118471043Y-132426868D01*
X118257318Y-132598094D01*
X118068808Y-132796742D01*
X117909002Y-133019136D01*
X117780857Y-133261161D01*
X117779385Y-133265184D01*
X117779383Y-133265188D01*
X117689556Y-133510650D01*
X117686743Y-133518337D01*
X117628404Y-133785907D01*
X117628068Y-133790177D01*
X117616279Y-133939972D01*
X117606917Y-134058918D01*
X116755259Y-134058918D01*
X116656264Y-133905895D01*
X116642822Y-133885117D01*
X116642820Y-133885114D01*
X116640014Y-133880777D01*
X116489670Y-133715551D01*
X116485619Y-133712352D01*
X116485615Y-133712348D01*
X116318414Y-133580300D01*
X116318410Y-133580298D01*
X116314359Y-133577098D01*
X116309835Y-133574601D01*
X116309831Y-133574598D01*
X116258608Y-133546322D01*
X116208636Y-133495890D01*
X116193500Y-133436013D01*
X116193500Y-129929809D01*
X116194027Y-129918625D01*
X116195701Y-129911137D01*
X116193562Y-129843078D01*
X116193500Y-129839121D01*
X116193500Y-129811190D01*
X116192994Y-129807184D01*
X116192061Y-129795338D01*
X116190922Y-129759083D01*
X116190673Y-129751156D01*
X116185022Y-129731704D01*
X116181014Y-129712352D01*
X116179468Y-129700114D01*
X116179467Y-129700112D01*
X116178474Y-129692249D01*
X116162194Y-129651132D01*
X116158359Y-129639931D01*
X116146018Y-129597452D01*
X116141985Y-129590633D01*
X116141983Y-129590628D01*
X116135707Y-129580017D01*
X116127010Y-129562267D01*
X116119552Y-129543429D01*
X116093571Y-129507669D01*
X116087053Y-129497747D01*
X116068578Y-129466506D01*
X116068574Y-129466501D01*
X116064542Y-129459683D01*
X116050218Y-129445359D01*
X116037371Y-129430316D01*
X116035061Y-129427136D01*
X116011693Y-129366254D01*
X115995120Y-129208569D01*
X115995120Y-129208567D01*
X115994430Y-129202006D01*
X115935415Y-129020378D01*
X115839928Y-128854990D01*
X115712141Y-128713068D01*
X115557640Y-128600816D01*
X115551612Y-128598132D01*
X115551610Y-128598131D01*
X115389207Y-128525825D01*
X115389206Y-128525825D01*
X115383176Y-128523140D01*
X115289775Y-128503287D01*
X115202832Y-128484806D01*
X115202827Y-128484806D01*
X115196375Y-128483434D01*
X115005401Y-128483434D01*
X114998949Y-128484806D01*
X114998944Y-128484806D01*
X114912001Y-128503287D01*
X114818600Y-128523140D01*
X114812570Y-128525825D01*
X114812569Y-128525825D01*
X114690712Y-128580079D01*
X114620345Y-128589513D01*
X114570214Y-128568887D01*
X114569944Y-128569355D01*
X114566456Y-128567341D01*
X114565401Y-128566907D01*
X114564228Y-128566055D01*
X114558885Y-128562173D01*
X114552857Y-128559489D01*
X114552855Y-128559488D01*
X114390452Y-128487182D01*
X114390451Y-128487182D01*
X114384421Y-128484497D01*
X114282388Y-128462809D01*
X114204077Y-128446163D01*
X114204072Y-128446163D01*
X114197620Y-128444791D01*
X114006646Y-128444791D01*
X114000194Y-128446163D01*
X114000189Y-128446163D01*
X113921878Y-128462809D01*
X113819845Y-128484497D01*
X113813815Y-128487182D01*
X113813814Y-128487182D01*
X113651411Y-128559488D01*
X113651409Y-128559489D01*
X113645381Y-128562173D01*
X113640040Y-128566053D01*
X113640039Y-128566054D01*
X113607751Y-128589513D01*
X113490880Y-128674425D01*
X113486459Y-128679335D01*
X113486458Y-128679336D01*
X113389568Y-128786944D01*
X113363093Y-128816347D01*
X113267606Y-128981735D01*
X113208591Y-129163363D01*
X113207901Y-129169924D01*
X113207901Y-129169926D01*
X113193110Y-129310657D01*
X113188629Y-129353291D01*
X113189319Y-129359856D01*
X113196725Y-129430316D01*
X113208591Y-129543219D01*
X113267606Y-129724847D01*
X113270909Y-129730569D01*
X113270910Y-129730570D01*
X113287372Y-129759083D01*
X113363093Y-129890235D01*
X113367511Y-129895142D01*
X113367512Y-129895143D01*
X113462479Y-130000615D01*
X113490880Y-130032157D01*
X113559728Y-130082178D01*
X113594561Y-130107486D01*
X113637915Y-130163708D01*
X113646500Y-130209422D01*
X113646500Y-133314830D01*
X113626498Y-133382951D01*
X113572842Y-133429444D01*
X113502568Y-133439548D01*
X113478443Y-133433604D01*
X113424658Y-133414558D01*
X113373087Y-133396295D01*
X113373083Y-133396294D01*
X113368212Y-133394569D01*
X113363119Y-133393662D01*
X113363116Y-133393661D01*
X113153373Y-133356300D01*
X113153367Y-133356299D01*
X113148284Y-133355394D01*
X113074452Y-133354492D01*
X112930081Y-133352728D01*
X112930079Y-133352728D01*
X112924911Y-133352665D01*
X112704091Y-133386455D01*
X112491756Y-133455857D01*
X112461443Y-133471637D01*
X112317975Y-133546322D01*
X112293607Y-133559007D01*
X112289474Y-133562110D01*
X112289471Y-133562112D01*
X112265247Y-133580300D01*
X112114965Y-133693135D01*
X111960629Y-133854638D01*
X111853201Y-134012121D01*
X111798293Y-134057121D01*
X111727768Y-134065292D01*
X111664021Y-134034038D01*
X111643324Y-134009554D01*
X111562822Y-133885117D01*
X111562820Y-133885114D01*
X111560014Y-133880777D01*
X111409670Y-133715551D01*
X111405619Y-133712352D01*
X111405615Y-133712348D01*
X111238414Y-133580300D01*
X111238410Y-133580298D01*
X111234359Y-133577098D01*
X111229831Y-133574598D01*
X111164641Y-133538612D01*
X111038789Y-133469138D01*
X111033920Y-133467414D01*
X111033916Y-133467412D01*
X110833087Y-133396295D01*
X110833083Y-133396294D01*
X110828212Y-133394569D01*
X110823119Y-133393662D01*
X110823116Y-133393661D01*
X110613373Y-133356300D01*
X110613367Y-133356299D01*
X110608284Y-133355394D01*
X110534452Y-133354492D01*
X110390081Y-133352728D01*
X110390079Y-133352728D01*
X110384911Y-133352665D01*
X110164091Y-133386455D01*
X109951756Y-133455857D01*
X109921443Y-133471637D01*
X109777975Y-133546322D01*
X109753607Y-133559007D01*
X109749474Y-133562110D01*
X109749471Y-133562112D01*
X109725247Y-133580300D01*
X109574965Y-133693135D01*
X109420629Y-133854638D01*
X109313201Y-134012121D01*
X109258293Y-134057121D01*
X109187768Y-134065292D01*
X109124021Y-134034038D01*
X109103324Y-134009554D01*
X109022822Y-133885117D01*
X109022820Y-133885114D01*
X109020014Y-133880777D01*
X108869670Y-133715551D01*
X108865619Y-133712352D01*
X108865615Y-133712348D01*
X108698414Y-133580300D01*
X108698410Y-133580298D01*
X108694359Y-133577098D01*
X108689831Y-133574598D01*
X108624641Y-133538612D01*
X108498789Y-133469138D01*
X108493920Y-133467414D01*
X108493916Y-133467412D01*
X108293087Y-133396295D01*
X108293083Y-133396294D01*
X108288212Y-133394569D01*
X108283119Y-133393662D01*
X108283116Y-133393661D01*
X108073373Y-133356300D01*
X108073367Y-133356299D01*
X108068284Y-133355394D01*
X107994452Y-133354492D01*
X107850081Y-133352728D01*
X107850079Y-133352728D01*
X107844911Y-133352665D01*
X107624091Y-133386455D01*
X107411756Y-133455857D01*
X107381443Y-133471637D01*
X107237975Y-133546322D01*
X107213607Y-133559007D01*
X107209474Y-133562110D01*
X107209471Y-133562112D01*
X107185247Y-133580300D01*
X107034965Y-133693135D01*
X106880629Y-133854638D01*
X106754743Y-134039180D01*
X106721776Y-134110202D01*
X106670660Y-134220323D01*
X106660688Y-134241805D01*
X106600989Y-134457070D01*
X106577251Y-134679195D01*
X106577548Y-134684348D01*
X106577548Y-134684351D01*
X106585766Y-134826876D01*
X106590110Y-134902215D01*
X106591247Y-134907261D01*
X106591248Y-134907267D01*
X106594530Y-134921830D01*
X106639222Y-135120139D01*
X106723266Y-135327116D01*
X106774019Y-135409938D01*
X106837291Y-135513188D01*
X106839987Y-135517588D01*
X106986250Y-135686438D01*
X107053686Y-135742424D01*
X107056772Y-135744986D01*
X107096408Y-135803889D01*
X107097906Y-135874870D01*
X107060792Y-135935393D01*
X107029739Y-135956032D01*
X107010040Y-135965260D01*
X106872193Y-136050563D01*
X106860792Y-136059599D01*
X106746261Y-136174329D01*
X106737249Y-136185740D01*
X106652184Y-136323743D01*
X106646037Y-136336924D01*
X106594862Y-136491210D01*
X106591995Y-136504586D01*
X106582328Y-136598938D01*
X106582000Y-136605355D01*
X106582000Y-136980385D01*
X106586475Y-136995624D01*
X106587865Y-136996829D01*
X106595548Y-136998500D01*
X108068000Y-136998500D01*
X108136121Y-137018502D01*
X108182614Y-137072158D01*
X108194000Y-137124500D01*
X108194000Y-138592384D01*
X108198475Y-138607623D01*
X108199865Y-138608828D01*
X108207548Y-138610499D01*
X108587095Y-138610499D01*
X108593614Y-138610162D01*
X108689206Y-138600243D01*
X108702600Y-138597351D01*
X108856784Y-138545912D01*
X108869962Y-138539739D01*
X109007807Y-138454437D01*
X109019208Y-138445401D01*
X109133739Y-138330671D01*
X109142751Y-138319260D01*
X109227816Y-138181257D01*
X109233964Y-138168074D01*
X109256297Y-138100741D01*
X109296727Y-138042381D01*
X109326015Y-138024699D01*
X109365694Y-138007596D01*
X110107978Y-137265312D01*
X110115592Y-137251368D01*
X110115461Y-137249535D01*
X110111210Y-137242920D01*
X109369849Y-136501559D01*
X109329966Y-136479780D01*
X109316009Y-136476744D01*
X109265807Y-136426542D01*
X109256871Y-136406032D01*
X109233413Y-136335718D01*
X109227239Y-136322538D01*
X109141937Y-136184693D01*
X109132901Y-136173292D01*
X109018171Y-136058761D01*
X109006760Y-136049749D01*
X108868757Y-135964684D01*
X108854478Y-135958025D01*
X108801193Y-135911107D01*
X108781732Y-135842830D01*
X108802274Y-135774870D01*
X108820475Y-135754290D01*
X108819860Y-135753673D01*
X108943385Y-135630579D01*
X108978096Y-135595989D01*
X109014939Y-135544717D01*
X109108453Y-135414577D01*
X109109776Y-135415528D01*
X109156645Y-135372357D01*
X109226580Y-135360125D01*
X109292026Y-135387644D01*
X109319875Y-135419494D01*
X109379987Y-135517588D01*
X109526250Y-135686438D01*
X109698126Y-135829132D01*
X109733427Y-135849760D01*
X109771955Y-135872274D01*
X109820679Y-135923912D01*
X109833750Y-135993695D01*
X109807019Y-136059467D01*
X109766562Y-136092827D01*
X109758460Y-136097044D01*
X109749734Y-136102539D01*
X109729677Y-136117599D01*
X109721223Y-136128927D01*
X109727968Y-136141258D01*
X110467188Y-136880478D01*
X110481132Y-136888092D01*
X110482965Y-136887961D01*
X110489580Y-136883710D01*
X111233389Y-136139901D01*
X111240410Y-136127044D01*
X111233611Y-136117713D01*
X111229559Y-136115021D01*
X111192602Y-136094620D01*
X111142631Y-136044187D01*
X111127859Y-135974745D01*
X111152975Y-135908339D01*
X111180327Y-135881732D01*
X111218878Y-135854234D01*
X111359860Y-135753673D01*
X111365718Y-135747836D01*
X111483385Y-135630579D01*
X111518096Y-135595989D01*
X111554939Y-135544717D01*
X111648453Y-135414577D01*
X111649776Y-135415528D01*
X111696645Y-135372357D01*
X111766580Y-135360125D01*
X111832026Y-135387644D01*
X111859875Y-135419494D01*
X111919987Y-135517588D01*
X112066250Y-135686438D01*
X112238126Y-135829132D01*
X112273427Y-135849760D01*
X112311445Y-135871976D01*
X112360169Y-135923614D01*
X112373240Y-135993397D01*
X112346509Y-136059169D01*
X112306055Y-136092527D01*
X112293607Y-136099007D01*
X112289474Y-136102110D01*
X112289471Y-136102112D01*
X112131504Y-136220717D01*
X112114965Y-136233135D01*
X111960629Y-136394638D01*
X111957715Y-136398910D01*
X111957714Y-136398911D01*
X111906153Y-136474497D01*
X111863467Y-136537073D01*
X111852898Y-136552566D01*
X111797987Y-136597569D01*
X111727462Y-136605740D01*
X111663715Y-136574486D01*
X111643017Y-136550001D01*
X111613062Y-136503697D01*
X111602377Y-136494495D01*
X111592812Y-136498898D01*
X109726737Y-138364973D01*
X109719977Y-138377353D01*
X109725258Y-138384407D01*
X109886756Y-138478779D01*
X109896042Y-138483229D01*
X110095001Y-138559203D01*
X110104899Y-138562079D01*
X110313595Y-138604538D01*
X110323823Y-138605757D01*
X110466131Y-138610976D01*
X110533473Y-138633461D01*
X110577969Y-138688784D01*
X110585491Y-138759381D01*
X110550609Y-138825986D01*
X110237000Y-139139595D01*
X110174688Y-139173621D01*
X110147905Y-139176500D01*
X81244595Y-139176500D01*
X81176474Y-139156498D01*
X81155500Y-139139595D01*
X79915500Y-137899595D01*
X106582001Y-137899595D01*
X106582338Y-137906114D01*
X106592257Y-138001706D01*
X106595149Y-138015100D01*
X106646588Y-138169284D01*
X106652761Y-138182462D01*
X106738063Y-138320307D01*
X106747099Y-138331708D01*
X106861829Y-138446239D01*
X106873240Y-138455251D01*
X107011243Y-138540316D01*
X107024424Y-138546463D01*
X107178710Y-138597638D01*
X107192086Y-138600505D01*
X107286438Y-138610172D01*
X107292854Y-138610500D01*
X107667885Y-138610500D01*
X107683124Y-138606025D01*
X107684329Y-138604635D01*
X107686000Y-138596952D01*
X107686000Y-137524615D01*
X107681525Y-137509376D01*
X107680135Y-137508171D01*
X107672452Y-137506500D01*
X106600116Y-137506500D01*
X106584877Y-137510975D01*
X106583672Y-137512365D01*
X106582001Y-137520048D01*
X106582001Y-137899595D01*
X79915500Y-137899595D01*
X78295712Y-136279807D01*
X96752001Y-136279807D01*
X96752121Y-136283701D01*
X96754790Y-136326893D01*
X96756126Y-136336472D01*
X96800048Y-136537073D01*
X96803695Y-136548432D01*
X96884306Y-136736059D01*
X96890041Y-136746533D01*
X97004669Y-136915522D01*
X97012282Y-136924724D01*
X97156802Y-137068992D01*
X97166015Y-137076587D01*
X97335206Y-137190922D01*
X97345690Y-137196638D01*
X97533450Y-137276918D01*
X97544821Y-137280547D01*
X97745480Y-137324115D01*
X97755100Y-137325437D01*
X97796387Y-137327890D01*
X97800102Y-137328000D01*
X98237885Y-137328000D01*
X98253124Y-137323525D01*
X98254329Y-137322135D01*
X98256000Y-137314452D01*
X98256000Y-137309884D01*
X98764000Y-137309884D01*
X98768475Y-137325123D01*
X98769865Y-137326328D01*
X98777548Y-137327999D01*
X99219807Y-137327999D01*
X99223701Y-137327879D01*
X99266893Y-137325210D01*
X99276472Y-137323874D01*
X99477073Y-137279952D01*
X99488432Y-137276305D01*
X99676059Y-137195694D01*
X99686533Y-137189959D01*
X99855522Y-137075331D01*
X99864724Y-137067718D01*
X100008992Y-136923198D01*
X100016587Y-136913985D01*
X100130922Y-136744794D01*
X100136638Y-136734310D01*
X100216918Y-136546550D01*
X100220547Y-136535179D01*
X100264115Y-136334520D01*
X100265437Y-136324900D01*
X100267890Y-136283613D01*
X100268000Y-136279898D01*
X100268000Y-134842115D01*
X100263525Y-134826876D01*
X100262135Y-134825671D01*
X100254452Y-134824000D01*
X98782115Y-134824000D01*
X98766876Y-134828475D01*
X98765671Y-134829865D01*
X98764000Y-134837548D01*
X98764000Y-137309884D01*
X98256000Y-137309884D01*
X98256000Y-134842115D01*
X98251525Y-134826876D01*
X98250135Y-134825671D01*
X98242452Y-134824000D01*
X96770116Y-134824000D01*
X96754877Y-134828475D01*
X96753672Y-134829865D01*
X96752001Y-134837548D01*
X96752001Y-136279807D01*
X78295712Y-136279807D01*
X78239500Y-136223595D01*
X78205474Y-136161283D01*
X78210539Y-136090468D01*
X78253086Y-136033632D01*
X78319606Y-136008821D01*
X78328595Y-136008500D01*
X81048134Y-136008500D01*
X81110316Y-136001745D01*
X81246705Y-135950615D01*
X81363261Y-135863261D01*
X81450615Y-135746705D01*
X81501745Y-135610316D01*
X81503990Y-135589654D01*
X83275618Y-135589654D01*
X83282673Y-135599627D01*
X83313679Y-135625551D01*
X83320598Y-135630579D01*
X83545272Y-135771515D01*
X83552807Y-135775556D01*
X83794520Y-135884694D01*
X83802551Y-135887680D01*
X84056832Y-135963002D01*
X84065184Y-135964869D01*
X84327340Y-136004984D01*
X84335874Y-136005700D01*
X84601045Y-136009867D01*
X84609596Y-136009418D01*
X84872883Y-135977557D01*
X84881284Y-135975955D01*
X85137824Y-135908653D01*
X85145926Y-135905926D01*
X85390949Y-135804434D01*
X85398617Y-135800628D01*
X85627598Y-135666822D01*
X85634679Y-135662009D01*
X85714655Y-135599301D01*
X85723125Y-135587442D01*
X85716608Y-135575818D01*
X84512812Y-134372022D01*
X84498868Y-134364408D01*
X84497035Y-134364539D01*
X84490420Y-134368790D01*
X83282910Y-135576300D01*
X83275618Y-135589654D01*
X81503990Y-135589654D01*
X81508500Y-135548134D01*
X81508500Y-133983204D01*
X82487665Y-133983204D01*
X82502932Y-134247969D01*
X82504005Y-134256470D01*
X82555065Y-134516722D01*
X82557276Y-134524974D01*
X82643184Y-134775894D01*
X82646499Y-134783779D01*
X82765664Y-135020713D01*
X82770020Y-135028079D01*
X82899347Y-135216250D01*
X82909601Y-135224594D01*
X82923342Y-135217448D01*
X84127978Y-134012812D01*
X84135592Y-133998868D01*
X84135461Y-133997035D01*
X84131210Y-133990420D01*
X82923814Y-132783024D01*
X82911804Y-132776466D01*
X82900064Y-132785434D01*
X82791935Y-132935911D01*
X82787418Y-132943196D01*
X82663325Y-133177567D01*
X82659839Y-133185395D01*
X82568700Y-133434446D01*
X82566311Y-133442670D01*
X82509812Y-133701795D01*
X82508563Y-133710250D01*
X82487754Y-133974653D01*
X82487665Y-133983204D01*
X81508500Y-133983204D01*
X81508500Y-132451866D01*
X81501745Y-132389684D01*
X81450615Y-132253295D01*
X81363261Y-132136739D01*
X81246705Y-132049385D01*
X81110316Y-131998255D01*
X81048134Y-131991500D01*
X77951866Y-131991500D01*
X77889684Y-131998255D01*
X77820919Y-132024034D01*
X77761697Y-132046235D01*
X77761696Y-132046236D01*
X77753295Y-132049385D01*
X77746114Y-132054767D01*
X77740010Y-132058109D01*
X77670653Y-132073279D01*
X77604105Y-132048543D01*
X77561494Y-131991756D01*
X77553500Y-131947590D01*
X77553500Y-131894594D01*
X77573502Y-131826473D01*
X77590401Y-131805503D01*
X78537385Y-130858520D01*
X78599695Y-130824496D01*
X78670511Y-130829561D01*
X78678329Y-130832780D01*
X78794345Y-130885164D01*
X78794349Y-130885166D01*
X78798257Y-130886930D01*
X78802377Y-130888150D01*
X78802376Y-130888150D01*
X79056723Y-130963491D01*
X79056727Y-130963492D01*
X79060836Y-130964709D01*
X79065070Y-130965357D01*
X79065075Y-130965358D01*
X79327298Y-131005483D01*
X79327300Y-131005483D01*
X79331540Y-131006132D01*
X79470912Y-131008322D01*
X79601071Y-131010367D01*
X79601077Y-131010367D01*
X79605362Y-131010434D01*
X79877235Y-130977534D01*
X80142127Y-130908041D01*
X80146087Y-130906401D01*
X80146092Y-130906399D01*
X80268689Y-130855617D01*
X80395136Y-130803241D01*
X80631582Y-130665073D01*
X80847089Y-130496094D01*
X81037669Y-130299431D01*
X81040202Y-130295983D01*
X81040206Y-130295978D01*
X81197257Y-130082178D01*
X81199795Y-130078723D01*
X81222970Y-130036040D01*
X81328418Y-129841830D01*
X81328419Y-129841828D01*
X81330468Y-129838054D01*
X81388348Y-129684879D01*
X81425751Y-129585895D01*
X81425752Y-129585891D01*
X81427269Y-129581877D01*
X81476653Y-129366254D01*
X81487449Y-129319117D01*
X81487450Y-129319113D01*
X81488407Y-129314933D01*
X81494384Y-129247969D01*
X81512531Y-129044627D01*
X81512531Y-129044625D01*
X81512751Y-129042161D01*
X81512914Y-129026663D01*
X81513167Y-129002484D01*
X81513167Y-129002483D01*
X81513193Y-129000000D01*
X81512048Y-128983204D01*
X82487665Y-128983204D01*
X82502932Y-129247969D01*
X82504005Y-129256470D01*
X82555065Y-129516722D01*
X82557276Y-129524974D01*
X82643184Y-129775894D01*
X82646499Y-129783779D01*
X82765664Y-130020713D01*
X82770020Y-130028079D01*
X82899347Y-130216250D01*
X82909601Y-130224594D01*
X82923342Y-130217448D01*
X84127978Y-129012812D01*
X84135592Y-128998868D01*
X84135461Y-128997035D01*
X84131210Y-128990420D01*
X82923814Y-127783024D01*
X82911804Y-127776466D01*
X82900064Y-127785434D01*
X82791935Y-127935911D01*
X82787418Y-127943196D01*
X82663325Y-128177567D01*
X82659839Y-128185395D01*
X82568700Y-128434446D01*
X82566311Y-128442670D01*
X82509812Y-128701795D01*
X82508563Y-128710250D01*
X82487754Y-128974653D01*
X82487665Y-128983204D01*
X81512048Y-128983204D01*
X81507119Y-128910905D01*
X81494859Y-128731055D01*
X81494858Y-128731049D01*
X81494567Y-128726778D01*
X81470894Y-128612464D01*
X81452111Y-128521768D01*
X81439032Y-128458612D01*
X81347617Y-128200465D01*
X81222013Y-127957112D01*
X81212040Y-127942921D01*
X81067008Y-127736562D01*
X81064545Y-127733057D01*
X80878125Y-127532445D01*
X80874810Y-127529731D01*
X80874806Y-127529728D01*
X80716770Y-127400377D01*
X80666205Y-127358990D01*
X80432704Y-127215901D01*
X80428768Y-127214173D01*
X80185873Y-127107549D01*
X80185869Y-127107548D01*
X80181945Y-127105825D01*
X79918566Y-127030800D01*
X79914324Y-127030196D01*
X79914318Y-127030195D01*
X79713834Y-127001662D01*
X79647443Y-126992213D01*
X79503589Y-126991460D01*
X79377877Y-126990802D01*
X79377871Y-126990802D01*
X79373591Y-126990780D01*
X79369347Y-126991339D01*
X79369343Y-126991339D01*
X79250302Y-127007011D01*
X79102078Y-127026525D01*
X79097938Y-127027658D01*
X79097936Y-127027658D01*
X79048735Y-127041118D01*
X78837928Y-127098788D01*
X78833980Y-127100472D01*
X78589982Y-127204546D01*
X78589978Y-127204548D01*
X78586030Y-127206232D01*
X78566125Y-127218145D01*
X78354725Y-127344664D01*
X78354721Y-127344667D01*
X78351043Y-127346868D01*
X78137318Y-127518094D01*
X77948808Y-127716742D01*
X77789002Y-127939136D01*
X77660857Y-128181161D01*
X77659385Y-128185184D01*
X77659383Y-128185188D01*
X77652314Y-128204506D01*
X77566743Y-128438337D01*
X77508404Y-128705907D01*
X77486917Y-128978918D01*
X77502682Y-129252320D01*
X77503507Y-129256525D01*
X77503508Y-129256533D01*
X77525035Y-129366254D01*
X77555405Y-129521053D01*
X77556792Y-129525103D01*
X77556793Y-129525108D01*
X77627139Y-129730570D01*
X77644112Y-129780144D01*
X77646041Y-129783978D01*
X77646042Y-129783982D01*
X77663387Y-129818470D01*
X77676125Y-129888314D01*
X77649080Y-129953958D01*
X77639917Y-129964178D01*
X76527747Y-131076348D01*
X76519461Y-131083888D01*
X76512982Y-131088000D01*
X76507557Y-131093777D01*
X76466357Y-131137651D01*
X76463602Y-131140493D01*
X76443865Y-131160230D01*
X76441385Y-131163427D01*
X76433682Y-131172447D01*
X76403414Y-131204679D01*
X76399595Y-131211625D01*
X76399593Y-131211628D01*
X76393652Y-131222434D01*
X76382801Y-131238953D01*
X76370386Y-131254959D01*
X76367241Y-131262228D01*
X76367238Y-131262232D01*
X76352826Y-131295537D01*
X76347609Y-131306187D01*
X76326305Y-131344940D01*
X76324334Y-131352615D01*
X76324334Y-131352616D01*
X76321267Y-131364562D01*
X76314863Y-131383266D01*
X76306819Y-131401855D01*
X76305580Y-131409678D01*
X76305577Y-131409688D01*
X76299901Y-131445524D01*
X76297495Y-131457144D01*
X76286500Y-131499970D01*
X76286500Y-131520224D01*
X76284949Y-131539934D01*
X76281780Y-131559943D01*
X76282526Y-131567835D01*
X76285941Y-131603961D01*
X76286500Y-131615819D01*
X76286500Y-135721233D01*
X76285973Y-135732416D01*
X76284298Y-135739909D01*
X76284547Y-135747835D01*
X76284547Y-135747836D01*
X76286438Y-135807986D01*
X76286500Y-135811945D01*
X76286500Y-135839856D01*
X76286997Y-135843790D01*
X76286997Y-135843791D01*
X76287005Y-135843856D01*
X76287938Y-135855693D01*
X76289327Y-135899889D01*
X76294978Y-135919339D01*
X76298987Y-135938700D01*
X76301526Y-135958797D01*
X76304445Y-135966168D01*
X76304445Y-135966170D01*
X76317804Y-135999912D01*
X76321649Y-136011142D01*
X76331738Y-136045868D01*
X76333982Y-136053593D01*
X76338015Y-136060412D01*
X76338017Y-136060417D01*
X76344293Y-136071028D01*
X76352988Y-136088776D01*
X76360448Y-136107617D01*
X76365110Y-136114033D01*
X76365110Y-136114034D01*
X76386436Y-136143387D01*
X76392952Y-136153307D01*
X76405385Y-136174329D01*
X76415458Y-136191362D01*
X76429779Y-136205683D01*
X76442619Y-136220716D01*
X76454528Y-136237107D01*
X76460634Y-136242158D01*
X76488605Y-136265298D01*
X76497384Y-136273288D01*
X80426343Y-140202247D01*
X80433887Y-140210537D01*
X80438000Y-140217018D01*
X80443777Y-140222443D01*
X80487667Y-140263658D01*
X80490509Y-140266413D01*
X80500501Y-140276405D01*
X80534527Y-140338717D01*
X80529462Y-140409532D01*
X80486915Y-140466368D01*
X80420395Y-140491179D01*
X80411406Y-140491500D01*
X76134500Y-140491500D01*
X76066379Y-140471498D01*
X76019886Y-140417842D01*
X76008500Y-140365500D01*
X76008500Y-125589654D01*
X78275618Y-125589654D01*
X78282673Y-125599627D01*
X78313679Y-125625551D01*
X78320598Y-125630579D01*
X78545272Y-125771515D01*
X78552807Y-125775556D01*
X78794520Y-125884694D01*
X78802551Y-125887680D01*
X79056832Y-125963002D01*
X79065184Y-125964869D01*
X79327340Y-126004984D01*
X79335874Y-126005700D01*
X79601045Y-126009867D01*
X79609596Y-126009418D01*
X79872883Y-125977557D01*
X79881284Y-125975955D01*
X80137824Y-125908653D01*
X80145926Y-125905926D01*
X80390949Y-125804434D01*
X80398617Y-125800628D01*
X80627598Y-125666822D01*
X80634679Y-125662009D01*
X80714655Y-125599301D01*
X80723125Y-125587442D01*
X80716608Y-125575818D01*
X79512812Y-124372022D01*
X79498868Y-124364408D01*
X79497035Y-124364539D01*
X79490420Y-124368790D01*
X78282910Y-125576300D01*
X78275618Y-125589654D01*
X76008500Y-125589654D01*
X76008500Y-123983204D01*
X77487665Y-123983204D01*
X77502932Y-124247969D01*
X77504005Y-124256470D01*
X77555065Y-124516722D01*
X77557276Y-124524974D01*
X77643184Y-124775894D01*
X77646499Y-124783779D01*
X77765664Y-125020713D01*
X77770020Y-125028079D01*
X77899347Y-125216250D01*
X77909601Y-125224594D01*
X77923342Y-125217448D01*
X79127978Y-124012812D01*
X79134356Y-124001132D01*
X79864408Y-124001132D01*
X79864539Y-124002965D01*
X79868790Y-124009580D01*
X81075730Y-125216520D01*
X81087939Y-125223187D01*
X81099439Y-125214497D01*
X81196831Y-125081913D01*
X81201418Y-125074685D01*
X81327962Y-124841621D01*
X81331530Y-124833827D01*
X81425271Y-124585750D01*
X81427748Y-124577544D01*
X81486954Y-124319038D01*
X81488294Y-124310577D01*
X81512031Y-124044616D01*
X81512277Y-124039677D01*
X81512666Y-124002485D01*
X81512523Y-123997519D01*
X81511547Y-123983204D01*
X82487665Y-123983204D01*
X82502932Y-124247969D01*
X82504005Y-124256470D01*
X82555065Y-124516722D01*
X82557276Y-124524974D01*
X82643184Y-124775894D01*
X82646499Y-124783779D01*
X82765664Y-125020713D01*
X82770020Y-125028079D01*
X82899347Y-125216250D01*
X82909601Y-125224594D01*
X82923342Y-125217448D01*
X84127978Y-124012812D01*
X84135592Y-123998868D01*
X84135461Y-123997035D01*
X84131210Y-123990420D01*
X82923814Y-122783024D01*
X82911804Y-122776466D01*
X82900064Y-122785434D01*
X82791935Y-122935911D01*
X82787418Y-122943196D01*
X82663325Y-123177567D01*
X82659839Y-123185395D01*
X82568700Y-123434446D01*
X82566311Y-123442670D01*
X82509812Y-123701795D01*
X82508563Y-123710250D01*
X82487754Y-123974653D01*
X82487665Y-123983204D01*
X81511547Y-123983204D01*
X81494362Y-123731123D01*
X81493201Y-123722649D01*
X81439419Y-123462944D01*
X81437120Y-123454709D01*
X81348588Y-123204705D01*
X81345191Y-123196854D01*
X81223550Y-122961178D01*
X81219122Y-122953866D01*
X81100031Y-122784417D01*
X81089509Y-122776037D01*
X81076121Y-122783089D01*
X79872022Y-123987188D01*
X79864408Y-124001132D01*
X79134356Y-124001132D01*
X79135592Y-123998868D01*
X79135461Y-123997035D01*
X79131210Y-123990420D01*
X77923814Y-122783024D01*
X77911804Y-122776466D01*
X77900064Y-122785434D01*
X77791935Y-122935911D01*
X77787418Y-122943196D01*
X77663325Y-123177567D01*
X77659839Y-123185395D01*
X77568700Y-123434446D01*
X77566311Y-123442670D01*
X77509812Y-123701795D01*
X77508563Y-123710250D01*
X77487754Y-123974653D01*
X77487665Y-123983204D01*
X76008500Y-123983204D01*
X76008500Y-122412500D01*
X78276584Y-122412500D01*
X78282980Y-122423770D01*
X79487188Y-123627978D01*
X79501132Y-123635592D01*
X79502965Y-123635461D01*
X79509580Y-123631210D01*
X80716604Y-122424186D01*
X80723795Y-122411017D01*
X80716473Y-122400780D01*
X80669233Y-122362115D01*
X80662261Y-122357160D01*
X80436122Y-122218582D01*
X80428552Y-122214624D01*
X80185704Y-122108022D01*
X80177644Y-122105120D01*
X79922592Y-122032467D01*
X79914214Y-122030685D01*
X79651656Y-121993318D01*
X79643111Y-121992691D01*
X79377908Y-121991302D01*
X79369374Y-121991839D01*
X79106433Y-122026456D01*
X79098035Y-122028149D01*
X78842238Y-122098127D01*
X78834143Y-122100946D01*
X78590199Y-122204997D01*
X78582577Y-122208881D01*
X78355013Y-122345075D01*
X78347981Y-122349962D01*
X78285053Y-122400377D01*
X78276584Y-122412500D01*
X76008500Y-122412500D01*
X76008500Y-120376000D01*
X76028502Y-120307879D01*
X76082158Y-120261386D01*
X76134500Y-120250000D01*
X85374000Y-120250000D01*
X85442121Y-120270002D01*
X85488614Y-120323658D01*
X85500000Y-120376000D01*
X85500000Y-122053072D01*
X85479998Y-122121193D01*
X85426342Y-122167686D01*
X85356068Y-122177790D01*
X85323355Y-122168446D01*
X85185704Y-122108022D01*
X85177644Y-122105120D01*
X84922592Y-122032467D01*
X84914214Y-122030685D01*
X84651656Y-121993318D01*
X84643111Y-121992691D01*
X84377908Y-121991302D01*
X84369374Y-121991839D01*
X84106433Y-122026456D01*
X84098035Y-122028149D01*
X83842238Y-122098127D01*
X83834143Y-122100946D01*
X83590199Y-122204997D01*
X83582577Y-122208881D01*
X83355013Y-122345075D01*
X83347981Y-122349962D01*
X83285053Y-122400377D01*
X83276584Y-122412500D01*
X83282980Y-122423770D01*
X84770115Y-123910905D01*
X84804141Y-123973217D01*
X84799076Y-124044032D01*
X84770115Y-124089095D01*
X83282910Y-125576300D01*
X83275618Y-125589654D01*
X83282673Y-125599627D01*
X83313679Y-125625551D01*
X83320598Y-125630579D01*
X83545272Y-125771515D01*
X83552807Y-125775556D01*
X83794520Y-125884694D01*
X83802551Y-125887680D01*
X84056832Y-125963002D01*
X84065184Y-125964869D01*
X84327340Y-126004984D01*
X84335874Y-126005700D01*
X84601045Y-126009867D01*
X84609596Y-126009418D01*
X84872883Y-125977557D01*
X84881284Y-125975955D01*
X85137824Y-125908653D01*
X85145926Y-125905926D01*
X85325782Y-125831427D01*
X85396372Y-125823838D01*
X85459859Y-125855617D01*
X85496086Y-125916675D01*
X85500000Y-125947836D01*
X85500000Y-127053072D01*
X85479998Y-127121193D01*
X85426342Y-127167686D01*
X85356068Y-127177790D01*
X85323355Y-127168446D01*
X85185704Y-127108022D01*
X85177644Y-127105120D01*
X84922592Y-127032467D01*
X84914214Y-127030685D01*
X84651656Y-126993318D01*
X84643111Y-126992691D01*
X84377908Y-126991302D01*
X84369374Y-126991839D01*
X84106433Y-127026456D01*
X84098035Y-127028149D01*
X83842238Y-127098127D01*
X83834143Y-127100946D01*
X83590199Y-127204997D01*
X83582577Y-127208881D01*
X83355013Y-127345075D01*
X83347981Y-127349962D01*
X83285053Y-127400377D01*
X83276584Y-127412500D01*
X83282980Y-127423770D01*
X84770115Y-128910905D01*
X84804141Y-128973217D01*
X84799076Y-129044032D01*
X84770115Y-129089095D01*
X83282910Y-130576300D01*
X83275618Y-130589654D01*
X83282673Y-130599627D01*
X83313679Y-130625551D01*
X83320598Y-130630579D01*
X83545272Y-130771515D01*
X83552807Y-130775556D01*
X83794520Y-130884694D01*
X83802551Y-130887680D01*
X84056832Y-130963002D01*
X84065184Y-130964869D01*
X84327340Y-131004984D01*
X84335874Y-131005700D01*
X84601045Y-131009867D01*
X84609596Y-131009418D01*
X84872883Y-130977557D01*
X84881284Y-130975955D01*
X85137824Y-130908653D01*
X85145926Y-130905926D01*
X85325782Y-130831427D01*
X85396372Y-130823838D01*
X85459859Y-130855617D01*
X85496086Y-130916675D01*
X85500000Y-130947836D01*
X85500000Y-132053072D01*
X85479998Y-132121193D01*
X85426342Y-132167686D01*
X85356068Y-132177790D01*
X85323355Y-132168446D01*
X85185704Y-132108022D01*
X85177644Y-132105120D01*
X84922592Y-132032467D01*
X84914214Y-132030685D01*
X84651656Y-131993318D01*
X84643111Y-131992691D01*
X84377908Y-131991302D01*
X84369374Y-131991839D01*
X84106433Y-132026456D01*
X84098035Y-132028149D01*
X83842238Y-132098127D01*
X83834143Y-132100946D01*
X83590199Y-132204997D01*
X83582577Y-132208881D01*
X83355013Y-132345075D01*
X83347981Y-132349962D01*
X83285053Y-132400377D01*
X83276584Y-132412500D01*
X83282980Y-132423770D01*
X86075730Y-135216520D01*
X86087939Y-135223187D01*
X86099439Y-135214497D01*
X86196831Y-135081913D01*
X86201418Y-135074685D01*
X86327962Y-134841621D01*
X86331530Y-134833827D01*
X86425271Y-134585750D01*
X86427748Y-134577544D01*
X86486954Y-134319038D01*
X86488294Y-134310577D01*
X86512031Y-134044616D01*
X86512277Y-134039677D01*
X86512666Y-134002485D01*
X86512523Y-133997519D01*
X86494362Y-133731123D01*
X86493201Y-133722649D01*
X86439419Y-133462944D01*
X86437120Y-133454709D01*
X86348588Y-133204705D01*
X86345191Y-133196854D01*
X86223550Y-132961178D01*
X86219122Y-132953866D01*
X86066619Y-132736877D01*
X86061236Y-132730231D01*
X86044082Y-132711771D01*
X86012363Y-132648254D01*
X86020019Y-132577671D01*
X86064620Y-132522433D01*
X86136382Y-132500000D01*
X88442962Y-132500000D01*
X88511083Y-132520002D01*
X88557576Y-132573658D01*
X88567680Y-132643932D01*
X88538186Y-132708512D01*
X88517025Y-132727934D01*
X88455175Y-132772871D01*
X88395040Y-132816562D01*
X88388747Y-132821134D01*
X88260960Y-132963056D01*
X88165473Y-133128444D01*
X88106458Y-133310072D01*
X88105768Y-133316633D01*
X88105768Y-133316635D01*
X88091304Y-133454250D01*
X88086496Y-133500000D01*
X88106458Y-133689928D01*
X88165473Y-133871556D01*
X88260960Y-134036944D01*
X88265378Y-134041851D01*
X88265379Y-134041852D01*
X88358514Y-134145289D01*
X88388747Y-134178866D01*
X88543248Y-134291118D01*
X88549276Y-134293802D01*
X88549278Y-134293803D01*
X88708155Y-134364539D01*
X88717712Y-134368794D01*
X88784546Y-134383000D01*
X88898056Y-134407128D01*
X88898061Y-134407128D01*
X88904513Y-134408500D01*
X89095487Y-134408500D01*
X89101939Y-134407128D01*
X89101944Y-134407128D01*
X89215454Y-134383000D01*
X89282288Y-134368794D01*
X89291845Y-134364539D01*
X89450722Y-134293803D01*
X89450724Y-134293802D01*
X89456752Y-134291118D01*
X89474505Y-134278220D01*
X89543488Y-134228101D01*
X89610356Y-134204242D01*
X89679508Y-134220323D01*
X89691610Y-134228101D01*
X89743248Y-134265618D01*
X89749276Y-134268302D01*
X89749278Y-134268303D01*
X89902526Y-134336533D01*
X89917712Y-134343294D01*
X90011113Y-134363147D01*
X90098056Y-134381628D01*
X90098061Y-134381628D01*
X90104513Y-134383000D01*
X90295487Y-134383000D01*
X90301939Y-134381628D01*
X90301944Y-134381628D01*
X90388887Y-134363147D01*
X90482288Y-134343294D01*
X90497474Y-134336533D01*
X90650722Y-134268303D01*
X90650724Y-134268302D01*
X90656752Y-134265618D01*
X90714164Y-134223906D01*
X90805914Y-134157245D01*
X90811253Y-134153366D01*
X90815668Y-134148463D01*
X90820580Y-134144040D01*
X90821705Y-134145289D01*
X90875014Y-134112449D01*
X90908200Y-134108000D01*
X93557824Y-134108000D01*
X93569007Y-134108527D01*
X93576500Y-134110202D01*
X93584426Y-134109953D01*
X93584427Y-134109953D01*
X93644577Y-134108062D01*
X93648536Y-134108000D01*
X93676447Y-134108000D01*
X93680382Y-134107503D01*
X93680447Y-134107495D01*
X93692284Y-134106562D01*
X93724542Y-134105548D01*
X93728561Y-134105422D01*
X93736480Y-134105173D01*
X93755934Y-134099521D01*
X93775291Y-134095513D01*
X93787521Y-134093968D01*
X93787522Y-134093968D01*
X93795388Y-134092974D01*
X93802759Y-134090055D01*
X93802761Y-134090055D01*
X93836503Y-134076696D01*
X93847733Y-134072851D01*
X93882574Y-134062729D01*
X93882575Y-134062729D01*
X93890184Y-134060518D01*
X93897003Y-134056485D01*
X93897008Y-134056483D01*
X93907619Y-134050207D01*
X93925367Y-134041512D01*
X93944208Y-134034052D01*
X93979978Y-134008064D01*
X93989898Y-134001548D01*
X94021126Y-133983080D01*
X94021129Y-133983078D01*
X94027953Y-133979042D01*
X94042274Y-133964721D01*
X94057308Y-133951880D01*
X94067285Y-133944631D01*
X94073698Y-133939972D01*
X94101889Y-133905895D01*
X94109879Y-133897116D01*
X95470090Y-132536905D01*
X95532402Y-132502879D01*
X95559185Y-132500000D01*
X96665919Y-132500000D01*
X96734040Y-132520002D01*
X96780533Y-132573658D01*
X96790637Y-132643932D01*
X96789050Y-132652735D01*
X96755885Y-132805480D01*
X96754563Y-132815100D01*
X96752110Y-132856387D01*
X96752000Y-132860102D01*
X96752000Y-134297885D01*
X96756475Y-134313124D01*
X96757865Y-134314329D01*
X96765548Y-134316000D01*
X100249884Y-134316000D01*
X100265123Y-134311525D01*
X100266328Y-134310135D01*
X100267999Y-134302452D01*
X100267999Y-132860194D01*
X100267879Y-132856299D01*
X100265210Y-132813107D01*
X100263874Y-132803531D01*
X100230904Y-132652950D01*
X100235873Y-132582127D01*
X100278343Y-132525234D01*
X100344829Y-132500333D01*
X100353988Y-132500000D01*
X105000000Y-132500000D01*
X105910405Y-128910905D01*
X106077052Y-128253930D01*
X106110089Y-128195815D01*
X107988142Y-126317762D01*
X112644488Y-126317762D01*
X112647271Y-126321480D01*
X112777116Y-126369769D01*
X112790714Y-126373159D01*
X112946197Y-126393906D01*
X112960193Y-126394199D01*
X113008339Y-126389817D01*
X113079881Y-126404567D01*
X113112255Y-126422145D01*
X113126281Y-126427698D01*
X113265630Y-126464255D01*
X113280581Y-126466302D01*
X113424624Y-126468566D01*
X113439628Y-126466989D01*
X113580058Y-126434826D01*
X113594257Y-126429715D01*
X113645004Y-126404191D01*
X113718286Y-126391862D01*
X113733600Y-126393906D01*
X113747593Y-126394199D01*
X113903807Y-126379982D01*
X113917532Y-126377165D01*
X114066716Y-126328692D01*
X114073589Y-126325574D01*
X114081441Y-126317105D01*
X114077937Y-126308693D01*
X113769449Y-126000205D01*
X113755505Y-125992591D01*
X113753672Y-125992722D01*
X113747057Y-125996973D01*
X113452032Y-126291998D01*
X113389720Y-126326024D01*
X113318905Y-126320959D01*
X113273842Y-126291998D01*
X112982049Y-126000205D01*
X112968105Y-125992591D01*
X112966272Y-125992722D01*
X112959657Y-125996973D01*
X112651248Y-126305382D01*
X112644488Y-126317762D01*
X107988142Y-126317762D01*
X108511922Y-125793982D01*
X112071190Y-125793982D01*
X112075879Y-125800246D01*
X112162260Y-125847147D01*
X112176279Y-125852698D01*
X112180956Y-125853925D01*
X112241772Y-125890557D01*
X112268544Y-125936032D01*
X112270909Y-125943142D01*
X112272490Y-125946564D01*
X112279907Y-125953345D01*
X112288528Y-125949682D01*
X112589454Y-125648756D01*
X112595832Y-125637076D01*
X114128806Y-125637076D01*
X114128937Y-125638909D01*
X114133188Y-125645524D01*
X114433474Y-125945810D01*
X114445854Y-125952570D01*
X114449670Y-125949714D01*
X114455908Y-125933290D01*
X114498796Y-125876712D01*
X114531019Y-125859480D01*
X114544250Y-125854717D01*
X114645691Y-125803697D01*
X114655997Y-125794066D01*
X114653785Y-125787463D01*
X114325749Y-125459427D01*
X114311805Y-125451813D01*
X114309972Y-125451944D01*
X114303357Y-125456195D01*
X114136420Y-125623132D01*
X114128806Y-125637076D01*
X112595832Y-125637076D01*
X112597068Y-125634812D01*
X112596937Y-125632979D01*
X112592686Y-125626364D01*
X112425749Y-125459427D01*
X112411805Y-125451813D01*
X112409972Y-125451944D01*
X112403357Y-125456195D01*
X112077950Y-125781602D01*
X112071190Y-125793982D01*
X108511922Y-125793982D01*
X109070812Y-125235092D01*
X111750974Y-125235092D01*
X111766783Y-125378288D01*
X111770229Y-125392977D01*
X111819736Y-125528266D01*
X111826586Y-125541709D01*
X111843407Y-125566742D01*
X111853391Y-125575041D01*
X111867482Y-125567806D01*
X112187993Y-125247295D01*
X112194565Y-125235259D01*
X112940139Y-125235259D01*
X112943913Y-125237319D01*
X112973720Y-125235188D01*
X112974897Y-125234796D01*
X113749098Y-125234796D01*
X113766520Y-125238586D01*
X113783744Y-125237354D01*
X113784693Y-125235615D01*
X114530267Y-125235615D01*
X114530398Y-125237448D01*
X114534649Y-125244063D01*
X114860319Y-125569733D01*
X114872329Y-125576291D01*
X114884070Y-125567321D01*
X114889350Y-125559973D01*
X114896615Y-125546758D01*
X114950350Y-125413090D01*
X114954256Y-125398511D01*
X114975044Y-125252445D01*
X114975668Y-125244241D01*
X114975727Y-125238604D01*
X114975275Y-125230389D01*
X114957549Y-125083915D01*
X114953953Y-125069272D01*
X114903026Y-124934497D01*
X114896043Y-124921140D01*
X114882829Y-124901914D01*
X114872575Y-124893571D01*
X114858836Y-124900716D01*
X114537881Y-125221671D01*
X114530267Y-125235615D01*
X113784693Y-125235615D01*
X113785735Y-125233707D01*
X113781961Y-125231647D01*
X113752154Y-125233778D01*
X113749098Y-125234796D01*
X112974897Y-125234796D01*
X112976776Y-125234170D01*
X112959354Y-125230380D01*
X112942130Y-125231612D01*
X112940139Y-125235259D01*
X112194565Y-125235259D01*
X112195607Y-125233351D01*
X112195476Y-125231518D01*
X112191225Y-125224903D01*
X111865862Y-124899540D01*
X111854053Y-124893091D01*
X111842079Y-124902339D01*
X111833149Y-124915045D01*
X111826020Y-124928339D01*
X111773688Y-125062563D01*
X111769936Y-125077177D01*
X111751131Y-125220011D01*
X111750974Y-125235092D01*
X109070812Y-125235092D01*
X109630629Y-124675275D01*
X112070330Y-124675275D01*
X112072701Y-124682115D01*
X112400125Y-125009539D01*
X112414069Y-125017153D01*
X112415902Y-125017022D01*
X112422517Y-125012771D01*
X112589454Y-124845834D01*
X112595832Y-124834154D01*
X114128806Y-124834154D01*
X114128937Y-124835987D01*
X114133188Y-124842602D01*
X114300125Y-125009539D01*
X114314069Y-125017153D01*
X114315902Y-125017022D01*
X114322517Y-125012771D01*
X114648249Y-124687039D01*
X114655009Y-124674659D01*
X114650499Y-124668635D01*
X114632147Y-124658918D01*
X117646917Y-124658918D01*
X117662682Y-124932320D01*
X117663507Y-124936525D01*
X117663508Y-124936533D01*
X117689551Y-125069272D01*
X117715405Y-125201053D01*
X117716792Y-125205103D01*
X117716793Y-125205108D01*
X117802723Y-125456088D01*
X117804112Y-125460144D01*
X117857725Y-125566742D01*
X117887712Y-125626364D01*
X117927160Y-125704799D01*
X117929586Y-125708328D01*
X117929589Y-125708334D01*
X118067266Y-125908653D01*
X118082274Y-125930490D01*
X118085161Y-125933663D01*
X118085162Y-125933664D01*
X118154501Y-126009867D01*
X118266582Y-126133043D01*
X118476675Y-126308707D01*
X118480316Y-126310991D01*
X118705024Y-126451951D01*
X118705028Y-126451953D01*
X118708664Y-126454234D01*
X118776544Y-126484883D01*
X118954345Y-126565164D01*
X118954349Y-126565166D01*
X118958257Y-126566930D01*
X118962377Y-126568150D01*
X118962376Y-126568150D01*
X119216723Y-126643491D01*
X119216727Y-126643492D01*
X119220836Y-126644709D01*
X119225070Y-126645357D01*
X119225075Y-126645358D01*
X119487298Y-126685483D01*
X119487300Y-126685483D01*
X119491540Y-126686132D01*
X119630912Y-126688322D01*
X119761071Y-126690367D01*
X119761077Y-126690367D01*
X119765362Y-126690434D01*
X120037235Y-126657534D01*
X120302127Y-126588041D01*
X120306087Y-126586401D01*
X120306092Y-126586399D01*
X120428631Y-126535641D01*
X120555136Y-126483241D01*
X120715012Y-126389817D01*
X120787879Y-126347237D01*
X120787880Y-126347236D01*
X120791582Y-126345073D01*
X121007089Y-126176094D01*
X121048809Y-126133043D01*
X121168174Y-126009867D01*
X121197669Y-125979431D01*
X121200202Y-125975983D01*
X121200206Y-125975978D01*
X121357257Y-125762178D01*
X121359795Y-125758723D01*
X121387154Y-125708334D01*
X121488418Y-125521830D01*
X121488419Y-125521828D01*
X121490468Y-125518054D01*
X121587269Y-125261877D01*
X121629571Y-125077177D01*
X121647449Y-124999117D01*
X121647450Y-124999113D01*
X121648407Y-124994933D01*
X121654351Y-124928339D01*
X121672531Y-124724627D01*
X121672531Y-124724625D01*
X121672751Y-124722161D01*
X121672847Y-124713056D01*
X121673167Y-124682484D01*
X121673167Y-124682483D01*
X121673193Y-124680000D01*
X121671465Y-124654648D01*
X121654859Y-124411055D01*
X121654858Y-124411049D01*
X121654567Y-124406778D01*
X121641049Y-124341500D01*
X121601470Y-124150386D01*
X121599032Y-124138612D01*
X121507617Y-123880465D01*
X121382013Y-123637112D01*
X121372040Y-123622921D01*
X121239577Y-123434446D01*
X121224545Y-123413057D01*
X121038125Y-123212445D01*
X121034810Y-123209731D01*
X121034806Y-123209728D01*
X120829523Y-123041706D01*
X120826205Y-123038990D01*
X120592704Y-122895901D01*
X120588768Y-122894173D01*
X120345873Y-122787549D01*
X120345869Y-122787548D01*
X120341945Y-122785825D01*
X120078566Y-122710800D01*
X120074324Y-122710196D01*
X120074318Y-122710195D01*
X119873834Y-122681662D01*
X119807443Y-122672213D01*
X119663589Y-122671460D01*
X119537877Y-122670802D01*
X119537871Y-122670802D01*
X119533591Y-122670780D01*
X119529347Y-122671339D01*
X119529343Y-122671339D01*
X119410302Y-122687011D01*
X119262078Y-122706525D01*
X119257938Y-122707658D01*
X119257936Y-122707658D01*
X119185008Y-122727609D01*
X118997928Y-122778788D01*
X118984731Y-122784417D01*
X118749982Y-122884546D01*
X118749978Y-122884548D01*
X118746030Y-122886232D01*
X118726125Y-122898145D01*
X118514725Y-123024664D01*
X118514721Y-123024667D01*
X118511043Y-123026868D01*
X118297318Y-123198094D01*
X118108808Y-123396742D01*
X117949002Y-123619136D01*
X117820857Y-123861161D01*
X117819385Y-123865184D01*
X117819383Y-123865188D01*
X117734703Y-124096586D01*
X117726743Y-124118337D01*
X117668404Y-124385907D01*
X117646917Y-124658918D01*
X114632147Y-124658918D01*
X114557183Y-124619227D01*
X114536017Y-124611102D01*
X114536655Y-124609441D01*
X114483653Y-124578266D01*
X114456554Y-124533494D01*
X114451491Y-124518955D01*
X114446853Y-124514826D01*
X114437826Y-124518804D01*
X114136420Y-124820210D01*
X114128806Y-124834154D01*
X112595832Y-124834154D01*
X112597068Y-124831890D01*
X112596937Y-124830057D01*
X112592686Y-124823442D01*
X112291645Y-124522401D01*
X112279265Y-124515641D01*
X112275645Y-124518351D01*
X112269889Y-124534165D01*
X112227795Y-124591337D01*
X112195406Y-124609170D01*
X112175143Y-124616706D01*
X112080532Y-124665538D01*
X112070330Y-124675275D01*
X109630629Y-124675275D01*
X110154882Y-124151022D01*
X112643691Y-124151022D01*
X112647515Y-124159851D01*
X112956425Y-124468761D01*
X112970369Y-124476375D01*
X112972202Y-124476244D01*
X112978817Y-124471993D01*
X113273842Y-124176968D01*
X113336154Y-124142942D01*
X113406969Y-124148007D01*
X113452032Y-124176968D01*
X113743825Y-124468761D01*
X113757769Y-124476375D01*
X113759602Y-124476244D01*
X113766217Y-124471993D01*
X114075444Y-124162766D01*
X114082204Y-124150386D01*
X114079619Y-124146932D01*
X114079319Y-124146772D01*
X113938382Y-124096586D01*
X113924743Y-124093387D01*
X113768983Y-124074814D01*
X113754986Y-124074716D01*
X113717901Y-124078614D01*
X113645771Y-124064658D01*
X113607188Y-124044229D01*
X113593110Y-124038825D01*
X113453383Y-124003728D01*
X113438411Y-124001837D01*
X113294347Y-124001083D01*
X113279371Y-124002815D01*
X113139272Y-124036450D01*
X113125148Y-124041703D01*
X113080431Y-124064783D01*
X113007721Y-124077931D01*
X112981581Y-124074814D01*
X112967586Y-124074716D01*
X112811579Y-124091113D01*
X112797905Y-124094119D01*
X112649419Y-124144668D01*
X112643691Y-124151022D01*
X110154882Y-124151022D01*
X111808341Y-122497563D01*
X111870653Y-122463537D01*
X111897436Y-122460658D01*
X113883799Y-122460658D01*
X113951920Y-122480660D01*
X113971146Y-122497001D01*
X113971419Y-122496698D01*
X113976331Y-122501121D01*
X113980746Y-122506024D01*
X114135247Y-122618276D01*
X114141275Y-122620960D01*
X114141277Y-122620961D01*
X114303680Y-122693267D01*
X114309711Y-122695952D01*
X114403111Y-122715805D01*
X114490055Y-122734286D01*
X114490060Y-122734286D01*
X114496512Y-122735658D01*
X114687486Y-122735658D01*
X114693938Y-122734286D01*
X114693943Y-122734286D01*
X114780887Y-122715805D01*
X114874287Y-122695952D01*
X114880318Y-122693267D01*
X115042721Y-122620961D01*
X115042723Y-122620960D01*
X115048751Y-122618276D01*
X115203252Y-122506024D01*
X115226090Y-122480660D01*
X115326620Y-122369010D01*
X115326621Y-122369009D01*
X115331039Y-122364102D01*
X115426526Y-122198714D01*
X115485541Y-122017086D01*
X115491659Y-121958882D01*
X115504813Y-121833723D01*
X115505503Y-121827158D01*
X115485541Y-121637230D01*
X115426526Y-121455602D01*
X115416685Y-121438556D01*
X115341596Y-121308500D01*
X115331039Y-121290214D01*
X115311753Y-121268794D01*
X115207674Y-121153203D01*
X115207673Y-121153202D01*
X115203252Y-121148292D01*
X115048751Y-121036040D01*
X115042723Y-121033356D01*
X115042721Y-121033355D01*
X114880318Y-120961049D01*
X114880317Y-120961049D01*
X114874287Y-120958364D01*
X114780886Y-120938511D01*
X114693943Y-120920030D01*
X114693938Y-120920030D01*
X114687486Y-120918658D01*
X114496512Y-120918658D01*
X114490060Y-120920030D01*
X114490055Y-120920030D01*
X114375451Y-120944390D01*
X114304660Y-120938988D01*
X114248027Y-120896171D01*
X114223944Y-120834313D01*
X114214729Y-120746635D01*
X114214729Y-120746633D01*
X114214039Y-120740072D01*
X114155024Y-120558444D01*
X114059537Y-120393056D01*
X113982844Y-120307879D01*
X113936172Y-120256045D01*
X113936171Y-120256044D01*
X113931750Y-120251134D01*
X113777249Y-120138882D01*
X113771221Y-120136198D01*
X113771219Y-120136197D01*
X113608816Y-120063891D01*
X113608815Y-120063891D01*
X113602785Y-120061206D01*
X113509385Y-120041353D01*
X113422441Y-120022872D01*
X113422436Y-120022872D01*
X113415984Y-120021500D01*
X113225010Y-120021500D01*
X113218558Y-120022872D01*
X113218553Y-120022872D01*
X113131609Y-120041353D01*
X113038209Y-120061206D01*
X113032179Y-120063891D01*
X113032178Y-120063891D01*
X112869775Y-120136197D01*
X112869773Y-120136198D01*
X112863745Y-120138882D01*
X112709244Y-120251134D01*
X112704823Y-120256044D01*
X112704822Y-120256045D01*
X112658151Y-120307879D01*
X112581457Y-120393056D01*
X112578156Y-120398774D01*
X112520280Y-120499017D01*
X112468897Y-120548010D01*
X112411161Y-120562017D01*
X111656854Y-120562017D01*
X111645671Y-120561490D01*
X111638178Y-120559815D01*
X111630252Y-120560064D01*
X111630251Y-120560064D01*
X111570088Y-120561955D01*
X111566130Y-120562017D01*
X111538231Y-120562017D01*
X111534241Y-120562521D01*
X111522407Y-120563453D01*
X111478198Y-120564843D01*
X111470584Y-120567055D01*
X111470579Y-120567056D01*
X111458746Y-120570494D01*
X111439383Y-120574505D01*
X111419290Y-120577043D01*
X111411923Y-120579960D01*
X111411918Y-120579961D01*
X111378179Y-120593319D01*
X111366952Y-120597163D01*
X111324494Y-120609499D01*
X111317668Y-120613536D01*
X111307059Y-120619810D01*
X111289311Y-120628505D01*
X111270470Y-120635965D01*
X111264054Y-120640627D01*
X111264053Y-120640627D01*
X111234700Y-120661953D01*
X111224780Y-120668469D01*
X111193552Y-120686937D01*
X111193549Y-120686939D01*
X111186725Y-120690975D01*
X111172404Y-120705296D01*
X111157371Y-120718136D01*
X111140980Y-120730045D01*
X111135929Y-120736151D01*
X111112789Y-120764122D01*
X111104799Y-120772901D01*
X107234673Y-124643026D01*
X107172361Y-124677052D01*
X107101545Y-124671987D01*
X107044710Y-124629440D01*
X107019899Y-124562920D01*
X107023446Y-124522954D01*
X110051275Y-112586320D01*
X110087412Y-112525208D01*
X110150852Y-112493335D01*
X110173407Y-112491300D01*
X128475300Y-112491300D01*
X128543421Y-112511302D01*
G37*
%TD.AperFunction*%
%TD*%
M02*
