%TF.GenerationSoftware,KiCad,Pcbnew,(6.0.9-0)*%
%TF.CreationDate,2022-12-01T16:18:30+01:00*%
%TF.ProjectId,Hlabs motor cotrol,486c6162-7320-46d6-9f74-6f7220636f74,rev?*%
%TF.SameCoordinates,Original*%
%TF.FileFunction,Copper,L1,Top*%
%TF.FilePolarity,Positive*%
%FSLAX46Y46*%
G04 Gerber Fmt 4.6, Leading zero omitted, Abs format (unit mm)*
G04 Created by KiCad (PCBNEW (6.0.9-0)) date 2022-12-01 16:18:30*
%MOMM*%
%LPD*%
G01*
G04 APERTURE LIST*
G04 Aperture macros list*
%AMRoundRect*
0 Rectangle with rounded corners*
0 $1 Rounding radius*
0 $2 $3 $4 $5 $6 $7 $8 $9 X,Y pos of 4 corners*
0 Add a 4 corners polygon primitive as box body*
4,1,4,$2,$3,$4,$5,$6,$7,$8,$9,$2,$3,0*
0 Add four circle primitives for the rounded corners*
1,1,$1+$1,$2,$3*
1,1,$1+$1,$4,$5*
1,1,$1+$1,$6,$7*
1,1,$1+$1,$8,$9*
0 Add four rect primitives between the rounded corners*
20,1,$1+$1,$2,$3,$4,$5,0*
20,1,$1+$1,$4,$5,$6,$7,0*
20,1,$1+$1,$6,$7,$8,$9,0*
20,1,$1+$1,$8,$9,$2,$3,0*%
%AMFreePoly0*
4,1,633,-0.169239,1.704685,-0.168419,1.704743,-0.166188,1.704000,-0.165000,1.704000,-0.164239,1.703685,-0.163419,1.703743,-0.161188,1.703000,-0.160000,1.703000,-0.159239,1.702685,-0.158419,1.702743,-0.155419,1.701744,-0.155136,1.701499,-0.154764,1.701472,-0.153081,1.700630,-0.150419,1.699744,-0.149541,1.698982,-0.148464,1.698536,-0.147037,1.697109,-0.145764,1.696472,-0.145226,1.695852,
-0.144464,1.695536,-0.143037,1.694109,-0.141764,1.693472,-0.141226,1.692852,-0.140464,1.692536,-0.132465,1.684536,-0.132150,1.683776,-0.131528,1.683236,-0.130892,1.681963,-0.129465,1.680536,-0.129150,1.679776,-0.128528,1.679236,-0.127892,1.677963,-0.126465,1.676536,-0.126019,1.675460,-0.125257,1.674581,-0.124370,1.671920,-0.123528,1.670236,-0.123501,1.669863,-0.123257,1.669581,
-0.122257,1.666581,-0.122315,1.665761,-0.122000,1.665000,-0.122000,1.663810,-0.121257,1.661581,-0.121315,1.660761,-0.121000,1.660000,-0.121000,1.658810,-0.120257,1.656581,-0.120315,1.655761,-0.120000,1.655000,-0.120000,1.205000,0.120000,1.205000,0.120000,1.655000,0.120315,1.655761,0.120257,1.656581,0.121000,1.658812,0.121000,1.660000,0.121315,1.660761,0.121257,1.661581,
0.122000,1.663812,0.122000,1.665000,0.122315,1.665761,0.122257,1.666581,0.123256,1.669581,0.123501,1.669864,0.123528,1.670236,0.124370,1.671919,0.125256,1.674581,0.126018,1.675459,0.126464,1.676536,0.127891,1.677963,0.128528,1.679236,0.129148,1.679774,0.129464,1.680536,0.130891,1.681963,0.131528,1.683236,0.132148,1.683774,0.132464,1.684536,0.140464,1.692535,
0.141224,1.692850,0.141764,1.693472,0.143037,1.694108,0.144464,1.695535,0.145224,1.695850,0.145764,1.696472,0.147037,1.697108,0.148464,1.698535,0.149540,1.698981,0.150419,1.699743,0.153080,1.700630,0.154764,1.701472,0.155137,1.701499,0.155419,1.701743,0.158419,1.702743,0.159239,1.702685,0.160000,1.703000,0.161190,1.703000,0.163419,1.703743,0.164239,1.703685,
0.165000,1.704000,0.166190,1.704000,0.168419,1.704743,0.169239,1.704685,0.170000,1.705000,0.330000,1.705000,0.330761,1.704685,0.331581,1.704743,0.333812,1.704000,0.335000,1.704000,0.335761,1.703685,0.336581,1.703743,0.338812,1.703000,0.340000,1.703000,0.340761,1.702685,0.341581,1.702743,0.344581,1.701744,0.344864,1.701499,0.345236,1.701472,0.346919,1.700630,
0.349581,1.699744,0.350459,1.698982,0.351536,1.698536,0.352963,1.697109,0.354236,1.696472,0.354774,1.695852,0.355536,1.695536,0.356963,1.694109,0.358236,1.693472,0.358774,1.692852,0.359536,1.692536,0.367535,1.684536,0.367850,1.683776,0.368472,1.683236,0.369108,1.681963,0.370535,1.680536,0.370850,1.679776,0.371472,1.679236,0.372108,1.677963,0.373535,1.676536,
0.373981,1.675460,0.374743,1.674581,0.375630,1.671920,0.376472,1.670236,0.376499,1.669863,0.376743,1.669581,0.377743,1.666581,0.377685,1.665761,0.378000,1.665000,0.378000,1.663810,0.378743,1.661581,0.378685,1.660761,0.379000,1.660000,0.379000,1.658810,0.379743,1.656581,0.379685,1.655761,0.380000,1.655000,0.380000,1.205000,0.780000,1.205000,0.780761,1.204685,
0.781581,1.204743,0.783812,1.204000,0.785000,1.204000,0.785761,1.203685,0.786581,1.203743,0.788812,1.203000,0.790000,1.203000,0.790761,1.202685,0.791581,1.202743,0.794581,1.201744,0.794864,1.201499,0.795236,1.201472,0.796919,1.200630,0.799581,1.199744,0.800459,1.198982,0.801536,1.198536,0.802963,1.197109,0.804236,1.196472,0.804774,1.195852,0.805536,1.195536,
0.806963,1.194109,0.808236,1.193472,0.808774,1.192852,0.809536,1.192536,0.817535,1.184536,0.817850,1.183776,0.818472,1.183236,0.819108,1.181963,0.820535,1.180536,0.820850,1.179776,0.821472,1.179236,0.822108,1.177963,0.823535,1.176536,0.823981,1.175460,0.824743,1.174581,0.825630,1.171920,0.826472,1.170236,0.826499,1.169863,0.826743,1.169581,0.827743,1.166581,
0.827685,1.165761,0.828000,1.165000,0.828000,1.163810,0.828743,1.161581,0.828685,1.160761,0.829000,1.160000,0.829000,1.158810,0.829743,1.156581,0.829685,1.155761,0.830000,1.155000,0.830000,-1.155000,0.829685,-1.155761,0.829743,-1.156581,0.829000,-1.158810,0.829000,-1.160000,0.828685,-1.160761,0.828743,-1.161581,0.828000,-1.163810,0.828000,-1.165000,0.827685,-1.165761,
0.827743,-1.166581,0.826743,-1.169581,0.826499,-1.169863,0.826472,-1.170236,0.825630,-1.171920,0.824743,-1.174581,0.823981,-1.175460,0.823535,-1.176536,0.822108,-1.177963,0.821472,-1.179236,0.820850,-1.179776,0.820535,-1.180536,0.819108,-1.181963,0.818472,-1.183236,0.817850,-1.183776,0.817535,-1.184536,0.809536,-1.192536,0.808774,-1.192852,0.808236,-1.193472,0.806963,-1.194109,
0.805536,-1.195536,0.804774,-1.195852,0.804236,-1.196472,0.802963,-1.197109,0.801536,-1.198536,0.800459,-1.198982,0.799581,-1.199744,0.796919,-1.200630,0.795236,-1.201472,0.794864,-1.201499,0.794581,-1.201744,0.791581,-1.202743,0.790761,-1.202685,0.790000,-1.203000,0.788812,-1.203000,0.786581,-1.203743,0.785761,-1.203685,0.785000,-1.204000,0.783812,-1.204000,0.781581,-1.204743,
0.780761,-1.204685,0.780000,-1.205000,0.380000,-1.205000,0.380000,-1.655000,0.379685,-1.655761,0.379743,-1.656581,0.379000,-1.658810,0.379000,-1.660000,0.378685,-1.660761,0.378743,-1.661581,0.378000,-1.663810,0.378000,-1.665000,0.377685,-1.665761,0.377743,-1.666581,0.376743,-1.669581,0.376499,-1.669863,0.376472,-1.670236,0.375630,-1.671920,0.374743,-1.674581,0.373981,-1.675460,
0.373535,-1.676536,0.372108,-1.677963,0.371472,-1.679236,0.370850,-1.679776,0.370535,-1.680536,0.369108,-1.681963,0.368472,-1.683236,0.367850,-1.683776,0.367535,-1.684536,0.359536,-1.692536,0.358774,-1.692852,0.358236,-1.693472,0.356963,-1.694109,0.355536,-1.695536,0.354774,-1.695852,0.354236,-1.696472,0.352963,-1.697109,0.351536,-1.698536,0.350459,-1.698982,0.349581,-1.699744,
0.346919,-1.700630,0.345236,-1.701472,0.344864,-1.701499,0.344581,-1.701744,0.341581,-1.702743,0.340761,-1.702685,0.340000,-1.703000,0.338812,-1.703000,0.336581,-1.703743,0.335761,-1.703685,0.335000,-1.704000,0.333812,-1.704000,0.331581,-1.704743,0.330761,-1.704685,0.330000,-1.705000,0.170000,-1.705000,0.169239,-1.704685,0.168419,-1.704743,0.166190,-1.704000,0.165000,-1.704000,
0.164239,-1.703685,0.163419,-1.703743,0.161190,-1.703000,0.160000,-1.703000,0.159239,-1.702685,0.158419,-1.702743,0.155419,-1.701743,0.155137,-1.701499,0.154764,-1.701472,0.153080,-1.700630,0.150419,-1.699743,0.149540,-1.698981,0.148464,-1.698535,0.147037,-1.697108,0.145764,-1.696472,0.145224,-1.695850,0.144464,-1.695535,0.143037,-1.694108,0.141764,-1.693472,0.141224,-1.692850,
0.140464,-1.692535,0.132464,-1.684536,0.132148,-1.683774,0.131528,-1.683236,0.130891,-1.681963,0.129464,-1.680536,0.129148,-1.679774,0.128528,-1.679236,0.127891,-1.677963,0.126464,-1.676536,0.126018,-1.675459,0.125256,-1.674581,0.124370,-1.671919,0.123528,-1.670236,0.123501,-1.669864,0.123256,-1.669581,0.122257,-1.666581,0.122315,-1.665761,0.122000,-1.665000,0.122000,-1.663812,
0.121257,-1.661581,0.121315,-1.660761,0.121000,-1.660000,0.121000,-1.658812,0.120257,-1.656581,0.120315,-1.655761,0.120000,-1.655000,0.120000,-1.205000,-0.120000,-1.205000,-0.120000,-1.655000,-0.120315,-1.655761,-0.120257,-1.656581,-0.121000,-1.658810,-0.121000,-1.660000,-0.121315,-1.660761,-0.121257,-1.661581,-0.122000,-1.663810,-0.122000,-1.665000,-0.122315,-1.665761,-0.122257,-1.666581,
-0.123257,-1.669581,-0.123501,-1.669863,-0.123528,-1.670236,-0.124370,-1.671920,-0.125257,-1.674581,-0.126019,-1.675460,-0.126465,-1.676536,-0.127892,-1.677963,-0.128528,-1.679236,-0.129150,-1.679776,-0.129465,-1.680536,-0.130892,-1.681963,-0.131528,-1.683236,-0.132150,-1.683776,-0.132465,-1.684536,-0.140464,-1.692536,-0.141226,-1.692852,-0.141764,-1.693472,-0.143037,-1.694109,-0.144464,-1.695536,
-0.145226,-1.695852,-0.145764,-1.696472,-0.147037,-1.697109,-0.148464,-1.698536,-0.149541,-1.698982,-0.150419,-1.699744,-0.153081,-1.700630,-0.154764,-1.701472,-0.155136,-1.701499,-0.155419,-1.701744,-0.158419,-1.702743,-0.159239,-1.702685,-0.160000,-1.703000,-0.161188,-1.703000,-0.163419,-1.703743,-0.164239,-1.703685,-0.165000,-1.704000,-0.166188,-1.704000,-0.168419,-1.704743,-0.169239,-1.704685,
-0.170000,-1.705000,-0.330000,-1.705000,-0.330761,-1.704685,-0.331581,-1.704743,-0.333810,-1.704000,-0.335000,-1.704000,-0.335761,-1.703685,-0.336581,-1.703743,-0.338810,-1.703000,-0.340000,-1.703000,-0.340761,-1.702685,-0.341581,-1.702743,-0.344581,-1.701743,-0.344863,-1.701499,-0.345236,-1.701472,-0.346920,-1.700630,-0.349581,-1.699743,-0.350460,-1.698981,-0.351536,-1.698535,-0.352963,-1.697108,
-0.354236,-1.696472,-0.354776,-1.695850,-0.355536,-1.695535,-0.356963,-1.694108,-0.358236,-1.693472,-0.358776,-1.692850,-0.359536,-1.692535,-0.367536,-1.684536,-0.367852,-1.683774,-0.368472,-1.683236,-0.369109,-1.681963,-0.370536,-1.680536,-0.370852,-1.679774,-0.371472,-1.679236,-0.372109,-1.677963,-0.373536,-1.676536,-0.373982,-1.675459,-0.374744,-1.674581,-0.375630,-1.671919,-0.376472,-1.670236,
-0.376499,-1.669864,-0.376744,-1.669581,-0.377743,-1.666581,-0.377685,-1.665761,-0.378000,-1.665000,-0.378000,-1.663812,-0.378743,-1.661581,-0.378685,-1.660761,-0.379000,-1.660000,-0.379000,-1.658812,-0.379743,-1.656581,-0.379685,-1.655761,-0.380000,-1.655000,-0.380000,-1.205000,-0.780000,-1.205000,-0.780761,-1.204685,-0.781581,-1.204743,-0.783810,-1.204000,-0.785000,-1.204000,-0.785761,-1.203685,
-0.786581,-1.203743,-0.788810,-1.203000,-0.790000,-1.203000,-0.790761,-1.202685,-0.791581,-1.202743,-0.794581,-1.201743,-0.794863,-1.201499,-0.795236,-1.201472,-0.796920,-1.200630,-0.799581,-1.199743,-0.800460,-1.198981,-0.801536,-1.198535,-0.802963,-1.197108,-0.804236,-1.196472,-0.804776,-1.195850,-0.805536,-1.195535,-0.806963,-1.194108,-0.808236,-1.193472,-0.808776,-1.192850,-0.809536,-1.192535,
-0.817536,-1.184536,-0.817852,-1.183774,-0.818472,-1.183236,-0.819109,-1.181963,-0.820536,-1.180536,-0.820852,-1.179774,-0.821472,-1.179236,-0.822109,-1.177963,-0.823536,-1.176536,-0.823982,-1.175459,-0.824744,-1.174581,-0.825630,-1.171919,-0.826472,-1.170236,-0.826499,-1.169864,-0.826744,-1.169581,-0.827743,-1.166581,-0.827685,-1.165761,-0.828000,-1.165000,-0.828000,-1.163812,-0.828743,-1.161581,
-0.828685,-1.160761,-0.829000,-1.160000,-0.829000,-1.158812,-0.829743,-1.156581,-0.829685,-1.155761,-0.830000,-1.155000,-0.830000,1.155000,-0.829685,1.155761,-0.829743,1.156581,-0.829000,1.158812,-0.829000,1.160000,-0.828685,1.160761,-0.828743,1.161581,-0.828000,1.163812,-0.828000,1.165000,-0.827685,1.165761,-0.827743,1.166581,-0.826744,1.169581,-0.826499,1.169864,-0.826472,1.170236,
-0.825630,1.171919,-0.824744,1.174581,-0.823982,1.175459,-0.823536,1.176536,-0.822109,1.177963,-0.821472,1.179236,-0.820852,1.179774,-0.820536,1.180536,-0.819109,1.181963,-0.818472,1.183236,-0.817852,1.183774,-0.817536,1.184536,-0.809536,1.192535,-0.808776,1.192850,-0.808236,1.193472,-0.806963,1.194108,-0.805536,1.195535,-0.804776,1.195850,-0.804236,1.196472,-0.802963,1.197108,
-0.801536,1.198535,-0.800460,1.198981,-0.799581,1.199743,-0.796920,1.200630,-0.795236,1.201472,-0.794863,1.201499,-0.794581,1.201743,-0.791581,1.202743,-0.790761,1.202685,-0.790000,1.203000,-0.788810,1.203000,-0.786581,1.203743,-0.785761,1.203685,-0.785000,1.204000,-0.783810,1.204000,-0.781581,1.204743,-0.780761,1.204685,-0.780000,1.205000,-0.380000,1.205000,-0.380000,1.655000,
-0.379685,1.655761,-0.379743,1.656581,-0.379000,1.658812,-0.379000,1.660000,-0.378685,1.660761,-0.378743,1.661581,-0.378000,1.663812,-0.378000,1.665000,-0.377685,1.665761,-0.377743,1.666581,-0.376744,1.669581,-0.376499,1.669864,-0.376472,1.670236,-0.375630,1.671919,-0.374744,1.674581,-0.373982,1.675459,-0.373536,1.676536,-0.372109,1.677963,-0.371472,1.679236,-0.370852,1.679774,
-0.370536,1.680536,-0.369109,1.681963,-0.368472,1.683236,-0.367852,1.683774,-0.367536,1.684536,-0.359536,1.692535,-0.358776,1.692850,-0.358236,1.693472,-0.356963,1.694108,-0.355536,1.695535,-0.354776,1.695850,-0.354236,1.696472,-0.352963,1.697108,-0.351536,1.698535,-0.350460,1.698981,-0.349581,1.699743,-0.346920,1.700630,-0.345236,1.701472,-0.344863,1.701499,-0.344581,1.701743,
-0.341581,1.702743,-0.340761,1.702685,-0.340000,1.703000,-0.338810,1.703000,-0.336581,1.703743,-0.335761,1.703685,-0.335000,1.704000,-0.333810,1.704000,-0.331581,1.704743,-0.330761,1.704685,-0.330000,1.705000,-0.170000,1.705000,-0.169239,1.704685,-0.169239,1.704685,$1*%
%AMFreePoly1*
4,1,22,0.550000,-0.750000,0.000000,-0.750000,0.000000,-0.745033,-0.079941,-0.743568,-0.215256,-0.701293,-0.333266,-0.622738,-0.424486,-0.514219,-0.481581,-0.384460,-0.499164,-0.250000,-0.500000,-0.250000,-0.500000,0.250000,-0.499164,0.250000,-0.499963,0.256109,-0.478152,0.396186,-0.417904,0.524511,-0.324060,0.630769,-0.204165,0.706417,-0.067858,0.745374,0.000000,0.744959,0.000000,0.750000,
0.550000,0.750000,0.550000,-0.750000,0.550000,-0.750000,$1*%
%AMFreePoly2*
4,1,20,0.000000,0.744959,0.073905,0.744508,0.209726,0.703889,0.328688,0.626782,0.421226,0.519385,0.479903,0.390333,0.500000,0.250000,0.500000,-0.250000,0.499851,-0.262216,0.476331,-0.402017,0.414519,-0.529596,0.319384,-0.634700,0.198574,-0.708877,0.061801,-0.746166,0.000000,-0.745033,0.000000,-0.750000,-0.550000,-0.750000,-0.550000,0.750000,0.000000,0.750000,0.000000,0.744959,
0.000000,0.744959,$1*%
G04 Aperture macros list end*
%TA.AperFunction,SMDPad,CuDef*%
%ADD10RoundRect,0.250000X0.450000X-0.350000X0.450000X0.350000X-0.450000X0.350000X-0.450000X-0.350000X0*%
%TD*%
%TA.AperFunction,SMDPad,CuDef*%
%ADD11RoundRect,0.012000X-0.108000X0.288000X-0.108000X-0.288000X0.108000X-0.288000X0.108000X0.288000X0*%
%TD*%
%TA.AperFunction,SMDPad,CuDef*%
%ADD12FreePoly0,270.000000*%
%TD*%
%TA.AperFunction,ComponentPad*%
%ADD13C,0.300000*%
%TD*%
%TA.AperFunction,SMDPad,CuDef*%
%ADD14FreePoly1,0.000000*%
%TD*%
%TA.AperFunction,SMDPad,CuDef*%
%ADD15R,1.000000X1.500000*%
%TD*%
%TA.AperFunction,SMDPad,CuDef*%
%ADD16FreePoly2,0.000000*%
%TD*%
%TA.AperFunction,SMDPad,CuDef*%
%ADD17RoundRect,0.250000X0.537500X1.450000X-0.537500X1.450000X-0.537500X-1.450000X0.537500X-1.450000X0*%
%TD*%
%TA.AperFunction,SMDPad,CuDef*%
%ADD18RoundRect,0.250000X-1.500000X-0.550000X1.500000X-0.550000X1.500000X0.550000X-1.500000X0.550000X0*%
%TD*%
%TA.AperFunction,SMDPad,CuDef*%
%ADD19RoundRect,0.250000X-0.350000X-0.450000X0.350000X-0.450000X0.350000X0.450000X-0.350000X0.450000X0*%
%TD*%
%TA.AperFunction,SMDPad,CuDef*%
%ADD20RoundRect,0.237500X0.300000X0.237500X-0.300000X0.237500X-0.300000X-0.237500X0.300000X-0.237500X0*%
%TD*%
%TA.AperFunction,SMDPad,CuDef*%
%ADD21R,0.270000X1.399999*%
%TD*%
%TA.AperFunction,SMDPad,CuDef*%
%ADD22R,2.180000X1.720000*%
%TD*%
%TA.AperFunction,ComponentPad*%
%ADD23C,0.508000*%
%TD*%
%TA.AperFunction,SMDPad,CuDef*%
%ADD24RoundRect,0.250000X0.350000X0.450000X-0.350000X0.450000X-0.350000X-0.450000X0.350000X-0.450000X0*%
%TD*%
%TA.AperFunction,ComponentPad*%
%ADD25RoundRect,0.250000X0.600000X-0.600000X0.600000X0.600000X-0.600000X0.600000X-0.600000X-0.600000X0*%
%TD*%
%TA.AperFunction,ComponentPad*%
%ADD26C,1.700000*%
%TD*%
%TA.AperFunction,SMDPad,CuDef*%
%ADD27R,0.500000X2.200000*%
%TD*%
%TA.AperFunction,ComponentPad*%
%ADD28C,0.630000*%
%TD*%
%TA.AperFunction,SMDPad,CuDef*%
%ADD29R,4.900000X2.950000*%
%TD*%
%TA.AperFunction,SMDPad,CuDef*%
%ADD30RoundRect,0.250000X-0.550000X1.500000X-0.550000X-1.500000X0.550000X-1.500000X0.550000X1.500000X0*%
%TD*%
%TA.AperFunction,SMDPad,CuDef*%
%ADD31R,1.150000X3.600000*%
%TD*%
%TA.AperFunction,ComponentPad*%
%ADD32R,3.000000X3.000000*%
%TD*%
%TA.AperFunction,ComponentPad*%
%ADD33C,3.000000*%
%TD*%
%TA.AperFunction,ComponentPad*%
%ADD34RoundRect,0.625000X-0.625000X1.625000X-0.625000X-1.625000X0.625000X-1.625000X0.625000X1.625000X0*%
%TD*%
%TA.AperFunction,ViaPad*%
%ADD35C,0.800000*%
%TD*%
%TA.AperFunction,Conductor*%
%ADD36C,1.000000*%
%TD*%
%TA.AperFunction,Conductor*%
%ADD37C,0.250000*%
%TD*%
%TA.AperFunction,Conductor*%
%ADD38C,0.750000*%
%TD*%
G04 APERTURE END LIST*
D10*
%TO.P,R3,1*%
%TO.N,Net-(R3-Pad1)*%
X89500000Y-122750000D03*
%TO.P,R3,2*%
%TO.N,GND1*%
X89500000Y-120750000D03*
%TD*%
D11*
%TO.P,REF\u002A\u002A,1*%
%TO.N,N/C*%
X114362937Y-123834483D03*
%TO.P,REF\u002A\u002A,2*%
X113862937Y-123834483D03*
%TO.P,REF\u002A\u002A,3*%
X113362937Y-123834483D03*
%TO.P,REF\u002A\u002A,4*%
X112862937Y-123834483D03*
%TO.P,REF\u002A\u002A,5*%
X112362937Y-123834483D03*
%TO.P,REF\u002A\u002A,6*%
X112362937Y-126634483D03*
%TO.P,REF\u002A\u002A,7*%
X112862937Y-126634483D03*
%TO.P,REF\u002A\u002A,8*%
X113362937Y-126634483D03*
%TO.P,REF\u002A\u002A,9*%
X113862937Y-126634483D03*
%TO.P,REF\u002A\u002A,10*%
X114362937Y-126634483D03*
D12*
%TO.P,REF\u002A\u002A,11*%
%TO.N,GND*%
X113362937Y-125234483D03*
D13*
%TO.P,REF\u002A\u002A,12*%
X114312937Y-125234483D03*
%TO.P,REF\u002A\u002A,13*%
X113362937Y-124659483D03*
%TO.P,REF\u002A\u002A,14*%
X113362937Y-125809483D03*
%TO.P,REF\u002A\u002A,15*%
X112412937Y-125234483D03*
%TD*%
D14*
%TO.P,A0,1,A*%
%TO.N,GND*%
X121900000Y-131620000D03*
D15*
%TO.P,A0,2,C*%
%TO.N,A0*%
X123200000Y-131620000D03*
D16*
%TO.P,A0,3,B*%
%TO.N,+5V*%
X124500000Y-131620000D03*
%TD*%
D17*
%TO.P,C3,1*%
%TO.N,+Vmot*%
X105937500Y-119240000D03*
%TO.P,C3,2*%
%TO.N,GND1*%
X101662500Y-119240000D03*
%TD*%
D18*
%TO.P,C1,1*%
%TO.N,/VMOT*%
X113750000Y-116720000D03*
%TO.P,C1,2*%
%TO.N,GND*%
X119150000Y-116720000D03*
%TD*%
D19*
%TO.P,R2,1*%
%TO.N,Net-(R1-Pad2)*%
X93000000Y-134500000D03*
%TO.P,R2,2*%
%TO.N,GND*%
X95000000Y-134500000D03*
%TD*%
D20*
%TO.P,C2,1*%
%TO.N,+5V*%
X112182500Y-121180000D03*
%TO.P,C2,2*%
%TO.N,GND*%
X110457500Y-121180000D03*
%TD*%
D21*
%TO.P,U1,1,OUT2*%
%TO.N,Net-(U1-Pad1)*%
X114362938Y-123059484D03*
%TO.P,U1,2,ISENSE*%
%TO.N,GND*%
X113862936Y-123059484D03*
%TO.P,U1,3,OUT1*%
%TO.N,Net-(U1-Pad3)*%
X113362937Y-123059484D03*
%TO.P,U1,4,VCC*%
%TO.N,+5V*%
X112862938Y-123059484D03*
%TO.P,U1,5,GND*%
%TO.N,GND*%
X112362936Y-123059484D03*
%TO.P,U1,6,FAULTN*%
X112362936Y-127409482D03*
%TO.P,U1,7,A0*%
%TO.N,A0*%
X112862938Y-127409482D03*
%TO.P,U1,8,A1*%
%TO.N,A1*%
X113362937Y-127409482D03*
%TO.P,U1,9,SDA*%
%TO.N,I2C SDA*%
X113862936Y-127409482D03*
%TO.P,U1,10,SCL*%
%TO.N,I2C SCL*%
X114362938Y-127409482D03*
D22*
%TO.P,U1,EPAD,EPAD*%
%TO.N,GND*%
X113362937Y-125234483D03*
D23*
%TO.P,U1,V*%
X112969237Y-124840783D03*
X113756637Y-125628183D03*
X112969237Y-125628183D03*
X113756637Y-124840783D03*
%TD*%
D14*
%TO.P,A1,1,A*%
%TO.N,GND*%
X121880000Y-128650000D03*
D15*
%TO.P,A1,2,C*%
%TO.N,A1*%
X123180000Y-128650000D03*
D16*
%TO.P,A1,3,B*%
%TO.N,+5V*%
X124480000Y-128650000D03*
%TD*%
D24*
%TO.P,R1,1*%
%TO.N,+5V*%
X95000000Y-136500000D03*
%TO.P,R1,2*%
%TO.N,Net-(R1-Pad2)*%
X93000000Y-136500000D03*
%TD*%
D25*
%TO.P,J1,1,Pin_1*%
%TO.N,GND*%
X107940000Y-137252500D03*
D26*
%TO.P,J1,2,Pin_2*%
%TO.N,/VMOT*%
X107940000Y-134712500D03*
%TO.P,J1,3,Pin_3*%
%TO.N,GND*%
X110480000Y-137252500D03*
%TO.P,J1,4,Pin_4*%
%TO.N,/VMOT*%
X110480000Y-134712500D03*
%TO.P,J1,5,Pin_5*%
%TO.N,pot_cmd*%
X113020000Y-137252500D03*
%TO.P,J1,6,Pin_6*%
%TO.N,+5V*%
X113020000Y-134712500D03*
%TO.P,J1,7,Pin_7*%
%TO.N,I2C SDA*%
X115560000Y-137252500D03*
%TO.P,J1,8,Pin_8*%
%TO.N,I2C SCL*%
X115560000Y-134712500D03*
%TD*%
D27*
%TO.P,U2,1,GND*%
%TO.N,GND1*%
X88095000Y-131125000D03*
%TO.P,U2,2,IN2*%
%TO.N,Net-(U1-Pad3)*%
X89365000Y-131125000D03*
%TO.P,U2,3,IN1*%
%TO.N,Net-(U1-Pad1)*%
X90635000Y-131125000D03*
%TO.P,U2,4,VREF*%
%TO.N,Net-(R1-Pad2)*%
X91905000Y-131125000D03*
%TO.P,U2,5,VM*%
%TO.N,+Vmot*%
X91905000Y-125375000D03*
%TO.P,U2,6,OUT1*%
%TO.N,/M+*%
X90635000Y-125375000D03*
%TO.P,U2,7,ISEN*%
%TO.N,Net-(R3-Pad1)*%
X89365000Y-125375000D03*
%TO.P,U2,8,OUT2*%
%TO.N,Net-(RV1-PadM-)*%
X88095000Y-125375000D03*
D28*
%TO.P,U2,9,GND*%
%TO.N,GND1*%
X90000000Y-128900000D03*
X88700000Y-128900000D03*
X91300000Y-127600000D03*
D29*
X90000000Y-128250000D03*
D28*
X88700000Y-127600000D03*
X90000000Y-127600000D03*
X91300000Y-128900000D03*
%TD*%
D30*
%TO.P,C4,1*%
%TO.N,+Vmot*%
X100000000Y-124200000D03*
%TO.P,C4,2*%
%TO.N,GND1*%
X100000000Y-129800000D03*
%TD*%
D31*
%TO.P,L2,1*%
%TO.N,GND*%
X107675000Y-128500000D03*
%TO.P,L2,2*%
%TO.N,GND1*%
X104725000Y-128500000D03*
%TD*%
%TO.P,L1,1*%
%TO.N,/VMOT*%
X107665000Y-123840000D03*
%TO.P,L1,2*%
%TO.N,+Vmot*%
X104715000Y-123840000D03*
%TD*%
D32*
%TO.P,RV1,1,1*%
%TO.N,+5V*%
X79500000Y-134000000D03*
D33*
%TO.P,RV1,2,2*%
%TO.N,pot_cmd*%
X79500000Y-129000000D03*
%TO.P,RV1,3,3*%
%TO.N,GND*%
X79500000Y-124000000D03*
%TO.P,RV1,4*%
X84500000Y-134000000D03*
%TO.P,RV1,5*%
X84500000Y-129000000D03*
%TO.P,RV1,6*%
X84500000Y-124000000D03*
D34*
%TO.P,RV1,GND*%
X98530000Y-119350000D03*
X98510000Y-134570000D03*
D33*
%TO.P,RV1,M+,M+*%
%TO.N,/M+*%
X119660000Y-124680000D03*
%TO.P,RV1,M-,M-*%
%TO.N,Net-(RV1-PadM-)*%
X119620000Y-134080000D03*
%TD*%
D35*
%TO.N,GND*%
X108750000Y-131750000D03*
X78600000Y-138600000D03*
X122160000Y-137940000D03*
X111820000Y-128430000D03*
X115350000Y-122970000D03*
X116510000Y-128470000D03*
%TO.N,I2C SDA*%
X114102133Y-129353291D03*
%TO.N,I2C SCL*%
X115100888Y-129391934D03*
%TO.N,Net-(U1-Pad1)*%
X90200000Y-133474500D03*
X114591999Y-121827158D03*
%TO.N,Net-(U1-Pad3)*%
X89000000Y-133500000D03*
X113320497Y-120930000D03*
%TO.N,GND1*%
X86750000Y-131500000D03*
X103500000Y-121975500D03*
X93500000Y-126250000D03*
X86750000Y-119000000D03*
X86800000Y-122750000D03*
X86750000Y-125250000D03*
X93750000Y-130250000D03*
X86750000Y-128250000D03*
X89500000Y-119000000D03*
X93750000Y-131500000D03*
X93200000Y-120400000D03*
%TD*%
D36*
%TO.N,/VMOT*%
X107665000Y-118555000D02*
X107665000Y-123840000D01*
X109500000Y-116720000D02*
X107665000Y-118555000D01*
X108950000Y-125125000D02*
X107665000Y-123840000D01*
X108950000Y-129970000D02*
X108950000Y-125125000D01*
X110480000Y-134712500D02*
X110480000Y-131500000D01*
X107940000Y-134712500D02*
X110480000Y-134712500D01*
X113750000Y-116720000D02*
X109500000Y-116720000D01*
X110480000Y-131500000D02*
X108950000Y-129970000D01*
D37*
%TO.N,GND*%
X112367499Y-128132501D02*
X112367499Y-127417499D01*
X113867499Y-121526353D02*
X113867499Y-123067501D01*
X110820000Y-122180000D02*
X112070000Y-122180000D01*
X112367499Y-123067501D02*
X112367499Y-122502502D01*
X114291694Y-121102158D02*
X113867499Y-121526353D01*
X111820000Y-128430000D02*
X112070000Y-128430000D01*
X115350000Y-121559854D02*
X114892304Y-121102158D01*
X114892304Y-121102158D02*
X114291694Y-121102158D01*
X112070000Y-122205003D02*
X112070000Y-122180000D01*
X112070000Y-128430000D02*
X112367499Y-128132501D01*
X112367499Y-122502502D02*
X112070000Y-122205003D01*
X115350000Y-122970000D02*
X115350000Y-121559854D01*
X110820000Y-122180000D02*
X110457500Y-121817500D01*
X110457500Y-121817500D02*
X110457500Y-121180000D01*
D38*
%TO.N,+Vmot*%
X105637500Y-120602500D02*
X105637500Y-119200000D01*
X104780000Y-123775000D02*
X104715000Y-123840000D01*
X92190000Y-123840000D02*
X104715000Y-123840000D01*
X91905000Y-124125000D02*
X92190000Y-123840000D01*
X104780000Y-121460000D02*
X105637500Y-120602500D01*
X104780000Y-121460000D02*
X104780000Y-123775000D01*
X91905000Y-125375000D02*
X91905000Y-124125000D01*
D37*
%TO.N,+5V*%
X121400000Y-133020000D02*
X123760000Y-133020000D01*
X112690000Y-139440000D02*
X114195000Y-137935000D01*
X114195000Y-135887500D02*
X113020000Y-134712500D01*
X93070000Y-138430000D02*
X95000000Y-136500000D01*
X97940000Y-139440000D02*
X112690000Y-139440000D01*
X120450000Y-132070000D02*
X121400000Y-133020000D01*
X114632500Y-133100000D02*
X116660000Y-133100000D01*
X113020192Y-120205000D02*
X113655000Y-120205000D01*
X95000000Y-136500000D02*
X97940000Y-139440000D01*
X116660000Y-133100000D02*
X117690000Y-132070000D01*
X112182500Y-121180000D02*
X112182500Y-121042692D01*
X124480000Y-128050000D02*
X124480000Y-128650000D01*
X117255000Y-127575000D02*
X124005000Y-127575000D01*
X79500000Y-134000000D02*
X83930000Y-138430000D01*
X113655000Y-120205000D02*
X114102158Y-120652158D01*
X115078700Y-120652158D02*
X116470000Y-122043458D01*
X113020000Y-134712500D02*
X114632500Y-133100000D01*
X112182500Y-121042692D02*
X113020192Y-120205000D01*
X114102158Y-120652158D02*
X115078700Y-120652158D01*
X95000000Y-136500000D02*
X95210000Y-136500000D01*
X114195000Y-137935000D02*
X114195000Y-135887500D01*
X124500000Y-128670000D02*
X124480000Y-128650000D01*
X112862938Y-121860438D02*
X112182500Y-121180000D01*
X116470000Y-122043458D02*
X116470000Y-126790000D01*
X124005000Y-127575000D02*
X124480000Y-128050000D01*
X124500000Y-131620000D02*
X124500000Y-128670000D01*
X112862938Y-123059484D02*
X112862938Y-121860438D01*
X83930000Y-138430000D02*
X93070000Y-138430000D01*
X117690000Y-132070000D02*
X120450000Y-132070000D01*
X116470000Y-126790000D02*
X117255000Y-127575000D01*
X123760000Y-133020000D02*
X124360000Y-132420000D01*
%TO.N,I2C SDA*%
X114102133Y-129353291D02*
X113862936Y-129114094D01*
X113862936Y-129114094D02*
X113862936Y-127409482D01*
%TO.N,I2C SCL*%
X115100888Y-128722434D02*
X114362938Y-127984484D01*
X114362938Y-127984484D02*
X114362938Y-127409482D01*
X115100888Y-129391934D02*
X115100888Y-128722434D01*
%TO.N,A0*%
X123200000Y-131160380D02*
X123200000Y-131620000D01*
X115587589Y-130566934D02*
X115804523Y-130350000D01*
X122389620Y-130350000D02*
X123200000Y-131160380D01*
X112862938Y-129775797D02*
X113654075Y-130566934D01*
X112862938Y-127409482D02*
X112862938Y-129775797D01*
X113654075Y-130566934D02*
X115587589Y-130566934D01*
X115804523Y-130350000D02*
X122389620Y-130350000D01*
%TO.N,A1*%
X123180000Y-129109620D02*
X123180000Y-128650000D01*
X113840471Y-130116934D02*
X115401193Y-130116934D01*
X115401193Y-130116934D02*
X115618127Y-129900000D01*
X113362937Y-127409482D02*
X113362937Y-129639400D01*
X115618127Y-129900000D02*
X122389620Y-129900000D01*
X113362937Y-129639400D02*
X113840471Y-130116934D01*
X122389620Y-129900000D02*
X123180000Y-129109620D01*
%TO.N,Net-(R1-Pad2)*%
X93000000Y-134500000D02*
X93000000Y-136500000D01*
X91905000Y-133405000D02*
X93000000Y-134500000D01*
X91905000Y-131125000D02*
X91905000Y-133405000D01*
D38*
%TO.N,Net-(RV1-PadM-)*%
X88095000Y-117655000D02*
X91540000Y-114210000D01*
X122330000Y-114210000D02*
X126410000Y-118290000D01*
X88095000Y-125375000D02*
X88095000Y-117655000D01*
X125020000Y-134080000D02*
X119620000Y-134080000D01*
X126410000Y-118290000D02*
X126410000Y-132690000D01*
X91540000Y-114210000D02*
X122330000Y-114210000D01*
X126410000Y-132690000D02*
X125020000Y-134080000D01*
D37*
%TO.N,Net-(U1-Pad1)*%
X114367501Y-122051656D02*
X114367501Y-123067501D01*
X90200000Y-133474500D02*
X90635000Y-133039500D01*
X90635000Y-133039500D02*
X90635000Y-131125000D01*
X114591999Y-121827158D02*
X114367501Y-122051656D01*
%TO.N,Net-(U1-Pad3)*%
X113367500Y-120977003D02*
X113367500Y-123067501D01*
X89000000Y-133500000D02*
X89365000Y-133135000D01*
X113320497Y-120930000D02*
X113367500Y-120977003D01*
X89365000Y-133135000D02*
X89365000Y-131125000D01*
%TO.N,Net-(R3-Pad1)*%
X89365000Y-125375000D02*
X89365000Y-122615000D01*
D36*
%TO.N,GND1*%
X91700000Y-128500000D02*
X104725000Y-128500000D01*
X91300000Y-128900000D02*
X91700000Y-128500000D01*
D38*
%TO.N,/M+*%
X123170000Y-116400000D02*
X123170000Y-121170000D01*
D37*
X120052937Y-123524483D02*
X120052937Y-125261983D01*
D38*
X123170000Y-121170000D02*
X119660000Y-124680000D01*
X90635000Y-123675000D02*
X91000000Y-123310000D01*
X90635000Y-125375000D02*
X90635000Y-123675000D01*
X121930000Y-115160000D02*
X123170000Y-116400000D01*
X93640000Y-115160000D02*
X121930000Y-115160000D01*
X91000000Y-117800000D02*
X93640000Y-115160000D01*
X91000000Y-123310000D02*
X91000000Y-117800000D01*
%TD*%
%TA.AperFunction,Conductor*%
%TO.N,GND1*%
G36*
X109574187Y-112511302D02*
G01*
X109620680Y-112564958D01*
X109630784Y-112635232D01*
X109627862Y-112649576D01*
X109473314Y-113232776D01*
X109436530Y-113293500D01*
X109372755Y-113324697D01*
X109351518Y-113326500D01*
X91619457Y-113326500D01*
X91599745Y-113324949D01*
X91593008Y-113323882D01*
X91593009Y-113323882D01*
X91586493Y-113322850D01*
X91579906Y-113323195D01*
X91579902Y-113323195D01*
X91520150Y-113326327D01*
X91513555Y-113326500D01*
X91493694Y-113326500D01*
X91473931Y-113328577D01*
X91467372Y-113329093D01*
X91451573Y-113329921D01*
X91407623Y-113332224D01*
X91407619Y-113332225D01*
X91401029Y-113332570D01*
X91388071Y-113336042D01*
X91368628Y-113339645D01*
X91355298Y-113341046D01*
X91292106Y-113361578D01*
X91285804Y-113363444D01*
X91232328Y-113377773D01*
X91221637Y-113380638D01*
X91215758Y-113383634D01*
X91215749Y-113383637D01*
X91209683Y-113386728D01*
X91191421Y-113394292D01*
X91184957Y-113396392D01*
X91184949Y-113396395D01*
X91178669Y-113398436D01*
X91172950Y-113401738D01*
X91172945Y-113401740D01*
X91121133Y-113431654D01*
X91115363Y-113434787D01*
X91056161Y-113464953D01*
X91046309Y-113472931D01*
X91045742Y-113473390D01*
X91029446Y-113484590D01*
X91023546Y-113487996D01*
X91023543Y-113487998D01*
X91017831Y-113491296D01*
X91012926Y-113495712D01*
X91012921Y-113495716D01*
X90968453Y-113535754D01*
X90963443Y-113540034D01*
X90948015Y-113552528D01*
X90933979Y-113566564D01*
X90929194Y-113571105D01*
X90879815Y-113615566D01*
X90875935Y-113620906D01*
X90875928Y-113620914D01*
X90871927Y-113626422D01*
X90859086Y-113641457D01*
X87526454Y-116974088D01*
X87511426Y-116986925D01*
X87500566Y-116994815D01*
X87496145Y-116999725D01*
X87496144Y-116999726D01*
X87456114Y-117044184D01*
X87451573Y-117048969D01*
X87437528Y-117063014D01*
X87435444Y-117065588D01*
X87435441Y-117065591D01*
X87425031Y-117078446D01*
X87420747Y-117083462D01*
X87380717Y-117127920D01*
X87380713Y-117127925D01*
X87376296Y-117132831D01*
X87372264Y-117139815D01*
X87369589Y-117144448D01*
X87358391Y-117160741D01*
X87349953Y-117171161D01*
X87319787Y-117230363D01*
X87316654Y-117236133D01*
X87286740Y-117287945D01*
X87286738Y-117287950D01*
X87283436Y-117293669D01*
X87281395Y-117299949D01*
X87281392Y-117299957D01*
X87279292Y-117306421D01*
X87271728Y-117324683D01*
X87268637Y-117330749D01*
X87268634Y-117330758D01*
X87265638Y-117336637D01*
X87263929Y-117343015D01*
X87248444Y-117400804D01*
X87246578Y-117407106D01*
X87226046Y-117470298D01*
X87225356Y-117476866D01*
X87224645Y-117483628D01*
X87221042Y-117503071D01*
X87217570Y-117516029D01*
X87217225Y-117522619D01*
X87217224Y-117522623D01*
X87214093Y-117582367D01*
X87213577Y-117588931D01*
X87211500Y-117608694D01*
X87211500Y-117628555D01*
X87211327Y-117635150D01*
X87210650Y-117648077D01*
X87207850Y-117701493D01*
X87208882Y-117708007D01*
X87209949Y-117714744D01*
X87211500Y-117734456D01*
X87211500Y-125421306D01*
X87226046Y-125559702D01*
X87283436Y-125736331D01*
X87319620Y-125799003D01*
X87336500Y-125862001D01*
X87336500Y-126237097D01*
X87316498Y-126305218D01*
X87286065Y-126337923D01*
X87194276Y-126406715D01*
X87181715Y-126419276D01*
X87105214Y-126521351D01*
X87096676Y-126536946D01*
X87051522Y-126657394D01*
X87047895Y-126672649D01*
X87042369Y-126723514D01*
X87042000Y-126730328D01*
X87042000Y-127977885D01*
X87046475Y-127993124D01*
X87047865Y-127994329D01*
X87055548Y-127996000D01*
X87926675Y-127996000D01*
X87935949Y-127993277D01*
X88670513Y-127993277D01*
X88677814Y-127996000D01*
X88718675Y-127996000D01*
X88727949Y-127993277D01*
X89970513Y-127993277D01*
X89977814Y-127996000D01*
X90018675Y-127996000D01*
X90027949Y-127993277D01*
X91270513Y-127993277D01*
X91277814Y-127996000D01*
X91318675Y-127996000D01*
X91329700Y-127992763D01*
X91326462Y-127985672D01*
X91312812Y-127972022D01*
X91298868Y-127964408D01*
X91297035Y-127964539D01*
X91290420Y-127968790D01*
X91276022Y-127983188D01*
X91270513Y-127993277D01*
X90027949Y-127993277D01*
X90029700Y-127992763D01*
X90026462Y-127985672D01*
X90012812Y-127972022D01*
X89998868Y-127964408D01*
X89997035Y-127964539D01*
X89990420Y-127968790D01*
X89976022Y-127983188D01*
X89970513Y-127993277D01*
X88727949Y-127993277D01*
X88729700Y-127992763D01*
X88726462Y-127985672D01*
X88712812Y-127972022D01*
X88698868Y-127964408D01*
X88697035Y-127964539D01*
X88690420Y-127968790D01*
X88676022Y-127983188D01*
X88670513Y-127993277D01*
X87935949Y-127993277D01*
X87952320Y-127988470D01*
X88610905Y-127329885D01*
X88673217Y-127295859D01*
X88744032Y-127300924D01*
X88789095Y-127329885D01*
X89337188Y-127877978D01*
X89351132Y-127885592D01*
X89352965Y-127885461D01*
X89359580Y-127881210D01*
X89910905Y-127329885D01*
X89973217Y-127295859D01*
X90044032Y-127300924D01*
X90089095Y-127329885D01*
X90637188Y-127877978D01*
X90651132Y-127885592D01*
X90652965Y-127885461D01*
X90659580Y-127881210D01*
X91210905Y-127329885D01*
X91273217Y-127295859D01*
X91344032Y-127300924D01*
X91389095Y-127329885D01*
X92042398Y-127983188D01*
X92065860Y-127996000D01*
X92939884Y-127996000D01*
X92955123Y-127991525D01*
X92956328Y-127990135D01*
X92957999Y-127982452D01*
X92957999Y-126730331D01*
X92957629Y-126723510D01*
X92952105Y-126672648D01*
X92948479Y-126657396D01*
X92903324Y-126536946D01*
X92894786Y-126521351D01*
X92818285Y-126419276D01*
X92805724Y-126406715D01*
X92713935Y-126337923D01*
X92671420Y-126281064D01*
X92663500Y-126237097D01*
X92663500Y-125862001D01*
X92680380Y-125799003D01*
X92716564Y-125736331D01*
X92773954Y-125559702D01*
X92788500Y-125421306D01*
X92788500Y-124849500D01*
X92808502Y-124781379D01*
X92862158Y-124734886D01*
X92914500Y-124723500D01*
X98565500Y-124723500D01*
X98633621Y-124743502D01*
X98680114Y-124797158D01*
X98691500Y-124849500D01*
X98691500Y-125750400D01*
X98691837Y-125753646D01*
X98691837Y-125753650D01*
X98696983Y-125803241D01*
X98702474Y-125856166D01*
X98704655Y-125862702D01*
X98704655Y-125862704D01*
X98712738Y-125886930D01*
X98758450Y-126023946D01*
X98851522Y-126174348D01*
X98976697Y-126299305D01*
X98982927Y-126303145D01*
X98982928Y-126303146D01*
X99120090Y-126387694D01*
X99127262Y-126392115D01*
X99171280Y-126406715D01*
X99288611Y-126445632D01*
X99288613Y-126445632D01*
X99295139Y-126447797D01*
X99301975Y-126448497D01*
X99301978Y-126448498D01*
X99345031Y-126452909D01*
X99399600Y-126458500D01*
X100600400Y-126458500D01*
X100603646Y-126458163D01*
X100603650Y-126458163D01*
X100699308Y-126448238D01*
X100699312Y-126448237D01*
X100706166Y-126447526D01*
X100712702Y-126445345D01*
X100712704Y-126445345D01*
X100844806Y-126401272D01*
X100873946Y-126391550D01*
X101024348Y-126298478D01*
X101149305Y-126173303D01*
X101200275Y-126090615D01*
X101238275Y-126028968D01*
X101238276Y-126028966D01*
X101242115Y-126022738D01*
X101280158Y-125908041D01*
X101295632Y-125861389D01*
X101295632Y-125861387D01*
X101297797Y-125854861D01*
X101308500Y-125750400D01*
X101308500Y-124849500D01*
X101328502Y-124781379D01*
X101382158Y-124734886D01*
X101434500Y-124723500D01*
X103505500Y-124723500D01*
X103573621Y-124743502D01*
X103620114Y-124797158D01*
X103631500Y-124849500D01*
X103631500Y-125688134D01*
X103638255Y-125750316D01*
X103689385Y-125886705D01*
X103776739Y-126003261D01*
X103783919Y-126008642D01*
X103783920Y-126008643D01*
X103870103Y-126073234D01*
X103912618Y-126130094D01*
X103917643Y-126200912D01*
X103883584Y-126263205D01*
X103870103Y-126274886D01*
X103794276Y-126331715D01*
X103781715Y-126344276D01*
X103705214Y-126446351D01*
X103696676Y-126461946D01*
X103651522Y-126582394D01*
X103647895Y-126597649D01*
X103642369Y-126648514D01*
X103642000Y-126655328D01*
X103642000Y-128227885D01*
X103646475Y-128243124D01*
X103647865Y-128244329D01*
X103655548Y-128246000D01*
X104853000Y-128246000D01*
X104921121Y-128266002D01*
X104967614Y-128319658D01*
X104979000Y-128372000D01*
X104979000Y-130192453D01*
X104533390Y-131874000D01*
X104524837Y-131906276D01*
X104488053Y-131967000D01*
X104424278Y-131998197D01*
X104403041Y-132000000D01*
X101226113Y-132000000D01*
X101157992Y-131979998D01*
X101111499Y-131926342D01*
X101101395Y-131856068D01*
X101130889Y-131791488D01*
X101136939Y-131784983D01*
X101143738Y-131778172D01*
X101152751Y-131766760D01*
X101237816Y-131628757D01*
X101243963Y-131615576D01*
X101295138Y-131461290D01*
X101298005Y-131447914D01*
X101307672Y-131353562D01*
X101308000Y-131347146D01*
X101308000Y-130344669D01*
X103642001Y-130344669D01*
X103642371Y-130351490D01*
X103647895Y-130402352D01*
X103651521Y-130417604D01*
X103696676Y-130538054D01*
X103705214Y-130553649D01*
X103781715Y-130655724D01*
X103794276Y-130668285D01*
X103896351Y-130744786D01*
X103911946Y-130753324D01*
X104032394Y-130798478D01*
X104047649Y-130802105D01*
X104098514Y-130807631D01*
X104105327Y-130808000D01*
X104452885Y-130807999D01*
X104468124Y-130803524D01*
X104469329Y-130802134D01*
X104471000Y-130794451D01*
X104471000Y-128772115D01*
X104466525Y-128756876D01*
X104465135Y-128755671D01*
X104457452Y-128754000D01*
X103660116Y-128754000D01*
X103644877Y-128758475D01*
X103643672Y-128759865D01*
X103642001Y-128767548D01*
X103642001Y-130344669D01*
X101308000Y-130344669D01*
X101308000Y-130072115D01*
X101303525Y-130056876D01*
X101302135Y-130055671D01*
X101294452Y-130054000D01*
X98710116Y-130054000D01*
X98694877Y-130058475D01*
X98693672Y-130059865D01*
X98692001Y-130067548D01*
X98692001Y-131347095D01*
X98692338Y-131353614D01*
X98702257Y-131449206D01*
X98705149Y-131462600D01*
X98756588Y-131616784D01*
X98763738Y-131632046D01*
X98774524Y-131702219D01*
X98745660Y-131767083D01*
X98686309Y-131806045D01*
X98649638Y-131811500D01*
X97798216Y-131811500D01*
X97748205Y-131814591D01*
X97536918Y-131860852D01*
X97431191Y-131906276D01*
X97347760Y-131942121D01*
X97338191Y-131946232D01*
X97290953Y-131978275D01*
X97220223Y-132000000D01*
X92789500Y-132000000D01*
X92721379Y-131979998D01*
X92674886Y-131926342D01*
X92663500Y-131874000D01*
X92663500Y-130262903D01*
X92683502Y-130194782D01*
X92713935Y-130162077D01*
X92805724Y-130093285D01*
X92818285Y-130080724D01*
X92894786Y-129978649D01*
X92903324Y-129963054D01*
X92948478Y-129842606D01*
X92952105Y-129827351D01*
X92957631Y-129776486D01*
X92958000Y-129769672D01*
X92958000Y-129527885D01*
X98692000Y-129527885D01*
X98696475Y-129543124D01*
X98697865Y-129544329D01*
X98705548Y-129546000D01*
X99727885Y-129546000D01*
X99743124Y-129541525D01*
X99744329Y-129540135D01*
X99746000Y-129532452D01*
X99746000Y-129527885D01*
X100254000Y-129527885D01*
X100258475Y-129543124D01*
X100259865Y-129544329D01*
X100267548Y-129546000D01*
X101289884Y-129546000D01*
X101305123Y-129541525D01*
X101306328Y-129540135D01*
X101307999Y-129532452D01*
X101307999Y-128252905D01*
X101307662Y-128246386D01*
X101297743Y-128150794D01*
X101294851Y-128137400D01*
X101243412Y-127983216D01*
X101237239Y-127970038D01*
X101151937Y-127832193D01*
X101142901Y-127820792D01*
X101028171Y-127706261D01*
X101016760Y-127697249D01*
X100878757Y-127612184D01*
X100865576Y-127606037D01*
X100711290Y-127554862D01*
X100697914Y-127551995D01*
X100603562Y-127542328D01*
X100597145Y-127542000D01*
X100272115Y-127542000D01*
X100256876Y-127546475D01*
X100255671Y-127547865D01*
X100254000Y-127555548D01*
X100254000Y-129527885D01*
X99746000Y-129527885D01*
X99746000Y-127560116D01*
X99741525Y-127544877D01*
X99740135Y-127543672D01*
X99732452Y-127542001D01*
X99402905Y-127542001D01*
X99396386Y-127542338D01*
X99300794Y-127552257D01*
X99287400Y-127555149D01*
X99133216Y-127606588D01*
X99120038Y-127612761D01*
X98982193Y-127698063D01*
X98970792Y-127707099D01*
X98856261Y-127821829D01*
X98847249Y-127833240D01*
X98762184Y-127971243D01*
X98756037Y-127984424D01*
X98704862Y-128138710D01*
X98701995Y-128152086D01*
X98692328Y-128246438D01*
X98692000Y-128252855D01*
X98692000Y-129527885D01*
X92958000Y-129527885D01*
X92958000Y-128522115D01*
X92953525Y-128506876D01*
X92952135Y-128505671D01*
X92944452Y-128504000D01*
X92073325Y-128504000D01*
X92047680Y-128511530D01*
X91389095Y-129170115D01*
X91326783Y-129204141D01*
X91255968Y-129199076D01*
X91210905Y-129170115D01*
X90662812Y-128622022D01*
X90648868Y-128614408D01*
X90647035Y-128614539D01*
X90640420Y-128618790D01*
X90089095Y-129170115D01*
X90026783Y-129204141D01*
X89955968Y-129199076D01*
X89910905Y-129170115D01*
X89362812Y-128622022D01*
X89348868Y-128614408D01*
X89347035Y-128614539D01*
X89340420Y-128618790D01*
X88357812Y-129601398D01*
X88345000Y-129624860D01*
X88345000Y-131249000D01*
X88324998Y-131317121D01*
X88271342Y-131363614D01*
X88219000Y-131375000D01*
X87355116Y-131375000D01*
X87339877Y-131379475D01*
X87338672Y-131380865D01*
X87337001Y-131388548D01*
X87337001Y-131874000D01*
X87316999Y-131942121D01*
X87263343Y-131988614D01*
X87211001Y-132000000D01*
X86126000Y-132000000D01*
X86057879Y-131979998D01*
X86011386Y-131926342D01*
X86000000Y-131874000D01*
X86000000Y-130389337D01*
X86020002Y-130321216D01*
X86032110Y-130305946D01*
X86031918Y-130305783D01*
X86034678Y-130302518D01*
X86037669Y-130299431D01*
X86064502Y-130262903D01*
X86197257Y-130082178D01*
X86199795Y-130078723D01*
X86213219Y-130054000D01*
X86328418Y-129841830D01*
X86328419Y-129841828D01*
X86330468Y-129838054D01*
X86356308Y-129769669D01*
X87042001Y-129769669D01*
X87042371Y-129776490D01*
X87047895Y-129827352D01*
X87051521Y-129842604D01*
X87096676Y-129963054D01*
X87105214Y-129978649D01*
X87181715Y-130080724D01*
X87194276Y-130093285D01*
X87286565Y-130162452D01*
X87329080Y-130219311D01*
X87337000Y-130263278D01*
X87337000Y-130856885D01*
X87341475Y-130872124D01*
X87342865Y-130873329D01*
X87350548Y-130875000D01*
X87826885Y-130875000D01*
X87842124Y-130870525D01*
X87843329Y-130869135D01*
X87845000Y-130861452D01*
X87845000Y-129603000D01*
X87865002Y-129534879D01*
X87918658Y-129488386D01*
X87971000Y-129477000D01*
X88038419Y-129477000D01*
X88049444Y-129473763D01*
X88046206Y-129466672D01*
X87999257Y-129419723D01*
X87965231Y-129357411D01*
X87970296Y-129286596D01*
X87999257Y-129241533D01*
X88327978Y-128912812D01*
X88335592Y-128898868D01*
X88335461Y-128897035D01*
X88331210Y-128890420D01*
X87957602Y-128516812D01*
X87940068Y-128507237D01*
X88670300Y-128507237D01*
X88673538Y-128514328D01*
X88687188Y-128527978D01*
X88701132Y-128535592D01*
X88702965Y-128535461D01*
X88709580Y-128531210D01*
X88723978Y-128516812D01*
X88729206Y-128507237D01*
X89970300Y-128507237D01*
X89973538Y-128514328D01*
X89987188Y-128527978D01*
X90001132Y-128535592D01*
X90002965Y-128535461D01*
X90009580Y-128531210D01*
X90023978Y-128516812D01*
X90029206Y-128507237D01*
X91270300Y-128507237D01*
X91273538Y-128514328D01*
X91287188Y-128527978D01*
X91301132Y-128535592D01*
X91302965Y-128535461D01*
X91309580Y-128531210D01*
X91323978Y-128516812D01*
X91329487Y-128506723D01*
X91322186Y-128504000D01*
X91281325Y-128504000D01*
X91270300Y-128507237D01*
X90029206Y-128507237D01*
X90029487Y-128506723D01*
X90022186Y-128504000D01*
X89981325Y-128504000D01*
X89970300Y-128507237D01*
X88729206Y-128507237D01*
X88729487Y-128506723D01*
X88722186Y-128504000D01*
X88681325Y-128504000D01*
X88670300Y-128507237D01*
X87940068Y-128507237D01*
X87934140Y-128504000D01*
X87060116Y-128504000D01*
X87044877Y-128508475D01*
X87043672Y-128509865D01*
X87042001Y-128517548D01*
X87042001Y-129769669D01*
X86356308Y-129769669D01*
X86411027Y-129624860D01*
X86425751Y-129585895D01*
X86425752Y-129585891D01*
X86427269Y-129581877D01*
X86488407Y-129314933D01*
X86512751Y-129042161D01*
X86513193Y-129000000D01*
X86497658Y-128772115D01*
X86494859Y-128731055D01*
X86494858Y-128731049D01*
X86494567Y-128726778D01*
X86439032Y-128458612D01*
X86347617Y-128200465D01*
X86239775Y-127991525D01*
X86223978Y-127960919D01*
X86223978Y-127960918D01*
X86222013Y-127957112D01*
X86209380Y-127939136D01*
X86067012Y-127736567D01*
X86067011Y-127736566D01*
X86064545Y-127733057D01*
X86061619Y-127729908D01*
X86033700Y-127699863D01*
X86001981Y-127636346D01*
X86000000Y-127614092D01*
X86000000Y-125389337D01*
X86020002Y-125321216D01*
X86032110Y-125305946D01*
X86031918Y-125305783D01*
X86034678Y-125302518D01*
X86037669Y-125299431D01*
X86199795Y-125078723D01*
X86201841Y-125074955D01*
X86328418Y-124841830D01*
X86328419Y-124841828D01*
X86330468Y-124838054D01*
X86427269Y-124581877D01*
X86488407Y-124314933D01*
X86512751Y-124042161D01*
X86513193Y-124000000D01*
X86494567Y-123726778D01*
X86439032Y-123458612D01*
X86347617Y-123200465D01*
X86222013Y-122957112D01*
X86209380Y-122939136D01*
X86067012Y-122736567D01*
X86067011Y-122736566D01*
X86064545Y-122733057D01*
X86061619Y-122729908D01*
X86033700Y-122699863D01*
X86001981Y-122636346D01*
X86000000Y-122614092D01*
X86000000Y-120000000D01*
X76134500Y-120000000D01*
X76066379Y-119979998D01*
X76019886Y-119926342D01*
X76008500Y-119874000D01*
X76008500Y-112617300D01*
X76028502Y-112549179D01*
X76082158Y-112502686D01*
X76134500Y-112491300D01*
X109506066Y-112491300D01*
X109574187Y-112511302D01*
G37*
%TD.AperFunction*%
%TA.AperFunction,Conductor*%
G36*
X108514196Y-116063502D02*
G01*
X108560689Y-116117158D01*
X108570793Y-116187432D01*
X108541299Y-116252012D01*
X108535170Y-116258595D01*
X107340668Y-117453098D01*
X107278356Y-117487123D01*
X107207541Y-117482059D01*
X107150705Y-117439512D01*
X107144429Y-117430307D01*
X107126172Y-117400804D01*
X107073478Y-117315652D01*
X106948303Y-117190695D01*
X106928018Y-117178191D01*
X106803968Y-117101725D01*
X106803966Y-117101724D01*
X106797738Y-117097885D01*
X106685544Y-117060672D01*
X106636389Y-117044368D01*
X106636387Y-117044368D01*
X106629861Y-117042203D01*
X106623025Y-117041503D01*
X106623022Y-117041502D01*
X106579969Y-117037091D01*
X106525400Y-117031500D01*
X105349600Y-117031500D01*
X105346354Y-117031837D01*
X105346350Y-117031837D01*
X105250692Y-117041762D01*
X105250688Y-117041763D01*
X105243834Y-117042474D01*
X105237298Y-117044655D01*
X105237296Y-117044655D01*
X105220928Y-117050116D01*
X105076054Y-117098450D01*
X104925652Y-117191522D01*
X104800695Y-117316697D01*
X104796855Y-117322927D01*
X104796854Y-117322928D01*
X104711836Y-117460853D01*
X104707885Y-117467262D01*
X104701002Y-117488015D01*
X104660865Y-117609025D01*
X104652203Y-117635139D01*
X104641500Y-117739600D01*
X104641500Y-120296852D01*
X104621498Y-120364973D01*
X104604595Y-120385947D01*
X104211454Y-120779088D01*
X104196426Y-120791925D01*
X104185566Y-120799815D01*
X104181145Y-120804725D01*
X104181144Y-120804726D01*
X104141114Y-120849184D01*
X104136573Y-120853969D01*
X104122528Y-120868014D01*
X104120444Y-120870588D01*
X104120441Y-120870591D01*
X104110031Y-120883446D01*
X104105747Y-120888462D01*
X104065717Y-120932920D01*
X104065713Y-120932925D01*
X104061296Y-120937831D01*
X104056510Y-120946121D01*
X104054589Y-120949448D01*
X104043391Y-120965741D01*
X104034953Y-120976161D01*
X104004787Y-121035363D01*
X104001654Y-121041133D01*
X103971740Y-121092945D01*
X103971738Y-121092950D01*
X103968436Y-121098669D01*
X103966395Y-121104949D01*
X103966392Y-121104957D01*
X103964292Y-121111421D01*
X103956728Y-121129683D01*
X103953637Y-121135749D01*
X103953634Y-121135758D01*
X103950638Y-121141637D01*
X103948929Y-121148015D01*
X103933444Y-121205804D01*
X103931578Y-121212106D01*
X103911046Y-121275298D01*
X103910356Y-121281866D01*
X103909645Y-121288628D01*
X103906042Y-121308071D01*
X103902570Y-121321029D01*
X103899594Y-121377816D01*
X103899093Y-121387367D01*
X103898577Y-121393931D01*
X103896500Y-121413694D01*
X103896500Y-121433555D01*
X103896327Y-121440150D01*
X103892850Y-121506493D01*
X103893882Y-121513008D01*
X103894194Y-121518964D01*
X103877783Y-121588038D01*
X103843933Y-121626380D01*
X103776739Y-121676739D01*
X103689385Y-121793295D01*
X103638255Y-121929684D01*
X103631500Y-121991866D01*
X103631500Y-122830500D01*
X103611498Y-122898621D01*
X103557842Y-122945114D01*
X103505500Y-122956500D01*
X101434500Y-122956500D01*
X101366379Y-122936498D01*
X101319886Y-122882842D01*
X101308500Y-122830500D01*
X101308500Y-122649600D01*
X101297526Y-122543834D01*
X101293727Y-122532445D01*
X101243868Y-122383002D01*
X101241550Y-122376054D01*
X101148478Y-122225652D01*
X101023303Y-122100695D01*
X101017072Y-122096854D01*
X100878968Y-122011725D01*
X100878966Y-122011724D01*
X100872738Y-122007885D01*
X100762636Y-121971366D01*
X100711389Y-121954368D01*
X100711387Y-121954368D01*
X100704861Y-121952203D01*
X100698025Y-121951503D01*
X100698022Y-121951502D01*
X100654969Y-121947091D01*
X100600400Y-121941500D01*
X100095627Y-121941500D01*
X100027506Y-121921498D01*
X99981013Y-121867842D01*
X99970909Y-121797568D01*
X100000403Y-121732988D01*
X100006444Y-121726492D01*
X100033615Y-121699274D01*
X100121105Y-121569809D01*
X100151366Y-121525030D01*
X100151367Y-121525028D01*
X100154721Y-121520065D01*
X100239754Y-121321189D01*
X100264115Y-121208988D01*
X100273429Y-121166092D01*
X100307429Y-121103766D01*
X100369728Y-121069716D01*
X100440546Y-121074753D01*
X100497398Y-121117277D01*
X100503705Y-121126523D01*
X100523068Y-121157813D01*
X100532099Y-121169208D01*
X100646829Y-121283739D01*
X100658240Y-121292751D01*
X100796243Y-121377816D01*
X100809424Y-121383963D01*
X100963710Y-121435138D01*
X100977086Y-121438005D01*
X101071438Y-121447672D01*
X101077854Y-121448000D01*
X101390385Y-121448000D01*
X101405624Y-121443525D01*
X101406829Y-121442135D01*
X101408500Y-121434452D01*
X101408500Y-121429884D01*
X101916500Y-121429884D01*
X101920975Y-121445123D01*
X101922365Y-121446328D01*
X101930048Y-121447999D01*
X102247095Y-121447999D01*
X102253614Y-121447662D01*
X102349206Y-121437743D01*
X102362600Y-121434851D01*
X102516784Y-121383412D01*
X102529962Y-121377239D01*
X102667807Y-121291937D01*
X102679208Y-121282901D01*
X102793739Y-121168171D01*
X102802751Y-121156760D01*
X102887816Y-121018757D01*
X102893963Y-121005576D01*
X102945138Y-120851290D01*
X102948005Y-120837914D01*
X102957672Y-120743562D01*
X102958000Y-120737146D01*
X102958000Y-119512115D01*
X102953525Y-119496876D01*
X102952135Y-119495671D01*
X102944452Y-119494000D01*
X101934615Y-119494000D01*
X101919376Y-119498475D01*
X101918171Y-119499865D01*
X101916500Y-119507548D01*
X101916500Y-121429884D01*
X101408500Y-121429884D01*
X101408500Y-118967885D01*
X101916500Y-118967885D01*
X101920975Y-118983124D01*
X101922365Y-118984329D01*
X101930048Y-118986000D01*
X102939884Y-118986000D01*
X102955123Y-118981525D01*
X102956328Y-118980135D01*
X102957999Y-118972452D01*
X102957999Y-117742905D01*
X102957662Y-117736386D01*
X102947743Y-117640794D01*
X102944851Y-117627400D01*
X102893412Y-117473216D01*
X102887239Y-117460038D01*
X102801937Y-117322193D01*
X102792901Y-117310792D01*
X102678171Y-117196261D01*
X102666760Y-117187249D01*
X102528757Y-117102184D01*
X102515576Y-117096037D01*
X102361290Y-117044862D01*
X102347914Y-117041995D01*
X102253562Y-117032328D01*
X102247145Y-117032000D01*
X101934615Y-117032000D01*
X101919376Y-117036475D01*
X101918171Y-117037865D01*
X101916500Y-117045548D01*
X101916500Y-118967885D01*
X101408500Y-118967885D01*
X101408500Y-117050116D01*
X101404025Y-117034877D01*
X101402635Y-117033672D01*
X101394952Y-117032001D01*
X101077905Y-117032001D01*
X101071386Y-117032338D01*
X100975794Y-117042257D01*
X100962400Y-117045149D01*
X100808216Y-117096588D01*
X100795038Y-117102761D01*
X100657193Y-117188063D01*
X100645792Y-117197099D01*
X100531261Y-117311829D01*
X100522249Y-117323240D01*
X100467960Y-117411314D01*
X100415188Y-117458807D01*
X100345117Y-117470231D01*
X100279993Y-117441957D01*
X100240730Y-117383710D01*
X100240432Y-117382781D01*
X100239148Y-117376918D01*
X100161722Y-117196704D01*
X100156135Y-117183700D01*
X100156134Y-117183699D01*
X100153768Y-117178191D01*
X100032350Y-116999193D01*
X99884801Y-116851902D01*
X99883521Y-116850624D01*
X99883518Y-116850621D01*
X99879274Y-116846385D01*
X99700065Y-116725279D01*
X99501189Y-116640246D01*
X99410852Y-116620632D01*
X99294584Y-116595388D01*
X99294582Y-116595388D01*
X99289821Y-116594354D01*
X99279390Y-116593734D01*
X99243640Y-116591610D01*
X99243631Y-116591610D01*
X99241784Y-116591500D01*
X97818216Y-116591500D01*
X97768205Y-116594591D01*
X97556918Y-116640852D01*
X97358191Y-116726232D01*
X97179193Y-116847650D01*
X97103350Y-116923626D01*
X97030624Y-116996479D01*
X97030621Y-116996482D01*
X97026385Y-117000726D01*
X96973863Y-117078446D01*
X96929073Y-117144726D01*
X96905279Y-117179935D01*
X96902923Y-117185444D01*
X96902923Y-117185445D01*
X96898109Y-117196704D01*
X96820246Y-117378811D01*
X96774354Y-117590179D01*
X96774065Y-117595044D01*
X96772070Y-117628628D01*
X96771500Y-117638216D01*
X96771500Y-121061784D01*
X96774591Y-121111795D01*
X96820852Y-121323082D01*
X96906232Y-121521809D01*
X97027650Y-121700807D01*
X97061823Y-121734920D01*
X97176479Y-121849376D01*
X97176482Y-121849379D01*
X97180726Y-121853615D01*
X97225735Y-121884031D01*
X97326614Y-121952203D01*
X97359935Y-121974721D01*
X97558811Y-122059754D01*
X97564671Y-122061026D01*
X97564670Y-122061026D01*
X97765416Y-122104612D01*
X97765418Y-122104612D01*
X97770179Y-122105646D01*
X97780610Y-122106266D01*
X97816360Y-122108390D01*
X97816369Y-122108390D01*
X97818216Y-122108500D01*
X98697870Y-122108500D01*
X98765991Y-122128502D01*
X98812484Y-122182158D01*
X98822588Y-122252432D01*
X98805130Y-122300616D01*
X98757885Y-122377262D01*
X98702203Y-122545139D01*
X98691500Y-122649600D01*
X98691500Y-122830500D01*
X98671498Y-122898621D01*
X98617842Y-122945114D01*
X98565500Y-122956500D01*
X92269457Y-122956500D01*
X92249745Y-122954949D01*
X92243008Y-122953882D01*
X92243009Y-122953882D01*
X92236493Y-122952850D01*
X92229906Y-122953195D01*
X92229902Y-122953195D01*
X92170150Y-122956327D01*
X92163555Y-122956500D01*
X92143694Y-122956500D01*
X92123931Y-122958577D01*
X92117372Y-122959093D01*
X92101573Y-122959921D01*
X92057623Y-122962224D01*
X92057619Y-122962225D01*
X92051029Y-122962570D01*
X92044657Y-122964277D01*
X92044653Y-122964278D01*
X92042117Y-122964958D01*
X92040590Y-122964922D01*
X92038126Y-122965312D01*
X92038055Y-122964862D01*
X91971140Y-122963272D01*
X91912343Y-122923480D01*
X91884392Y-122858217D01*
X91883500Y-122843253D01*
X91883500Y-118218148D01*
X91903502Y-118150027D01*
X91920405Y-118129053D01*
X93969052Y-116080405D01*
X94031364Y-116046380D01*
X94058147Y-116043500D01*
X108446075Y-116043500D01*
X108514196Y-116063502D01*
G37*
%TD.AperFunction*%
%TA.AperFunction,Conductor*%
G36*
X92220974Y-115113502D02*
G01*
X92267467Y-115167158D01*
X92277571Y-115237432D01*
X92248077Y-115302012D01*
X92241949Y-115308593D01*
X90431454Y-117119088D01*
X90416426Y-117131925D01*
X90405566Y-117139815D01*
X90401145Y-117144725D01*
X90401144Y-117144726D01*
X90361114Y-117189184D01*
X90356573Y-117193969D01*
X90342528Y-117208014D01*
X90340444Y-117210588D01*
X90340441Y-117210591D01*
X90330031Y-117223446D01*
X90325747Y-117228462D01*
X90285717Y-117272920D01*
X90285713Y-117272925D01*
X90281296Y-117277831D01*
X90276190Y-117286675D01*
X90274589Y-117289448D01*
X90263391Y-117305741D01*
X90254953Y-117316161D01*
X90224787Y-117375363D01*
X90221654Y-117381133D01*
X90191740Y-117432945D01*
X90191738Y-117432950D01*
X90188436Y-117438669D01*
X90186395Y-117444949D01*
X90186392Y-117444957D01*
X90184292Y-117451421D01*
X90176728Y-117469683D01*
X90173637Y-117475749D01*
X90173634Y-117475758D01*
X90170638Y-117481637D01*
X90168929Y-117488015D01*
X90153444Y-117545804D01*
X90151578Y-117552106D01*
X90131046Y-117615298D01*
X90130356Y-117621866D01*
X90129645Y-117628628D01*
X90126042Y-117648071D01*
X90122570Y-117661029D01*
X90122225Y-117667619D01*
X90122224Y-117667623D01*
X90119093Y-117727367D01*
X90118577Y-117733931D01*
X90116500Y-117753694D01*
X90116500Y-117773555D01*
X90116327Y-117780150D01*
X90112850Y-117846493D01*
X90113882Y-117853007D01*
X90114949Y-117859744D01*
X90116500Y-117879456D01*
X90116500Y-119516000D01*
X90096498Y-119584121D01*
X90042842Y-119630614D01*
X89990500Y-119642000D01*
X89772115Y-119642000D01*
X89756876Y-119646475D01*
X89755671Y-119647865D01*
X89754000Y-119655548D01*
X89754000Y-120878000D01*
X89733998Y-120946121D01*
X89680342Y-120992614D01*
X89628000Y-121004000D01*
X89372000Y-121004000D01*
X89303879Y-120983998D01*
X89257386Y-120930342D01*
X89246000Y-120878000D01*
X89246000Y-119660116D01*
X89241525Y-119644877D01*
X89240135Y-119643672D01*
X89232452Y-119642001D01*
X89104500Y-119642001D01*
X89036379Y-119621999D01*
X88989886Y-119568343D01*
X88978500Y-119516001D01*
X88978500Y-118073148D01*
X88998502Y-118005027D01*
X89015405Y-117984053D01*
X91869052Y-115130405D01*
X91931364Y-115096379D01*
X91958147Y-115093500D01*
X92152853Y-115093500D01*
X92220974Y-115113502D01*
G37*
%TD.AperFunction*%
%TD*%
%TA.AperFunction,Conductor*%
%TO.N,GND*%
G36*
X128543421Y-112511302D02*
G01*
X128589914Y-112564958D01*
X128601300Y-112617300D01*
X128601300Y-140365500D01*
X128581298Y-140433621D01*
X128527642Y-140480114D01*
X128475300Y-140491500D01*
X76134500Y-140491500D01*
X76066379Y-140471498D01*
X76019886Y-140417842D01*
X76008500Y-140365500D01*
X76008500Y-128978918D01*
X77486917Y-128978918D01*
X77502682Y-129252320D01*
X77503507Y-129256525D01*
X77503508Y-129256533D01*
X77507636Y-129277572D01*
X77555405Y-129521053D01*
X77556792Y-129525103D01*
X77556793Y-129525108D01*
X77641712Y-129773134D01*
X77644112Y-129780144D01*
X77695991Y-129883294D01*
X77748119Y-129986939D01*
X77767160Y-130024799D01*
X77769586Y-130028328D01*
X77769589Y-130028334D01*
X77874844Y-130181480D01*
X77922274Y-130250490D01*
X77925161Y-130253663D01*
X77925162Y-130253664D01*
X77963665Y-130295978D01*
X78106582Y-130453043D01*
X78316675Y-130628707D01*
X78320316Y-130630991D01*
X78545024Y-130771951D01*
X78545028Y-130771953D01*
X78548664Y-130774234D01*
X78648830Y-130819461D01*
X78794345Y-130885164D01*
X78794349Y-130885166D01*
X78798257Y-130886930D01*
X78802377Y-130888150D01*
X78802376Y-130888150D01*
X79056723Y-130963491D01*
X79056727Y-130963492D01*
X79060836Y-130964709D01*
X79065070Y-130965357D01*
X79065075Y-130965358D01*
X79327298Y-131005483D01*
X79327300Y-131005483D01*
X79331540Y-131006132D01*
X79470912Y-131008322D01*
X79601071Y-131010367D01*
X79601077Y-131010367D01*
X79605362Y-131010434D01*
X79877235Y-130977534D01*
X80142127Y-130908041D01*
X80146087Y-130906401D01*
X80146092Y-130906399D01*
X80337709Y-130827028D01*
X80395136Y-130803241D01*
X80624857Y-130669003D01*
X80627879Y-130667237D01*
X80627880Y-130667236D01*
X80631582Y-130665073D01*
X80847089Y-130496094D01*
X80888809Y-130453043D01*
X80982686Y-130356169D01*
X81037669Y-130299431D01*
X81040202Y-130295983D01*
X81040206Y-130295978D01*
X81197257Y-130082178D01*
X81199795Y-130078723D01*
X81207472Y-130064584D01*
X81328418Y-129841830D01*
X81328419Y-129841828D01*
X81330468Y-129838054D01*
X81406376Y-129637168D01*
X81425751Y-129585895D01*
X81425752Y-129585891D01*
X81427269Y-129581877D01*
X81467444Y-129406464D01*
X81487449Y-129319117D01*
X81487450Y-129319113D01*
X81488407Y-129314933D01*
X81489973Y-129297395D01*
X81512531Y-129044627D01*
X81512531Y-129044625D01*
X81512751Y-129042161D01*
X81513193Y-129000000D01*
X81512048Y-128983204D01*
X82487665Y-128983204D01*
X82502932Y-129247969D01*
X82504005Y-129256470D01*
X82555065Y-129516722D01*
X82557276Y-129524974D01*
X82643184Y-129775894D01*
X82646499Y-129783779D01*
X82765664Y-130020713D01*
X82770020Y-130028079D01*
X82899347Y-130216250D01*
X82909601Y-130224594D01*
X82923342Y-130217448D01*
X84127978Y-129012812D01*
X84135592Y-128998868D01*
X84135461Y-128997035D01*
X84131210Y-128990420D01*
X82923814Y-127783024D01*
X82911804Y-127776466D01*
X82900064Y-127785434D01*
X82791935Y-127935911D01*
X82787418Y-127943196D01*
X82663325Y-128177567D01*
X82659839Y-128185395D01*
X82568700Y-128434446D01*
X82566311Y-128442670D01*
X82509812Y-128701795D01*
X82508563Y-128710250D01*
X82487754Y-128974653D01*
X82487665Y-128983204D01*
X81512048Y-128983204D01*
X81507119Y-128910905D01*
X81494859Y-128731055D01*
X81494858Y-128731049D01*
X81494567Y-128726778D01*
X81486829Y-128689410D01*
X81460782Y-128563637D01*
X81439032Y-128458612D01*
X81347617Y-128200465D01*
X81222013Y-127957112D01*
X81212040Y-127942921D01*
X81067008Y-127736562D01*
X81064545Y-127733057D01*
X80893469Y-127548957D01*
X80881046Y-127535588D01*
X80881043Y-127535585D01*
X80878125Y-127532445D01*
X80874810Y-127529731D01*
X80874806Y-127529728D01*
X80698358Y-127385307D01*
X80666205Y-127358990D01*
X80450991Y-127227107D01*
X80436366Y-127218145D01*
X80436365Y-127218145D01*
X80432704Y-127215901D01*
X80420895Y-127210717D01*
X80185873Y-127107549D01*
X80185869Y-127107548D01*
X80181945Y-127105825D01*
X79918566Y-127030800D01*
X79914324Y-127030196D01*
X79914318Y-127030195D01*
X79710181Y-127001142D01*
X79647443Y-126992213D01*
X79503589Y-126991460D01*
X79377877Y-126990802D01*
X79377871Y-126990802D01*
X79373591Y-126990780D01*
X79369347Y-126991339D01*
X79369343Y-126991339D01*
X79262031Y-127005467D01*
X79102078Y-127026525D01*
X79097938Y-127027658D01*
X79097936Y-127027658D01*
X79067505Y-127035983D01*
X78837928Y-127098788D01*
X78833980Y-127100472D01*
X78589982Y-127204546D01*
X78589978Y-127204548D01*
X78586030Y-127206232D01*
X78542711Y-127232158D01*
X78354725Y-127344664D01*
X78354721Y-127344667D01*
X78351043Y-127346868D01*
X78137318Y-127518094D01*
X77948808Y-127716742D01*
X77789002Y-127939136D01*
X77660857Y-128181161D01*
X77659385Y-128185184D01*
X77659383Y-128185188D01*
X77591019Y-128372000D01*
X77566743Y-128438337D01*
X77508404Y-128705907D01*
X77486917Y-128978918D01*
X76008500Y-128978918D01*
X76008500Y-125589654D01*
X78275618Y-125589654D01*
X78282673Y-125599627D01*
X78313679Y-125625551D01*
X78320598Y-125630579D01*
X78545272Y-125771515D01*
X78552807Y-125775556D01*
X78794520Y-125884694D01*
X78802551Y-125887680D01*
X79056832Y-125963002D01*
X79065184Y-125964869D01*
X79327340Y-126004984D01*
X79335874Y-126005700D01*
X79601045Y-126009867D01*
X79609596Y-126009418D01*
X79872883Y-125977557D01*
X79881284Y-125975955D01*
X80137824Y-125908653D01*
X80145926Y-125905926D01*
X80390949Y-125804434D01*
X80398617Y-125800628D01*
X80627598Y-125666822D01*
X80634679Y-125662009D01*
X80714655Y-125599301D01*
X80723125Y-125587442D01*
X80716608Y-125575818D01*
X79512812Y-124372022D01*
X79498868Y-124364408D01*
X79497035Y-124364539D01*
X79490420Y-124368790D01*
X78282910Y-125576300D01*
X78275618Y-125589654D01*
X76008500Y-125589654D01*
X76008500Y-123983204D01*
X77487665Y-123983204D01*
X77502932Y-124247969D01*
X77504005Y-124256470D01*
X77555065Y-124516722D01*
X77557276Y-124524974D01*
X77643184Y-124775894D01*
X77646499Y-124783779D01*
X77765664Y-125020713D01*
X77770020Y-125028079D01*
X77899347Y-125216250D01*
X77909601Y-125224594D01*
X77923342Y-125217448D01*
X79127978Y-124012812D01*
X79134356Y-124001132D01*
X79864408Y-124001132D01*
X79864539Y-124002965D01*
X79868790Y-124009580D01*
X81075730Y-125216520D01*
X81087939Y-125223187D01*
X81099439Y-125214497D01*
X81196831Y-125081913D01*
X81201418Y-125074685D01*
X81327962Y-124841621D01*
X81331530Y-124833827D01*
X81425271Y-124585750D01*
X81427748Y-124577544D01*
X81486954Y-124319038D01*
X81488294Y-124310577D01*
X81512031Y-124044616D01*
X81512277Y-124039677D01*
X81512666Y-124002485D01*
X81512523Y-123997519D01*
X81511547Y-123983204D01*
X82487665Y-123983204D01*
X82502932Y-124247969D01*
X82504005Y-124256470D01*
X82555065Y-124516722D01*
X82557276Y-124524974D01*
X82643184Y-124775894D01*
X82646499Y-124783779D01*
X82765664Y-125020713D01*
X82770020Y-125028079D01*
X82899347Y-125216250D01*
X82909601Y-125224594D01*
X82923342Y-125217448D01*
X84127978Y-124012812D01*
X84135592Y-123998868D01*
X84135461Y-123997035D01*
X84131210Y-123990420D01*
X82923814Y-122783024D01*
X82911804Y-122776466D01*
X82900064Y-122785434D01*
X82791935Y-122935911D01*
X82787418Y-122943196D01*
X82663325Y-123177567D01*
X82659839Y-123185395D01*
X82568700Y-123434446D01*
X82566311Y-123442670D01*
X82509812Y-123701795D01*
X82508563Y-123710250D01*
X82487754Y-123974653D01*
X82487665Y-123983204D01*
X81511547Y-123983204D01*
X81494362Y-123731123D01*
X81493201Y-123722649D01*
X81439419Y-123462944D01*
X81437120Y-123454709D01*
X81348588Y-123204705D01*
X81345191Y-123196854D01*
X81223550Y-122961178D01*
X81219122Y-122953866D01*
X81100031Y-122784417D01*
X81089509Y-122776037D01*
X81076121Y-122783089D01*
X79872022Y-123987188D01*
X79864408Y-124001132D01*
X79134356Y-124001132D01*
X79135592Y-123998868D01*
X79135461Y-123997035D01*
X79131210Y-123990420D01*
X77923814Y-122783024D01*
X77911804Y-122776466D01*
X77900064Y-122785434D01*
X77791935Y-122935911D01*
X77787418Y-122943196D01*
X77663325Y-123177567D01*
X77659839Y-123185395D01*
X77568700Y-123434446D01*
X77566311Y-123442670D01*
X77509812Y-123701795D01*
X77508563Y-123710250D01*
X77487754Y-123974653D01*
X77487665Y-123983204D01*
X76008500Y-123983204D01*
X76008500Y-122412500D01*
X78276584Y-122412500D01*
X78282980Y-122423770D01*
X79487188Y-123627978D01*
X79501132Y-123635592D01*
X79502965Y-123635461D01*
X79509580Y-123631210D01*
X80716604Y-122424186D01*
X80723795Y-122411017D01*
X80716473Y-122400780D01*
X80669233Y-122362115D01*
X80662261Y-122357160D01*
X80436122Y-122218582D01*
X80428552Y-122214624D01*
X80185704Y-122108022D01*
X80177644Y-122105120D01*
X79922592Y-122032467D01*
X79914214Y-122030685D01*
X79651656Y-121993318D01*
X79643111Y-121992691D01*
X79377908Y-121991302D01*
X79369374Y-121991839D01*
X79106433Y-122026456D01*
X79098035Y-122028149D01*
X78842238Y-122098127D01*
X78834143Y-122100946D01*
X78590199Y-122204997D01*
X78582577Y-122208881D01*
X78355013Y-122345075D01*
X78347981Y-122349962D01*
X78285053Y-122400377D01*
X78276584Y-122412500D01*
X76008500Y-122412500D01*
X76008500Y-120376000D01*
X76028502Y-120307879D01*
X76082158Y-120261386D01*
X76134500Y-120250000D01*
X85374000Y-120250000D01*
X85442121Y-120270002D01*
X85488614Y-120323658D01*
X85500000Y-120376000D01*
X85500000Y-122053072D01*
X85479998Y-122121193D01*
X85426342Y-122167686D01*
X85356068Y-122177790D01*
X85323355Y-122168446D01*
X85185704Y-122108022D01*
X85177644Y-122105120D01*
X84922592Y-122032467D01*
X84914214Y-122030685D01*
X84651656Y-121993318D01*
X84643111Y-121992691D01*
X84377908Y-121991302D01*
X84369374Y-121991839D01*
X84106433Y-122026456D01*
X84098035Y-122028149D01*
X83842238Y-122098127D01*
X83834143Y-122100946D01*
X83590199Y-122204997D01*
X83582577Y-122208881D01*
X83355013Y-122345075D01*
X83347981Y-122349962D01*
X83285053Y-122400377D01*
X83276584Y-122412500D01*
X83282980Y-122423770D01*
X84770115Y-123910905D01*
X84804141Y-123973217D01*
X84799076Y-124044032D01*
X84770115Y-124089095D01*
X83282910Y-125576300D01*
X83275618Y-125589654D01*
X83282673Y-125599627D01*
X83313679Y-125625551D01*
X83320598Y-125630579D01*
X83545272Y-125771515D01*
X83552807Y-125775556D01*
X83794520Y-125884694D01*
X83802551Y-125887680D01*
X84056832Y-125963002D01*
X84065184Y-125964869D01*
X84327340Y-126004984D01*
X84335874Y-126005700D01*
X84601045Y-126009867D01*
X84609596Y-126009418D01*
X84872883Y-125977557D01*
X84881284Y-125975955D01*
X85137824Y-125908653D01*
X85145926Y-125905926D01*
X85325782Y-125831427D01*
X85396372Y-125823838D01*
X85459859Y-125855617D01*
X85496086Y-125916675D01*
X85500000Y-125947836D01*
X85500000Y-127053072D01*
X85479998Y-127121193D01*
X85426342Y-127167686D01*
X85356068Y-127177790D01*
X85323355Y-127168446D01*
X85185704Y-127108022D01*
X85177644Y-127105120D01*
X84922592Y-127032467D01*
X84914214Y-127030685D01*
X84651656Y-126993318D01*
X84643111Y-126992691D01*
X84377908Y-126991302D01*
X84369374Y-126991839D01*
X84106433Y-127026456D01*
X84098035Y-127028149D01*
X83842238Y-127098127D01*
X83834143Y-127100946D01*
X83590199Y-127204997D01*
X83582577Y-127208881D01*
X83355013Y-127345075D01*
X83347981Y-127349962D01*
X83285053Y-127400377D01*
X83276584Y-127412500D01*
X83282980Y-127423770D01*
X84770115Y-128910905D01*
X84804141Y-128973217D01*
X84799076Y-129044032D01*
X84770115Y-129089095D01*
X83282910Y-130576300D01*
X83275618Y-130589654D01*
X83282673Y-130599627D01*
X83313679Y-130625551D01*
X83320598Y-130630579D01*
X83545272Y-130771515D01*
X83552807Y-130775556D01*
X83794520Y-130884694D01*
X83802551Y-130887680D01*
X84056832Y-130963002D01*
X84065184Y-130964869D01*
X84327340Y-131004984D01*
X84335874Y-131005700D01*
X84601045Y-131009867D01*
X84609596Y-131009418D01*
X84872883Y-130977557D01*
X84881284Y-130975955D01*
X85137824Y-130908653D01*
X85145926Y-130905926D01*
X85325782Y-130831427D01*
X85396372Y-130823838D01*
X85459859Y-130855617D01*
X85496086Y-130916675D01*
X85500000Y-130947836D01*
X85500000Y-132053072D01*
X85479998Y-132121193D01*
X85426342Y-132167686D01*
X85356068Y-132177790D01*
X85323355Y-132168446D01*
X85185704Y-132108022D01*
X85177644Y-132105120D01*
X84922592Y-132032467D01*
X84914214Y-132030685D01*
X84651656Y-131993318D01*
X84643111Y-131992691D01*
X84377908Y-131991302D01*
X84369374Y-131991839D01*
X84106433Y-132026456D01*
X84098035Y-132028149D01*
X83842238Y-132098127D01*
X83834143Y-132100946D01*
X83590199Y-132204997D01*
X83582577Y-132208881D01*
X83355013Y-132345075D01*
X83347981Y-132349962D01*
X83285053Y-132400377D01*
X83276584Y-132412500D01*
X83282980Y-132423770D01*
X86075730Y-135216520D01*
X86087939Y-135223187D01*
X86099439Y-135214497D01*
X86196831Y-135081913D01*
X86201418Y-135074685D01*
X86327962Y-134841621D01*
X86331530Y-134833827D01*
X86425271Y-134585750D01*
X86427748Y-134577544D01*
X86486954Y-134319038D01*
X86488294Y-134310577D01*
X86512031Y-134044616D01*
X86512277Y-134039677D01*
X86512666Y-134002485D01*
X86512523Y-133997519D01*
X86494362Y-133731123D01*
X86493201Y-133722649D01*
X86439419Y-133462944D01*
X86437120Y-133454709D01*
X86348588Y-133204705D01*
X86345191Y-133196854D01*
X86223550Y-132961178D01*
X86219122Y-132953866D01*
X86066619Y-132736877D01*
X86061236Y-132730231D01*
X86044082Y-132711771D01*
X86012363Y-132648254D01*
X86020019Y-132577671D01*
X86064620Y-132522433D01*
X86136382Y-132500000D01*
X87352564Y-132500000D01*
X87420685Y-132520002D01*
X87453390Y-132550435D01*
X87481739Y-132588261D01*
X87598295Y-132675615D01*
X87734684Y-132726745D01*
X87796866Y-132733500D01*
X88184653Y-132733500D01*
X88252774Y-132753502D01*
X88299267Y-132807158D01*
X88309371Y-132877432D01*
X88278291Y-132943808D01*
X88260960Y-132963056D01*
X88209994Y-133051331D01*
X88170620Y-133119530D01*
X88165473Y-133128444D01*
X88106458Y-133310072D01*
X88105768Y-133316633D01*
X88105768Y-133316635D01*
X88092292Y-133444856D01*
X88086496Y-133500000D01*
X88087186Y-133506565D01*
X88103165Y-133658593D01*
X88106458Y-133689928D01*
X88165473Y-133871556D01*
X88168776Y-133877278D01*
X88168777Y-133877279D01*
X88195479Y-133923528D01*
X88260960Y-134036944D01*
X88265378Y-134041851D01*
X88265379Y-134041852D01*
X88289229Y-134068340D01*
X88388747Y-134178866D01*
X88543248Y-134291118D01*
X88549276Y-134293802D01*
X88549278Y-134293803D01*
X88708155Y-134364539D01*
X88717712Y-134368794D01*
X88784546Y-134383000D01*
X88898056Y-134407128D01*
X88898061Y-134407128D01*
X88904513Y-134408500D01*
X89095487Y-134408500D01*
X89101939Y-134407128D01*
X89101944Y-134407128D01*
X89215454Y-134383000D01*
X89282288Y-134368794D01*
X89291845Y-134364539D01*
X89450722Y-134293803D01*
X89450724Y-134293802D01*
X89456752Y-134291118D01*
X89474505Y-134278220D01*
X89543488Y-134228101D01*
X89610356Y-134204242D01*
X89679508Y-134220323D01*
X89691610Y-134228101D01*
X89730657Y-134256470D01*
X89743248Y-134265618D01*
X89749276Y-134268302D01*
X89749278Y-134268303D01*
X89911681Y-134340609D01*
X89917712Y-134343294D01*
X90011113Y-134363147D01*
X90098056Y-134381628D01*
X90098061Y-134381628D01*
X90104513Y-134383000D01*
X90295487Y-134383000D01*
X90301939Y-134381628D01*
X90301944Y-134381628D01*
X90388887Y-134363147D01*
X90482288Y-134343294D01*
X90488319Y-134340609D01*
X90650722Y-134268303D01*
X90650724Y-134268302D01*
X90656752Y-134265618D01*
X90677562Y-134250499D01*
X90776155Y-134178866D01*
X90811253Y-134153366D01*
X90913619Y-134039677D01*
X90934621Y-134016352D01*
X90934622Y-134016351D01*
X90939040Y-134011444D01*
X91034527Y-133846056D01*
X91088727Y-133679247D01*
X91128801Y-133620641D01*
X91194197Y-133593004D01*
X91264154Y-133605111D01*
X91316460Y-133653117D01*
X91318597Y-133657266D01*
X91318982Y-133658593D01*
X91321285Y-133662486D01*
X91321288Y-133662493D01*
X91329293Y-133676028D01*
X91337988Y-133693776D01*
X91345448Y-133712617D01*
X91350110Y-133719033D01*
X91350110Y-133719034D01*
X91371436Y-133748387D01*
X91377952Y-133758307D01*
X91394275Y-133785907D01*
X91400458Y-133796362D01*
X91414779Y-133810683D01*
X91427619Y-133825716D01*
X91439528Y-133842107D01*
X91467528Y-133865271D01*
X91473605Y-133870298D01*
X91482384Y-133878288D01*
X91854595Y-134250499D01*
X91888621Y-134312811D01*
X91891500Y-134339594D01*
X91891500Y-135000400D01*
X91891837Y-135003646D01*
X91891837Y-135003650D01*
X91901618Y-135097914D01*
X91902474Y-135106166D01*
X91904655Y-135112702D01*
X91904655Y-135112704D01*
X91916931Y-135149500D01*
X91958450Y-135273946D01*
X92051522Y-135424348D01*
X92051638Y-135424464D01*
X92077173Y-135487543D01*
X92064004Y-135557308D01*
X92053136Y-135574251D01*
X92050695Y-135576697D01*
X92029972Y-135610316D01*
X91967915Y-135710991D01*
X91957885Y-135727262D01*
X91951436Y-135746705D01*
X91910992Y-135868642D01*
X91902203Y-135895139D01*
X91901503Y-135901975D01*
X91901502Y-135901978D01*
X91900818Y-135908653D01*
X91891500Y-135999600D01*
X91891500Y-137000400D01*
X91891837Y-137003646D01*
X91891837Y-137003650D01*
X91899275Y-137075331D01*
X91902474Y-137106166D01*
X91904655Y-137112702D01*
X91904655Y-137112704D01*
X91930430Y-137189959D01*
X91958450Y-137273946D01*
X92051522Y-137424348D01*
X92176697Y-137549305D01*
X92182929Y-137553147D01*
X92182931Y-137553148D01*
X92199303Y-137563240D01*
X92246797Y-137616012D01*
X92258221Y-137686083D01*
X92229947Y-137751207D01*
X92170953Y-137790707D01*
X92133188Y-137796500D01*
X84244594Y-137796500D01*
X84176473Y-137776498D01*
X84155499Y-137759595D01*
X81985559Y-135589654D01*
X83275618Y-135589654D01*
X83282673Y-135599627D01*
X83313679Y-135625551D01*
X83320598Y-135630579D01*
X83545272Y-135771515D01*
X83552807Y-135775556D01*
X83794520Y-135884694D01*
X83802551Y-135887680D01*
X84056832Y-135963002D01*
X84065184Y-135964869D01*
X84327340Y-136004984D01*
X84335874Y-136005700D01*
X84601045Y-136009867D01*
X84609596Y-136009418D01*
X84872883Y-135977557D01*
X84881284Y-135975955D01*
X85137824Y-135908653D01*
X85145926Y-135905926D01*
X85390949Y-135804434D01*
X85398617Y-135800628D01*
X85627598Y-135666822D01*
X85634679Y-135662009D01*
X85714655Y-135599301D01*
X85723125Y-135587442D01*
X85716608Y-135575818D01*
X84512812Y-134372022D01*
X84498868Y-134364408D01*
X84497035Y-134364539D01*
X84490420Y-134368790D01*
X83282910Y-135576300D01*
X83275618Y-135589654D01*
X81985559Y-135589654D01*
X81545405Y-135149500D01*
X81511379Y-135087188D01*
X81508500Y-135060405D01*
X81508500Y-133983204D01*
X82487665Y-133983204D01*
X82502932Y-134247969D01*
X82504005Y-134256470D01*
X82555065Y-134516722D01*
X82557276Y-134524974D01*
X82643184Y-134775894D01*
X82646499Y-134783779D01*
X82765664Y-135020713D01*
X82770020Y-135028079D01*
X82899347Y-135216250D01*
X82909601Y-135224594D01*
X82923342Y-135217448D01*
X84127978Y-134012812D01*
X84135592Y-133998868D01*
X84135461Y-133997035D01*
X84131210Y-133990420D01*
X82923814Y-132783024D01*
X82911804Y-132776466D01*
X82900064Y-132785434D01*
X82791935Y-132935911D01*
X82787418Y-132943196D01*
X82663325Y-133177567D01*
X82659839Y-133185395D01*
X82568700Y-133434446D01*
X82566311Y-133442670D01*
X82509812Y-133701795D01*
X82508563Y-133710250D01*
X82487754Y-133974653D01*
X82487665Y-133983204D01*
X81508500Y-133983204D01*
X81508500Y-132451866D01*
X81501745Y-132389684D01*
X81450615Y-132253295D01*
X81363261Y-132136739D01*
X81246705Y-132049385D01*
X81110316Y-131998255D01*
X81048134Y-131991500D01*
X77951866Y-131991500D01*
X77889684Y-131998255D01*
X77753295Y-132049385D01*
X77636739Y-132136739D01*
X77549385Y-132253295D01*
X77498255Y-132389684D01*
X77491500Y-132451866D01*
X77491500Y-135548134D01*
X77498255Y-135610316D01*
X77549385Y-135746705D01*
X77636739Y-135863261D01*
X77753295Y-135950615D01*
X77889684Y-136001745D01*
X77951866Y-136008500D01*
X80560406Y-136008500D01*
X80628527Y-136028502D01*
X80649501Y-136045405D01*
X82046310Y-137442215D01*
X83426348Y-138822253D01*
X83433888Y-138830539D01*
X83438000Y-138837018D01*
X83443777Y-138842443D01*
X83487651Y-138883643D01*
X83490493Y-138886398D01*
X83510230Y-138906135D01*
X83513427Y-138908615D01*
X83522447Y-138916318D01*
X83554679Y-138946586D01*
X83561625Y-138950405D01*
X83561628Y-138950407D01*
X83572434Y-138956348D01*
X83588953Y-138967199D01*
X83604959Y-138979614D01*
X83612228Y-138982759D01*
X83612232Y-138982762D01*
X83645537Y-138997174D01*
X83656187Y-139002391D01*
X83694940Y-139023695D01*
X83702615Y-139025666D01*
X83702616Y-139025666D01*
X83714562Y-139028733D01*
X83733267Y-139035137D01*
X83751855Y-139043181D01*
X83759678Y-139044420D01*
X83759688Y-139044423D01*
X83795524Y-139050099D01*
X83807144Y-139052505D01*
X83838959Y-139060673D01*
X83849970Y-139063500D01*
X83870224Y-139063500D01*
X83889934Y-139065051D01*
X83909943Y-139068220D01*
X83917835Y-139067474D01*
X83936580Y-139065702D01*
X83953962Y-139064059D01*
X83965819Y-139063500D01*
X92991233Y-139063500D01*
X93002416Y-139064027D01*
X93009909Y-139065702D01*
X93017835Y-139065453D01*
X93017836Y-139065453D01*
X93077986Y-139063562D01*
X93081945Y-139063500D01*
X93109856Y-139063500D01*
X93113791Y-139063003D01*
X93113856Y-139062995D01*
X93125693Y-139062062D01*
X93157951Y-139061048D01*
X93161970Y-139060922D01*
X93169889Y-139060673D01*
X93189343Y-139055021D01*
X93208700Y-139051013D01*
X93220930Y-139049468D01*
X93220931Y-139049468D01*
X93228797Y-139048474D01*
X93236168Y-139045555D01*
X93236170Y-139045555D01*
X93269912Y-139032196D01*
X93281142Y-139028351D01*
X93315983Y-139018229D01*
X93315984Y-139018229D01*
X93323593Y-139016018D01*
X93330412Y-139011985D01*
X93330417Y-139011983D01*
X93341028Y-139005707D01*
X93358776Y-138997012D01*
X93377617Y-138989552D01*
X93413387Y-138963564D01*
X93423307Y-138957048D01*
X93454535Y-138938580D01*
X93454538Y-138938578D01*
X93461362Y-138934542D01*
X93475683Y-138920221D01*
X93490717Y-138907380D01*
X93500694Y-138900131D01*
X93507107Y-138895472D01*
X93535298Y-138861395D01*
X93543288Y-138852616D01*
X94650499Y-137745405D01*
X94712811Y-137711379D01*
X94739594Y-137708500D01*
X95260406Y-137708500D01*
X95328527Y-137728502D01*
X95349501Y-137745405D01*
X96407716Y-138803621D01*
X97436348Y-139832253D01*
X97443888Y-139840539D01*
X97448000Y-139847018D01*
X97453777Y-139852443D01*
X97497651Y-139893643D01*
X97500493Y-139896398D01*
X97520230Y-139916135D01*
X97523427Y-139918615D01*
X97532447Y-139926318D01*
X97564679Y-139956586D01*
X97571625Y-139960405D01*
X97571628Y-139960407D01*
X97582434Y-139966348D01*
X97598953Y-139977199D01*
X97614959Y-139989614D01*
X97622228Y-139992759D01*
X97622232Y-139992762D01*
X97655537Y-140007174D01*
X97666187Y-140012391D01*
X97704940Y-140033695D01*
X97712615Y-140035666D01*
X97712616Y-140035666D01*
X97724562Y-140038733D01*
X97743267Y-140045137D01*
X97761855Y-140053181D01*
X97769678Y-140054420D01*
X97769688Y-140054423D01*
X97805524Y-140060099D01*
X97817144Y-140062505D01*
X97848959Y-140070673D01*
X97859970Y-140073500D01*
X97880224Y-140073500D01*
X97899934Y-140075051D01*
X97919943Y-140078220D01*
X97927835Y-140077474D01*
X97946580Y-140075702D01*
X97963962Y-140074059D01*
X97975819Y-140073500D01*
X112611233Y-140073500D01*
X112622416Y-140074027D01*
X112629909Y-140075702D01*
X112637835Y-140075453D01*
X112637836Y-140075453D01*
X112697986Y-140073562D01*
X112701945Y-140073500D01*
X112729856Y-140073500D01*
X112733791Y-140073003D01*
X112733856Y-140072995D01*
X112745693Y-140072062D01*
X112777951Y-140071048D01*
X112781970Y-140070922D01*
X112789889Y-140070673D01*
X112809343Y-140065021D01*
X112828700Y-140061013D01*
X112840930Y-140059468D01*
X112840931Y-140059468D01*
X112848797Y-140058474D01*
X112856168Y-140055555D01*
X112856170Y-140055555D01*
X112889912Y-140042196D01*
X112901142Y-140038351D01*
X112935983Y-140028229D01*
X112935984Y-140028229D01*
X112943593Y-140026018D01*
X112950412Y-140021985D01*
X112950417Y-140021983D01*
X112961028Y-140015707D01*
X112978776Y-140007012D01*
X112997617Y-139999552D01*
X113033387Y-139973564D01*
X113043307Y-139967048D01*
X113074535Y-139948580D01*
X113074538Y-139948578D01*
X113081362Y-139944542D01*
X113095683Y-139930221D01*
X113110717Y-139917380D01*
X113120694Y-139910131D01*
X113127107Y-139905472D01*
X113155298Y-139871395D01*
X113163288Y-139862616D01*
X114587247Y-138438657D01*
X114595537Y-138431113D01*
X114602018Y-138427000D01*
X114630772Y-138396380D01*
X114691984Y-138360415D01*
X114762924Y-138363252D01*
X114786189Y-138373844D01*
X114971000Y-138481838D01*
X115179692Y-138561530D01*
X115184760Y-138562561D01*
X115184763Y-138562562D01*
X115292017Y-138584383D01*
X115398597Y-138606067D01*
X115403772Y-138606257D01*
X115403774Y-138606257D01*
X115616673Y-138614064D01*
X115616677Y-138614064D01*
X115621837Y-138614253D01*
X115626957Y-138613597D01*
X115626959Y-138613597D01*
X115838288Y-138586525D01*
X115838289Y-138586525D01*
X115843416Y-138585868D01*
X115906016Y-138567087D01*
X116052429Y-138523161D01*
X116052434Y-138523159D01*
X116057384Y-138521674D01*
X116257994Y-138423396D01*
X116439860Y-138293673D01*
X116598096Y-138135989D01*
X116728453Y-137954577D01*
X116749568Y-137911855D01*
X116825136Y-137758953D01*
X116825137Y-137758951D01*
X116827430Y-137754311D01*
X116892370Y-137540569D01*
X116921529Y-137319090D01*
X116922485Y-137279952D01*
X116923074Y-137255865D01*
X116923074Y-137255861D01*
X116923156Y-137252500D01*
X116904852Y-137029861D01*
X116850431Y-136813202D01*
X116761354Y-136608340D01*
X116714024Y-136535179D01*
X116642822Y-136425117D01*
X116642820Y-136425114D01*
X116640014Y-136420777D01*
X116489670Y-136255551D01*
X116485619Y-136252352D01*
X116485615Y-136252348D01*
X116318414Y-136120300D01*
X116318410Y-136120298D01*
X116314359Y-136117098D01*
X116273053Y-136094296D01*
X116223084Y-136043864D01*
X116208312Y-135974421D01*
X116233428Y-135908016D01*
X116260780Y-135881409D01*
X116310422Y-135846000D01*
X116439860Y-135753673D01*
X116446853Y-135746705D01*
X116563385Y-135630579D01*
X116598096Y-135595989D01*
X116634939Y-135544717D01*
X116723310Y-135421734D01*
X116728453Y-135414577D01*
X116749320Y-135372357D01*
X116825136Y-135218953D01*
X116825137Y-135218951D01*
X116827430Y-135214311D01*
X116892370Y-135000569D01*
X116921529Y-134779090D01*
X116921611Y-134775740D01*
X116923074Y-134715865D01*
X116923074Y-134715861D01*
X116923156Y-134712500D01*
X116904852Y-134489861D01*
X116850431Y-134273202D01*
X116761354Y-134068340D01*
X116667671Y-133923528D01*
X116647464Y-133855468D01*
X116667260Y-133787287D01*
X116720775Y-133740633D01*
X116752918Y-133730892D01*
X116759889Y-133730673D01*
X116767495Y-133728463D01*
X116767497Y-133728463D01*
X116772873Y-133726901D01*
X116779343Y-133725021D01*
X116798700Y-133721013D01*
X116810930Y-133719468D01*
X116810931Y-133719468D01*
X116818797Y-133718474D01*
X116826168Y-133715555D01*
X116826170Y-133715555D01*
X116859912Y-133702196D01*
X116871142Y-133698351D01*
X116905983Y-133688229D01*
X116905984Y-133688229D01*
X116913593Y-133686018D01*
X116920412Y-133681985D01*
X116920417Y-133681983D01*
X116931028Y-133675707D01*
X116948776Y-133667012D01*
X116967617Y-133659552D01*
X116986104Y-133646121D01*
X117003387Y-133633564D01*
X117013307Y-133627048D01*
X117044535Y-133608580D01*
X117044538Y-133608578D01*
X117051362Y-133604542D01*
X117065683Y-133590221D01*
X117080717Y-133577380D01*
X117081105Y-133577098D01*
X117097107Y-133565472D01*
X117102157Y-133559368D01*
X117102162Y-133559363D01*
X117125293Y-133531402D01*
X117133283Y-133522622D01*
X117622726Y-133033179D01*
X117685038Y-132999153D01*
X117755853Y-133004218D01*
X117812689Y-133046765D01*
X117837500Y-133113285D01*
X117823176Y-133181232D01*
X117782867Y-133257364D01*
X117780857Y-133261161D01*
X117779385Y-133265184D01*
X117779383Y-133265188D01*
X117709603Y-133455870D01*
X117686743Y-133518337D01*
X117628404Y-133785907D01*
X117620416Y-133887400D01*
X117611839Y-133996386D01*
X117606917Y-134058918D01*
X117622682Y-134332320D01*
X117623507Y-134336525D01*
X117623508Y-134336533D01*
X117637628Y-134408500D01*
X117675405Y-134601053D01*
X117676792Y-134605103D01*
X117676793Y-134605108D01*
X117762723Y-134856088D01*
X117764112Y-134860144D01*
X117813042Y-134957430D01*
X117878303Y-135087188D01*
X117887160Y-135104799D01*
X117889586Y-135108328D01*
X117889589Y-135108334D01*
X117998637Y-135266998D01*
X118042274Y-135330490D01*
X118045161Y-135333663D01*
X118045162Y-135333664D01*
X118196537Y-135500024D01*
X118226582Y-135533043D01*
X118229877Y-135535798D01*
X118229878Y-135535799D01*
X118255603Y-135557308D01*
X118436675Y-135708707D01*
X118440316Y-135710991D01*
X118665024Y-135851951D01*
X118665028Y-135851953D01*
X118668664Y-135854234D01*
X118756368Y-135893834D01*
X118914345Y-135965164D01*
X118914349Y-135965166D01*
X118918257Y-135966930D01*
X118967931Y-135981644D01*
X119176723Y-136043491D01*
X119176727Y-136043492D01*
X119180836Y-136044709D01*
X119185070Y-136045357D01*
X119185075Y-136045358D01*
X119447298Y-136085483D01*
X119447300Y-136085483D01*
X119451540Y-136086132D01*
X119590912Y-136088322D01*
X119721071Y-136090367D01*
X119721077Y-136090367D01*
X119725362Y-136090434D01*
X119997235Y-136057534D01*
X120262127Y-135988041D01*
X120266087Y-135986401D01*
X120266092Y-135986399D01*
X120417667Y-135923614D01*
X120515136Y-135883241D01*
X120706332Y-135771515D01*
X120747879Y-135747237D01*
X120747880Y-135747236D01*
X120751582Y-135745073D01*
X120967089Y-135576094D01*
X120990893Y-135551531D01*
X121120179Y-135418118D01*
X121157669Y-135379431D01*
X121160202Y-135375983D01*
X121160206Y-135375978D01*
X121317257Y-135162178D01*
X121319795Y-135158723D01*
X121344782Y-135112704D01*
X121390024Y-135029378D01*
X121440107Y-134979056D01*
X121500755Y-134963500D01*
X124940543Y-134963500D01*
X124960255Y-134965051D01*
X124973507Y-134967150D01*
X124980094Y-134966805D01*
X124980098Y-134966805D01*
X125039850Y-134963673D01*
X125046445Y-134963500D01*
X125066306Y-134963500D01*
X125086069Y-134961423D01*
X125092628Y-134960907D01*
X125108427Y-134960079D01*
X125152377Y-134957776D01*
X125152381Y-134957775D01*
X125158971Y-134957430D01*
X125171929Y-134953958D01*
X125191372Y-134950355D01*
X125191795Y-134950311D01*
X125204702Y-134948954D01*
X125267894Y-134928422D01*
X125274196Y-134926556D01*
X125331985Y-134911071D01*
X125338363Y-134909362D01*
X125344242Y-134906366D01*
X125344251Y-134906363D01*
X125350317Y-134903272D01*
X125368579Y-134895708D01*
X125375043Y-134893608D01*
X125375051Y-134893605D01*
X125381331Y-134891564D01*
X125387050Y-134888262D01*
X125387055Y-134888260D01*
X125438867Y-134858346D01*
X125444637Y-134855213D01*
X125503839Y-134825047D01*
X125514259Y-134816609D01*
X125530552Y-134805411D01*
X125530903Y-134805209D01*
X125542169Y-134798704D01*
X125547075Y-134794287D01*
X125547080Y-134794283D01*
X125591538Y-134754253D01*
X125596554Y-134749969D01*
X125609409Y-134739559D01*
X125609412Y-134739556D01*
X125611986Y-134737472D01*
X125626031Y-134723427D01*
X125630816Y-134718886D01*
X125675274Y-134678856D01*
X125675275Y-134678855D01*
X125680185Y-134674434D01*
X125688075Y-134663574D01*
X125700912Y-134648546D01*
X126978542Y-133370915D01*
X126993577Y-133358074D01*
X126999084Y-133354073D01*
X126999090Y-133354068D01*
X127004434Y-133350185D01*
X127048895Y-133300806D01*
X127053436Y-133296021D01*
X127067472Y-133281985D01*
X127079966Y-133266557D01*
X127084246Y-133261547D01*
X127124284Y-133217079D01*
X127124288Y-133217074D01*
X127128704Y-133212169D01*
X127133014Y-133204705D01*
X127135410Y-133200554D01*
X127146610Y-133184258D01*
X127149060Y-133181232D01*
X127155047Y-133173839D01*
X127185213Y-133114637D01*
X127188346Y-133108867D01*
X127218260Y-133057055D01*
X127218262Y-133057050D01*
X127221564Y-133051331D01*
X127223605Y-133045051D01*
X127223608Y-133045043D01*
X127225708Y-133038579D01*
X127233272Y-133020317D01*
X127236363Y-133014251D01*
X127236366Y-133014242D01*
X127239362Y-133008363D01*
X127251502Y-132963056D01*
X127256556Y-132944196D01*
X127258422Y-132937894D01*
X127278954Y-132874702D01*
X127280355Y-132861372D01*
X127283958Y-132841929D01*
X127287430Y-132828971D01*
X127288574Y-132807158D01*
X127290907Y-132762633D01*
X127291424Y-132756059D01*
X127293156Y-132739577D01*
X127293500Y-132736306D01*
X127293500Y-132716445D01*
X127293673Y-132709850D01*
X127296805Y-132650098D01*
X127296805Y-132650094D01*
X127297150Y-132643507D01*
X127295051Y-132630253D01*
X127293500Y-132610544D01*
X127293500Y-118369450D01*
X127295051Y-118349739D01*
X127296117Y-118343009D01*
X127297149Y-118336493D01*
X127296650Y-118326961D01*
X127293673Y-118270169D01*
X127293500Y-118263574D01*
X127293500Y-118243694D01*
X127291421Y-118223912D01*
X127290905Y-118217348D01*
X127287775Y-118157627D01*
X127287775Y-118157625D01*
X127287429Y-118151029D01*
X127283958Y-118138074D01*
X127280358Y-118118645D01*
X127279646Y-118111874D01*
X127279644Y-118111867D01*
X127278954Y-118105298D01*
X127258424Y-118042112D01*
X127256558Y-118035813D01*
X127254599Y-118028500D01*
X127239362Y-117971637D01*
X127235452Y-117963963D01*
X127233272Y-117959683D01*
X127225708Y-117941421D01*
X127223608Y-117934957D01*
X127223605Y-117934949D01*
X127221564Y-117928669D01*
X127218262Y-117922950D01*
X127218260Y-117922945D01*
X127188346Y-117871133D01*
X127185213Y-117865363D01*
X127155047Y-117806161D01*
X127146609Y-117795741D01*
X127135411Y-117779448D01*
X127133910Y-117776849D01*
X127128704Y-117767831D01*
X127124287Y-117762925D01*
X127124283Y-117762920D01*
X127084253Y-117718462D01*
X127079969Y-117713446D01*
X127069559Y-117700591D01*
X127069556Y-117700588D01*
X127067472Y-117698014D01*
X127053427Y-117683969D01*
X127048886Y-117679184D01*
X127008856Y-117634726D01*
X127008855Y-117634725D01*
X127004434Y-117629815D01*
X126993574Y-117621925D01*
X126978546Y-117609088D01*
X123010912Y-113641454D01*
X122998075Y-113626426D01*
X122990185Y-113615566D01*
X122940816Y-113571114D01*
X122936031Y-113566573D01*
X122921986Y-113552528D01*
X122919409Y-113550441D01*
X122906554Y-113540031D01*
X122901538Y-113535747D01*
X122857080Y-113495717D01*
X122857075Y-113495713D01*
X122852169Y-113491296D01*
X122840552Y-113484589D01*
X122824259Y-113473391D01*
X122818971Y-113469109D01*
X122813839Y-113464953D01*
X122754637Y-113434787D01*
X122748867Y-113431654D01*
X122697055Y-113401740D01*
X122697050Y-113401738D01*
X122691331Y-113398436D01*
X122685051Y-113396395D01*
X122685043Y-113396392D01*
X122678579Y-113394292D01*
X122660317Y-113386728D01*
X122654251Y-113383637D01*
X122654242Y-113383634D01*
X122648363Y-113380638D01*
X122637672Y-113377773D01*
X122584196Y-113363444D01*
X122577894Y-113361578D01*
X122514702Y-113341046D01*
X122501372Y-113339645D01*
X122481929Y-113336042D01*
X122468971Y-113332570D01*
X122462381Y-113332225D01*
X122462377Y-113332224D01*
X122418427Y-113329921D01*
X122402628Y-113329093D01*
X122396069Y-113328577D01*
X122376306Y-113326500D01*
X122356445Y-113326500D01*
X122349850Y-113326327D01*
X122290098Y-113323195D01*
X122290094Y-113323195D01*
X122283507Y-113322850D01*
X122270253Y-113324949D01*
X122250544Y-113326500D01*
X110025473Y-113326500D01*
X109957352Y-113306498D01*
X109910859Y-113252842D01*
X109900755Y-113182568D01*
X109903341Y-113169520D01*
X110051275Y-112586320D01*
X110087412Y-112525208D01*
X110150852Y-112493335D01*
X110173407Y-112491300D01*
X128475300Y-112491300D01*
X128543421Y-112511302D01*
G37*
%TD.AperFunction*%
%TA.AperFunction,Conductor*%
G36*
X111832026Y-135387644D02*
G01*
X111859875Y-135419494D01*
X111861248Y-135421734D01*
X111919987Y-135517588D01*
X112066250Y-135686438D01*
X112238126Y-135829132D01*
X112277176Y-135851951D01*
X112311445Y-135871976D01*
X112360169Y-135923614D01*
X112373240Y-135993397D01*
X112346509Y-136059169D01*
X112306055Y-136092527D01*
X112293607Y-136099007D01*
X112289474Y-136102110D01*
X112289471Y-136102112D01*
X112178089Y-136185740D01*
X112114965Y-136233135D01*
X111960629Y-136394638D01*
X111957715Y-136398910D01*
X111957714Y-136398911D01*
X111906153Y-136474497D01*
X111863467Y-136537073D01*
X111852898Y-136552566D01*
X111797987Y-136597569D01*
X111727462Y-136605740D01*
X111663715Y-136574486D01*
X111643017Y-136550001D01*
X111613062Y-136503697D01*
X111602377Y-136494495D01*
X111592812Y-136498898D01*
X110852022Y-137239688D01*
X110844408Y-137253632D01*
X110844539Y-137255465D01*
X110848790Y-137262080D01*
X111590474Y-138003764D01*
X111602484Y-138010323D01*
X111614223Y-138001355D01*
X111648022Y-137954319D01*
X111649277Y-137955221D01*
X111696391Y-137911855D01*
X111766330Y-137899648D01*
X111831767Y-137927191D01*
X111859580Y-137959013D01*
X111917287Y-138053183D01*
X111917291Y-138053188D01*
X111919987Y-138057588D01*
X112066250Y-138226438D01*
X112238126Y-138369132D01*
X112431000Y-138481838D01*
X112435829Y-138483682D01*
X112481877Y-138501266D01*
X112538381Y-138544253D01*
X112562674Y-138610964D01*
X112547044Y-138680219D01*
X112526024Y-138708071D01*
X112464500Y-138769595D01*
X112402188Y-138803621D01*
X112375405Y-138806500D01*
X110884726Y-138806500D01*
X110816605Y-138786498D01*
X110770112Y-138732842D01*
X110760008Y-138662568D01*
X110789502Y-138597988D01*
X110848518Y-138559814D01*
X110972255Y-138522691D01*
X110981842Y-138518933D01*
X111173098Y-138425238D01*
X111181944Y-138419965D01*
X111229247Y-138386223D01*
X111237648Y-138375523D01*
X111230660Y-138362370D01*
X110492812Y-137624522D01*
X110478868Y-137616908D01*
X110477035Y-137617039D01*
X110470420Y-137621290D01*
X109726737Y-138364973D01*
X109719977Y-138377353D01*
X109725258Y-138384407D01*
X109886756Y-138478779D01*
X109896042Y-138483229D01*
X110095004Y-138559204D01*
X110096032Y-138559503D01*
X110096398Y-138559737D01*
X110099832Y-138561048D01*
X110099561Y-138561757D01*
X110155867Y-138597716D01*
X110185545Y-138662212D01*
X110175642Y-138732515D01*
X110129302Y-138786303D01*
X110060879Y-138806500D01*
X108851507Y-138806500D01*
X108783386Y-138786498D01*
X108736893Y-138732842D01*
X108726789Y-138662568D01*
X108756283Y-138597988D01*
X108811631Y-138560976D01*
X108856784Y-138545912D01*
X108869962Y-138539739D01*
X109007807Y-138454437D01*
X109019208Y-138445401D01*
X109133739Y-138330671D01*
X109142751Y-138319260D01*
X109227816Y-138181257D01*
X109233964Y-138168074D01*
X109256297Y-138100741D01*
X109296727Y-138042381D01*
X109326015Y-138024699D01*
X109365694Y-138007596D01*
X110107978Y-137265312D01*
X110115592Y-137251368D01*
X110115461Y-137249535D01*
X110111210Y-137242920D01*
X109369849Y-136501559D01*
X109329966Y-136479780D01*
X109316009Y-136476744D01*
X109265807Y-136426542D01*
X109256871Y-136406032D01*
X109233413Y-136335718D01*
X109227239Y-136322538D01*
X109141937Y-136184693D01*
X109132901Y-136173292D01*
X109018171Y-136058761D01*
X109006760Y-136049749D01*
X108868757Y-135964684D01*
X108861276Y-135961195D01*
X108807991Y-135914277D01*
X108788530Y-135846000D01*
X108809072Y-135778040D01*
X108863095Y-135731975D01*
X108914526Y-135721000D01*
X109522393Y-135721000D01*
X109590514Y-135741002D01*
X109602877Y-135750055D01*
X109698126Y-135829132D01*
X109737176Y-135851951D01*
X109771955Y-135872274D01*
X109820679Y-135923912D01*
X109833750Y-135993695D01*
X109807019Y-136059467D01*
X109766562Y-136092827D01*
X109758460Y-136097044D01*
X109749734Y-136102539D01*
X109729677Y-136117599D01*
X109721223Y-136128927D01*
X109727968Y-136141258D01*
X110467188Y-136880478D01*
X110481132Y-136888092D01*
X110482965Y-136887961D01*
X110489580Y-136883710D01*
X111233389Y-136139901D01*
X111240410Y-136127044D01*
X111233611Y-136117713D01*
X111229559Y-136115021D01*
X111192602Y-136094620D01*
X111142631Y-136044187D01*
X111127859Y-135974745D01*
X111152975Y-135908339D01*
X111180327Y-135881732D01*
X111218878Y-135854234D01*
X111359860Y-135753673D01*
X111366853Y-135746705D01*
X111483385Y-135630579D01*
X111518096Y-135595989D01*
X111554939Y-135544717D01*
X111648453Y-135414577D01*
X111649776Y-135415528D01*
X111696645Y-135372357D01*
X111766580Y-135360125D01*
X111832026Y-135387644D01*
G37*
%TD.AperFunction*%
%TA.AperFunction,Conductor*%
G36*
X106514046Y-127116559D02*
G01*
X106569393Y-127161025D01*
X106592000Y-127233039D01*
X106592000Y-128227885D01*
X106596475Y-128243124D01*
X106597865Y-128244329D01*
X106605548Y-128246000D01*
X107803000Y-128246000D01*
X107871121Y-128266002D01*
X107917614Y-128319658D01*
X107929000Y-128372000D01*
X107929000Y-130789884D01*
X107933475Y-130805123D01*
X107934865Y-130806328D01*
X107942548Y-130807999D01*
X108294674Y-130807999D01*
X108302173Y-130807593D01*
X108371275Y-130823883D01*
X108398076Y-130844311D01*
X108873484Y-131319718D01*
X109434595Y-131880829D01*
X109468621Y-131943141D01*
X109471500Y-131969924D01*
X109471500Y-133578000D01*
X109451498Y-133646121D01*
X109397842Y-133692614D01*
X109345500Y-133704000D01*
X108898799Y-133704000D01*
X108830678Y-133683998D01*
X108820707Y-133676882D01*
X108698414Y-133580300D01*
X108698410Y-133580298D01*
X108694359Y-133577098D01*
X108681739Y-133570131D01*
X108642136Y-133548269D01*
X108498789Y-133469138D01*
X108493920Y-133467414D01*
X108493916Y-133467412D01*
X108293087Y-133396295D01*
X108293083Y-133396294D01*
X108288212Y-133394569D01*
X108283119Y-133393662D01*
X108283116Y-133393661D01*
X108073373Y-133356300D01*
X108073367Y-133356299D01*
X108068284Y-133355394D01*
X107994452Y-133354492D01*
X107850081Y-133352728D01*
X107850079Y-133352728D01*
X107844911Y-133352665D01*
X107624091Y-133386455D01*
X107411756Y-133455857D01*
X107381443Y-133471637D01*
X107253074Y-133538462D01*
X107213607Y-133559007D01*
X107209474Y-133562110D01*
X107209471Y-133562112D01*
X107041499Y-133688229D01*
X107034965Y-133693135D01*
X107010215Y-133719034D01*
X106908267Y-133825717D01*
X106880629Y-133854638D01*
X106877720Y-133858903D01*
X106877714Y-133858911D01*
X106833635Y-133923528D01*
X106754743Y-134039180D01*
X106739003Y-134073090D01*
X106670660Y-134220323D01*
X106660688Y-134241805D01*
X106600989Y-134457070D01*
X106577251Y-134679195D01*
X106577548Y-134684348D01*
X106577548Y-134684351D01*
X106585766Y-134826876D01*
X106590110Y-134902215D01*
X106591247Y-134907261D01*
X106591248Y-134907267D01*
X106603844Y-134963156D01*
X106639222Y-135120139D01*
X106723266Y-135327116D01*
X106774019Y-135409938D01*
X106837291Y-135513188D01*
X106839987Y-135517588D01*
X106986250Y-135686438D01*
X107027919Y-135721032D01*
X107056772Y-135744986D01*
X107096408Y-135803889D01*
X107097906Y-135874870D01*
X107060792Y-135935393D01*
X107029739Y-135956032D01*
X107010040Y-135965260D01*
X106872193Y-136050563D01*
X106860792Y-136059599D01*
X106746261Y-136174329D01*
X106737249Y-136185740D01*
X106652184Y-136323743D01*
X106646037Y-136336924D01*
X106594862Y-136491210D01*
X106591995Y-136504586D01*
X106582328Y-136598938D01*
X106582000Y-136605355D01*
X106582000Y-136980385D01*
X106586475Y-136995624D01*
X106587865Y-136996829D01*
X106595548Y-136998500D01*
X108068000Y-136998500D01*
X108136121Y-137018502D01*
X108182614Y-137072158D01*
X108194000Y-137124500D01*
X108194000Y-137380500D01*
X108173998Y-137448621D01*
X108120342Y-137495114D01*
X108068000Y-137506500D01*
X106600116Y-137506500D01*
X106584877Y-137510975D01*
X106583672Y-137512365D01*
X106582001Y-137520048D01*
X106582001Y-137899595D01*
X106582338Y-137906114D01*
X106592257Y-138001706D01*
X106595149Y-138015100D01*
X106646588Y-138169284D01*
X106652761Y-138182462D01*
X106738063Y-138320307D01*
X106747099Y-138331708D01*
X106861829Y-138446239D01*
X106873240Y-138455251D01*
X107011243Y-138540316D01*
X107024424Y-138546463D01*
X107067971Y-138560907D01*
X107126330Y-138601338D01*
X107153567Y-138666902D01*
X107141033Y-138736784D01*
X107092708Y-138788796D01*
X107028303Y-138806500D01*
X98254594Y-138806500D01*
X98186473Y-138786498D01*
X98165499Y-138769595D01*
X96145405Y-136749500D01*
X96111379Y-136687188D01*
X96108500Y-136660405D01*
X96108500Y-136279807D01*
X96752001Y-136279807D01*
X96752121Y-136283701D01*
X96754790Y-136326893D01*
X96756126Y-136336472D01*
X96800048Y-136537073D01*
X96803695Y-136548432D01*
X96884306Y-136736059D01*
X96890041Y-136746533D01*
X97004669Y-136915522D01*
X97012282Y-136924724D01*
X97156802Y-137068992D01*
X97166015Y-137076587D01*
X97335206Y-137190922D01*
X97345690Y-137196638D01*
X97533450Y-137276918D01*
X97544821Y-137280547D01*
X97745480Y-137324115D01*
X97755100Y-137325437D01*
X97796387Y-137327890D01*
X97800102Y-137328000D01*
X98237885Y-137328000D01*
X98253124Y-137323525D01*
X98254329Y-137322135D01*
X98256000Y-137314452D01*
X98256000Y-137309884D01*
X98764000Y-137309884D01*
X98768475Y-137325123D01*
X98769865Y-137326328D01*
X98777548Y-137327999D01*
X99219807Y-137327999D01*
X99223701Y-137327879D01*
X99266893Y-137325210D01*
X99276472Y-137323874D01*
X99477073Y-137279952D01*
X99488432Y-137276305D01*
X99676059Y-137195694D01*
X99686533Y-137189959D01*
X99855522Y-137075331D01*
X99864724Y-137067718D01*
X100008992Y-136923198D01*
X100016587Y-136913985D01*
X100130922Y-136744794D01*
X100136638Y-136734310D01*
X100216918Y-136546550D01*
X100220547Y-136535179D01*
X100264115Y-136334520D01*
X100265437Y-136324900D01*
X100267890Y-136283613D01*
X100268000Y-136279898D01*
X100268000Y-134842115D01*
X100263525Y-134826876D01*
X100262135Y-134825671D01*
X100254452Y-134824000D01*
X98782115Y-134824000D01*
X98766876Y-134828475D01*
X98765671Y-134829865D01*
X98764000Y-134837548D01*
X98764000Y-137309884D01*
X98256000Y-137309884D01*
X98256000Y-134842115D01*
X98251525Y-134826876D01*
X98250135Y-134825671D01*
X98242452Y-134824000D01*
X96770116Y-134824000D01*
X96754877Y-134828475D01*
X96753672Y-134829865D01*
X96752001Y-134837548D01*
X96752001Y-136279807D01*
X96108500Y-136279807D01*
X96108500Y-135999600D01*
X96108112Y-135995857D01*
X96098238Y-135900692D01*
X96098237Y-135900688D01*
X96097526Y-135893834D01*
X96093489Y-135881732D01*
X96043868Y-135733002D01*
X96041550Y-135726054D01*
X95948478Y-135575652D01*
X95948096Y-135575271D01*
X95922506Y-135512044D01*
X95935678Y-135442280D01*
X95949009Y-135421497D01*
X95952753Y-135416757D01*
X96037816Y-135278757D01*
X96043963Y-135265576D01*
X96095138Y-135111290D01*
X96098005Y-135097914D01*
X96107672Y-135003562D01*
X96108000Y-134997146D01*
X96108000Y-134772115D01*
X96103525Y-134756876D01*
X96102135Y-134755671D01*
X96094452Y-134754000D01*
X94872000Y-134754000D01*
X94803879Y-134733998D01*
X94757386Y-134680342D01*
X94746000Y-134628000D01*
X94746000Y-134227885D01*
X95254000Y-134227885D01*
X95258475Y-134243124D01*
X95259865Y-134244329D01*
X95267548Y-134246000D01*
X96089884Y-134246000D01*
X96105123Y-134241525D01*
X96106328Y-134240135D01*
X96107999Y-134232452D01*
X96107999Y-134002905D01*
X96107662Y-133996386D01*
X96097743Y-133900794D01*
X96094851Y-133887400D01*
X96043412Y-133733216D01*
X96037239Y-133720038D01*
X95951937Y-133582193D01*
X95942901Y-133570792D01*
X95828171Y-133456261D01*
X95816760Y-133447249D01*
X95678757Y-133362184D01*
X95665576Y-133356037D01*
X95511290Y-133304862D01*
X95497914Y-133301995D01*
X95403562Y-133292328D01*
X95397145Y-133292000D01*
X95272115Y-133292000D01*
X95256876Y-133296475D01*
X95255671Y-133297865D01*
X95254000Y-133305548D01*
X95254000Y-134227885D01*
X94746000Y-134227885D01*
X94746000Y-133310116D01*
X94741525Y-133294877D01*
X94740135Y-133293672D01*
X94732452Y-133292001D01*
X94602905Y-133292001D01*
X94596386Y-133292338D01*
X94500794Y-133302257D01*
X94487400Y-133305149D01*
X94333216Y-133356588D01*
X94320038Y-133362761D01*
X94182193Y-133448063D01*
X94170792Y-133457099D01*
X94089570Y-133538462D01*
X94027287Y-133572541D01*
X93956467Y-133567538D01*
X93911380Y-133538617D01*
X93828488Y-133455870D01*
X93828483Y-133455866D01*
X93823303Y-133450695D01*
X93817072Y-133446854D01*
X93678968Y-133361725D01*
X93678966Y-133361724D01*
X93672738Y-133357885D01*
X93592995Y-133331436D01*
X93511389Y-133304368D01*
X93511387Y-133304368D01*
X93504861Y-133302203D01*
X93498025Y-133301503D01*
X93498022Y-133301502D01*
X93454969Y-133297091D01*
X93400400Y-133291500D01*
X92739595Y-133291500D01*
X92671474Y-133271498D01*
X92650500Y-133254595D01*
X92575405Y-133179500D01*
X92541379Y-133117188D01*
X92538500Y-133090405D01*
X92538500Y-132626000D01*
X92558502Y-132557879D01*
X92612158Y-132511386D01*
X92664500Y-132500000D01*
X96665919Y-132500000D01*
X96734040Y-132520002D01*
X96780533Y-132573658D01*
X96790637Y-132643932D01*
X96789050Y-132652735D01*
X96755885Y-132805480D01*
X96754563Y-132815100D01*
X96752110Y-132856387D01*
X96752000Y-132860102D01*
X96752000Y-134297885D01*
X96756475Y-134313124D01*
X96757865Y-134314329D01*
X96765548Y-134316000D01*
X100249884Y-134316000D01*
X100265123Y-134311525D01*
X100266328Y-134310135D01*
X100267999Y-134302452D01*
X100267999Y-132860194D01*
X100267879Y-132856299D01*
X100265210Y-132813107D01*
X100263874Y-132803531D01*
X100230904Y-132652950D01*
X100235873Y-132582127D01*
X100278343Y-132525234D01*
X100344829Y-132500333D01*
X100353988Y-132500000D01*
X105000000Y-132500000D01*
X105224144Y-131616357D01*
X105416726Y-130857140D01*
X105452863Y-130796028D01*
X105494628Y-130770138D01*
X105538297Y-130753767D01*
X105546705Y-130750615D01*
X105663261Y-130663261D01*
X105750615Y-130546705D01*
X105801745Y-130410316D01*
X105808500Y-130348134D01*
X105808500Y-130344669D01*
X106592001Y-130344669D01*
X106592371Y-130351490D01*
X106597895Y-130402352D01*
X106601521Y-130417604D01*
X106646676Y-130538054D01*
X106655214Y-130553649D01*
X106731715Y-130655724D01*
X106744276Y-130668285D01*
X106846351Y-130744786D01*
X106861946Y-130753324D01*
X106982394Y-130798478D01*
X106997649Y-130802105D01*
X107048514Y-130807631D01*
X107055328Y-130808000D01*
X107402885Y-130808000D01*
X107418124Y-130803525D01*
X107419329Y-130802135D01*
X107421000Y-130794452D01*
X107421000Y-128772115D01*
X107416525Y-128756876D01*
X107415135Y-128755671D01*
X107407452Y-128754000D01*
X106610116Y-128754000D01*
X106594877Y-128758475D01*
X106593672Y-128759865D01*
X106592001Y-128767548D01*
X106592001Y-130344669D01*
X105808500Y-130344669D01*
X105808500Y-129328375D01*
X105812368Y-129297395D01*
X105825279Y-129246498D01*
X106257695Y-127541778D01*
X106343868Y-127202059D01*
X106380005Y-127140947D01*
X106443445Y-127109074D01*
X106514046Y-127116559D01*
G37*
%TD.AperFunction*%
%TA.AperFunction,Conductor*%
G36*
X116834121Y-116063502D02*
G01*
X116880614Y-116117158D01*
X116892000Y-116169500D01*
X116892000Y-116447885D01*
X116896475Y-116463124D01*
X116897865Y-116464329D01*
X116905548Y-116466000D01*
X121389884Y-116466000D01*
X121405123Y-116461525D01*
X121406328Y-116460135D01*
X121407999Y-116452452D01*
X121407999Y-116191648D01*
X121428001Y-116123527D01*
X121481657Y-116077034D01*
X121551931Y-116066930D01*
X121616511Y-116096424D01*
X121623094Y-116102552D01*
X122249595Y-116729052D01*
X122283620Y-116791365D01*
X122286500Y-116818148D01*
X122286500Y-120751853D01*
X122266498Y-120819974D01*
X122249595Y-120840948D01*
X120365348Y-122725195D01*
X120303036Y-122759221D01*
X120241735Y-122757280D01*
X120078566Y-122710800D01*
X120074324Y-122710196D01*
X120074318Y-122710195D01*
X119873834Y-122681662D01*
X119807443Y-122672213D01*
X119663589Y-122671460D01*
X119537877Y-122670802D01*
X119537871Y-122670802D01*
X119533591Y-122670780D01*
X119529347Y-122671339D01*
X119529343Y-122671339D01*
X119410302Y-122687011D01*
X119262078Y-122706525D01*
X119257938Y-122707658D01*
X119257936Y-122707658D01*
X119237612Y-122713218D01*
X118997928Y-122778788D01*
X118984731Y-122784417D01*
X118749982Y-122884546D01*
X118749978Y-122884548D01*
X118746030Y-122886232D01*
X118663022Y-122935911D01*
X118514725Y-123024664D01*
X118514721Y-123024667D01*
X118511043Y-123026868D01*
X118297318Y-123198094D01*
X118108808Y-123396742D01*
X117949002Y-123619136D01*
X117820857Y-123861161D01*
X117819385Y-123865184D01*
X117819383Y-123865188D01*
X117766543Y-124009580D01*
X117726743Y-124118337D01*
X117668404Y-124385907D01*
X117661472Y-124473987D01*
X117654916Y-124557290D01*
X117646917Y-124658918D01*
X117662682Y-124932320D01*
X117663507Y-124936525D01*
X117663508Y-124936533D01*
X117688473Y-125063778D01*
X117715405Y-125201053D01*
X117716792Y-125205103D01*
X117716793Y-125205108D01*
X117797190Y-125439928D01*
X117804112Y-125460144D01*
X117856234Y-125563778D01*
X117918717Y-125688011D01*
X117927160Y-125704799D01*
X117929586Y-125708328D01*
X117929589Y-125708334D01*
X118077033Y-125922864D01*
X118082274Y-125930490D01*
X118085161Y-125933663D01*
X118085162Y-125933664D01*
X118257753Y-126123340D01*
X118266582Y-126133043D01*
X118269877Y-126135798D01*
X118269878Y-126135799D01*
X118318071Y-126176094D01*
X118476675Y-126308707D01*
X118480316Y-126310991D01*
X118705024Y-126451951D01*
X118705028Y-126451953D01*
X118708664Y-126454234D01*
X118776544Y-126484883D01*
X118954345Y-126565164D01*
X118954349Y-126565166D01*
X118958257Y-126566930D01*
X119014825Y-126583686D01*
X119216723Y-126643491D01*
X119216727Y-126643492D01*
X119220836Y-126644709D01*
X119225070Y-126645357D01*
X119225075Y-126645358D01*
X119487298Y-126685483D01*
X119487300Y-126685483D01*
X119491540Y-126686132D01*
X119704169Y-126689473D01*
X119706931Y-126689516D01*
X119738046Y-126699185D01*
X119745175Y-126694604D01*
X119765536Y-126690413D01*
X120032971Y-126658050D01*
X120037235Y-126657534D01*
X120302127Y-126588041D01*
X120306087Y-126586401D01*
X120306092Y-126586399D01*
X120509396Y-126502187D01*
X120555136Y-126483241D01*
X120791582Y-126345073D01*
X121007089Y-126176094D01*
X121017635Y-126165212D01*
X121141124Y-126037781D01*
X121197669Y-125979431D01*
X121200202Y-125975983D01*
X121200206Y-125975978D01*
X121357257Y-125762178D01*
X121359795Y-125758723D01*
X121363153Y-125752539D01*
X121488418Y-125521830D01*
X121488419Y-125521828D01*
X121490468Y-125518054D01*
X121557776Y-125339928D01*
X121585751Y-125265895D01*
X121585752Y-125265891D01*
X121587269Y-125261877D01*
X121628816Y-125080471D01*
X121647449Y-124999117D01*
X121647450Y-124999113D01*
X121648407Y-124994933D01*
X121652889Y-124944719D01*
X121672531Y-124724627D01*
X121672531Y-124724625D01*
X121672751Y-124722161D01*
X121672847Y-124713056D01*
X121673167Y-124682484D01*
X121673167Y-124682483D01*
X121673193Y-124680000D01*
X121671961Y-124661930D01*
X121654859Y-124411055D01*
X121654858Y-124411049D01*
X121654567Y-124406778D01*
X121653307Y-124400691D01*
X121620768Y-124243571D01*
X121599032Y-124138612D01*
X121597604Y-124134579D01*
X121597601Y-124134569D01*
X121586817Y-124104116D01*
X121582933Y-124033225D01*
X121616495Y-123972962D01*
X123738542Y-121850915D01*
X123753577Y-121838074D01*
X123759084Y-121834073D01*
X123759090Y-121834068D01*
X123764434Y-121830185D01*
X123808895Y-121780806D01*
X123813436Y-121776021D01*
X123827472Y-121761985D01*
X123839969Y-121746553D01*
X123844253Y-121741538D01*
X123884283Y-121697080D01*
X123884287Y-121697075D01*
X123888704Y-121692169D01*
X123895412Y-121680551D01*
X123906607Y-121664263D01*
X123910890Y-121658974D01*
X123910891Y-121658973D01*
X123915048Y-121653839D01*
X123945214Y-121594634D01*
X123948337Y-121588881D01*
X123981564Y-121531331D01*
X123983606Y-121525047D01*
X123983608Y-121525042D01*
X123985708Y-121518579D01*
X123993272Y-121500317D01*
X123996363Y-121494251D01*
X123996366Y-121494242D01*
X123999362Y-121488363D01*
X124009075Y-121452115D01*
X124016556Y-121424196D01*
X124018422Y-121417894D01*
X124038954Y-121354702D01*
X124040355Y-121341372D01*
X124043958Y-121321929D01*
X124047430Y-121308971D01*
X124050907Y-121242628D01*
X124051424Y-121236059D01*
X124053156Y-121219577D01*
X124053500Y-121216306D01*
X124053500Y-121196445D01*
X124053673Y-121189850D01*
X124056805Y-121130098D01*
X124056805Y-121130094D01*
X124057150Y-121123507D01*
X124055051Y-121110253D01*
X124053500Y-121090544D01*
X124053500Y-117487148D01*
X124073502Y-117419027D01*
X124127158Y-117372534D01*
X124197432Y-117362430D01*
X124262012Y-117391924D01*
X124268595Y-117398053D01*
X125489595Y-118619053D01*
X125523621Y-118681365D01*
X125526500Y-118708148D01*
X125526500Y-127724093D01*
X125506498Y-127792214D01*
X125452842Y-127838707D01*
X125382568Y-127848811D01*
X125317988Y-127819317D01*
X125299443Y-127799349D01*
X125297158Y-127796281D01*
X125294742Y-127792503D01*
X125201252Y-127684002D01*
X125091489Y-127588250D01*
X125065083Y-127571134D01*
X125005392Y-127532445D01*
X124971304Y-127510350D01*
X124839076Y-127449252D01*
X124778375Y-127431099D01*
X124725382Y-127399477D01*
X124508652Y-127182747D01*
X124501112Y-127174461D01*
X124497000Y-127167982D01*
X124489592Y-127161025D01*
X124447349Y-127121357D01*
X124444507Y-127118602D01*
X124424770Y-127098865D01*
X124421573Y-127096385D01*
X124412551Y-127088680D01*
X124402016Y-127078787D01*
X124380321Y-127058414D01*
X124373375Y-127054595D01*
X124373372Y-127054593D01*
X124362566Y-127048652D01*
X124346047Y-127037801D01*
X124338538Y-127031977D01*
X124330041Y-127025386D01*
X124322772Y-127022241D01*
X124322768Y-127022238D01*
X124289463Y-127007826D01*
X124278813Y-127002609D01*
X124240060Y-126981305D01*
X124220437Y-126976267D01*
X124201734Y-126969863D01*
X124190420Y-126964967D01*
X124190419Y-126964967D01*
X124183145Y-126961819D01*
X124175322Y-126960580D01*
X124175312Y-126960577D01*
X124139476Y-126954901D01*
X124127856Y-126952495D01*
X124092711Y-126943472D01*
X124092710Y-126943472D01*
X124085030Y-126941500D01*
X124064776Y-126941500D01*
X124045065Y-126939949D01*
X124032886Y-126938020D01*
X124025057Y-126936780D01*
X124017165Y-126937526D01*
X123981039Y-126940941D01*
X123969181Y-126941500D01*
X119780673Y-126941500D01*
X119747087Y-126931638D01*
X119738547Y-126936939D01*
X119704952Y-126941500D01*
X117569595Y-126941500D01*
X117501474Y-126921498D01*
X117480499Y-126904595D01*
X117140404Y-126564499D01*
X117106379Y-126502187D01*
X117103500Y-126475404D01*
X117103500Y-122122221D01*
X117104027Y-122111037D01*
X117105701Y-122103549D01*
X117103562Y-122035490D01*
X117103500Y-122031533D01*
X117103500Y-122003602D01*
X117102994Y-121999596D01*
X117102061Y-121987750D01*
X117101340Y-121964781D01*
X117100673Y-121943568D01*
X117095022Y-121924116D01*
X117091014Y-121904764D01*
X117089467Y-121892521D01*
X117088474Y-121884661D01*
X117085556Y-121877290D01*
X117072200Y-121843555D01*
X117068355Y-121832328D01*
X117067721Y-121830145D01*
X117056018Y-121789865D01*
X117051984Y-121783043D01*
X117051981Y-121783037D01*
X117045706Y-121772426D01*
X117037010Y-121754676D01*
X117032472Y-121743214D01*
X117032469Y-121743209D01*
X117029552Y-121735841D01*
X117003573Y-121700083D01*
X116997057Y-121690165D01*
X116978575Y-121658915D01*
X116974542Y-121652095D01*
X116960218Y-121637771D01*
X116947376Y-121622736D01*
X116935472Y-121606351D01*
X116901406Y-121578169D01*
X116892627Y-121570180D01*
X115582352Y-120259905D01*
X115574812Y-120251619D01*
X115570700Y-120245140D01*
X115521048Y-120198514D01*
X115518207Y-120195760D01*
X115498470Y-120176023D01*
X115495273Y-120173543D01*
X115486251Y-120165838D01*
X115459800Y-120140999D01*
X115454021Y-120135572D01*
X115447075Y-120131753D01*
X115447072Y-120131751D01*
X115436266Y-120125810D01*
X115419747Y-120114959D01*
X115419283Y-120114599D01*
X115403741Y-120102544D01*
X115396472Y-120099399D01*
X115396468Y-120099396D01*
X115363163Y-120084984D01*
X115352513Y-120079767D01*
X115313760Y-120058463D01*
X115294137Y-120053425D01*
X115275434Y-120047021D01*
X115264120Y-120042125D01*
X115264119Y-120042125D01*
X115256845Y-120038977D01*
X115249022Y-120037738D01*
X115249012Y-120037735D01*
X115213176Y-120032059D01*
X115201556Y-120029653D01*
X115166411Y-120020630D01*
X115166410Y-120020630D01*
X115158730Y-120018658D01*
X115138476Y-120018658D01*
X115118765Y-120017107D01*
X115106586Y-120015178D01*
X115098757Y-120013938D01*
X115090865Y-120014684D01*
X115054739Y-120018099D01*
X115042881Y-120018658D01*
X114416753Y-120018658D01*
X114348632Y-119998656D01*
X114327657Y-119981753D01*
X114254405Y-119908500D01*
X114158646Y-119812741D01*
X114151113Y-119804463D01*
X114147000Y-119797982D01*
X114139691Y-119791118D01*
X114097365Y-119751373D01*
X114094519Y-119748615D01*
X114077571Y-119731666D01*
X114074770Y-119728865D01*
X114071573Y-119726385D01*
X114062551Y-119718680D01*
X114049116Y-119706064D01*
X114030321Y-119688414D01*
X114023375Y-119684595D01*
X114023372Y-119684593D01*
X114012566Y-119678652D01*
X113996047Y-119667801D01*
X113995583Y-119667441D01*
X113980041Y-119655386D01*
X113972772Y-119652241D01*
X113972768Y-119652238D01*
X113939463Y-119637826D01*
X113928813Y-119632609D01*
X113890060Y-119611305D01*
X113870437Y-119606267D01*
X113851734Y-119599863D01*
X113840420Y-119594967D01*
X113840419Y-119594967D01*
X113833145Y-119591819D01*
X113825322Y-119590580D01*
X113825312Y-119590577D01*
X113789476Y-119584901D01*
X113777856Y-119582495D01*
X113742711Y-119573472D01*
X113742710Y-119573472D01*
X113735030Y-119571500D01*
X113714776Y-119571500D01*
X113695065Y-119569949D01*
X113692534Y-119569548D01*
X113675057Y-119566780D01*
X113667165Y-119567526D01*
X113631039Y-119570941D01*
X113619181Y-119571500D01*
X113098955Y-119571500D01*
X113087771Y-119570973D01*
X113080283Y-119569299D01*
X113072360Y-119569548D01*
X113012225Y-119571438D01*
X113008267Y-119571500D01*
X112980336Y-119571500D01*
X112976421Y-119571995D01*
X112976417Y-119571995D01*
X112976359Y-119572003D01*
X112976330Y-119572006D01*
X112964488Y-119572939D01*
X112920302Y-119574327D01*
X112902936Y-119579372D01*
X112900850Y-119579978D01*
X112881498Y-119583986D01*
X112869260Y-119585532D01*
X112869258Y-119585533D01*
X112861395Y-119586526D01*
X112820278Y-119602806D01*
X112809077Y-119606641D01*
X112766598Y-119618982D01*
X112759779Y-119623015D01*
X112759774Y-119623017D01*
X112749163Y-119629293D01*
X112731413Y-119637990D01*
X112712575Y-119645448D01*
X112706159Y-119650109D01*
X112706158Y-119650110D01*
X112676817Y-119671428D01*
X112666893Y-119677947D01*
X112635652Y-119696422D01*
X112635647Y-119696426D01*
X112628829Y-119700458D01*
X112614505Y-119714782D01*
X112599473Y-119727621D01*
X112583085Y-119739528D01*
X112554904Y-119773593D01*
X112546914Y-119782373D01*
X112169692Y-120159595D01*
X112107380Y-120193621D01*
X112080597Y-120196500D01*
X111832928Y-120196500D01*
X111829682Y-120196837D01*
X111829678Y-120196837D01*
X111735765Y-120206581D01*
X111735761Y-120206582D01*
X111728907Y-120207293D01*
X111722371Y-120209474D01*
X111722369Y-120209474D01*
X111631726Y-120239715D01*
X111563893Y-120262346D01*
X111415969Y-120353884D01*
X111410797Y-120359065D01*
X111408727Y-120361139D01*
X111406962Y-120362105D01*
X111405059Y-120363613D01*
X111404801Y-120363287D01*
X111346446Y-120395219D01*
X111275625Y-120390218D01*
X111230530Y-120361292D01*
X111227869Y-120358636D01*
X111216460Y-120349625D01*
X111080937Y-120266088D01*
X111067759Y-120259944D01*
X110916234Y-120209685D01*
X110902868Y-120206819D01*
X110810230Y-120197328D01*
X110803815Y-120197000D01*
X110729615Y-120197000D01*
X110714376Y-120201475D01*
X110713171Y-120202865D01*
X110711500Y-120210548D01*
X110711500Y-122144885D01*
X110715975Y-122160124D01*
X110717365Y-122161329D01*
X110725048Y-122163000D01*
X110803766Y-122163000D01*
X110810282Y-122162663D01*
X110904132Y-122152925D01*
X110917528Y-122150032D01*
X111068953Y-122099512D01*
X111082115Y-122093347D01*
X111217492Y-122009574D01*
X111228894Y-122000536D01*
X111230567Y-121998861D01*
X111231993Y-121998081D01*
X111234627Y-121995993D01*
X111234984Y-121996444D01*
X111292849Y-121964781D01*
X111363669Y-121969784D01*
X111408754Y-121998701D01*
X111409654Y-121999599D01*
X111416997Y-122006929D01*
X111423227Y-122010769D01*
X111423228Y-122010770D01*
X111554300Y-122091564D01*
X111565080Y-122098209D01*
X111640319Y-122123165D01*
X111698678Y-122163594D01*
X111725915Y-122229158D01*
X111725914Y-122256364D01*
X111720305Y-122307997D01*
X111719936Y-122314813D01*
X111719936Y-122906369D01*
X111724411Y-122921608D01*
X111725801Y-122922813D01*
X111733484Y-122924484D01*
X111839033Y-122924484D01*
X111907154Y-122944486D01*
X111953647Y-122998142D01*
X111963751Y-123068416D01*
X111934257Y-123132996D01*
X111915218Y-123150842D01*
X111891496Y-123168848D01*
X111825145Y-123194100D01*
X111815319Y-123194484D01*
X111738052Y-123194484D01*
X111722813Y-123198959D01*
X111721608Y-123200349D01*
X111719937Y-123208032D01*
X111719937Y-123804152D01*
X111720307Y-123810973D01*
X111725831Y-123861835D01*
X111731020Y-123883659D01*
X111734438Y-123912806D01*
X111734438Y-124121233D01*
X111711969Y-124193047D01*
X111709980Y-124195914D01*
X111709975Y-124195922D01*
X111707417Y-124199610D01*
X111707335Y-124199774D01*
X111707610Y-124199912D01*
X111707103Y-124200768D01*
X111706891Y-124200662D01*
X111706335Y-124201774D01*
X111706467Y-124201840D01*
X111703108Y-124207508D01*
X111702963Y-124207422D01*
X111702784Y-124207805D01*
X111702813Y-124207819D01*
X111702255Y-124208935D01*
X111702256Y-124208935D01*
X111701837Y-124209832D01*
X111701812Y-124209820D01*
X111701527Y-124210390D01*
X111697437Y-124219792D01*
X111695026Y-124225333D01*
X111692039Y-124231706D01*
X111691792Y-124232196D01*
X111689487Y-124236063D01*
X111689417Y-124236231D01*
X111689702Y-124236350D01*
X111688766Y-124238210D01*
X111688621Y-124238150D01*
X111687897Y-124239898D01*
X111687695Y-124240585D01*
X111686164Y-124243571D01*
X111686575Y-124243728D01*
X111685655Y-124246129D01*
X111685633Y-124246120D01*
X111685319Y-124246878D01*
X111684747Y-124248500D01*
X111684277Y-124249727D01*
X111682170Y-124254878D01*
X111682166Y-124254889D01*
X111679700Y-124260557D01*
X111678603Y-124265598D01*
X111677221Y-124269349D01*
X111676142Y-124271503D01*
X111675883Y-124272280D01*
X111676114Y-124272357D01*
X111675945Y-124272815D01*
X111675727Y-124273341D01*
X111674142Y-124276503D01*
X111673939Y-124277112D01*
X111674136Y-124277178D01*
X111673732Y-124278152D01*
X111673606Y-124278110D01*
X111673023Y-124279861D01*
X111672994Y-124279930D01*
X111672914Y-124279897D01*
X111672728Y-124280751D01*
X111671721Y-124283178D01*
X111627140Y-124338432D01*
X111595087Y-124354457D01*
X111580378Y-124359345D01*
X111563078Y-124363761D01*
X111544845Y-124367059D01*
X111544671Y-124367117D01*
X111544680Y-124367143D01*
X111543569Y-124367385D01*
X111541161Y-124367820D01*
X111541136Y-124367825D01*
X111539845Y-124368059D01*
X111539671Y-124368117D01*
X111539683Y-124368153D01*
X111539265Y-124368259D01*
X111534845Y-124369059D01*
X111534671Y-124369117D01*
X111534768Y-124369409D01*
X111533871Y-124369639D01*
X111533794Y-124369409D01*
X111531564Y-124370152D01*
X111531588Y-124370223D01*
X111530859Y-124370409D01*
X111530575Y-124370512D01*
X111530566Y-124370485D01*
X111529957Y-124370688D01*
X111528371Y-124371314D01*
X111512215Y-124377691D01*
X111512018Y-124377768D01*
X111508564Y-124379125D01*
X111505998Y-124380132D01*
X111503325Y-124381101D01*
X111500332Y-124381865D01*
X111499574Y-124382179D01*
X111499675Y-124382422D01*
X111494430Y-124384168D01*
X111493352Y-124384443D01*
X111491604Y-124385167D01*
X111491608Y-124385177D01*
X111490741Y-124385650D01*
X111489721Y-124385990D01*
X111489700Y-124385999D01*
X111489685Y-124385963D01*
X111489517Y-124386033D01*
X111488012Y-124386755D01*
X111488001Y-124386760D01*
X111487102Y-124387191D01*
X111481685Y-124389550D01*
X111480588Y-124390110D01*
X111474856Y-124392360D01*
X111472218Y-124394048D01*
X111470090Y-124394449D01*
X111470442Y-124395184D01*
X111465875Y-124397374D01*
X111465666Y-124397467D01*
X111463844Y-124398073D01*
X111463274Y-124398358D01*
X111463347Y-124398503D01*
X111462442Y-124398906D01*
X111462389Y-124398801D01*
X111461273Y-124399359D01*
X111461301Y-124399415D01*
X111459949Y-124400019D01*
X111458970Y-124400687D01*
X111440901Y-124409355D01*
X111435970Y-124413047D01*
X111430703Y-124416239D01*
X111430702Y-124416237D01*
X111425529Y-124419626D01*
X111405268Y-124431151D01*
X111402827Y-124433264D01*
X111401268Y-124434151D01*
X111397680Y-124437257D01*
X111397676Y-124437260D01*
X111384603Y-124448577D01*
X111370062Y-124459436D01*
X111361231Y-124465089D01*
X111351701Y-124471189D01*
X111351562Y-124471309D01*
X111351764Y-124471543D01*
X111350004Y-124472856D01*
X111349907Y-124472744D01*
X111348474Y-124473987D01*
X111346186Y-124476442D01*
X111343800Y-124478744D01*
X111343410Y-124478339D01*
X111335455Y-124484519D01*
X111335875Y-124484978D01*
X111333989Y-124486704D01*
X111333974Y-124486686D01*
X111333357Y-124487221D01*
X111332155Y-124488382D01*
X111332146Y-124488390D01*
X111325605Y-124494707D01*
X111320597Y-124499289D01*
X111319446Y-124500286D01*
X111315844Y-124502983D01*
X111315714Y-124503113D01*
X111315932Y-124503331D01*
X111315182Y-124503981D01*
X111315014Y-124503813D01*
X111307266Y-124511561D01*
X111307276Y-124511571D01*
X111306596Y-124512289D01*
X111306567Y-124512260D01*
X111306437Y-124512390D01*
X111305308Y-124513646D01*
X111305303Y-124513652D01*
X111303814Y-124515310D01*
X111298521Y-124520798D01*
X111298216Y-124521156D01*
X111293757Y-124525463D01*
X111291440Y-124528804D01*
X111291170Y-124529064D01*
X111288922Y-124530539D01*
X111289593Y-124531142D01*
X111269697Y-124553290D01*
X111268543Y-124555235D01*
X111266697Y-124557290D01*
X111265682Y-124559001D01*
X111264363Y-124560466D01*
X111262765Y-124563146D01*
X111261065Y-124564438D01*
X111261701Y-124564931D01*
X111245552Y-124585750D01*
X111241653Y-124590776D01*
X111233449Y-124607148D01*
X111228553Y-124616918D01*
X111219435Y-124632285D01*
X111212004Y-124642998D01*
X111207417Y-124649610D01*
X111207335Y-124649774D01*
X111207610Y-124649912D01*
X111207103Y-124650768D01*
X111206891Y-124650662D01*
X111206335Y-124651774D01*
X111206467Y-124651840D01*
X111203108Y-124657508D01*
X111202963Y-124657422D01*
X111202784Y-124657805D01*
X111202813Y-124657819D01*
X111202255Y-124658935D01*
X111202256Y-124658935D01*
X111201837Y-124659832D01*
X111201812Y-124659820D01*
X111201527Y-124660390D01*
X111197437Y-124669792D01*
X111195026Y-124675333D01*
X111192039Y-124681706D01*
X111191792Y-124682196D01*
X111189487Y-124686063D01*
X111189417Y-124686231D01*
X111189702Y-124686350D01*
X111188766Y-124688210D01*
X111188621Y-124688150D01*
X111187897Y-124689898D01*
X111187695Y-124690585D01*
X111186164Y-124693571D01*
X111186575Y-124693728D01*
X111185655Y-124696129D01*
X111185633Y-124696120D01*
X111185319Y-124696878D01*
X111184747Y-124698500D01*
X111184277Y-124699727D01*
X111182170Y-124704878D01*
X111182166Y-124704889D01*
X111179700Y-124710557D01*
X111178603Y-124715598D01*
X111177221Y-124719349D01*
X111176142Y-124721503D01*
X111175883Y-124722280D01*
X111176114Y-124722357D01*
X111175945Y-124722815D01*
X111175727Y-124723341D01*
X111174142Y-124726503D01*
X111173939Y-124727112D01*
X111174136Y-124727178D01*
X111173731Y-124728152D01*
X111173606Y-124728110D01*
X111172863Y-124730340D01*
X111172878Y-124730345D01*
X111172609Y-124731230D01*
X111172571Y-124731217D01*
X111172513Y-124731391D01*
X111172067Y-124733013D01*
X111172062Y-124733030D01*
X111171476Y-124735163D01*
X111169188Y-124742464D01*
X111169075Y-124742922D01*
X111167018Y-124748754D01*
X111166492Y-124752409D01*
X111166018Y-124753754D01*
X111165959Y-124754163D01*
X111164788Y-124756177D01*
X111165636Y-124756410D01*
X111157948Y-124784380D01*
X111157815Y-124786226D01*
X111156948Y-124789380D01*
X111156815Y-124791226D01*
X111155948Y-124794380D01*
X111155503Y-124800561D01*
X111153868Y-124823251D01*
X111151313Y-124840990D01*
X111148604Y-124853435D01*
X111148578Y-124853798D01*
X111148873Y-124853819D01*
X111148601Y-124855713D01*
X111149093Y-124869512D01*
X111145412Y-124895117D01*
X111144208Y-124903488D01*
X111144208Y-124903672D01*
X111144516Y-124903672D01*
X111144445Y-124904663D01*
X111144208Y-124904663D01*
X111144208Y-125064303D01*
X111144222Y-125064303D01*
X111144249Y-125065294D01*
X111144208Y-125065294D01*
X111144208Y-125065478D01*
X111144418Y-125069390D01*
X111144556Y-125077034D01*
X111144594Y-125077498D01*
X111144486Y-125083688D01*
X111145047Y-125086793D01*
X111144542Y-125089225D01*
X111145478Y-125089175D01*
X111147153Y-125120408D01*
X111148080Y-125124038D01*
X111148153Y-125125408D01*
X111149080Y-125129038D01*
X111149153Y-125130408D01*
X111149920Y-125133412D01*
X111150209Y-125134832D01*
X111150267Y-125135208D01*
X111151214Y-125139863D01*
X111151626Y-125142562D01*
X111151621Y-125142563D01*
X111152724Y-125148381D01*
X111155412Y-125169815D01*
X111161980Y-125189578D01*
X111163904Y-125262711D01*
X111159214Y-125279771D01*
X111159213Y-125279779D01*
X111157948Y-125284380D01*
X111157815Y-125286226D01*
X111156948Y-125289380D01*
X111156815Y-125291226D01*
X111155948Y-125294380D01*
X111155503Y-125300561D01*
X111153868Y-125323251D01*
X111151313Y-125340990D01*
X111148604Y-125353435D01*
X111148578Y-125353798D01*
X111148873Y-125353819D01*
X111148601Y-125355713D01*
X111149093Y-125369512D01*
X111145412Y-125395117D01*
X111144208Y-125403488D01*
X111144208Y-125403672D01*
X111144516Y-125403672D01*
X111144445Y-125404663D01*
X111144208Y-125404663D01*
X111144208Y-125564303D01*
X111144222Y-125564303D01*
X111144249Y-125565294D01*
X111144208Y-125565294D01*
X111144208Y-125565478D01*
X111144418Y-125569390D01*
X111144556Y-125577034D01*
X111144594Y-125577498D01*
X111144486Y-125583688D01*
X111145047Y-125586793D01*
X111144542Y-125589225D01*
X111145478Y-125589175D01*
X111146039Y-125599627D01*
X111147153Y-125620408D01*
X111148080Y-125624038D01*
X111148153Y-125625408D01*
X111149080Y-125629038D01*
X111149153Y-125630408D01*
X111149920Y-125633412D01*
X111150209Y-125634832D01*
X111150267Y-125635208D01*
X111151214Y-125639863D01*
X111151626Y-125642562D01*
X111151621Y-125642563D01*
X111152724Y-125648381D01*
X111155412Y-125669815D01*
X111162799Y-125692042D01*
X111167215Y-125709342D01*
X111170513Y-125727575D01*
X111170571Y-125727749D01*
X111170597Y-125727740D01*
X111170839Y-125728851D01*
X111171274Y-125731259D01*
X111171279Y-125731284D01*
X111171513Y-125732575D01*
X111171571Y-125732749D01*
X111171607Y-125732737D01*
X111171713Y-125733155D01*
X111172513Y-125737575D01*
X111172571Y-125737749D01*
X111172863Y-125737652D01*
X111173093Y-125738549D01*
X111172863Y-125738626D01*
X111173606Y-125740856D01*
X111173677Y-125740832D01*
X111173863Y-125741561D01*
X111173966Y-125741845D01*
X111173939Y-125741854D01*
X111174142Y-125742463D01*
X111174768Y-125744049D01*
X111181145Y-125760205D01*
X111181222Y-125760402D01*
X111183583Y-125766413D01*
X111184555Y-125769095D01*
X111185319Y-125772088D01*
X111185633Y-125772846D01*
X111185876Y-125772745D01*
X111187622Y-125777990D01*
X111187897Y-125779068D01*
X111188621Y-125780816D01*
X111188631Y-125780812D01*
X111189104Y-125781679D01*
X111189444Y-125782699D01*
X111189453Y-125782720D01*
X111189417Y-125782735D01*
X111189487Y-125782903D01*
X111190209Y-125784408D01*
X111190214Y-125784419D01*
X111190645Y-125785318D01*
X111193004Y-125790735D01*
X111193564Y-125791832D01*
X111195814Y-125797564D01*
X111197502Y-125800202D01*
X111197903Y-125802330D01*
X111198638Y-125801978D01*
X111200828Y-125806545D01*
X111200921Y-125806754D01*
X111201527Y-125808576D01*
X111201812Y-125809146D01*
X111201957Y-125809073D01*
X111202360Y-125809978D01*
X111202255Y-125810031D01*
X111202813Y-125811147D01*
X111202869Y-125811119D01*
X111203473Y-125812471D01*
X111204141Y-125813450D01*
X111212809Y-125831519D01*
X111216501Y-125836450D01*
X111219693Y-125841717D01*
X111219691Y-125841718D01*
X111223080Y-125846891D01*
X111234605Y-125867152D01*
X111236718Y-125869593D01*
X111237605Y-125871152D01*
X111240711Y-125874740D01*
X111240714Y-125874744D01*
X111252031Y-125887817D01*
X111262890Y-125902358D01*
X111268855Y-125911676D01*
X111274643Y-125920719D01*
X111274763Y-125920858D01*
X111274997Y-125920656D01*
X111276310Y-125922416D01*
X111276198Y-125922513D01*
X111277441Y-125923946D01*
X111279896Y-125926234D01*
X111282198Y-125928620D01*
X111281793Y-125929010D01*
X111287973Y-125936965D01*
X111288432Y-125936545D01*
X111290158Y-125938431D01*
X111290140Y-125938446D01*
X111290675Y-125939063D01*
X111291836Y-125940265D01*
X111291844Y-125940274D01*
X111298161Y-125946815D01*
X111302743Y-125951823D01*
X111303740Y-125952974D01*
X111306437Y-125956576D01*
X111306567Y-125956706D01*
X111306785Y-125956488D01*
X111307435Y-125957238D01*
X111307267Y-125957406D01*
X111315015Y-125965154D01*
X111315025Y-125965144D01*
X111315743Y-125965824D01*
X111315714Y-125965853D01*
X111315844Y-125965983D01*
X111317100Y-125967112D01*
X111317106Y-125967117D01*
X111318764Y-125968606D01*
X111324252Y-125973899D01*
X111324610Y-125974204D01*
X111328917Y-125978663D01*
X111332258Y-125980980D01*
X111332518Y-125981250D01*
X111333993Y-125983498D01*
X111334596Y-125982827D01*
X111356744Y-126002723D01*
X111358689Y-126003877D01*
X111360744Y-126005723D01*
X111362455Y-126006738D01*
X111363920Y-126008057D01*
X111366600Y-126009655D01*
X111367892Y-126011355D01*
X111368385Y-126010719D01*
X111389368Y-126026996D01*
X111389371Y-126026998D01*
X111394230Y-126030767D01*
X111414886Y-126041118D01*
X111420372Y-126043867D01*
X111435738Y-126052984D01*
X111453064Y-126065003D01*
X111453228Y-126065085D01*
X111453366Y-126064810D01*
X111454222Y-126065317D01*
X111454116Y-126065529D01*
X111455228Y-126066085D01*
X111455294Y-126065953D01*
X111460962Y-126069312D01*
X111460876Y-126069457D01*
X111461259Y-126069636D01*
X111461273Y-126069607D01*
X111462389Y-126070165D01*
X111462389Y-126070164D01*
X111463286Y-126070583D01*
X111463274Y-126070608D01*
X111463844Y-126070893D01*
X111478800Y-126077400D01*
X111485160Y-126080381D01*
X111485650Y-126080628D01*
X111489517Y-126082933D01*
X111489685Y-126083003D01*
X111489804Y-126082718D01*
X111491664Y-126083654D01*
X111491604Y-126083799D01*
X111493352Y-126084523D01*
X111494039Y-126084725D01*
X111497025Y-126086256D01*
X111497182Y-126085845D01*
X111499583Y-126086765D01*
X111499574Y-126086787D01*
X111500332Y-126087101D01*
X111501954Y-126087673D01*
X111503181Y-126088143D01*
X111508332Y-126090250D01*
X111508343Y-126090254D01*
X111514011Y-126092720D01*
X111519052Y-126093817D01*
X111522803Y-126095199D01*
X111524957Y-126096278D01*
X111525734Y-126096537D01*
X111525811Y-126096306D01*
X111526269Y-126096475D01*
X111526795Y-126096693D01*
X111529957Y-126098278D01*
X111530566Y-126098481D01*
X111530632Y-126098284D01*
X111531606Y-126098689D01*
X111531564Y-126098814D01*
X111533794Y-126099557D01*
X111533799Y-126099542D01*
X111534684Y-126099811D01*
X111534671Y-126099849D01*
X111534845Y-126099907D01*
X111536467Y-126100353D01*
X111536484Y-126100358D01*
X111538617Y-126100944D01*
X111545918Y-126103232D01*
X111546376Y-126103345D01*
X111552208Y-126105402D01*
X111555863Y-126105928D01*
X111557208Y-126106402D01*
X111557617Y-126106461D01*
X111559631Y-126107632D01*
X111559864Y-126106784D01*
X111587834Y-126114472D01*
X111587177Y-126116861D01*
X111641139Y-126143323D01*
X111674008Y-126192516D01*
X111674142Y-126192463D01*
X111674765Y-126194041D01*
X111681145Y-126210205D01*
X111681222Y-126210402D01*
X111683583Y-126216413D01*
X111684555Y-126219095D01*
X111685319Y-126222088D01*
X111685633Y-126222846D01*
X111685876Y-126222745D01*
X111687622Y-126227990D01*
X111687897Y-126229068D01*
X111688621Y-126230816D01*
X111688631Y-126230812D01*
X111689104Y-126231679D01*
X111689444Y-126232699D01*
X111689453Y-126232720D01*
X111689417Y-126232735D01*
X111689487Y-126232903D01*
X111690209Y-126234408D01*
X111690214Y-126234419D01*
X111690645Y-126235318D01*
X111693004Y-126240735D01*
X111693564Y-126241832D01*
X111695814Y-126247564D01*
X111697502Y-126250202D01*
X111697903Y-126252330D01*
X111698638Y-126251978D01*
X111700828Y-126256545D01*
X111700921Y-126256754D01*
X111701527Y-126258576D01*
X111701812Y-126259146D01*
X111701957Y-126259073D01*
X111702360Y-126259978D01*
X111702255Y-126260031D01*
X111702813Y-126261147D01*
X111702869Y-126261119D01*
X111703473Y-126262471D01*
X111704141Y-126263450D01*
X111712809Y-126281519D01*
X111716233Y-126286092D01*
X111734437Y-126351248D01*
X111734437Y-126556158D01*
X111731020Y-126585302D01*
X111725831Y-126607127D01*
X111720305Y-126657997D01*
X111719936Y-126664811D01*
X111719936Y-127256367D01*
X111724411Y-127271606D01*
X111725801Y-127272811D01*
X111733484Y-127274482D01*
X111815319Y-127274482D01*
X111883440Y-127294484D01*
X111891483Y-127300108D01*
X111915214Y-127318121D01*
X111957380Y-127375238D01*
X111961972Y-127446085D01*
X111927533Y-127508169D01*
X111864995Y-127541778D01*
X111839033Y-127544482D01*
X111738052Y-127544482D01*
X111722813Y-127548957D01*
X111721608Y-127550347D01*
X111719937Y-127558030D01*
X111719937Y-128154150D01*
X111720307Y-128160971D01*
X111725831Y-128211833D01*
X111729457Y-128227085D01*
X111774612Y-128347535D01*
X111783150Y-128363130D01*
X111859651Y-128465205D01*
X111872212Y-128477766D01*
X111974287Y-128554267D01*
X111989882Y-128562805D01*
X112110335Y-128607961D01*
X112132586Y-128613252D01*
X112194232Y-128648470D01*
X112227051Y-128711425D01*
X112229438Y-128735834D01*
X112229438Y-129697030D01*
X112228911Y-129708213D01*
X112227236Y-129715706D01*
X112227485Y-129723632D01*
X112227485Y-129723633D01*
X112229376Y-129783783D01*
X112229438Y-129787742D01*
X112229438Y-129815653D01*
X112229935Y-129819587D01*
X112229935Y-129819588D01*
X112229943Y-129819653D01*
X112230876Y-129831490D01*
X112232265Y-129875686D01*
X112237916Y-129895136D01*
X112241925Y-129914497D01*
X112244464Y-129934594D01*
X112247383Y-129941965D01*
X112247383Y-129941967D01*
X112260742Y-129975709D01*
X112264587Y-129986939D01*
X112276920Y-130029390D01*
X112280953Y-130036209D01*
X112280955Y-130036214D01*
X112287231Y-130046825D01*
X112295926Y-130064573D01*
X112303386Y-130083414D01*
X112308048Y-130089830D01*
X112308048Y-130089831D01*
X112329374Y-130119184D01*
X112335890Y-130129104D01*
X112352041Y-130156413D01*
X112358396Y-130167159D01*
X112372717Y-130181480D01*
X112385557Y-130196513D01*
X112397466Y-130212904D01*
X112403572Y-130217955D01*
X112431543Y-130241095D01*
X112440322Y-130249085D01*
X113150418Y-130959181D01*
X113157962Y-130967471D01*
X113162075Y-130973952D01*
X113167852Y-130979377D01*
X113211742Y-131020592D01*
X113214584Y-131023347D01*
X113234306Y-131043069D01*
X113237430Y-131045492D01*
X113237434Y-131045496D01*
X113237499Y-131045546D01*
X113246520Y-131053251D01*
X113278754Y-131083520D01*
X113285702Y-131087339D01*
X113285704Y-131087341D01*
X113296507Y-131093280D01*
X113313034Y-131104136D01*
X113322773Y-131111691D01*
X113322775Y-131111692D01*
X113329035Y-131116548D01*
X113369615Y-131134108D01*
X113380263Y-131139325D01*
X113409493Y-131155394D01*
X113419015Y-131160629D01*
X113426691Y-131162600D01*
X113426694Y-131162601D01*
X113438637Y-131165667D01*
X113457342Y-131172071D01*
X113475930Y-131180115D01*
X113483753Y-131181354D01*
X113483763Y-131181357D01*
X113519599Y-131187033D01*
X113531219Y-131189439D01*
X113563034Y-131197607D01*
X113574045Y-131200434D01*
X113594299Y-131200434D01*
X113614009Y-131201985D01*
X113634018Y-131205154D01*
X113641910Y-131204408D01*
X113660655Y-131202636D01*
X113678037Y-131200993D01*
X113689894Y-131200434D01*
X115508822Y-131200434D01*
X115520005Y-131200961D01*
X115527498Y-131202636D01*
X115535424Y-131202387D01*
X115535425Y-131202387D01*
X115595575Y-131200496D01*
X115599534Y-131200434D01*
X115627445Y-131200434D01*
X115631380Y-131199937D01*
X115631445Y-131199929D01*
X115643282Y-131198996D01*
X115675540Y-131197982D01*
X115679559Y-131197856D01*
X115687478Y-131197607D01*
X115706932Y-131191955D01*
X115726289Y-131187947D01*
X115738519Y-131186402D01*
X115738520Y-131186402D01*
X115746386Y-131185408D01*
X115753757Y-131182489D01*
X115753759Y-131182489D01*
X115787501Y-131169130D01*
X115798731Y-131165285D01*
X115833572Y-131155163D01*
X115833573Y-131155163D01*
X115841182Y-131152952D01*
X115848001Y-131148919D01*
X115848006Y-131148917D01*
X115858617Y-131142641D01*
X115876365Y-131133946D01*
X115895206Y-131126486D01*
X115904734Y-131119564D01*
X115930976Y-131100498D01*
X115940896Y-131093982D01*
X115972124Y-131075514D01*
X115972127Y-131075512D01*
X115978951Y-131071476D01*
X115993275Y-131057152D01*
X116008302Y-131044317D01*
X116024696Y-131032406D01*
X116029748Y-131026299D01*
X116035531Y-131020869D01*
X116037139Y-131022582D01*
X116086188Y-130989449D01*
X116124446Y-130983500D01*
X122065500Y-130983500D01*
X122133621Y-131003502D01*
X122180114Y-131057158D01*
X122191500Y-131109500D01*
X122191500Y-132260500D01*
X122171498Y-132328621D01*
X122117842Y-132375114D01*
X122065500Y-132386500D01*
X121714595Y-132386500D01*
X121646474Y-132366498D01*
X121625499Y-132349595D01*
X121304054Y-132028149D01*
X120953647Y-131677742D01*
X120946113Y-131669463D01*
X120942000Y-131662982D01*
X120892348Y-131616356D01*
X120889507Y-131613602D01*
X120869770Y-131593865D01*
X120866573Y-131591385D01*
X120857551Y-131583680D01*
X120844122Y-131571069D01*
X120825321Y-131553414D01*
X120818375Y-131549595D01*
X120818372Y-131549593D01*
X120807566Y-131543652D01*
X120791047Y-131532801D01*
X120790583Y-131532441D01*
X120775041Y-131520386D01*
X120767772Y-131517241D01*
X120767768Y-131517238D01*
X120734463Y-131502826D01*
X120723813Y-131497609D01*
X120685060Y-131476305D01*
X120665437Y-131471267D01*
X120646734Y-131464863D01*
X120635420Y-131459967D01*
X120635419Y-131459967D01*
X120628145Y-131456819D01*
X120620322Y-131455580D01*
X120620312Y-131455577D01*
X120584476Y-131449901D01*
X120572856Y-131447495D01*
X120537711Y-131438472D01*
X120537710Y-131438472D01*
X120530030Y-131436500D01*
X120509776Y-131436500D01*
X120490065Y-131434949D01*
X120477886Y-131433020D01*
X120470057Y-131431780D01*
X120440786Y-131434547D01*
X120426039Y-131435941D01*
X120414181Y-131436500D01*
X117768767Y-131436500D01*
X117757584Y-131435973D01*
X117750091Y-131434298D01*
X117742165Y-131434547D01*
X117742164Y-131434547D01*
X117682001Y-131436438D01*
X117678043Y-131436500D01*
X117650144Y-131436500D01*
X117646154Y-131437004D01*
X117634320Y-131437936D01*
X117590111Y-131439326D01*
X117582497Y-131441538D01*
X117582492Y-131441539D01*
X117570659Y-131444977D01*
X117551296Y-131448988D01*
X117531203Y-131451526D01*
X117523836Y-131454443D01*
X117523831Y-131454444D01*
X117490092Y-131467802D01*
X117478865Y-131471646D01*
X117436407Y-131483982D01*
X117429581Y-131488019D01*
X117418972Y-131494293D01*
X117401224Y-131502988D01*
X117382383Y-131510448D01*
X117375967Y-131515110D01*
X117375966Y-131515110D01*
X117346613Y-131536436D01*
X117336693Y-131542952D01*
X117305465Y-131561420D01*
X117305462Y-131561422D01*
X117298638Y-131565458D01*
X117284317Y-131579779D01*
X117269284Y-131592619D01*
X117252893Y-131604528D01*
X117247843Y-131610632D01*
X117247838Y-131610637D01*
X117224707Y-131638598D01*
X117216717Y-131647379D01*
X116434499Y-132429596D01*
X116372187Y-132463621D01*
X116345404Y-132466500D01*
X114711263Y-132466500D01*
X114700079Y-132465973D01*
X114692591Y-132464299D01*
X114684668Y-132464548D01*
X114624533Y-132466438D01*
X114620575Y-132466500D01*
X114592644Y-132466500D01*
X114588729Y-132466995D01*
X114588725Y-132466995D01*
X114588667Y-132467003D01*
X114588638Y-132467006D01*
X114576796Y-132467939D01*
X114532610Y-132469327D01*
X114515244Y-132474372D01*
X114513158Y-132474978D01*
X114493806Y-132478986D01*
X114481568Y-132480532D01*
X114481566Y-132480533D01*
X114473703Y-132481526D01*
X114432586Y-132497806D01*
X114421385Y-132501641D01*
X114378906Y-132513982D01*
X114372087Y-132518015D01*
X114372082Y-132518017D01*
X114361471Y-132524293D01*
X114343721Y-132532990D01*
X114324883Y-132540448D01*
X114318467Y-132545109D01*
X114318466Y-132545110D01*
X114289125Y-132566428D01*
X114279201Y-132572947D01*
X114247960Y-132591422D01*
X114247955Y-132591426D01*
X114241137Y-132595458D01*
X114226813Y-132609782D01*
X114211781Y-132622621D01*
X114195393Y-132634528D01*
X114180331Y-132652735D01*
X114167212Y-132668593D01*
X114159222Y-132677373D01*
X113477345Y-133359250D01*
X113415033Y-133393276D01*
X113366154Y-133394202D01*
X113153373Y-133356300D01*
X113153367Y-133356299D01*
X113148284Y-133355394D01*
X113074452Y-133354492D01*
X112930081Y-133352728D01*
X112930079Y-133352728D01*
X112924911Y-133352665D01*
X112704091Y-133386455D01*
X112491756Y-133455857D01*
X112461443Y-133471637D01*
X112333074Y-133538462D01*
X112293607Y-133559007D01*
X112289474Y-133562110D01*
X112289471Y-133562112D01*
X112121499Y-133688229D01*
X112114965Y-133693135D01*
X112090215Y-133719034D01*
X111988267Y-133825717D01*
X111960629Y-133854638D01*
X111853201Y-134012121D01*
X111798293Y-134057121D01*
X111727768Y-134065292D01*
X111664021Y-134034038D01*
X111643324Y-134009554D01*
X111562825Y-133885121D01*
X111562820Y-133885115D01*
X111560014Y-133880777D01*
X111556532Y-133876950D01*
X111521306Y-133838237D01*
X111490254Y-133774391D01*
X111488500Y-133753438D01*
X111488500Y-131561843D01*
X111489237Y-131548236D01*
X111492659Y-131516738D01*
X111492659Y-131516733D01*
X111493324Y-131510612D01*
X111490801Y-131481770D01*
X111488950Y-131460612D01*
X111488621Y-131455786D01*
X111488500Y-131453314D01*
X111488500Y-131450231D01*
X111486691Y-131431780D01*
X111484310Y-131407494D01*
X111484188Y-131406181D01*
X111480315Y-131361916D01*
X111476087Y-131313587D01*
X111474600Y-131308468D01*
X111474080Y-131303167D01*
X111447209Y-131214166D01*
X111446874Y-131213033D01*
X111422630Y-131129586D01*
X111422628Y-131129582D01*
X111420909Y-131123664D01*
X111418456Y-131118932D01*
X111416916Y-131113831D01*
X111409827Y-131100498D01*
X111373269Y-131031740D01*
X111372657Y-131030574D01*
X111332729Y-130953547D01*
X111329892Y-130948074D01*
X111326569Y-130943911D01*
X111324066Y-130939204D01*
X111265261Y-130867102D01*
X111264433Y-130866075D01*
X111235469Y-130829792D01*
X111235464Y-130829787D01*
X111233262Y-130827028D01*
X111230761Y-130824527D01*
X111230119Y-130823809D01*
X111226406Y-130819461D01*
X111217058Y-130808000D01*
X111199065Y-130785938D01*
X111194323Y-130782015D01*
X111194321Y-130782013D01*
X111163727Y-130756703D01*
X111154947Y-130748713D01*
X109995405Y-129589171D01*
X109961379Y-129526859D01*
X109958500Y-129500076D01*
X109958500Y-126071680D01*
X111459558Y-126071680D01*
X111459732Y-126071759D01*
X111460554Y-126070000D01*
X111459558Y-126071680D01*
X109958500Y-126071680D01*
X109958500Y-125186840D01*
X109959237Y-125173232D01*
X109962659Y-125141736D01*
X109962659Y-125141732D01*
X109963324Y-125135611D01*
X109959266Y-125089225D01*
X109958950Y-125085609D01*
X109958621Y-125080784D01*
X109958500Y-125078313D01*
X109958500Y-125075231D01*
X109954309Y-125032489D01*
X109954187Y-125031174D01*
X109946623Y-124944719D01*
X109946087Y-124938587D01*
X109944600Y-124933468D01*
X109944080Y-124928167D01*
X109917222Y-124839210D01*
X109916861Y-124837989D01*
X109892626Y-124754572D01*
X109892625Y-124754570D01*
X109890909Y-124748663D01*
X109888455Y-124743929D01*
X109886916Y-124738831D01*
X109883518Y-124732440D01*
X109843316Y-124656831D01*
X109843025Y-124656278D01*
X111200661Y-124656278D01*
X111202420Y-124657100D01*
X111200740Y-124656104D01*
X111200661Y-124656278D01*
X109843025Y-124656278D01*
X109842702Y-124655663D01*
X109802726Y-124578541D01*
X109802725Y-124578540D01*
X109799892Y-124573074D01*
X109796569Y-124568911D01*
X109794066Y-124564204D01*
X109789823Y-124559001D01*
X109735263Y-124492105D01*
X109734500Y-124491160D01*
X109703261Y-124452027D01*
X109700770Y-124449536D01*
X109700120Y-124448809D01*
X109696408Y-124444463D01*
X109673388Y-124416239D01*
X109669065Y-124410938D01*
X109664323Y-124407015D01*
X109664321Y-124407013D01*
X109633727Y-124381703D01*
X109624947Y-124373713D01*
X109457512Y-124206278D01*
X111700661Y-124206278D01*
X111702420Y-124207100D01*
X111700740Y-124206104D01*
X111700661Y-124206278D01*
X109457512Y-124206278D01*
X108785405Y-123534171D01*
X108751379Y-123471859D01*
X108748500Y-123445076D01*
X108748500Y-121991866D01*
X108741745Y-121929684D01*
X108690615Y-121793295D01*
X108688264Y-121790158D01*
X108673500Y-121732450D01*
X108673500Y-121463766D01*
X109412000Y-121463766D01*
X109412337Y-121470282D01*
X109422075Y-121564132D01*
X109424968Y-121577528D01*
X109475488Y-121728953D01*
X109481653Y-121742115D01*
X109565426Y-121877492D01*
X109574460Y-121888890D01*
X109687129Y-122001363D01*
X109698540Y-122010375D01*
X109834063Y-122093912D01*
X109847241Y-122100056D01*
X109998766Y-122150315D01*
X110012132Y-122153181D01*
X110104770Y-122162672D01*
X110111185Y-122163000D01*
X110185385Y-122163000D01*
X110200624Y-122158525D01*
X110201829Y-122157135D01*
X110203500Y-122149452D01*
X110203500Y-121452115D01*
X110199025Y-121436876D01*
X110197635Y-121435671D01*
X110189952Y-121434000D01*
X109430115Y-121434000D01*
X109414876Y-121438475D01*
X109413671Y-121439865D01*
X109412000Y-121447548D01*
X109412000Y-121463766D01*
X108673500Y-121463766D01*
X108673500Y-120907885D01*
X109412000Y-120907885D01*
X109416475Y-120923124D01*
X109417865Y-120924329D01*
X109425548Y-120926000D01*
X110185385Y-120926000D01*
X110200624Y-120921525D01*
X110201829Y-120920135D01*
X110203500Y-120912452D01*
X110203500Y-120215115D01*
X110199025Y-120199876D01*
X110197635Y-120198671D01*
X110189952Y-120197000D01*
X110111234Y-120197000D01*
X110104718Y-120197337D01*
X110010868Y-120207075D01*
X109997472Y-120209968D01*
X109846047Y-120260488D01*
X109832885Y-120266653D01*
X109697508Y-120350426D01*
X109686110Y-120359460D01*
X109573637Y-120472129D01*
X109564625Y-120483540D01*
X109481088Y-120619063D01*
X109474944Y-120632241D01*
X109424685Y-120783766D01*
X109421819Y-120797132D01*
X109412328Y-120889770D01*
X109412000Y-120896185D01*
X109412000Y-120907885D01*
X108673500Y-120907885D01*
X108673500Y-119024925D01*
X108693502Y-118956804D01*
X108710405Y-118935830D01*
X109880829Y-117765405D01*
X109943141Y-117731380D01*
X109969924Y-117728500D01*
X111583520Y-117728500D01*
X111651641Y-117748502D01*
X111672536Y-117765325D01*
X111776697Y-117869305D01*
X111782927Y-117873145D01*
X111782928Y-117873146D01*
X111920288Y-117957816D01*
X111927262Y-117962115D01*
X111975178Y-117978008D01*
X112088611Y-118015632D01*
X112088613Y-118015632D01*
X112095139Y-118017797D01*
X112101975Y-118018497D01*
X112101978Y-118018498D01*
X112145031Y-118022909D01*
X112199600Y-118028500D01*
X115300400Y-118028500D01*
X115303646Y-118028163D01*
X115303650Y-118028163D01*
X115399308Y-118018238D01*
X115399312Y-118018237D01*
X115406166Y-118017526D01*
X115412702Y-118015345D01*
X115412704Y-118015345D01*
X115561342Y-117965755D01*
X115573946Y-117961550D01*
X115724348Y-117868478D01*
X115849305Y-117743303D01*
X115853338Y-117736760D01*
X115938275Y-117598968D01*
X115938276Y-117598966D01*
X115942115Y-117592738D01*
X115975032Y-117493495D01*
X115995632Y-117431389D01*
X115995632Y-117431387D01*
X115997797Y-117424861D01*
X116008500Y-117320400D01*
X116008500Y-117317095D01*
X116892001Y-117317095D01*
X116892338Y-117323614D01*
X116902257Y-117419206D01*
X116905149Y-117432600D01*
X116956588Y-117586784D01*
X116962761Y-117599962D01*
X117048063Y-117737807D01*
X117057099Y-117749208D01*
X117171829Y-117863739D01*
X117183240Y-117872751D01*
X117321243Y-117957816D01*
X117334424Y-117963963D01*
X117488710Y-118015138D01*
X117502086Y-118018005D01*
X117596438Y-118027672D01*
X117602854Y-118028000D01*
X118877885Y-118028000D01*
X118893124Y-118023525D01*
X118894329Y-118022135D01*
X118896000Y-118014452D01*
X118896000Y-118009884D01*
X119404000Y-118009884D01*
X119408475Y-118025123D01*
X119409865Y-118026328D01*
X119417548Y-118027999D01*
X120697095Y-118027999D01*
X120703614Y-118027662D01*
X120799206Y-118017743D01*
X120812600Y-118014851D01*
X120966784Y-117963412D01*
X120979962Y-117957239D01*
X121117807Y-117871937D01*
X121129208Y-117862901D01*
X121243739Y-117748171D01*
X121252751Y-117736760D01*
X121337816Y-117598757D01*
X121343963Y-117585576D01*
X121395138Y-117431290D01*
X121398005Y-117417914D01*
X121407672Y-117323562D01*
X121408000Y-117317146D01*
X121408000Y-116992115D01*
X121403525Y-116976876D01*
X121402135Y-116975671D01*
X121394452Y-116974000D01*
X119422115Y-116974000D01*
X119406876Y-116978475D01*
X119405671Y-116979865D01*
X119404000Y-116987548D01*
X119404000Y-118009884D01*
X118896000Y-118009884D01*
X118896000Y-116992115D01*
X118891525Y-116976876D01*
X118890135Y-116975671D01*
X118882452Y-116974000D01*
X116910116Y-116974000D01*
X116894877Y-116978475D01*
X116893672Y-116979865D01*
X116892001Y-116987548D01*
X116892001Y-117317095D01*
X116008500Y-117317095D01*
X116008500Y-116169500D01*
X116028502Y-116101379D01*
X116082158Y-116054886D01*
X116134500Y-116043500D01*
X116766000Y-116043500D01*
X116834121Y-116063502D01*
G37*
%TD.AperFunction*%
%TA.AperFunction,Conductor*%
G36*
X115612677Y-122091564D02*
G01*
X115646180Y-122115542D01*
X115799595Y-122268957D01*
X115833621Y-122331269D01*
X115836500Y-122358052D01*
X115836500Y-126711233D01*
X115835973Y-126722416D01*
X115834298Y-126729909D01*
X115834547Y-126737835D01*
X115834547Y-126737836D01*
X115836438Y-126797986D01*
X115836500Y-126801945D01*
X115836500Y-126829856D01*
X115836997Y-126833790D01*
X115836997Y-126833791D01*
X115837005Y-126833856D01*
X115837938Y-126845693D01*
X115839327Y-126889889D01*
X115844978Y-126909339D01*
X115848987Y-126928700D01*
X115851526Y-126948797D01*
X115854445Y-126956168D01*
X115854445Y-126956170D01*
X115867804Y-126989912D01*
X115871649Y-127001142D01*
X115880103Y-127030242D01*
X115883982Y-127043593D01*
X115888015Y-127050412D01*
X115888017Y-127050417D01*
X115894293Y-127061028D01*
X115902988Y-127078776D01*
X115910448Y-127097617D01*
X115915110Y-127104033D01*
X115915110Y-127104034D01*
X115936436Y-127133387D01*
X115942952Y-127143307D01*
X115954337Y-127162557D01*
X115965458Y-127181362D01*
X115979779Y-127195683D01*
X115992619Y-127210716D01*
X116004528Y-127227107D01*
X116010634Y-127232158D01*
X116038605Y-127255298D01*
X116047384Y-127263288D01*
X116751343Y-127967247D01*
X116758887Y-127975537D01*
X116763000Y-127982018D01*
X116768777Y-127987443D01*
X116812667Y-128028658D01*
X116815509Y-128031413D01*
X116835231Y-128051135D01*
X116838355Y-128053558D01*
X116838359Y-128053562D01*
X116838424Y-128053612D01*
X116847445Y-128061317D01*
X116879679Y-128091586D01*
X116886627Y-128095405D01*
X116886629Y-128095407D01*
X116897432Y-128101346D01*
X116913959Y-128112202D01*
X116923698Y-128119757D01*
X116923700Y-128119758D01*
X116929960Y-128124614D01*
X116970540Y-128142174D01*
X116981188Y-128147391D01*
X116999786Y-128157615D01*
X117019940Y-128168695D01*
X117027616Y-128170666D01*
X117027619Y-128170667D01*
X117039562Y-128173733D01*
X117058266Y-128180137D01*
X117060633Y-128181161D01*
X117076855Y-128188181D01*
X117084678Y-128189420D01*
X117084688Y-128189423D01*
X117120524Y-128195099D01*
X117132144Y-128197505D01*
X117167289Y-128206528D01*
X117174970Y-128208500D01*
X117195224Y-128208500D01*
X117214934Y-128210051D01*
X117234943Y-128213220D01*
X117242835Y-128212474D01*
X117278961Y-128209059D01*
X117290819Y-128208500D01*
X122045500Y-128208500D01*
X122113621Y-128228502D01*
X122160114Y-128282158D01*
X122171500Y-128334500D01*
X122171500Y-129140500D01*
X122151498Y-129208621D01*
X122097842Y-129255114D01*
X122045500Y-129266500D01*
X116106930Y-129266500D01*
X116038809Y-129246498D01*
X115992316Y-129192842D01*
X115987097Y-129179437D01*
X115942154Y-129041118D01*
X115935415Y-129020378D01*
X115839928Y-128854990D01*
X115766751Y-128773718D01*
X115736035Y-128709713D01*
X115734388Y-128689410D01*
X115734388Y-128682578D01*
X115733884Y-128678587D01*
X115732951Y-128666745D01*
X115731811Y-128630470D01*
X115731562Y-128622545D01*
X115729350Y-128614931D01*
X115729349Y-128614926D01*
X115725911Y-128603093D01*
X115721900Y-128583729D01*
X115720355Y-128571498D01*
X115719362Y-128563637D01*
X115716445Y-128556270D01*
X115716444Y-128556265D01*
X115703086Y-128522526D01*
X115699242Y-128511299D01*
X115689118Y-128476456D01*
X115686906Y-128468841D01*
X115682585Y-128461534D01*
X115676595Y-128451406D01*
X115667900Y-128433658D01*
X115660440Y-128414817D01*
X115634452Y-128379047D01*
X115627936Y-128369127D01*
X115609468Y-128337899D01*
X115609466Y-128337896D01*
X115605430Y-128331072D01*
X115591109Y-128316751D01*
X115578268Y-128301717D01*
X115571020Y-128291741D01*
X115566360Y-128285327D01*
X115532295Y-128257146D01*
X115523514Y-128249156D01*
X115043342Y-127768983D01*
X115009317Y-127706671D01*
X115006438Y-127679888D01*
X115006438Y-126661349D01*
X114999683Y-126599167D01*
X114996908Y-126591766D01*
X114995082Y-126584085D01*
X114996760Y-126583686D01*
X114991436Y-126554328D01*
X114991436Y-126347733D01*
X115013905Y-126275919D01*
X115015894Y-126273052D01*
X115015899Y-126273044D01*
X115018457Y-126269356D01*
X115018539Y-126269192D01*
X115018264Y-126269054D01*
X115018771Y-126268198D01*
X115018983Y-126268304D01*
X115019539Y-126267192D01*
X115019407Y-126267126D01*
X115022524Y-126261866D01*
X115023454Y-126261866D01*
X115025134Y-126262862D01*
X115025213Y-126262688D01*
X115023454Y-126261866D01*
X115022524Y-126261866D01*
X115022766Y-126261458D01*
X115022911Y-126261544D01*
X115023090Y-126261161D01*
X115023061Y-126261147D01*
X115023619Y-126260031D01*
X115023618Y-126260031D01*
X115024037Y-126259134D01*
X115024062Y-126259146D01*
X115024347Y-126258576D01*
X115030854Y-126243620D01*
X115033835Y-126237260D01*
X115034082Y-126236770D01*
X115036387Y-126232903D01*
X115036457Y-126232735D01*
X115036172Y-126232616D01*
X115037108Y-126230756D01*
X115037253Y-126230816D01*
X115037977Y-126229068D01*
X115038179Y-126228381D01*
X115039710Y-126225395D01*
X115039299Y-126225238D01*
X115040219Y-126222837D01*
X115040241Y-126222846D01*
X115040555Y-126222088D01*
X115041127Y-126220466D01*
X115041597Y-126219239D01*
X115043704Y-126214088D01*
X115043708Y-126214077D01*
X115046174Y-126208409D01*
X115047271Y-126203368D01*
X115048653Y-126199617D01*
X115049732Y-126197463D01*
X115049991Y-126196686D01*
X115049760Y-126196609D01*
X115049929Y-126196151D01*
X115050147Y-126195625D01*
X115051732Y-126192463D01*
X115051935Y-126191854D01*
X115051738Y-126191788D01*
X115052142Y-126190814D01*
X115052268Y-126190856D01*
X115052851Y-126189105D01*
X115052880Y-126189036D01*
X115052960Y-126189069D01*
X115053146Y-126188215D01*
X115054153Y-126185788D01*
X115098734Y-126130534D01*
X115130788Y-126114509D01*
X115145496Y-126109621D01*
X115162796Y-126105205D01*
X115181029Y-126101907D01*
X115181203Y-126101849D01*
X115181194Y-126101823D01*
X115182305Y-126101581D01*
X115184713Y-126101146D01*
X115184738Y-126101141D01*
X115186029Y-126100907D01*
X115186203Y-126100849D01*
X115186191Y-126100813D01*
X115186609Y-126100707D01*
X115191029Y-126099907D01*
X115191203Y-126099849D01*
X115191106Y-126099557D01*
X115192003Y-126099327D01*
X115192080Y-126099557D01*
X115194310Y-126098814D01*
X115194286Y-126098743D01*
X115195015Y-126098557D01*
X115195299Y-126098454D01*
X115195308Y-126098481D01*
X115195917Y-126098278D01*
X115213659Y-126091275D01*
X115213856Y-126091198D01*
X115217310Y-126089841D01*
X115219876Y-126088834D01*
X115222549Y-126087865D01*
X115225542Y-126087101D01*
X115226300Y-126086787D01*
X115226199Y-126086544D01*
X115231444Y-126084798D01*
X115232522Y-126084523D01*
X115234270Y-126083799D01*
X115234266Y-126083789D01*
X115235133Y-126083316D01*
X115236153Y-126082976D01*
X115236174Y-126082967D01*
X115236189Y-126083003D01*
X115236357Y-126082933D01*
X115237862Y-126082211D01*
X115237873Y-126082206D01*
X115238772Y-126081775D01*
X115244189Y-126079416D01*
X115245286Y-126078856D01*
X115251018Y-126076606D01*
X115253656Y-126074918D01*
X115255784Y-126074517D01*
X115255432Y-126073782D01*
X115259999Y-126071592D01*
X115260208Y-126071499D01*
X115262030Y-126070893D01*
X115262600Y-126070608D01*
X115262527Y-126070463D01*
X115263432Y-126070060D01*
X115263485Y-126070165D01*
X115264601Y-126069607D01*
X115264573Y-126069551D01*
X115265925Y-126068947D01*
X115266904Y-126068279D01*
X115284973Y-126059611D01*
X115289906Y-126055918D01*
X115295170Y-126052727D01*
X115295170Y-126052728D01*
X115300345Y-126049338D01*
X115315281Y-126040841D01*
X115315284Y-126040839D01*
X115320659Y-126037781D01*
X115323098Y-126035669D01*
X115324659Y-126034781D01*
X115341295Y-126020376D01*
X115355836Y-126009515D01*
X115374173Y-125997777D01*
X115374312Y-125997657D01*
X115374110Y-125997423D01*
X115375870Y-125996111D01*
X115375967Y-125996222D01*
X115377400Y-125994979D01*
X115379678Y-125992536D01*
X115382077Y-125990220D01*
X115382478Y-125990635D01*
X115390315Y-125984550D01*
X115389888Y-125984083D01*
X115391790Y-125982343D01*
X115391806Y-125982361D01*
X115392421Y-125981828D01*
X115398504Y-125975955D01*
X115400197Y-125974321D01*
X115405189Y-125969754D01*
X115406434Y-125968675D01*
X115410030Y-125965983D01*
X115410160Y-125965853D01*
X115409942Y-125965635D01*
X115410691Y-125964986D01*
X115410859Y-125965154D01*
X115418610Y-125957403D01*
X115418600Y-125957393D01*
X115419278Y-125956677D01*
X115419307Y-125956706D01*
X115419437Y-125956576D01*
X115420570Y-125955315D01*
X115420582Y-125955302D01*
X115422056Y-125953661D01*
X115427345Y-125948178D01*
X115427668Y-125947798D01*
X115432117Y-125943503D01*
X115434434Y-125940163D01*
X115434724Y-125939883D01*
X115436949Y-125938424D01*
X115436281Y-125937824D01*
X115442869Y-125930490D01*
X115456177Y-125915676D01*
X115457331Y-125913731D01*
X115459177Y-125911676D01*
X115460192Y-125909965D01*
X115461511Y-125908500D01*
X115463109Y-125905820D01*
X115464809Y-125904528D01*
X115464173Y-125904035D01*
X115480450Y-125883052D01*
X115480452Y-125883049D01*
X115484221Y-125878190D01*
X115497322Y-125852047D01*
X115506439Y-125836681D01*
X115515897Y-125823047D01*
X115515899Y-125823044D01*
X115518457Y-125819356D01*
X115518539Y-125819192D01*
X115518264Y-125819054D01*
X115518771Y-125818198D01*
X115518983Y-125818304D01*
X115519539Y-125817192D01*
X115519407Y-125817126D01*
X115522524Y-125811866D01*
X115523454Y-125811866D01*
X115525134Y-125812862D01*
X115525213Y-125812688D01*
X115523454Y-125811866D01*
X115522524Y-125811866D01*
X115522766Y-125811458D01*
X115522911Y-125811544D01*
X115523090Y-125811161D01*
X115523061Y-125811147D01*
X115523619Y-125810031D01*
X115523618Y-125810031D01*
X115524037Y-125809134D01*
X115524062Y-125809146D01*
X115524347Y-125808576D01*
X115530854Y-125793620D01*
X115533835Y-125787260D01*
X115534082Y-125786770D01*
X115536387Y-125782903D01*
X115536457Y-125782735D01*
X115536172Y-125782616D01*
X115537108Y-125780756D01*
X115537253Y-125780816D01*
X115537977Y-125779068D01*
X115538179Y-125778381D01*
X115539710Y-125775395D01*
X115539299Y-125775238D01*
X115540219Y-125772837D01*
X115540241Y-125772846D01*
X115540555Y-125772088D01*
X115541127Y-125770466D01*
X115541597Y-125769239D01*
X115543704Y-125764088D01*
X115543708Y-125764077D01*
X115546174Y-125758409D01*
X115547271Y-125753368D01*
X115548653Y-125749617D01*
X115549732Y-125747463D01*
X115549991Y-125746686D01*
X115549760Y-125746609D01*
X115549929Y-125746151D01*
X115550147Y-125745625D01*
X115551732Y-125742463D01*
X115551935Y-125741854D01*
X115551738Y-125741788D01*
X115552143Y-125740814D01*
X115552268Y-125740856D01*
X115553011Y-125738626D01*
X115552996Y-125738621D01*
X115553265Y-125737736D01*
X115553303Y-125737749D01*
X115553361Y-125737575D01*
X115554398Y-125733803D01*
X115556686Y-125726502D01*
X115556799Y-125726044D01*
X115558856Y-125720212D01*
X115559382Y-125716557D01*
X115559856Y-125715212D01*
X115559915Y-125714803D01*
X115561086Y-125712789D01*
X115560238Y-125712556D01*
X115566660Y-125689191D01*
X115567926Y-125684586D01*
X115568059Y-125682740D01*
X115568926Y-125679586D01*
X115569059Y-125677740D01*
X115569926Y-125674586D01*
X115572006Y-125645714D01*
X115574562Y-125627972D01*
X115576314Y-125619924D01*
X115576314Y-125619922D01*
X115577270Y-125615531D01*
X115577296Y-125615168D01*
X115577001Y-125615147D01*
X115577273Y-125613253D01*
X115576781Y-125599454D01*
X115581027Y-125569924D01*
X115581027Y-125569921D01*
X115581666Y-125565478D01*
X115581666Y-125565294D01*
X115581358Y-125565294D01*
X115581429Y-125564303D01*
X115581666Y-125564303D01*
X115581666Y-125404663D01*
X115581652Y-125404663D01*
X115581625Y-125403672D01*
X115581666Y-125403672D01*
X115581666Y-125403488D01*
X115581456Y-125399571D01*
X115581318Y-125391932D01*
X115581280Y-125391468D01*
X115581388Y-125385278D01*
X115580827Y-125382173D01*
X115581332Y-125379741D01*
X115580396Y-125379791D01*
X115579053Y-125354744D01*
X115579053Y-125354741D01*
X115578721Y-125348558D01*
X115577794Y-125344928D01*
X115577721Y-125343558D01*
X115576794Y-125339928D01*
X115576721Y-125338558D01*
X115575954Y-125335554D01*
X115575665Y-125334134D01*
X115575607Y-125333758D01*
X115574660Y-125329103D01*
X115574248Y-125326404D01*
X115574253Y-125326403D01*
X115573150Y-125320585D01*
X115571232Y-125305289D01*
X115571231Y-125305286D01*
X115570462Y-125299151D01*
X115563894Y-125279388D01*
X115561970Y-125206255D01*
X115566660Y-125189195D01*
X115566661Y-125189187D01*
X115567926Y-125184586D01*
X115568059Y-125182740D01*
X115568926Y-125179586D01*
X115569059Y-125177740D01*
X115569926Y-125174586D01*
X115572006Y-125145714D01*
X115574562Y-125127972D01*
X115576314Y-125119924D01*
X115576314Y-125119922D01*
X115577270Y-125115531D01*
X115577296Y-125115168D01*
X115577001Y-125115147D01*
X115577273Y-125113253D01*
X115576781Y-125099454D01*
X115581027Y-125069924D01*
X115581027Y-125069921D01*
X115581666Y-125065478D01*
X115581666Y-125065294D01*
X115581358Y-125065294D01*
X115581429Y-125064303D01*
X115581666Y-125064303D01*
X115581666Y-124904663D01*
X115581652Y-124904663D01*
X115581625Y-124903672D01*
X115581666Y-124903672D01*
X115581666Y-124903488D01*
X115581456Y-124899571D01*
X115581318Y-124891932D01*
X115581280Y-124891468D01*
X115581388Y-124885278D01*
X115580827Y-124882173D01*
X115581332Y-124879741D01*
X115580396Y-124879791D01*
X115579053Y-124854744D01*
X115579053Y-124854741D01*
X115578721Y-124848558D01*
X115577794Y-124844928D01*
X115577721Y-124843558D01*
X115576794Y-124839928D01*
X115576721Y-124838558D01*
X115575954Y-124835554D01*
X115575665Y-124834134D01*
X115575607Y-124833758D01*
X115574660Y-124829103D01*
X115574248Y-124826404D01*
X115574253Y-124826403D01*
X115573150Y-124820585D01*
X115571232Y-124805289D01*
X115571231Y-124805286D01*
X115570462Y-124799151D01*
X115563075Y-124776924D01*
X115558659Y-124759624D01*
X115555361Y-124741391D01*
X115555303Y-124741217D01*
X115555277Y-124741226D01*
X115555035Y-124740115D01*
X115554600Y-124737707D01*
X115554595Y-124737682D01*
X115554361Y-124736391D01*
X115554303Y-124736217D01*
X115554267Y-124736229D01*
X115554161Y-124735811D01*
X115553361Y-124731391D01*
X115553303Y-124731217D01*
X115553011Y-124731314D01*
X115552781Y-124730417D01*
X115553011Y-124730340D01*
X115552268Y-124728110D01*
X115552197Y-124728134D01*
X115552011Y-124727405D01*
X115551908Y-124727121D01*
X115551935Y-124727112D01*
X115551732Y-124726503D01*
X115544729Y-124708761D01*
X115542288Y-124702544D01*
X115541319Y-124699871D01*
X115540555Y-124696878D01*
X115540241Y-124696120D01*
X115539998Y-124696221D01*
X115538252Y-124690976D01*
X115537977Y-124689898D01*
X115537253Y-124688150D01*
X115537243Y-124688154D01*
X115536770Y-124687287D01*
X115536430Y-124686267D01*
X115536421Y-124686246D01*
X115536457Y-124686231D01*
X115536387Y-124686063D01*
X115535660Y-124684547D01*
X115535229Y-124683648D01*
X115532870Y-124678231D01*
X115532310Y-124677134D01*
X115530060Y-124671402D01*
X115528372Y-124668764D01*
X115527971Y-124666636D01*
X115527236Y-124666988D01*
X115525046Y-124662421D01*
X115524953Y-124662212D01*
X115524347Y-124660390D01*
X115524062Y-124659820D01*
X115523917Y-124659893D01*
X115523514Y-124658988D01*
X115523619Y-124658935D01*
X115523061Y-124657819D01*
X115523005Y-124657847D01*
X115522401Y-124656495D01*
X115521733Y-124655516D01*
X115513065Y-124637447D01*
X115509372Y-124632514D01*
X115506181Y-124627250D01*
X115506182Y-124627250D01*
X115502792Y-124622075D01*
X115494300Y-124607148D01*
X115494298Y-124607146D01*
X115491235Y-124601761D01*
X115489100Y-124599296D01*
X115488166Y-124597654D01*
X115485007Y-124594008D01*
X115485003Y-124594002D01*
X115473804Y-124581075D01*
X115462915Y-124566501D01*
X115458114Y-124559001D01*
X115451231Y-124548247D01*
X115451111Y-124548108D01*
X115450877Y-124548310D01*
X115449564Y-124546550D01*
X115449676Y-124546453D01*
X115448433Y-124545020D01*
X115445996Y-124542749D01*
X115443673Y-124540341D01*
X115444072Y-124539956D01*
X115437854Y-124531951D01*
X115437397Y-124532369D01*
X115435676Y-124530489D01*
X115435694Y-124530474D01*
X115435158Y-124529856D01*
X115427694Y-124522128D01*
X115423105Y-124517113D01*
X115422134Y-124515992D01*
X115419437Y-124512390D01*
X115419307Y-124512260D01*
X115419089Y-124512478D01*
X115418441Y-124511732D01*
X115418610Y-124511563D01*
X115410860Y-124503813D01*
X115410850Y-124503823D01*
X115410131Y-124503142D01*
X115410160Y-124503113D01*
X115410030Y-124502983D01*
X115407107Y-124500358D01*
X115401612Y-124495057D01*
X115401256Y-124494755D01*
X115396957Y-124490303D01*
X115393617Y-124487986D01*
X115393350Y-124487709D01*
X115391880Y-124485469D01*
X115391278Y-124486139D01*
X115369130Y-124466243D01*
X115367185Y-124465089D01*
X115365130Y-124463243D01*
X115363419Y-124462228D01*
X115361954Y-124460909D01*
X115359274Y-124459311D01*
X115357982Y-124457611D01*
X115357489Y-124458247D01*
X115336506Y-124441970D01*
X115336503Y-124441968D01*
X115331644Y-124438199D01*
X115305501Y-124425098D01*
X115290135Y-124415981D01*
X115289742Y-124415708D01*
X115276897Y-124406798D01*
X115276501Y-124406523D01*
X115276498Y-124406521D01*
X115272810Y-124403963D01*
X115272646Y-124403881D01*
X115272508Y-124404156D01*
X115271652Y-124403649D01*
X115271758Y-124403437D01*
X115270646Y-124402881D01*
X115270580Y-124403013D01*
X115264912Y-124399654D01*
X115264998Y-124399509D01*
X115264615Y-124399330D01*
X115264601Y-124399359D01*
X115263815Y-124398966D01*
X115265320Y-124398966D01*
X115266316Y-124397286D01*
X115266142Y-124397207D01*
X115265320Y-124398966D01*
X115263815Y-124398966D01*
X115263485Y-124398801D01*
X115263485Y-124398802D01*
X115262588Y-124398383D01*
X115262600Y-124398358D01*
X115262030Y-124398073D01*
X115247074Y-124391566D01*
X115240714Y-124388585D01*
X115240224Y-124388338D01*
X115236357Y-124386033D01*
X115236189Y-124385963D01*
X115236070Y-124386248D01*
X115234210Y-124385312D01*
X115234270Y-124385167D01*
X115232522Y-124384443D01*
X115231835Y-124384241D01*
X115228849Y-124382710D01*
X115228692Y-124383121D01*
X115226291Y-124382201D01*
X115226300Y-124382179D01*
X115225542Y-124381865D01*
X115223920Y-124381293D01*
X115222693Y-124380823D01*
X115217542Y-124378716D01*
X115217531Y-124378712D01*
X115211863Y-124376246D01*
X115206822Y-124375149D01*
X115203071Y-124373767D01*
X115200917Y-124372688D01*
X115200140Y-124372429D01*
X115200063Y-124372660D01*
X115199605Y-124372491D01*
X115199079Y-124372273D01*
X115195917Y-124370688D01*
X115195308Y-124370485D01*
X115195242Y-124370682D01*
X115194268Y-124370277D01*
X115194310Y-124370152D01*
X115192080Y-124369409D01*
X115192075Y-124369424D01*
X115191190Y-124369155D01*
X115191203Y-124369117D01*
X115191029Y-124369059D01*
X115189407Y-124368613D01*
X115189390Y-124368608D01*
X115187257Y-124368022D01*
X115179956Y-124365734D01*
X115179498Y-124365621D01*
X115173666Y-124363564D01*
X115170011Y-124363038D01*
X115168666Y-124362564D01*
X115168257Y-124362505D01*
X115166243Y-124361334D01*
X115166010Y-124362182D01*
X115138040Y-124354494D01*
X115138697Y-124352105D01*
X115084735Y-124325643D01*
X115051866Y-124276450D01*
X115051732Y-124276503D01*
X115051488Y-124275886D01*
X115044729Y-124258761D01*
X115043830Y-124256470D01*
X115042291Y-124252553D01*
X115041319Y-124249871D01*
X115040555Y-124246878D01*
X115040241Y-124246120D01*
X115039998Y-124246221D01*
X115038252Y-124240976D01*
X115037977Y-124239898D01*
X115037253Y-124238150D01*
X115037243Y-124238154D01*
X115036770Y-124237287D01*
X115036430Y-124236267D01*
X115036421Y-124236246D01*
X115036457Y-124236231D01*
X115036387Y-124236063D01*
X115035660Y-124234547D01*
X115035229Y-124233648D01*
X115032870Y-124228231D01*
X115032310Y-124227134D01*
X115030060Y-124221402D01*
X115028372Y-124218764D01*
X115027971Y-124216636D01*
X115027236Y-124216988D01*
X115025046Y-124212421D01*
X115024953Y-124212212D01*
X115024347Y-124210390D01*
X115024062Y-124209820D01*
X115023917Y-124209893D01*
X115023514Y-124208988D01*
X115023619Y-124208935D01*
X115023061Y-124207819D01*
X115023005Y-124207847D01*
X115022401Y-124206495D01*
X115021733Y-124205516D01*
X115013065Y-124187447D01*
X115009643Y-124182876D01*
X114991437Y-124117719D01*
X114991437Y-123914638D01*
X114996758Y-123885281D01*
X114995083Y-123884883D01*
X114996912Y-123877192D01*
X114999683Y-123869799D01*
X115006438Y-123807617D01*
X115006438Y-122713218D01*
X115026440Y-122645097D01*
X115058377Y-122611282D01*
X115197908Y-122509907D01*
X115197910Y-122509905D01*
X115203252Y-122506024D01*
X115298377Y-122400377D01*
X115326620Y-122369010D01*
X115326621Y-122369009D01*
X115331039Y-122364102D01*
X115426526Y-122198714D01*
X115437253Y-122165700D01*
X115477324Y-122107096D01*
X115542720Y-122079459D01*
X115612677Y-122091564D01*
G37*
%TD.AperFunction*%
%TD*%
M02*
