%TF.GenerationSoftware,KiCad,Pcbnew,(6.0.9-0)*%
%TF.CreationDate,2022-12-01T16:18:30+01:00*%
%TF.ProjectId,Hlabs motor cotrol,486c6162-7320-46d6-9f74-6f7220636f74,rev?*%
%TF.SameCoordinates,Original*%
%TF.FileFunction,Legend,Top*%
%TF.FilePolarity,Positive*%
%FSLAX46Y46*%
G04 Gerber Fmt 4.6, Leading zero omitted, Abs format (unit mm)*
G04 Created by KiCad (PCBNEW (6.0.9-0)) date 2022-12-01 16:18:30*
%MOMM*%
%LPD*%
G01*
G04 APERTURE LIST*
G04 Aperture macros list*
%AMRoundRect*
0 Rectangle with rounded corners*
0 $1 Rounding radius*
0 $2 $3 $4 $5 $6 $7 $8 $9 X,Y pos of 4 corners*
0 Add a 4 corners polygon primitive as box body*
4,1,4,$2,$3,$4,$5,$6,$7,$8,$9,$2,$3,0*
0 Add four circle primitives for the rounded corners*
1,1,$1+$1,$2,$3*
1,1,$1+$1,$4,$5*
1,1,$1+$1,$6,$7*
1,1,$1+$1,$8,$9*
0 Add four rect primitives between the rounded corners*
20,1,$1+$1,$2,$3,$4,$5,0*
20,1,$1+$1,$4,$5,$6,$7,0*
20,1,$1+$1,$6,$7,$8,$9,0*
20,1,$1+$1,$8,$9,$2,$3,0*%
%AMFreePoly0*
4,1,22,0.550000,-0.750000,0.000000,-0.750000,0.000000,-0.745033,-0.079941,-0.743568,-0.215256,-0.701293,-0.333266,-0.622738,-0.424486,-0.514219,-0.481581,-0.384460,-0.499164,-0.250000,-0.500000,-0.250000,-0.500000,0.250000,-0.499164,0.250000,-0.499963,0.256109,-0.478152,0.396186,-0.417904,0.524511,-0.324060,0.630769,-0.204165,0.706417,-0.067858,0.745374,0.000000,0.744959,0.000000,0.750000,
0.550000,0.750000,0.550000,-0.750000,0.550000,-0.750000,$1*%
%AMFreePoly1*
4,1,20,0.000000,0.744959,0.073905,0.744508,0.209726,0.703889,0.328688,0.626782,0.421226,0.519385,0.479903,0.390333,0.500000,0.250000,0.500000,-0.250000,0.499851,-0.262216,0.476331,-0.402017,0.414519,-0.529596,0.319384,-0.634700,0.198574,-0.708877,0.061801,-0.746166,0.000000,-0.745033,0.000000,-0.750000,-0.550000,-0.750000,-0.550000,0.750000,0.000000,0.750000,0.000000,0.744959,
0.000000,0.744959,$1*%
G04 Aperture macros list end*
%ADD10C,0.187500*%
%ADD11C,0.150000*%
%ADD12C,0.120000*%
%ADD13C,0.127000*%
%ADD14C,0.200000*%
%ADD15C,0.100000*%
%ADD16C,0.010000*%
%ADD17RoundRect,0.250000X0.450000X-0.350000X0.450000X0.350000X-0.450000X0.350000X-0.450000X-0.350000X0*%
%ADD18FreePoly0,0.000000*%
%ADD19R,1.000000X1.500000*%
%ADD20FreePoly1,0.000000*%
%ADD21RoundRect,0.250000X0.537500X1.450000X-0.537500X1.450000X-0.537500X-1.450000X0.537500X-1.450000X0*%
%ADD22RoundRect,0.250000X-1.500000X-0.550000X1.500000X-0.550000X1.500000X0.550000X-1.500000X0.550000X0*%
%ADD23RoundRect,0.250000X-0.350000X-0.450000X0.350000X-0.450000X0.350000X0.450000X-0.350000X0.450000X0*%
%ADD24RoundRect,0.237500X0.300000X0.237500X-0.300000X0.237500X-0.300000X-0.237500X0.300000X-0.237500X0*%
%ADD25R,0.270000X1.399999*%
%ADD26C,0.508000*%
%ADD27RoundRect,0.250000X0.350000X0.450000X-0.350000X0.450000X-0.350000X-0.450000X0.350000X-0.450000X0*%
%ADD28RoundRect,0.250000X0.600000X-0.600000X0.600000X0.600000X-0.600000X0.600000X-0.600000X-0.600000X0*%
%ADD29C,1.700000*%
%ADD30R,3.100000X2.400000*%
%ADD31RoundRect,0.070000X0.250000X-1.100000X0.250000X1.100000X-0.250000X1.100000X-0.250000X-1.100000X0*%
%ADD32C,0.770000*%
%ADD33RoundRect,0.250000X-0.550000X1.500000X-0.550000X-1.500000X0.550000X-1.500000X0.550000X1.500000X0*%
%ADD34R,1.150000X3.600000*%
%ADD35R,3.000000X3.000000*%
%ADD36C,3.000000*%
%ADD37RoundRect,0.625000X-0.625000X1.625000X-0.625000X-1.625000X0.625000X-1.625000X0.625000X1.625000X0*%
G04 APERTURE END LIST*
D10*
X82678571Y-138131785D02*
X82678571Y-137381785D01*
X82678571Y-137738928D02*
X83107142Y-137738928D01*
X83107142Y-138131785D02*
X83107142Y-137381785D01*
X83821428Y-138131785D02*
X83464285Y-138131785D01*
X83464285Y-137381785D01*
X84392857Y-138131785D02*
X84392857Y-137738928D01*
X84357142Y-137667500D01*
X84285714Y-137631785D01*
X84142857Y-137631785D01*
X84071428Y-137667500D01*
X84392857Y-138096071D02*
X84321428Y-138131785D01*
X84142857Y-138131785D01*
X84071428Y-138096071D01*
X84035714Y-138024642D01*
X84035714Y-137953214D01*
X84071428Y-137881785D01*
X84142857Y-137846071D01*
X84321428Y-137846071D01*
X84392857Y-137810357D01*
X84750000Y-138131785D02*
X84750000Y-137381785D01*
X84750000Y-137667500D02*
X84821428Y-137631785D01*
X84964285Y-137631785D01*
X85035714Y-137667500D01*
X85071428Y-137703214D01*
X85107142Y-137774642D01*
X85107142Y-137988928D01*
X85071428Y-138060357D01*
X85035714Y-138096071D01*
X84964285Y-138131785D01*
X84821428Y-138131785D01*
X84750000Y-138096071D01*
X85392857Y-138096071D02*
X85464285Y-138131785D01*
X85607142Y-138131785D01*
X85678571Y-138096071D01*
X85714285Y-138024642D01*
X85714285Y-137988928D01*
X85678571Y-137917500D01*
X85607142Y-137881785D01*
X85500000Y-137881785D01*
X85428571Y-137846071D01*
X85392857Y-137774642D01*
X85392857Y-137738928D01*
X85428571Y-137667500D01*
X85500000Y-137631785D01*
X85607142Y-137631785D01*
X85678571Y-137667500D01*
X86607142Y-138131785D02*
X86607142Y-137381785D01*
X86892857Y-137381785D01*
X86964285Y-137417500D01*
X87000000Y-137453214D01*
X87035714Y-137524642D01*
X87035714Y-137631785D01*
X87000000Y-137703214D01*
X86964285Y-137738928D01*
X86892857Y-137774642D01*
X86607142Y-137774642D01*
X87464285Y-138131785D02*
X87392857Y-138096071D01*
X87357142Y-138060357D01*
X87321428Y-137988928D01*
X87321428Y-137774642D01*
X87357142Y-137703214D01*
X87392857Y-137667500D01*
X87464285Y-137631785D01*
X87571428Y-137631785D01*
X87642857Y-137667500D01*
X87678571Y-137703214D01*
X87714285Y-137774642D01*
X87714285Y-137988928D01*
X87678571Y-138060357D01*
X87642857Y-138096071D01*
X87571428Y-138131785D01*
X87464285Y-138131785D01*
X87928571Y-137631785D02*
X88214285Y-137631785D01*
X88035714Y-137381785D02*
X88035714Y-138024642D01*
X88071428Y-138096071D01*
X88142857Y-138131785D01*
X88214285Y-138131785D01*
X88571428Y-138131785D02*
X88500000Y-138096071D01*
X88464285Y-138060357D01*
X88428571Y-137988928D01*
X88428571Y-137774642D01*
X88464285Y-137703214D01*
X88500000Y-137667500D01*
X88571428Y-137631785D01*
X88678571Y-137631785D01*
X88750000Y-137667500D01*
X88785714Y-137703214D01*
X88821428Y-137774642D01*
X88821428Y-137988928D01*
X88785714Y-138060357D01*
X88750000Y-138096071D01*
X88678571Y-138131785D01*
X88571428Y-138131785D01*
X89142857Y-138131785D02*
X89142857Y-137631785D01*
X89142857Y-137703214D02*
X89178571Y-137667500D01*
X89250000Y-137631785D01*
X89357142Y-137631785D01*
X89428571Y-137667500D01*
X89464285Y-137738928D01*
X89464285Y-138131785D01*
X89464285Y-137738928D02*
X89500000Y-137667500D01*
X89571428Y-137631785D01*
X89678571Y-137631785D01*
X89750000Y-137667500D01*
X89785714Y-137738928D01*
X89785714Y-138131785D01*
X90250000Y-138131785D02*
X90178571Y-138096071D01*
X90142857Y-138060357D01*
X90107142Y-137988928D01*
X90107142Y-137774642D01*
X90142857Y-137703214D01*
X90178571Y-137667500D01*
X90250000Y-137631785D01*
X90357142Y-137631785D01*
X90428571Y-137667500D01*
X90464285Y-137703214D01*
X90500000Y-137774642D01*
X90500000Y-137988928D01*
X90464285Y-138060357D01*
X90428571Y-138096071D01*
X90357142Y-138131785D01*
X90250000Y-138131785D01*
X90714285Y-137631785D02*
X91000000Y-137631785D01*
X90821428Y-137381785D02*
X90821428Y-138024642D01*
X90857142Y-138096071D01*
X90928571Y-138131785D01*
X91000000Y-138131785D01*
X91357142Y-138131785D02*
X91285714Y-138096071D01*
X91250000Y-138060357D01*
X91214285Y-137988928D01*
X91214285Y-137774642D01*
X91250000Y-137703214D01*
X91285714Y-137667500D01*
X91357142Y-137631785D01*
X91464285Y-137631785D01*
X91535714Y-137667500D01*
X91571428Y-137703214D01*
X91607142Y-137774642D01*
X91607142Y-137988928D01*
X91571428Y-138060357D01*
X91535714Y-138096071D01*
X91464285Y-138131785D01*
X91357142Y-138131785D01*
X92250000Y-138096071D02*
X92178571Y-138131785D01*
X92035714Y-138131785D01*
X91964285Y-138096071D01*
X91928571Y-138060357D01*
X91892857Y-137988928D01*
X91892857Y-137774642D01*
X91928571Y-137703214D01*
X91964285Y-137667500D01*
X92035714Y-137631785D01*
X92178571Y-137631785D01*
X92250000Y-137667500D01*
X92678571Y-138131785D02*
X92607142Y-138096071D01*
X92571428Y-138060357D01*
X92535714Y-137988928D01*
X92535714Y-137774642D01*
X92571428Y-137703214D01*
X92607142Y-137667500D01*
X92678571Y-137631785D01*
X92785714Y-137631785D01*
X92857142Y-137667500D01*
X92892857Y-137703214D01*
X92928571Y-137774642D01*
X92928571Y-137988928D01*
X92892857Y-138060357D01*
X92857142Y-138096071D01*
X92785714Y-138131785D01*
X92678571Y-138131785D01*
X93250000Y-137631785D02*
X93250000Y-138131785D01*
X93250000Y-137703214D02*
X93285714Y-137667500D01*
X93357142Y-137631785D01*
X93464285Y-137631785D01*
X93535714Y-137667500D01*
X93571428Y-137738928D01*
X93571428Y-138131785D01*
X93821428Y-137631785D02*
X94107142Y-137631785D01*
X93928571Y-137381785D02*
X93928571Y-138024642D01*
X93964285Y-138096071D01*
X94035714Y-138131785D01*
X94107142Y-138131785D01*
X94357142Y-138131785D02*
X94357142Y-137631785D01*
X94357142Y-137774642D02*
X94392857Y-137703214D01*
X94428571Y-137667500D01*
X94500000Y-137631785D01*
X94571428Y-137631785D01*
X94928571Y-138131785D02*
X94857142Y-138096071D01*
X94821428Y-138060357D01*
X94785714Y-137988928D01*
X94785714Y-137774642D01*
X94821428Y-137703214D01*
X94857142Y-137667500D01*
X94928571Y-137631785D01*
X95035714Y-137631785D01*
X95107142Y-137667500D01*
X95142857Y-137703214D01*
X95178571Y-137774642D01*
X95178571Y-137988928D01*
X95142857Y-138060357D01*
X95107142Y-138096071D01*
X95035714Y-138131785D01*
X94928571Y-138131785D01*
X95607142Y-138131785D02*
X95535714Y-138096071D01*
X95500000Y-138024642D01*
X95500000Y-137381785D01*
X96178571Y-138096071D02*
X96107142Y-138131785D01*
X95964285Y-138131785D01*
X95892857Y-138096071D01*
X95857142Y-138024642D01*
X95857142Y-137738928D01*
X95892857Y-137667500D01*
X95964285Y-137631785D01*
X96107142Y-137631785D01*
X96178571Y-137667500D01*
X96214285Y-137738928D01*
X96214285Y-137810357D01*
X95857142Y-137881785D01*
X96857142Y-137631785D02*
X96857142Y-138131785D01*
X96535714Y-137631785D02*
X96535714Y-138024642D01*
X96571428Y-138096071D01*
X96642857Y-138131785D01*
X96750000Y-138131785D01*
X96821428Y-138096071D01*
X96857142Y-138060357D01*
X97214285Y-138131785D02*
X97214285Y-137631785D01*
X97214285Y-137774642D02*
X97250000Y-137703214D01*
X97285714Y-137667500D01*
X97357142Y-137631785D01*
X97428571Y-137631785D01*
X83285714Y-138839285D02*
X83464285Y-139339285D01*
X83642857Y-138839285D01*
X84071428Y-138589285D02*
X84142857Y-138589285D01*
X84214285Y-138625000D01*
X84250000Y-138660714D01*
X84285714Y-138732142D01*
X84321428Y-138875000D01*
X84321428Y-139053571D01*
X84285714Y-139196428D01*
X84250000Y-139267857D01*
X84214285Y-139303571D01*
X84142857Y-139339285D01*
X84071428Y-139339285D01*
X84000000Y-139303571D01*
X83964285Y-139267857D01*
X83928571Y-139196428D01*
X83892857Y-139053571D01*
X83892857Y-138875000D01*
X83928571Y-138732142D01*
X83964285Y-138660714D01*
X84000000Y-138625000D01*
X84071428Y-138589285D01*
X84642857Y-139267857D02*
X84678571Y-139303571D01*
X84642857Y-139339285D01*
X84607142Y-139303571D01*
X84642857Y-139267857D01*
X84642857Y-139339285D01*
X84964285Y-138660714D02*
X85000000Y-138625000D01*
X85071428Y-138589285D01*
X85250000Y-138589285D01*
X85321428Y-138625000D01*
X85357142Y-138660714D01*
X85392857Y-138732142D01*
X85392857Y-138803571D01*
X85357142Y-138910714D01*
X84928571Y-139339285D01*
X85392857Y-139339285D01*
X86035714Y-139339285D02*
X86035714Y-138946428D01*
X86000000Y-138875000D01*
X85928571Y-138839285D01*
X85785714Y-138839285D01*
X85714285Y-138875000D01*
X86035714Y-139303571D02*
X85964285Y-139339285D01*
X85785714Y-139339285D01*
X85714285Y-139303571D01*
X85678571Y-139232142D01*
X85678571Y-139160714D01*
X85714285Y-139089285D01*
X85785714Y-139053571D01*
X85964285Y-139053571D01*
X86035714Y-139017857D01*
X87392857Y-139267857D02*
X87357142Y-139303571D01*
X87250000Y-139339285D01*
X87178571Y-139339285D01*
X87071428Y-139303571D01*
X87000000Y-139232142D01*
X86964285Y-139160714D01*
X86928571Y-139017857D01*
X86928571Y-138910714D01*
X86964285Y-138767857D01*
X87000000Y-138696428D01*
X87071428Y-138625000D01*
X87178571Y-138589285D01*
X87250000Y-138589285D01*
X87357142Y-138625000D01*
X87392857Y-138660714D01*
X87821428Y-139339285D02*
X87750000Y-139303571D01*
X87714285Y-139232142D01*
X87714285Y-138589285D01*
X88392857Y-139303571D02*
X88321428Y-139339285D01*
X88178571Y-139339285D01*
X88107142Y-139303571D01*
X88071428Y-139232142D01*
X88071428Y-138946428D01*
X88107142Y-138875000D01*
X88178571Y-138839285D01*
X88321428Y-138839285D01*
X88392857Y-138875000D01*
X88428571Y-138946428D01*
X88428571Y-139017857D01*
X88071428Y-139089285D01*
X88321428Y-138553571D02*
X88214285Y-138660714D01*
X88750000Y-139339285D02*
X88750000Y-138839285D01*
X88750000Y-138910714D02*
X88785714Y-138875000D01*
X88857142Y-138839285D01*
X88964285Y-138839285D01*
X89035714Y-138875000D01*
X89071428Y-138946428D01*
X89071428Y-139339285D01*
X89071428Y-138946428D02*
X89107142Y-138875000D01*
X89178571Y-138839285D01*
X89285714Y-138839285D01*
X89357142Y-138875000D01*
X89392857Y-138946428D01*
X89392857Y-139339285D01*
X90035714Y-139303571D02*
X89964285Y-139339285D01*
X89821428Y-139339285D01*
X89750000Y-139303571D01*
X89714285Y-139232142D01*
X89714285Y-138946428D01*
X89750000Y-138875000D01*
X89821428Y-138839285D01*
X89964285Y-138839285D01*
X90035714Y-138875000D01*
X90071428Y-138946428D01*
X90071428Y-139017857D01*
X89714285Y-139089285D01*
X90392857Y-138839285D02*
X90392857Y-139339285D01*
X90392857Y-138910714D02*
X90428571Y-138875000D01*
X90500000Y-138839285D01*
X90607142Y-138839285D01*
X90678571Y-138875000D01*
X90714285Y-138946428D01*
X90714285Y-139339285D01*
X90964285Y-138839285D02*
X91250000Y-138839285D01*
X91071428Y-138589285D02*
X91071428Y-139232142D01*
X91107142Y-139303571D01*
X91178571Y-139339285D01*
X91250000Y-139339285D01*
X92035714Y-139303571D02*
X92142857Y-139339285D01*
X92321428Y-139339285D01*
X92392857Y-139303571D01*
X92428571Y-139267857D01*
X92464285Y-139196428D01*
X92464285Y-139125000D01*
X92428571Y-139053571D01*
X92392857Y-139017857D01*
X92321428Y-138982142D01*
X92178571Y-138946428D01*
X92107142Y-138910714D01*
X92071428Y-138875000D01*
X92035714Y-138803571D01*
X92035714Y-138732142D01*
X92071428Y-138660714D01*
X92107142Y-138625000D01*
X92178571Y-138589285D01*
X92357142Y-138589285D01*
X92464285Y-138625000D01*
X92750000Y-139125000D02*
X93107142Y-139125000D01*
X92678571Y-139339285D02*
X92928571Y-138589285D01*
X93178571Y-139339285D01*
X93428571Y-139339285D02*
X93428571Y-138589285D01*
X94142857Y-139339285D02*
X93785714Y-139339285D01*
X93785714Y-138589285D01*
X94750000Y-139339285D02*
X94392857Y-139339285D01*
X94392857Y-138589285D01*
X94964285Y-139125000D02*
X95321428Y-139125000D01*
X94892857Y-139339285D02*
X95142857Y-138589285D01*
X95392857Y-139339285D01*
X95642857Y-139339285D02*
X95642857Y-138589285D01*
X96071428Y-139339285D01*
X96071428Y-138589285D01*
X96321428Y-138589285D02*
X96750000Y-138589285D01*
X96535714Y-139339285D02*
X96535714Y-138589285D01*
X88750000Y-140546785D02*
X88321428Y-140546785D01*
X88535714Y-140546785D02*
X88535714Y-139796785D01*
X88464285Y-139903928D01*
X88392857Y-139975357D01*
X88321428Y-140011071D01*
X89214285Y-139796785D02*
X89285714Y-139796785D01*
X89357142Y-139832500D01*
X89392857Y-139868214D01*
X89428571Y-139939642D01*
X89464285Y-140082500D01*
X89464285Y-140261071D01*
X89428571Y-140403928D01*
X89392857Y-140475357D01*
X89357142Y-140511071D01*
X89285714Y-140546785D01*
X89214285Y-140546785D01*
X89142857Y-140511071D01*
X89107142Y-140475357D01*
X89071428Y-140403928D01*
X89035714Y-140261071D01*
X89035714Y-140082500D01*
X89071428Y-139939642D01*
X89107142Y-139868214D01*
X89142857Y-139832500D01*
X89214285Y-139796785D01*
X90321428Y-139761071D02*
X89678571Y-140725357D01*
X90535714Y-139868214D02*
X90571428Y-139832500D01*
X90642857Y-139796785D01*
X90821428Y-139796785D01*
X90892857Y-139832500D01*
X90928571Y-139868214D01*
X90964285Y-139939642D01*
X90964285Y-140011071D01*
X90928571Y-140118214D01*
X90500000Y-140546785D01*
X90964285Y-140546785D01*
X91250000Y-139868214D02*
X91285714Y-139832500D01*
X91357142Y-139796785D01*
X91535714Y-139796785D01*
X91607142Y-139832500D01*
X91642857Y-139868214D01*
X91678571Y-139939642D01*
X91678571Y-140011071D01*
X91642857Y-140118214D01*
X91214285Y-140546785D01*
X91678571Y-140546785D01*
D11*
%TO.C,R3*%
X91702380Y-121916666D02*
X91226190Y-122250000D01*
X91702380Y-122488095D02*
X90702380Y-122488095D01*
X90702380Y-122107142D01*
X90750000Y-122011904D01*
X90797619Y-121964285D01*
X90892857Y-121916666D01*
X91035714Y-121916666D01*
X91130952Y-121964285D01*
X91178571Y-122011904D01*
X91226190Y-122107142D01*
X91226190Y-122488095D01*
X90702380Y-121583333D02*
X90702380Y-120964285D01*
X91083333Y-121297619D01*
X91083333Y-121154761D01*
X91130952Y-121059523D01*
X91178571Y-121011904D01*
X91273809Y-120964285D01*
X91511904Y-120964285D01*
X91607142Y-121011904D01*
X91654761Y-121059523D01*
X91702380Y-121154761D01*
X91702380Y-121440476D01*
X91654761Y-121535714D01*
X91607142Y-121583333D01*
%TO.C,A0*%
X125975714Y-131776666D02*
X126451904Y-131776666D01*
X125880476Y-132062380D02*
X126213809Y-131062380D01*
X126547142Y-132062380D01*
X127070952Y-131062380D02*
X127166190Y-131062380D01*
X127261428Y-131110000D01*
X127309047Y-131157619D01*
X127356666Y-131252857D01*
X127404285Y-131443333D01*
X127404285Y-131681428D01*
X127356666Y-131871904D01*
X127309047Y-131967142D01*
X127261428Y-132014761D01*
X127166190Y-132062380D01*
X127070952Y-132062380D01*
X126975714Y-132014761D01*
X126928095Y-131967142D01*
X126880476Y-131871904D01*
X126832857Y-131681428D01*
X126832857Y-131443333D01*
X126880476Y-131252857D01*
X126928095Y-131157619D01*
X126975714Y-131110000D01*
X127070952Y-131062380D01*
%TO.C,C3*%
X103643333Y-117027142D02*
X103595714Y-117074761D01*
X103452857Y-117122380D01*
X103357619Y-117122380D01*
X103214761Y-117074761D01*
X103119523Y-116979523D01*
X103071904Y-116884285D01*
X103024285Y-116693809D01*
X103024285Y-116550952D01*
X103071904Y-116360476D01*
X103119523Y-116265238D01*
X103214761Y-116170000D01*
X103357619Y-116122380D01*
X103452857Y-116122380D01*
X103595714Y-116170000D01*
X103643333Y-116217619D01*
X103976666Y-116122380D02*
X104595714Y-116122380D01*
X104262380Y-116503333D01*
X104405238Y-116503333D01*
X104500476Y-116550952D01*
X104548095Y-116598571D01*
X104595714Y-116693809D01*
X104595714Y-116931904D01*
X104548095Y-117027142D01*
X104500476Y-117074761D01*
X104405238Y-117122380D01*
X104119523Y-117122380D01*
X104024285Y-117074761D01*
X103976666Y-117027142D01*
%TO.C,C1*%
X122283333Y-117077142D02*
X122235714Y-117124761D01*
X122092857Y-117172380D01*
X121997619Y-117172380D01*
X121854761Y-117124761D01*
X121759523Y-117029523D01*
X121711904Y-116934285D01*
X121664285Y-116743809D01*
X121664285Y-116600952D01*
X121711904Y-116410476D01*
X121759523Y-116315238D01*
X121854761Y-116220000D01*
X121997619Y-116172380D01*
X122092857Y-116172380D01*
X122235714Y-116220000D01*
X122283333Y-116267619D01*
X123235714Y-117172380D02*
X122664285Y-117172380D01*
X122950000Y-117172380D02*
X122950000Y-116172380D01*
X122854761Y-116315238D01*
X122759523Y-116410476D01*
X122664285Y-116458095D01*
%TO.C,R2*%
X90833333Y-135452380D02*
X90500000Y-134976190D01*
X90261904Y-135452380D02*
X90261904Y-134452380D01*
X90642857Y-134452380D01*
X90738095Y-134500000D01*
X90785714Y-134547619D01*
X90833333Y-134642857D01*
X90833333Y-134785714D01*
X90785714Y-134880952D01*
X90738095Y-134928571D01*
X90642857Y-134976190D01*
X90261904Y-134976190D01*
X91214285Y-134547619D02*
X91261904Y-134500000D01*
X91357142Y-134452380D01*
X91595238Y-134452380D01*
X91690476Y-134500000D01*
X91738095Y-134547619D01*
X91785714Y-134642857D01*
X91785714Y-134738095D01*
X91738095Y-134880952D01*
X91166666Y-135452380D01*
X91785714Y-135452380D01*
%TO.C,C2*%
X108446270Y-121591625D02*
X108398651Y-121639244D01*
X108255794Y-121686863D01*
X108160556Y-121686863D01*
X108017698Y-121639244D01*
X107922460Y-121544006D01*
X107874841Y-121448768D01*
X107827222Y-121258292D01*
X107827222Y-121115435D01*
X107874841Y-120924959D01*
X107922460Y-120829721D01*
X108017698Y-120734483D01*
X108160556Y-120686863D01*
X108255794Y-120686863D01*
X108398651Y-120734483D01*
X108446270Y-120782102D01*
X108827222Y-120782102D02*
X108874841Y-120734483D01*
X108970079Y-120686863D01*
X109208175Y-120686863D01*
X109303413Y-120734483D01*
X109351032Y-120782102D01*
X109398651Y-120877340D01*
X109398651Y-120972578D01*
X109351032Y-121115435D01*
X108779603Y-121686863D01*
X109398651Y-121686863D01*
%TO.C,U1*%
X115491718Y-125319988D02*
X116301242Y-125319988D01*
X116396480Y-125272369D01*
X116444099Y-125224750D01*
X116491718Y-125129512D01*
X116491718Y-124939036D01*
X116444099Y-124843798D01*
X116396480Y-124796179D01*
X116301242Y-124748560D01*
X115491718Y-124748560D01*
X116491718Y-123748560D02*
X116491718Y-124319988D01*
X116491718Y-124034274D02*
X115491718Y-124034274D01*
X115634576Y-124129512D01*
X115729814Y-124224750D01*
X115777433Y-124319988D01*
X115228317Y-122805484D02*
X115466413Y-122805484D01*
X115371175Y-123043579D02*
X115466413Y-122805484D01*
X115371175Y-122567388D01*
X115656889Y-122948341D02*
X115466413Y-122805484D01*
X115656889Y-122662626D01*
%TO.C,A1*%
X125915714Y-128836666D02*
X126391904Y-128836666D01*
X125820476Y-129122380D02*
X126153809Y-128122380D01*
X126487142Y-129122380D01*
X127344285Y-129122380D02*
X126772857Y-129122380D01*
X127058571Y-129122380D02*
X127058571Y-128122380D01*
X126963333Y-128265238D01*
X126868095Y-128360476D01*
X126772857Y-128408095D01*
%TO.C,R1*%
X90833333Y-136952380D02*
X90500000Y-136476190D01*
X90261904Y-136952380D02*
X90261904Y-135952380D01*
X90642857Y-135952380D01*
X90738095Y-136000000D01*
X90785714Y-136047619D01*
X90833333Y-136142857D01*
X90833333Y-136285714D01*
X90785714Y-136380952D01*
X90738095Y-136428571D01*
X90642857Y-136476190D01*
X90261904Y-136476190D01*
X91785714Y-136952380D02*
X91214285Y-136952380D01*
X91500000Y-136952380D02*
X91500000Y-135952380D01*
X91404761Y-136095238D01*
X91309523Y-136190476D01*
X91214285Y-136238095D01*
%TO.C,J1*%
X101292380Y-136315833D02*
X102006666Y-136315833D01*
X102149523Y-136363452D01*
X102244761Y-136458690D01*
X102292380Y-136601547D01*
X102292380Y-136696785D01*
X102292380Y-135315833D02*
X102292380Y-135887261D01*
X102292380Y-135601547D02*
X101292380Y-135601547D01*
X101435238Y-135696785D01*
X101530476Y-135792023D01*
X101578095Y-135887261D01*
%TO.C,U2*%
X93042380Y-128941904D02*
X93851904Y-128941904D01*
X93947142Y-128894285D01*
X93994761Y-128846666D01*
X94042380Y-128751428D01*
X94042380Y-128560952D01*
X93994761Y-128465714D01*
X93947142Y-128418095D01*
X93851904Y-128370476D01*
X93042380Y-128370476D01*
X93137619Y-127941904D02*
X93090000Y-127894285D01*
X93042380Y-127799047D01*
X93042380Y-127560952D01*
X93090000Y-127465714D01*
X93137619Y-127418095D01*
X93232857Y-127370476D01*
X93328095Y-127370476D01*
X93470952Y-127418095D01*
X94042380Y-127989523D01*
X94042380Y-127370476D01*
%TO.C,C4*%
X103457142Y-122616666D02*
X103504761Y-122664285D01*
X103552380Y-122807142D01*
X103552380Y-122902380D01*
X103504761Y-123045238D01*
X103409523Y-123140476D01*
X103314285Y-123188095D01*
X103123809Y-123235714D01*
X102980952Y-123235714D01*
X102790476Y-123188095D01*
X102695238Y-123140476D01*
X102600000Y-123045238D01*
X102552380Y-122902380D01*
X102552380Y-122807142D01*
X102600000Y-122664285D01*
X102647619Y-122616666D01*
X102885714Y-121759523D02*
X103552380Y-121759523D01*
X102504761Y-121997619D02*
X103219047Y-122235714D01*
X103219047Y-121616666D01*
%TO.C,L2*%
X109533333Y-128952380D02*
X109057142Y-128952380D01*
X109057142Y-127952380D01*
X109819047Y-128047619D02*
X109866666Y-128000000D01*
X109961904Y-127952380D01*
X110200000Y-127952380D01*
X110295238Y-128000000D01*
X110342857Y-128047619D01*
X110390476Y-128142857D01*
X110390476Y-128238095D01*
X110342857Y-128380952D01*
X109771428Y-128952380D01*
X110390476Y-128952380D01*
%TO.C,L1*%
X109523333Y-124292380D02*
X109047142Y-124292380D01*
X109047142Y-123292380D01*
X110380476Y-124292380D02*
X109809047Y-124292380D01*
X110094761Y-124292380D02*
X110094761Y-123292380D01*
X109999523Y-123435238D01*
X109904285Y-123530476D01*
X109809047Y-123578095D01*
D12*
%TO.C,R3*%
X88765000Y-121977064D02*
X88765000Y-121522936D01*
X90235000Y-121977064D02*
X90235000Y-121522936D01*
D13*
%TO.C,REF\u002A\u002A*%
X114862937Y-123734483D02*
X114862937Y-124234483D01*
X111862937Y-123734483D02*
X111862937Y-124234483D01*
X114862937Y-126734483D02*
X114862937Y-126234483D01*
X111862937Y-126734483D02*
X111862937Y-126234483D01*
D14*
X114462937Y-122934483D02*
G75*
G03*
X114462937Y-122934483I-100000J0D01*
G01*
D12*
%TO.C,A0*%
X125250000Y-131320000D02*
X125250000Y-131920000D01*
X122000000Y-132820000D02*
X122300000Y-133120000D01*
X121150000Y-131920000D02*
X121150000Y-131320000D01*
X122000000Y-132820000D02*
X121700000Y-133120000D01*
X124600000Y-132620000D02*
X121800000Y-132620000D01*
X121800000Y-130620000D02*
X124600000Y-130620000D01*
X121700000Y-133120000D02*
X122300000Y-133120000D01*
X121850000Y-130620000D02*
G75*
G03*
X121150000Y-131320000I-1J-699999D01*
G01*
X124550000Y-132620000D02*
G75*
G03*
X125250000Y-131920000I0J700000D01*
G01*
X121150000Y-131920000D02*
G75*
G03*
X121850000Y-132620000I699999J-1D01*
G01*
X125250000Y-131320000D02*
G75*
G03*
X124550000Y-130620000I-700000J0D01*
G01*
%TO.C,C3*%
X104961252Y-117530000D02*
X102638748Y-117530000D01*
X104961252Y-120950000D02*
X102638748Y-120950000D01*
%TO.C,C1*%
X113040000Y-114374437D02*
X113040000Y-115660000D01*
X113040000Y-119065563D02*
X114104437Y-120130000D01*
X119860000Y-113310000D02*
X119860000Y-115660000D01*
X119860000Y-120130000D02*
X119860000Y-117780000D01*
X114104437Y-120130000D02*
X119860000Y-120130000D01*
X114104437Y-113310000D02*
X119860000Y-113310000D01*
X113040000Y-119065563D02*
X113040000Y-117780000D01*
X112406250Y-114478750D02*
X112406250Y-115266250D01*
X113040000Y-114374437D02*
X114104437Y-113310000D01*
X112012500Y-114872500D02*
X112800000Y-114872500D01*
%TO.C,R2*%
X93772936Y-135235000D02*
X94227064Y-135235000D01*
X93772936Y-133765000D02*
X94227064Y-133765000D01*
%TO.C,C2*%
X111466267Y-121690000D02*
X111173733Y-121690000D01*
X111466267Y-120670000D02*
X111173733Y-120670000D01*
%TO.C,U1*%
X111895196Y-123557484D02*
X111685938Y-123557484D01*
X115039936Y-126911482D02*
X115039936Y-123557484D01*
X111685938Y-123557484D02*
X111685938Y-126911482D01*
X114830678Y-126911482D02*
X115039936Y-126911482D01*
X115039936Y-123557484D02*
X114830678Y-123557484D01*
X111685938Y-126911482D02*
X111895196Y-126911482D01*
G36*
X114553438Y-128617481D02*
G01*
X114172438Y-128617481D01*
X114172438Y-128363481D01*
X114553438Y-128363481D01*
X114553438Y-128617481D01*
G37*
D15*
X114553438Y-128617481D02*
X114172438Y-128617481D01*
X114172438Y-128363481D01*
X114553438Y-128363481D01*
X114553438Y-128617481D01*
D12*
%TO.C,A1*%
X121780000Y-127650000D02*
X124580000Y-127650000D01*
X121980000Y-129850000D02*
X121680000Y-130150000D01*
X121980000Y-129850000D02*
X122280000Y-130150000D01*
X125230000Y-128350000D02*
X125230000Y-128950000D01*
X121680000Y-130150000D02*
X122280000Y-130150000D01*
X124580000Y-129650000D02*
X121780000Y-129650000D01*
X121130000Y-128950000D02*
X121130000Y-128350000D01*
X124530000Y-129650000D02*
G75*
G03*
X125230000Y-128950000I0J700000D01*
G01*
X121830000Y-127650000D02*
G75*
G03*
X121130000Y-128350000I-1J-699999D01*
G01*
X125230000Y-128350000D02*
G75*
G03*
X124530000Y-127650000I-700000J0D01*
G01*
X121130000Y-128950000D02*
G75*
G03*
X121830000Y-129650000I699999J-1D01*
G01*
%TO.C,R1*%
X94227064Y-137235000D02*
X93772936Y-137235000D01*
X94227064Y-135765000D02*
X93772936Y-135765000D01*
%TO.C,J1*%
X108440000Y-141932500D02*
X107940000Y-140932500D01*
X119470000Y-139232500D02*
X113800000Y-139232500D01*
X120770000Y-140542500D02*
X102730000Y-140542500D01*
X104030000Y-139232500D02*
X104030000Y-132732500D01*
X104030000Y-132732500D02*
X119470000Y-132732500D01*
X102730000Y-131422500D02*
X120770000Y-131422500D01*
X119470000Y-132732500D02*
X119470000Y-139232500D01*
X120770000Y-131422500D02*
X120770000Y-140542500D01*
X107940000Y-140932500D02*
X107440000Y-141932500D01*
X102730000Y-140542500D02*
X102730000Y-131422500D01*
X109700000Y-139232500D02*
X104030000Y-139232500D01*
X113800000Y-139232500D02*
X113800000Y-140542500D01*
X113800000Y-139232500D02*
X113800000Y-139232500D01*
X107440000Y-141932500D02*
X108440000Y-141932500D01*
X109700000Y-140542500D02*
X109700000Y-139232500D01*
D11*
%TO.C,U2*%
X87425000Y-130325000D02*
X87425000Y-126175000D01*
X87475000Y-130325000D02*
X87475000Y-131725000D01*
X92575000Y-126175000D02*
X92430000Y-126175000D01*
X92575000Y-130325000D02*
X92430000Y-130325000D01*
X87425000Y-126175000D02*
X87570000Y-126175000D01*
X92575000Y-130325000D02*
X92575000Y-126175000D01*
X87425000Y-130325000D02*
X87475000Y-130325000D01*
D12*
%TO.C,C4*%
X102241250Y-122956250D02*
X101453750Y-122956250D01*
X96590000Y-124654437D02*
X96590000Y-130410000D01*
X97654437Y-123590000D02*
X98940000Y-123590000D01*
X103410000Y-124654437D02*
X103410000Y-130410000D01*
X96590000Y-130410000D02*
X98940000Y-130410000D01*
X102345563Y-123590000D02*
X101060000Y-123590000D01*
X97654437Y-123590000D02*
X96590000Y-124654437D01*
X103410000Y-130410000D02*
X101060000Y-130410000D01*
X101847500Y-122562500D02*
X101847500Y-123350000D01*
X102345563Y-123590000D02*
X103410000Y-124654437D01*
%TO.C,L2*%
X108200000Y-130610000D02*
X104200000Y-130610000D01*
X104200000Y-126390000D02*
X108200000Y-126390000D01*
%TO.C,L1*%
X104190000Y-121730000D02*
X108190000Y-121730000D01*
X108190000Y-125950000D02*
X104190000Y-125950000D01*
%TD*%
%LPC*%
%TO.C,REF\u002A\u002A*%
G36*
X112945937Y-126265483D02*
G01*
X112951937Y-126265483D01*
X112957937Y-126267483D01*
X112963937Y-126268483D01*
X112981937Y-126274483D01*
X112986937Y-126277483D01*
X112992937Y-126280483D01*
X112997937Y-126283483D01*
X113003937Y-126287483D01*
X113008937Y-126291483D01*
X113012937Y-126295483D01*
X113017937Y-126299483D01*
X113021937Y-126304483D01*
X113025937Y-126308483D01*
X113029937Y-126313483D01*
X113033937Y-126319483D01*
X113036937Y-126324483D01*
X113039937Y-126330483D01*
X113042937Y-126335483D01*
X113048937Y-126353483D01*
X113049937Y-126359483D01*
X113051937Y-126365483D01*
X113051937Y-126371483D01*
X113052937Y-126378483D01*
X113052937Y-126890483D01*
X113051937Y-126897483D01*
X113051937Y-126903483D01*
X113049937Y-126909483D01*
X113048937Y-126915483D01*
X113042937Y-126933483D01*
X113039937Y-126938483D01*
X113036937Y-126944483D01*
X113033937Y-126949483D01*
X113029937Y-126955483D01*
X113025937Y-126960483D01*
X113021937Y-126964483D01*
X113017937Y-126969483D01*
X113012937Y-126973483D01*
X113008937Y-126977483D01*
X113003937Y-126981483D01*
X112997937Y-126985483D01*
X112992937Y-126988483D01*
X112986937Y-126991483D01*
X112981937Y-126994483D01*
X112963937Y-127000483D01*
X112957937Y-127001483D01*
X112951937Y-127003483D01*
X112945937Y-127003483D01*
X112938937Y-127004483D01*
X112786937Y-127004483D01*
X112779937Y-127003483D01*
X112773937Y-127003483D01*
X112767937Y-127001483D01*
X112761937Y-127000483D01*
X112743937Y-126994483D01*
X112738937Y-126991483D01*
X112732937Y-126988483D01*
X112727937Y-126985483D01*
X112721937Y-126981483D01*
X112716937Y-126977483D01*
X112712937Y-126973483D01*
X112707937Y-126969483D01*
X112703937Y-126964483D01*
X112699937Y-126960483D01*
X112695937Y-126955483D01*
X112691937Y-126949483D01*
X112688937Y-126944483D01*
X112685937Y-126938483D01*
X112682937Y-126933483D01*
X112676937Y-126915483D01*
X112675937Y-126909483D01*
X112673937Y-126903483D01*
X112673937Y-126897483D01*
X112672937Y-126890483D01*
X112672937Y-126378483D01*
X112673937Y-126371483D01*
X112673937Y-126365483D01*
X112675937Y-126359483D01*
X112676937Y-126353483D01*
X112682937Y-126335483D01*
X112685937Y-126330483D01*
X112688937Y-126324483D01*
X112691937Y-126319483D01*
X112695937Y-126313483D01*
X112699937Y-126308483D01*
X112703937Y-126304483D01*
X112707937Y-126299483D01*
X112712937Y-126295483D01*
X112716937Y-126291483D01*
X112721937Y-126287483D01*
X112727937Y-126283483D01*
X112732937Y-126280483D01*
X112738937Y-126277483D01*
X112743937Y-126274483D01*
X112761937Y-126268483D01*
X112767937Y-126267483D01*
X112773937Y-126265483D01*
X112779937Y-126265483D01*
X112786937Y-126264483D01*
X112938937Y-126264483D01*
X112945937Y-126265483D01*
G37*
D16*
X112945937Y-126265483D02*
X112951937Y-126265483D01*
X112957937Y-126267483D01*
X112963937Y-126268483D01*
X112981937Y-126274483D01*
X112986937Y-126277483D01*
X112992937Y-126280483D01*
X112997937Y-126283483D01*
X113003937Y-126287483D01*
X113008937Y-126291483D01*
X113012937Y-126295483D01*
X113017937Y-126299483D01*
X113021937Y-126304483D01*
X113025937Y-126308483D01*
X113029937Y-126313483D01*
X113033937Y-126319483D01*
X113036937Y-126324483D01*
X113039937Y-126330483D01*
X113042937Y-126335483D01*
X113048937Y-126353483D01*
X113049937Y-126359483D01*
X113051937Y-126365483D01*
X113051937Y-126371483D01*
X113052937Y-126378483D01*
X113052937Y-126890483D01*
X113051937Y-126897483D01*
X113051937Y-126903483D01*
X113049937Y-126909483D01*
X113048937Y-126915483D01*
X113042937Y-126933483D01*
X113039937Y-126938483D01*
X113036937Y-126944483D01*
X113033937Y-126949483D01*
X113029937Y-126955483D01*
X113025937Y-126960483D01*
X113021937Y-126964483D01*
X113017937Y-126969483D01*
X113012937Y-126973483D01*
X113008937Y-126977483D01*
X113003937Y-126981483D01*
X112997937Y-126985483D01*
X112992937Y-126988483D01*
X112986937Y-126991483D01*
X112981937Y-126994483D01*
X112963937Y-127000483D01*
X112957937Y-127001483D01*
X112951937Y-127003483D01*
X112945937Y-127003483D01*
X112938937Y-127004483D01*
X112786937Y-127004483D01*
X112779937Y-127003483D01*
X112773937Y-127003483D01*
X112767937Y-127001483D01*
X112761937Y-127000483D01*
X112743937Y-126994483D01*
X112738937Y-126991483D01*
X112732937Y-126988483D01*
X112727937Y-126985483D01*
X112721937Y-126981483D01*
X112716937Y-126977483D01*
X112712937Y-126973483D01*
X112707937Y-126969483D01*
X112703937Y-126964483D01*
X112699937Y-126960483D01*
X112695937Y-126955483D01*
X112691937Y-126949483D01*
X112688937Y-126944483D01*
X112685937Y-126938483D01*
X112682937Y-126933483D01*
X112676937Y-126915483D01*
X112675937Y-126909483D01*
X112673937Y-126903483D01*
X112673937Y-126897483D01*
X112672937Y-126890483D01*
X112672937Y-126378483D01*
X112673937Y-126371483D01*
X112673937Y-126365483D01*
X112675937Y-126359483D01*
X112676937Y-126353483D01*
X112682937Y-126335483D01*
X112685937Y-126330483D01*
X112688937Y-126324483D01*
X112691937Y-126319483D01*
X112695937Y-126313483D01*
X112699937Y-126308483D01*
X112703937Y-126304483D01*
X112707937Y-126299483D01*
X112712937Y-126295483D01*
X112716937Y-126291483D01*
X112721937Y-126287483D01*
X112727937Y-126283483D01*
X112732937Y-126280483D01*
X112738937Y-126277483D01*
X112743937Y-126274483D01*
X112761937Y-126268483D01*
X112767937Y-126267483D01*
X112773937Y-126265483D01*
X112779937Y-126265483D01*
X112786937Y-126264483D01*
X112938937Y-126264483D01*
X112945937Y-126265483D01*
G36*
X113945937Y-126265483D02*
G01*
X113951937Y-126265483D01*
X113957937Y-126267483D01*
X113963937Y-126268483D01*
X113981937Y-126274483D01*
X113986937Y-126277483D01*
X113992937Y-126280483D01*
X113997937Y-126283483D01*
X114003937Y-126287483D01*
X114008937Y-126291483D01*
X114012937Y-126295483D01*
X114017937Y-126299483D01*
X114021937Y-126304483D01*
X114025937Y-126308483D01*
X114029937Y-126313483D01*
X114033937Y-126319483D01*
X114036937Y-126324483D01*
X114039937Y-126330483D01*
X114042937Y-126335483D01*
X114048937Y-126353483D01*
X114049937Y-126359483D01*
X114051937Y-126365483D01*
X114051937Y-126371483D01*
X114052937Y-126378483D01*
X114052937Y-126890483D01*
X114051937Y-126897483D01*
X114051937Y-126903483D01*
X114049937Y-126909483D01*
X114048937Y-126915483D01*
X114042937Y-126933483D01*
X114039937Y-126938483D01*
X114036937Y-126944483D01*
X114033937Y-126949483D01*
X114029937Y-126955483D01*
X114025937Y-126960483D01*
X114021937Y-126964483D01*
X114017937Y-126969483D01*
X114012937Y-126973483D01*
X114008937Y-126977483D01*
X114003937Y-126981483D01*
X113997937Y-126985483D01*
X113992937Y-126988483D01*
X113986937Y-126991483D01*
X113981937Y-126994483D01*
X113963937Y-127000483D01*
X113957937Y-127001483D01*
X113951937Y-127003483D01*
X113945937Y-127003483D01*
X113938937Y-127004483D01*
X113786937Y-127004483D01*
X113779937Y-127003483D01*
X113773937Y-127003483D01*
X113767937Y-127001483D01*
X113761937Y-127000483D01*
X113743937Y-126994483D01*
X113738937Y-126991483D01*
X113732937Y-126988483D01*
X113727937Y-126985483D01*
X113721937Y-126981483D01*
X113716937Y-126977483D01*
X113712937Y-126973483D01*
X113707937Y-126969483D01*
X113703937Y-126964483D01*
X113699937Y-126960483D01*
X113695937Y-126955483D01*
X113691937Y-126949483D01*
X113688937Y-126944483D01*
X113685937Y-126938483D01*
X113682937Y-126933483D01*
X113676937Y-126915483D01*
X113675937Y-126909483D01*
X113673937Y-126903483D01*
X113673937Y-126897483D01*
X113672937Y-126890483D01*
X113672937Y-126378483D01*
X113673937Y-126371483D01*
X113673937Y-126365483D01*
X113675937Y-126359483D01*
X113676937Y-126353483D01*
X113682937Y-126335483D01*
X113685937Y-126330483D01*
X113688937Y-126324483D01*
X113691937Y-126319483D01*
X113695937Y-126313483D01*
X113699937Y-126308483D01*
X113703937Y-126304483D01*
X113707937Y-126299483D01*
X113712937Y-126295483D01*
X113716937Y-126291483D01*
X113721937Y-126287483D01*
X113727937Y-126283483D01*
X113732937Y-126280483D01*
X113738937Y-126277483D01*
X113743937Y-126274483D01*
X113761937Y-126268483D01*
X113767937Y-126267483D01*
X113773937Y-126265483D01*
X113779937Y-126265483D01*
X113786937Y-126264483D01*
X113938937Y-126264483D01*
X113945937Y-126265483D01*
G37*
X113945937Y-126265483D02*
X113951937Y-126265483D01*
X113957937Y-126267483D01*
X113963937Y-126268483D01*
X113981937Y-126274483D01*
X113986937Y-126277483D01*
X113992937Y-126280483D01*
X113997937Y-126283483D01*
X114003937Y-126287483D01*
X114008937Y-126291483D01*
X114012937Y-126295483D01*
X114017937Y-126299483D01*
X114021937Y-126304483D01*
X114025937Y-126308483D01*
X114029937Y-126313483D01*
X114033937Y-126319483D01*
X114036937Y-126324483D01*
X114039937Y-126330483D01*
X114042937Y-126335483D01*
X114048937Y-126353483D01*
X114049937Y-126359483D01*
X114051937Y-126365483D01*
X114051937Y-126371483D01*
X114052937Y-126378483D01*
X114052937Y-126890483D01*
X114051937Y-126897483D01*
X114051937Y-126903483D01*
X114049937Y-126909483D01*
X114048937Y-126915483D01*
X114042937Y-126933483D01*
X114039937Y-126938483D01*
X114036937Y-126944483D01*
X114033937Y-126949483D01*
X114029937Y-126955483D01*
X114025937Y-126960483D01*
X114021937Y-126964483D01*
X114017937Y-126969483D01*
X114012937Y-126973483D01*
X114008937Y-126977483D01*
X114003937Y-126981483D01*
X113997937Y-126985483D01*
X113992937Y-126988483D01*
X113986937Y-126991483D01*
X113981937Y-126994483D01*
X113963937Y-127000483D01*
X113957937Y-127001483D01*
X113951937Y-127003483D01*
X113945937Y-127003483D01*
X113938937Y-127004483D01*
X113786937Y-127004483D01*
X113779937Y-127003483D01*
X113773937Y-127003483D01*
X113767937Y-127001483D01*
X113761937Y-127000483D01*
X113743937Y-126994483D01*
X113738937Y-126991483D01*
X113732937Y-126988483D01*
X113727937Y-126985483D01*
X113721937Y-126981483D01*
X113716937Y-126977483D01*
X113712937Y-126973483D01*
X113707937Y-126969483D01*
X113703937Y-126964483D01*
X113699937Y-126960483D01*
X113695937Y-126955483D01*
X113691937Y-126949483D01*
X113688937Y-126944483D01*
X113685937Y-126938483D01*
X113682937Y-126933483D01*
X113676937Y-126915483D01*
X113675937Y-126909483D01*
X113673937Y-126903483D01*
X113673937Y-126897483D01*
X113672937Y-126890483D01*
X113672937Y-126378483D01*
X113673937Y-126371483D01*
X113673937Y-126365483D01*
X113675937Y-126359483D01*
X113676937Y-126353483D01*
X113682937Y-126335483D01*
X113685937Y-126330483D01*
X113688937Y-126324483D01*
X113691937Y-126319483D01*
X113695937Y-126313483D01*
X113699937Y-126308483D01*
X113703937Y-126304483D01*
X113707937Y-126299483D01*
X113712937Y-126295483D01*
X113716937Y-126291483D01*
X113721937Y-126287483D01*
X113727937Y-126283483D01*
X113732937Y-126280483D01*
X113738937Y-126277483D01*
X113743937Y-126274483D01*
X113761937Y-126268483D01*
X113767937Y-126267483D01*
X113773937Y-126265483D01*
X113779937Y-126265483D01*
X113786937Y-126264483D01*
X113938937Y-126264483D01*
X113945937Y-126265483D01*
G36*
X114525937Y-124340483D02*
G01*
X114531937Y-124340483D01*
X114537937Y-124342483D01*
X114543937Y-124343483D01*
X114561937Y-124349483D01*
X114566937Y-124352483D01*
X114572937Y-124355483D01*
X114577937Y-124358483D01*
X114583937Y-124362483D01*
X114588937Y-124366483D01*
X114592937Y-124370483D01*
X114597937Y-124374483D01*
X114601937Y-124379483D01*
X114605937Y-124383483D01*
X114609937Y-124388483D01*
X114613937Y-124394483D01*
X114616937Y-124399483D01*
X114619937Y-124405483D01*
X114622937Y-124410483D01*
X114628937Y-124428483D01*
X114629937Y-124434483D01*
X114631937Y-124440483D01*
X114631937Y-124446483D01*
X114632937Y-124453483D01*
X114632937Y-124789483D01*
X115018937Y-124789483D01*
X115025937Y-124790483D01*
X115031937Y-124790483D01*
X115037937Y-124792483D01*
X115043937Y-124793483D01*
X115061937Y-124799483D01*
X115066937Y-124802483D01*
X115072937Y-124805483D01*
X115077937Y-124808483D01*
X115083937Y-124812483D01*
X115088937Y-124816483D01*
X115092937Y-124820483D01*
X115097937Y-124824483D01*
X115101937Y-124829483D01*
X115105937Y-124833483D01*
X115109937Y-124838483D01*
X115113937Y-124844483D01*
X115116937Y-124849483D01*
X115119937Y-124855483D01*
X115122937Y-124860483D01*
X115128937Y-124878483D01*
X115129937Y-124884483D01*
X115131937Y-124890483D01*
X115131937Y-124896483D01*
X115132937Y-124903483D01*
X115132937Y-125065483D01*
X115131937Y-125072483D01*
X115131937Y-125078483D01*
X115129937Y-125084483D01*
X115128937Y-125090483D01*
X115122937Y-125108483D01*
X115119937Y-125113483D01*
X115116937Y-125119483D01*
X115113937Y-125124483D01*
X115109937Y-125130483D01*
X115105937Y-125135483D01*
X115101937Y-125139483D01*
X115097937Y-125144483D01*
X115092937Y-125148483D01*
X115088937Y-125152483D01*
X115083937Y-125156483D01*
X115077937Y-125160483D01*
X115072937Y-125163483D01*
X115066937Y-125166483D01*
X115061937Y-125169483D01*
X115043937Y-125175483D01*
X115037937Y-125176483D01*
X115031937Y-125178483D01*
X115025937Y-125178483D01*
X115018937Y-125179483D01*
X114632937Y-125179483D01*
X114632937Y-125289483D01*
X115018937Y-125289483D01*
X115025937Y-125290483D01*
X115031937Y-125290483D01*
X115037937Y-125292483D01*
X115043937Y-125293483D01*
X115061937Y-125299483D01*
X115066937Y-125302483D01*
X115072937Y-125305483D01*
X115077937Y-125308483D01*
X115083937Y-125312483D01*
X115088937Y-125316483D01*
X115092937Y-125320483D01*
X115097937Y-125324483D01*
X115101937Y-125329483D01*
X115105937Y-125333483D01*
X115109937Y-125338483D01*
X115113937Y-125344483D01*
X115116937Y-125349483D01*
X115119937Y-125355483D01*
X115122937Y-125360483D01*
X115128937Y-125378483D01*
X115129937Y-125384483D01*
X115131937Y-125390483D01*
X115131937Y-125396483D01*
X115132937Y-125403483D01*
X115132937Y-125565483D01*
X115131937Y-125572483D01*
X115131937Y-125578483D01*
X115129937Y-125584483D01*
X115128937Y-125590483D01*
X115122937Y-125608483D01*
X115119937Y-125613483D01*
X115116937Y-125619483D01*
X115113937Y-125624483D01*
X115109937Y-125630483D01*
X115105937Y-125635483D01*
X115101937Y-125639483D01*
X115097937Y-125644483D01*
X115092937Y-125648483D01*
X115088937Y-125652483D01*
X115083937Y-125656483D01*
X115077937Y-125660483D01*
X115072937Y-125663483D01*
X115066937Y-125666483D01*
X115061937Y-125669483D01*
X115043937Y-125675483D01*
X115037937Y-125676483D01*
X115031937Y-125678483D01*
X115025937Y-125678483D01*
X115018937Y-125679483D01*
X114632937Y-125679483D01*
X114632937Y-126015483D01*
X114631937Y-126022483D01*
X114631937Y-126028483D01*
X114629937Y-126034483D01*
X114628937Y-126040483D01*
X114622937Y-126058483D01*
X114619937Y-126063483D01*
X114616937Y-126069483D01*
X114613937Y-126074483D01*
X114609937Y-126080483D01*
X114605937Y-126085483D01*
X114601937Y-126089483D01*
X114597937Y-126094483D01*
X114592937Y-126098483D01*
X114588937Y-126102483D01*
X114583937Y-126106483D01*
X114577937Y-126110483D01*
X114572937Y-126113483D01*
X114566937Y-126116483D01*
X114561937Y-126119483D01*
X114543937Y-126125483D01*
X114537937Y-126126483D01*
X114531937Y-126128483D01*
X114525937Y-126128483D01*
X114518937Y-126129483D01*
X112206937Y-126129483D01*
X112199937Y-126128483D01*
X112193937Y-126128483D01*
X112187937Y-126126483D01*
X112181937Y-126125483D01*
X112163937Y-126119483D01*
X112158937Y-126116483D01*
X112152937Y-126113483D01*
X112147937Y-126110483D01*
X112141937Y-126106483D01*
X112136937Y-126102483D01*
X112132937Y-126098483D01*
X112127937Y-126094483D01*
X112123937Y-126089483D01*
X112119937Y-126085483D01*
X112115937Y-126080483D01*
X112111937Y-126074483D01*
X112108937Y-126069483D01*
X112105937Y-126063483D01*
X112102937Y-126058483D01*
X112096937Y-126040483D01*
X112095937Y-126034483D01*
X112093937Y-126028483D01*
X112093937Y-126022483D01*
X112092937Y-126015483D01*
X112092937Y-125679483D01*
X111706937Y-125679483D01*
X111699937Y-125678483D01*
X111693937Y-125678483D01*
X111687937Y-125676483D01*
X111681937Y-125675483D01*
X111663937Y-125669483D01*
X111658937Y-125666483D01*
X111652937Y-125663483D01*
X111647937Y-125660483D01*
X111641937Y-125656483D01*
X111636937Y-125652483D01*
X111632937Y-125648483D01*
X111627937Y-125644483D01*
X111623937Y-125639483D01*
X111619937Y-125635483D01*
X111615937Y-125630483D01*
X111611937Y-125624483D01*
X111608937Y-125619483D01*
X111605937Y-125613483D01*
X111602937Y-125608483D01*
X111596937Y-125590483D01*
X111595937Y-125584483D01*
X111593937Y-125578483D01*
X111593937Y-125572483D01*
X111592937Y-125565483D01*
X111592937Y-125403483D01*
X111593937Y-125396483D01*
X111593937Y-125390483D01*
X111595937Y-125384483D01*
X111596937Y-125378483D01*
X111602937Y-125360483D01*
X111605937Y-125355483D01*
X111608937Y-125349483D01*
X111611937Y-125344483D01*
X111615937Y-125338483D01*
X111619937Y-125333483D01*
X111623937Y-125329483D01*
X111627937Y-125324483D01*
X111632937Y-125320483D01*
X111636937Y-125316483D01*
X111641937Y-125312483D01*
X111647937Y-125308483D01*
X111652937Y-125305483D01*
X111658937Y-125302483D01*
X111663937Y-125299483D01*
X111681937Y-125293483D01*
X111687937Y-125292483D01*
X111693937Y-125290483D01*
X111699937Y-125290483D01*
X111706937Y-125289483D01*
X112092937Y-125289483D01*
X112092937Y-125179483D01*
X111706937Y-125179483D01*
X111699937Y-125178483D01*
X111693937Y-125178483D01*
X111687937Y-125176483D01*
X111681937Y-125175483D01*
X111663937Y-125169483D01*
X111658937Y-125166483D01*
X111652937Y-125163483D01*
X111647937Y-125160483D01*
X111641937Y-125156483D01*
X111636937Y-125152483D01*
X111632937Y-125148483D01*
X111627937Y-125144483D01*
X111623937Y-125139483D01*
X111619937Y-125135483D01*
X111615937Y-125130483D01*
X111611937Y-125124483D01*
X111608937Y-125119483D01*
X111605937Y-125113483D01*
X111602937Y-125108483D01*
X111596937Y-125090483D01*
X111595937Y-125084483D01*
X111593937Y-125078483D01*
X111593937Y-125072483D01*
X111592937Y-125065483D01*
X111592937Y-124903483D01*
X111593937Y-124896483D01*
X111593937Y-124890483D01*
X111595937Y-124884483D01*
X111596937Y-124878483D01*
X111602937Y-124860483D01*
X111605937Y-124855483D01*
X111608937Y-124849483D01*
X111611937Y-124844483D01*
X111615937Y-124838483D01*
X111619937Y-124833483D01*
X111623937Y-124829483D01*
X111627937Y-124824483D01*
X111632937Y-124820483D01*
X111636937Y-124816483D01*
X111641937Y-124812483D01*
X111647937Y-124808483D01*
X111652937Y-124805483D01*
X111658937Y-124802483D01*
X111663937Y-124799483D01*
X111681937Y-124793483D01*
X111687937Y-124792483D01*
X111693937Y-124790483D01*
X111699937Y-124790483D01*
X111706937Y-124789483D01*
X112092937Y-124789483D01*
X112092937Y-124453483D01*
X112093937Y-124446483D01*
X112093937Y-124440483D01*
X112095937Y-124434483D01*
X112096937Y-124428483D01*
X112102937Y-124410483D01*
X112105937Y-124405483D01*
X112108937Y-124399483D01*
X112111937Y-124394483D01*
X112115937Y-124388483D01*
X112119937Y-124383483D01*
X112123937Y-124379483D01*
X112127937Y-124374483D01*
X112132937Y-124370483D01*
X112136937Y-124366483D01*
X112141937Y-124362483D01*
X112147937Y-124358483D01*
X112152937Y-124355483D01*
X112158937Y-124352483D01*
X112163937Y-124349483D01*
X112181937Y-124343483D01*
X112187937Y-124342483D01*
X112193937Y-124340483D01*
X112199937Y-124340483D01*
X112206937Y-124339483D01*
X114518937Y-124339483D01*
X114525937Y-124340483D01*
G37*
X114525937Y-124340483D02*
X114531937Y-124340483D01*
X114537937Y-124342483D01*
X114543937Y-124343483D01*
X114561937Y-124349483D01*
X114566937Y-124352483D01*
X114572937Y-124355483D01*
X114577937Y-124358483D01*
X114583937Y-124362483D01*
X114588937Y-124366483D01*
X114592937Y-124370483D01*
X114597937Y-124374483D01*
X114601937Y-124379483D01*
X114605937Y-124383483D01*
X114609937Y-124388483D01*
X114613937Y-124394483D01*
X114616937Y-124399483D01*
X114619937Y-124405483D01*
X114622937Y-124410483D01*
X114628937Y-124428483D01*
X114629937Y-124434483D01*
X114631937Y-124440483D01*
X114631937Y-124446483D01*
X114632937Y-124453483D01*
X114632937Y-124789483D01*
X115018937Y-124789483D01*
X115025937Y-124790483D01*
X115031937Y-124790483D01*
X115037937Y-124792483D01*
X115043937Y-124793483D01*
X115061937Y-124799483D01*
X115066937Y-124802483D01*
X115072937Y-124805483D01*
X115077937Y-124808483D01*
X115083937Y-124812483D01*
X115088937Y-124816483D01*
X115092937Y-124820483D01*
X115097937Y-124824483D01*
X115101937Y-124829483D01*
X115105937Y-124833483D01*
X115109937Y-124838483D01*
X115113937Y-124844483D01*
X115116937Y-124849483D01*
X115119937Y-124855483D01*
X115122937Y-124860483D01*
X115128937Y-124878483D01*
X115129937Y-124884483D01*
X115131937Y-124890483D01*
X115131937Y-124896483D01*
X115132937Y-124903483D01*
X115132937Y-125065483D01*
X115131937Y-125072483D01*
X115131937Y-125078483D01*
X115129937Y-125084483D01*
X115128937Y-125090483D01*
X115122937Y-125108483D01*
X115119937Y-125113483D01*
X115116937Y-125119483D01*
X115113937Y-125124483D01*
X115109937Y-125130483D01*
X115105937Y-125135483D01*
X115101937Y-125139483D01*
X115097937Y-125144483D01*
X115092937Y-125148483D01*
X115088937Y-125152483D01*
X115083937Y-125156483D01*
X115077937Y-125160483D01*
X115072937Y-125163483D01*
X115066937Y-125166483D01*
X115061937Y-125169483D01*
X115043937Y-125175483D01*
X115037937Y-125176483D01*
X115031937Y-125178483D01*
X115025937Y-125178483D01*
X115018937Y-125179483D01*
X114632937Y-125179483D01*
X114632937Y-125289483D01*
X115018937Y-125289483D01*
X115025937Y-125290483D01*
X115031937Y-125290483D01*
X115037937Y-125292483D01*
X115043937Y-125293483D01*
X115061937Y-125299483D01*
X115066937Y-125302483D01*
X115072937Y-125305483D01*
X115077937Y-125308483D01*
X115083937Y-125312483D01*
X115088937Y-125316483D01*
X115092937Y-125320483D01*
X115097937Y-125324483D01*
X115101937Y-125329483D01*
X115105937Y-125333483D01*
X115109937Y-125338483D01*
X115113937Y-125344483D01*
X115116937Y-125349483D01*
X115119937Y-125355483D01*
X115122937Y-125360483D01*
X115128937Y-125378483D01*
X115129937Y-125384483D01*
X115131937Y-125390483D01*
X115131937Y-125396483D01*
X115132937Y-125403483D01*
X115132937Y-125565483D01*
X115131937Y-125572483D01*
X115131937Y-125578483D01*
X115129937Y-125584483D01*
X115128937Y-125590483D01*
X115122937Y-125608483D01*
X115119937Y-125613483D01*
X115116937Y-125619483D01*
X115113937Y-125624483D01*
X115109937Y-125630483D01*
X115105937Y-125635483D01*
X115101937Y-125639483D01*
X115097937Y-125644483D01*
X115092937Y-125648483D01*
X115088937Y-125652483D01*
X115083937Y-125656483D01*
X115077937Y-125660483D01*
X115072937Y-125663483D01*
X115066937Y-125666483D01*
X115061937Y-125669483D01*
X115043937Y-125675483D01*
X115037937Y-125676483D01*
X115031937Y-125678483D01*
X115025937Y-125678483D01*
X115018937Y-125679483D01*
X114632937Y-125679483D01*
X114632937Y-126015483D01*
X114631937Y-126022483D01*
X114631937Y-126028483D01*
X114629937Y-126034483D01*
X114628937Y-126040483D01*
X114622937Y-126058483D01*
X114619937Y-126063483D01*
X114616937Y-126069483D01*
X114613937Y-126074483D01*
X114609937Y-126080483D01*
X114605937Y-126085483D01*
X114601937Y-126089483D01*
X114597937Y-126094483D01*
X114592937Y-126098483D01*
X114588937Y-126102483D01*
X114583937Y-126106483D01*
X114577937Y-126110483D01*
X114572937Y-126113483D01*
X114566937Y-126116483D01*
X114561937Y-126119483D01*
X114543937Y-126125483D01*
X114537937Y-126126483D01*
X114531937Y-126128483D01*
X114525937Y-126128483D01*
X114518937Y-126129483D01*
X112206937Y-126129483D01*
X112199937Y-126128483D01*
X112193937Y-126128483D01*
X112187937Y-126126483D01*
X112181937Y-126125483D01*
X112163937Y-126119483D01*
X112158937Y-126116483D01*
X112152937Y-126113483D01*
X112147937Y-126110483D01*
X112141937Y-126106483D01*
X112136937Y-126102483D01*
X112132937Y-126098483D01*
X112127937Y-126094483D01*
X112123937Y-126089483D01*
X112119937Y-126085483D01*
X112115937Y-126080483D01*
X112111937Y-126074483D01*
X112108937Y-126069483D01*
X112105937Y-126063483D01*
X112102937Y-126058483D01*
X112096937Y-126040483D01*
X112095937Y-126034483D01*
X112093937Y-126028483D01*
X112093937Y-126022483D01*
X112092937Y-126015483D01*
X112092937Y-125679483D01*
X111706937Y-125679483D01*
X111699937Y-125678483D01*
X111693937Y-125678483D01*
X111687937Y-125676483D01*
X111681937Y-125675483D01*
X111663937Y-125669483D01*
X111658937Y-125666483D01*
X111652937Y-125663483D01*
X111647937Y-125660483D01*
X111641937Y-125656483D01*
X111636937Y-125652483D01*
X111632937Y-125648483D01*
X111627937Y-125644483D01*
X111623937Y-125639483D01*
X111619937Y-125635483D01*
X111615937Y-125630483D01*
X111611937Y-125624483D01*
X111608937Y-125619483D01*
X111605937Y-125613483D01*
X111602937Y-125608483D01*
X111596937Y-125590483D01*
X111595937Y-125584483D01*
X111593937Y-125578483D01*
X111593937Y-125572483D01*
X111592937Y-125565483D01*
X111592937Y-125403483D01*
X111593937Y-125396483D01*
X111593937Y-125390483D01*
X111595937Y-125384483D01*
X111596937Y-125378483D01*
X111602937Y-125360483D01*
X111605937Y-125355483D01*
X111608937Y-125349483D01*
X111611937Y-125344483D01*
X111615937Y-125338483D01*
X111619937Y-125333483D01*
X111623937Y-125329483D01*
X111627937Y-125324483D01*
X111632937Y-125320483D01*
X111636937Y-125316483D01*
X111641937Y-125312483D01*
X111647937Y-125308483D01*
X111652937Y-125305483D01*
X111658937Y-125302483D01*
X111663937Y-125299483D01*
X111681937Y-125293483D01*
X111687937Y-125292483D01*
X111693937Y-125290483D01*
X111699937Y-125290483D01*
X111706937Y-125289483D01*
X112092937Y-125289483D01*
X112092937Y-125179483D01*
X111706937Y-125179483D01*
X111699937Y-125178483D01*
X111693937Y-125178483D01*
X111687937Y-125176483D01*
X111681937Y-125175483D01*
X111663937Y-125169483D01*
X111658937Y-125166483D01*
X111652937Y-125163483D01*
X111647937Y-125160483D01*
X111641937Y-125156483D01*
X111636937Y-125152483D01*
X111632937Y-125148483D01*
X111627937Y-125144483D01*
X111623937Y-125139483D01*
X111619937Y-125135483D01*
X111615937Y-125130483D01*
X111611937Y-125124483D01*
X111608937Y-125119483D01*
X111605937Y-125113483D01*
X111602937Y-125108483D01*
X111596937Y-125090483D01*
X111595937Y-125084483D01*
X111593937Y-125078483D01*
X111593937Y-125072483D01*
X111592937Y-125065483D01*
X111592937Y-124903483D01*
X111593937Y-124896483D01*
X111593937Y-124890483D01*
X111595937Y-124884483D01*
X111596937Y-124878483D01*
X111602937Y-124860483D01*
X111605937Y-124855483D01*
X111608937Y-124849483D01*
X111611937Y-124844483D01*
X111615937Y-124838483D01*
X111619937Y-124833483D01*
X111623937Y-124829483D01*
X111627937Y-124824483D01*
X111632937Y-124820483D01*
X111636937Y-124816483D01*
X111641937Y-124812483D01*
X111647937Y-124808483D01*
X111652937Y-124805483D01*
X111658937Y-124802483D01*
X111663937Y-124799483D01*
X111681937Y-124793483D01*
X111687937Y-124792483D01*
X111693937Y-124790483D01*
X111699937Y-124790483D01*
X111706937Y-124789483D01*
X112092937Y-124789483D01*
X112092937Y-124453483D01*
X112093937Y-124446483D01*
X112093937Y-124440483D01*
X112095937Y-124434483D01*
X112096937Y-124428483D01*
X112102937Y-124410483D01*
X112105937Y-124405483D01*
X112108937Y-124399483D01*
X112111937Y-124394483D01*
X112115937Y-124388483D01*
X112119937Y-124383483D01*
X112123937Y-124379483D01*
X112127937Y-124374483D01*
X112132937Y-124370483D01*
X112136937Y-124366483D01*
X112141937Y-124362483D01*
X112147937Y-124358483D01*
X112152937Y-124355483D01*
X112158937Y-124352483D01*
X112163937Y-124349483D01*
X112181937Y-124343483D01*
X112187937Y-124342483D01*
X112193937Y-124340483D01*
X112199937Y-124340483D01*
X112206937Y-124339483D01*
X114518937Y-124339483D01*
X114525937Y-124340483D01*
G36*
X112445937Y-123465483D02*
G01*
X112451937Y-123465483D01*
X112457937Y-123467483D01*
X112463937Y-123468483D01*
X112481937Y-123474483D01*
X112486937Y-123477483D01*
X112492937Y-123480483D01*
X112497937Y-123483483D01*
X112503937Y-123487483D01*
X112508937Y-123491483D01*
X112512937Y-123495483D01*
X112517937Y-123499483D01*
X112521937Y-123504483D01*
X112525937Y-123508483D01*
X112529937Y-123513483D01*
X112533937Y-123519483D01*
X112536937Y-123524483D01*
X112539937Y-123530483D01*
X112542937Y-123535483D01*
X112548937Y-123553483D01*
X112549937Y-123559483D01*
X112551937Y-123565483D01*
X112551937Y-123571483D01*
X112552937Y-123578483D01*
X112552937Y-124090483D01*
X112551937Y-124097483D01*
X112551937Y-124103483D01*
X112549937Y-124109483D01*
X112548937Y-124115483D01*
X112542937Y-124133483D01*
X112539937Y-124138483D01*
X112536937Y-124144483D01*
X112533937Y-124149483D01*
X112529937Y-124155483D01*
X112525937Y-124160483D01*
X112521937Y-124164483D01*
X112517937Y-124169483D01*
X112512937Y-124173483D01*
X112508937Y-124177483D01*
X112503937Y-124181483D01*
X112497937Y-124185483D01*
X112492937Y-124188483D01*
X112486937Y-124191483D01*
X112481937Y-124194483D01*
X112463937Y-124200483D01*
X112457937Y-124201483D01*
X112451937Y-124203483D01*
X112445937Y-124203483D01*
X112438937Y-124204483D01*
X112286937Y-124204483D01*
X112279937Y-124203483D01*
X112273937Y-124203483D01*
X112267937Y-124201483D01*
X112261937Y-124200483D01*
X112243937Y-124194483D01*
X112238937Y-124191483D01*
X112232937Y-124188483D01*
X112227937Y-124185483D01*
X112221937Y-124181483D01*
X112216937Y-124177483D01*
X112212937Y-124173483D01*
X112207937Y-124169483D01*
X112203937Y-124164483D01*
X112199937Y-124160483D01*
X112195937Y-124155483D01*
X112191937Y-124149483D01*
X112188937Y-124144483D01*
X112185937Y-124138483D01*
X112182937Y-124133483D01*
X112176937Y-124115483D01*
X112175937Y-124109483D01*
X112173937Y-124103483D01*
X112173937Y-124097483D01*
X112172937Y-124090483D01*
X112172937Y-123578483D01*
X112173937Y-123571483D01*
X112173937Y-123565483D01*
X112175937Y-123559483D01*
X112176937Y-123553483D01*
X112182937Y-123535483D01*
X112185937Y-123530483D01*
X112188937Y-123524483D01*
X112191937Y-123519483D01*
X112195937Y-123513483D01*
X112199937Y-123508483D01*
X112203937Y-123504483D01*
X112207937Y-123499483D01*
X112212937Y-123495483D01*
X112216937Y-123491483D01*
X112221937Y-123487483D01*
X112227937Y-123483483D01*
X112232937Y-123480483D01*
X112238937Y-123477483D01*
X112243937Y-123474483D01*
X112261937Y-123468483D01*
X112267937Y-123467483D01*
X112273937Y-123465483D01*
X112279937Y-123465483D01*
X112286937Y-123464483D01*
X112438937Y-123464483D01*
X112445937Y-123465483D01*
G37*
X112445937Y-123465483D02*
X112451937Y-123465483D01*
X112457937Y-123467483D01*
X112463937Y-123468483D01*
X112481937Y-123474483D01*
X112486937Y-123477483D01*
X112492937Y-123480483D01*
X112497937Y-123483483D01*
X112503937Y-123487483D01*
X112508937Y-123491483D01*
X112512937Y-123495483D01*
X112517937Y-123499483D01*
X112521937Y-123504483D01*
X112525937Y-123508483D01*
X112529937Y-123513483D01*
X112533937Y-123519483D01*
X112536937Y-123524483D01*
X112539937Y-123530483D01*
X112542937Y-123535483D01*
X112548937Y-123553483D01*
X112549937Y-123559483D01*
X112551937Y-123565483D01*
X112551937Y-123571483D01*
X112552937Y-123578483D01*
X112552937Y-124090483D01*
X112551937Y-124097483D01*
X112551937Y-124103483D01*
X112549937Y-124109483D01*
X112548937Y-124115483D01*
X112542937Y-124133483D01*
X112539937Y-124138483D01*
X112536937Y-124144483D01*
X112533937Y-124149483D01*
X112529937Y-124155483D01*
X112525937Y-124160483D01*
X112521937Y-124164483D01*
X112517937Y-124169483D01*
X112512937Y-124173483D01*
X112508937Y-124177483D01*
X112503937Y-124181483D01*
X112497937Y-124185483D01*
X112492937Y-124188483D01*
X112486937Y-124191483D01*
X112481937Y-124194483D01*
X112463937Y-124200483D01*
X112457937Y-124201483D01*
X112451937Y-124203483D01*
X112445937Y-124203483D01*
X112438937Y-124204483D01*
X112286937Y-124204483D01*
X112279937Y-124203483D01*
X112273937Y-124203483D01*
X112267937Y-124201483D01*
X112261937Y-124200483D01*
X112243937Y-124194483D01*
X112238937Y-124191483D01*
X112232937Y-124188483D01*
X112227937Y-124185483D01*
X112221937Y-124181483D01*
X112216937Y-124177483D01*
X112212937Y-124173483D01*
X112207937Y-124169483D01*
X112203937Y-124164483D01*
X112199937Y-124160483D01*
X112195937Y-124155483D01*
X112191937Y-124149483D01*
X112188937Y-124144483D01*
X112185937Y-124138483D01*
X112182937Y-124133483D01*
X112176937Y-124115483D01*
X112175937Y-124109483D01*
X112173937Y-124103483D01*
X112173937Y-124097483D01*
X112172937Y-124090483D01*
X112172937Y-123578483D01*
X112173937Y-123571483D01*
X112173937Y-123565483D01*
X112175937Y-123559483D01*
X112176937Y-123553483D01*
X112182937Y-123535483D01*
X112185937Y-123530483D01*
X112188937Y-123524483D01*
X112191937Y-123519483D01*
X112195937Y-123513483D01*
X112199937Y-123508483D01*
X112203937Y-123504483D01*
X112207937Y-123499483D01*
X112212937Y-123495483D01*
X112216937Y-123491483D01*
X112221937Y-123487483D01*
X112227937Y-123483483D01*
X112232937Y-123480483D01*
X112238937Y-123477483D01*
X112243937Y-123474483D01*
X112261937Y-123468483D01*
X112267937Y-123467483D01*
X112273937Y-123465483D01*
X112279937Y-123465483D01*
X112286937Y-123464483D01*
X112438937Y-123464483D01*
X112445937Y-123465483D01*
G36*
X113445937Y-123465483D02*
G01*
X113451937Y-123465483D01*
X113457937Y-123467483D01*
X113463937Y-123468483D01*
X113481937Y-123474483D01*
X113486937Y-123477483D01*
X113492937Y-123480483D01*
X113497937Y-123483483D01*
X113503937Y-123487483D01*
X113508937Y-123491483D01*
X113512937Y-123495483D01*
X113517937Y-123499483D01*
X113521937Y-123504483D01*
X113525937Y-123508483D01*
X113529937Y-123513483D01*
X113533937Y-123519483D01*
X113536937Y-123524483D01*
X113539937Y-123530483D01*
X113542937Y-123535483D01*
X113548937Y-123553483D01*
X113549937Y-123559483D01*
X113551937Y-123565483D01*
X113551937Y-123571483D01*
X113552937Y-123578483D01*
X113552937Y-124090483D01*
X113551937Y-124097483D01*
X113551937Y-124103483D01*
X113549937Y-124109483D01*
X113548937Y-124115483D01*
X113542937Y-124133483D01*
X113539937Y-124138483D01*
X113536937Y-124144483D01*
X113533937Y-124149483D01*
X113529937Y-124155483D01*
X113525937Y-124160483D01*
X113521937Y-124164483D01*
X113517937Y-124169483D01*
X113512937Y-124173483D01*
X113508937Y-124177483D01*
X113503937Y-124181483D01*
X113497937Y-124185483D01*
X113492937Y-124188483D01*
X113486937Y-124191483D01*
X113481937Y-124194483D01*
X113463937Y-124200483D01*
X113457937Y-124201483D01*
X113451937Y-124203483D01*
X113445937Y-124203483D01*
X113438937Y-124204483D01*
X113286937Y-124204483D01*
X113279937Y-124203483D01*
X113273937Y-124203483D01*
X113267937Y-124201483D01*
X113261937Y-124200483D01*
X113243937Y-124194483D01*
X113238937Y-124191483D01*
X113232937Y-124188483D01*
X113227937Y-124185483D01*
X113221937Y-124181483D01*
X113216937Y-124177483D01*
X113212937Y-124173483D01*
X113207937Y-124169483D01*
X113203937Y-124164483D01*
X113199937Y-124160483D01*
X113195937Y-124155483D01*
X113191937Y-124149483D01*
X113188937Y-124144483D01*
X113185937Y-124138483D01*
X113182937Y-124133483D01*
X113176937Y-124115483D01*
X113175937Y-124109483D01*
X113173937Y-124103483D01*
X113173937Y-124097483D01*
X113172937Y-124090483D01*
X113172937Y-123578483D01*
X113173937Y-123571483D01*
X113173937Y-123565483D01*
X113175937Y-123559483D01*
X113176937Y-123553483D01*
X113182937Y-123535483D01*
X113185937Y-123530483D01*
X113188937Y-123524483D01*
X113191937Y-123519483D01*
X113195937Y-123513483D01*
X113199937Y-123508483D01*
X113203937Y-123504483D01*
X113207937Y-123499483D01*
X113212937Y-123495483D01*
X113216937Y-123491483D01*
X113221937Y-123487483D01*
X113227937Y-123483483D01*
X113232937Y-123480483D01*
X113238937Y-123477483D01*
X113243937Y-123474483D01*
X113261937Y-123468483D01*
X113267937Y-123467483D01*
X113273937Y-123465483D01*
X113279937Y-123465483D01*
X113286937Y-123464483D01*
X113438937Y-123464483D01*
X113445937Y-123465483D01*
G37*
X113445937Y-123465483D02*
X113451937Y-123465483D01*
X113457937Y-123467483D01*
X113463937Y-123468483D01*
X113481937Y-123474483D01*
X113486937Y-123477483D01*
X113492937Y-123480483D01*
X113497937Y-123483483D01*
X113503937Y-123487483D01*
X113508937Y-123491483D01*
X113512937Y-123495483D01*
X113517937Y-123499483D01*
X113521937Y-123504483D01*
X113525937Y-123508483D01*
X113529937Y-123513483D01*
X113533937Y-123519483D01*
X113536937Y-123524483D01*
X113539937Y-123530483D01*
X113542937Y-123535483D01*
X113548937Y-123553483D01*
X113549937Y-123559483D01*
X113551937Y-123565483D01*
X113551937Y-123571483D01*
X113552937Y-123578483D01*
X113552937Y-124090483D01*
X113551937Y-124097483D01*
X113551937Y-124103483D01*
X113549937Y-124109483D01*
X113548937Y-124115483D01*
X113542937Y-124133483D01*
X113539937Y-124138483D01*
X113536937Y-124144483D01*
X113533937Y-124149483D01*
X113529937Y-124155483D01*
X113525937Y-124160483D01*
X113521937Y-124164483D01*
X113517937Y-124169483D01*
X113512937Y-124173483D01*
X113508937Y-124177483D01*
X113503937Y-124181483D01*
X113497937Y-124185483D01*
X113492937Y-124188483D01*
X113486937Y-124191483D01*
X113481937Y-124194483D01*
X113463937Y-124200483D01*
X113457937Y-124201483D01*
X113451937Y-124203483D01*
X113445937Y-124203483D01*
X113438937Y-124204483D01*
X113286937Y-124204483D01*
X113279937Y-124203483D01*
X113273937Y-124203483D01*
X113267937Y-124201483D01*
X113261937Y-124200483D01*
X113243937Y-124194483D01*
X113238937Y-124191483D01*
X113232937Y-124188483D01*
X113227937Y-124185483D01*
X113221937Y-124181483D01*
X113216937Y-124177483D01*
X113212937Y-124173483D01*
X113207937Y-124169483D01*
X113203937Y-124164483D01*
X113199937Y-124160483D01*
X113195937Y-124155483D01*
X113191937Y-124149483D01*
X113188937Y-124144483D01*
X113185937Y-124138483D01*
X113182937Y-124133483D01*
X113176937Y-124115483D01*
X113175937Y-124109483D01*
X113173937Y-124103483D01*
X113173937Y-124097483D01*
X113172937Y-124090483D01*
X113172937Y-123578483D01*
X113173937Y-123571483D01*
X113173937Y-123565483D01*
X113175937Y-123559483D01*
X113176937Y-123553483D01*
X113182937Y-123535483D01*
X113185937Y-123530483D01*
X113188937Y-123524483D01*
X113191937Y-123519483D01*
X113195937Y-123513483D01*
X113199937Y-123508483D01*
X113203937Y-123504483D01*
X113207937Y-123499483D01*
X113212937Y-123495483D01*
X113216937Y-123491483D01*
X113221937Y-123487483D01*
X113227937Y-123483483D01*
X113232937Y-123480483D01*
X113238937Y-123477483D01*
X113243937Y-123474483D01*
X113261937Y-123468483D01*
X113267937Y-123467483D01*
X113273937Y-123465483D01*
X113279937Y-123465483D01*
X113286937Y-123464483D01*
X113438937Y-123464483D01*
X113445937Y-123465483D01*
G36*
X113445937Y-126265483D02*
G01*
X113451937Y-126265483D01*
X113457937Y-126267483D01*
X113463937Y-126268483D01*
X113481937Y-126274483D01*
X113486937Y-126277483D01*
X113492937Y-126280483D01*
X113497937Y-126283483D01*
X113503937Y-126287483D01*
X113508937Y-126291483D01*
X113512937Y-126295483D01*
X113517937Y-126299483D01*
X113521937Y-126304483D01*
X113525937Y-126308483D01*
X113529937Y-126313483D01*
X113533937Y-126319483D01*
X113536937Y-126324483D01*
X113539937Y-126330483D01*
X113542937Y-126335483D01*
X113548937Y-126353483D01*
X113549937Y-126359483D01*
X113551937Y-126365483D01*
X113551937Y-126371483D01*
X113552937Y-126378483D01*
X113552937Y-126890483D01*
X113551937Y-126897483D01*
X113551937Y-126903483D01*
X113549937Y-126909483D01*
X113548937Y-126915483D01*
X113542937Y-126933483D01*
X113539937Y-126938483D01*
X113536937Y-126944483D01*
X113533937Y-126949483D01*
X113529937Y-126955483D01*
X113525937Y-126960483D01*
X113521937Y-126964483D01*
X113517937Y-126969483D01*
X113512937Y-126973483D01*
X113508937Y-126977483D01*
X113503937Y-126981483D01*
X113497937Y-126985483D01*
X113492937Y-126988483D01*
X113486937Y-126991483D01*
X113481937Y-126994483D01*
X113463937Y-127000483D01*
X113457937Y-127001483D01*
X113451937Y-127003483D01*
X113445937Y-127003483D01*
X113438937Y-127004483D01*
X113286937Y-127004483D01*
X113279937Y-127003483D01*
X113273937Y-127003483D01*
X113267937Y-127001483D01*
X113261937Y-127000483D01*
X113243937Y-126994483D01*
X113238937Y-126991483D01*
X113232937Y-126988483D01*
X113227937Y-126985483D01*
X113221937Y-126981483D01*
X113216937Y-126977483D01*
X113212937Y-126973483D01*
X113207937Y-126969483D01*
X113203937Y-126964483D01*
X113199937Y-126960483D01*
X113195937Y-126955483D01*
X113191937Y-126949483D01*
X113188937Y-126944483D01*
X113185937Y-126938483D01*
X113182937Y-126933483D01*
X113176937Y-126915483D01*
X113175937Y-126909483D01*
X113173937Y-126903483D01*
X113173937Y-126897483D01*
X113172937Y-126890483D01*
X113172937Y-126378483D01*
X113173937Y-126371483D01*
X113173937Y-126365483D01*
X113175937Y-126359483D01*
X113176937Y-126353483D01*
X113182937Y-126335483D01*
X113185937Y-126330483D01*
X113188937Y-126324483D01*
X113191937Y-126319483D01*
X113195937Y-126313483D01*
X113199937Y-126308483D01*
X113203937Y-126304483D01*
X113207937Y-126299483D01*
X113212937Y-126295483D01*
X113216937Y-126291483D01*
X113221937Y-126287483D01*
X113227937Y-126283483D01*
X113232937Y-126280483D01*
X113238937Y-126277483D01*
X113243937Y-126274483D01*
X113261937Y-126268483D01*
X113267937Y-126267483D01*
X113273937Y-126265483D01*
X113279937Y-126265483D01*
X113286937Y-126264483D01*
X113438937Y-126264483D01*
X113445937Y-126265483D01*
G37*
X113445937Y-126265483D02*
X113451937Y-126265483D01*
X113457937Y-126267483D01*
X113463937Y-126268483D01*
X113481937Y-126274483D01*
X113486937Y-126277483D01*
X113492937Y-126280483D01*
X113497937Y-126283483D01*
X113503937Y-126287483D01*
X113508937Y-126291483D01*
X113512937Y-126295483D01*
X113517937Y-126299483D01*
X113521937Y-126304483D01*
X113525937Y-126308483D01*
X113529937Y-126313483D01*
X113533937Y-126319483D01*
X113536937Y-126324483D01*
X113539937Y-126330483D01*
X113542937Y-126335483D01*
X113548937Y-126353483D01*
X113549937Y-126359483D01*
X113551937Y-126365483D01*
X113551937Y-126371483D01*
X113552937Y-126378483D01*
X113552937Y-126890483D01*
X113551937Y-126897483D01*
X113551937Y-126903483D01*
X113549937Y-126909483D01*
X113548937Y-126915483D01*
X113542937Y-126933483D01*
X113539937Y-126938483D01*
X113536937Y-126944483D01*
X113533937Y-126949483D01*
X113529937Y-126955483D01*
X113525937Y-126960483D01*
X113521937Y-126964483D01*
X113517937Y-126969483D01*
X113512937Y-126973483D01*
X113508937Y-126977483D01*
X113503937Y-126981483D01*
X113497937Y-126985483D01*
X113492937Y-126988483D01*
X113486937Y-126991483D01*
X113481937Y-126994483D01*
X113463937Y-127000483D01*
X113457937Y-127001483D01*
X113451937Y-127003483D01*
X113445937Y-127003483D01*
X113438937Y-127004483D01*
X113286937Y-127004483D01*
X113279937Y-127003483D01*
X113273937Y-127003483D01*
X113267937Y-127001483D01*
X113261937Y-127000483D01*
X113243937Y-126994483D01*
X113238937Y-126991483D01*
X113232937Y-126988483D01*
X113227937Y-126985483D01*
X113221937Y-126981483D01*
X113216937Y-126977483D01*
X113212937Y-126973483D01*
X113207937Y-126969483D01*
X113203937Y-126964483D01*
X113199937Y-126960483D01*
X113195937Y-126955483D01*
X113191937Y-126949483D01*
X113188937Y-126944483D01*
X113185937Y-126938483D01*
X113182937Y-126933483D01*
X113176937Y-126915483D01*
X113175937Y-126909483D01*
X113173937Y-126903483D01*
X113173937Y-126897483D01*
X113172937Y-126890483D01*
X113172937Y-126378483D01*
X113173937Y-126371483D01*
X113173937Y-126365483D01*
X113175937Y-126359483D01*
X113176937Y-126353483D01*
X113182937Y-126335483D01*
X113185937Y-126330483D01*
X113188937Y-126324483D01*
X113191937Y-126319483D01*
X113195937Y-126313483D01*
X113199937Y-126308483D01*
X113203937Y-126304483D01*
X113207937Y-126299483D01*
X113212937Y-126295483D01*
X113216937Y-126291483D01*
X113221937Y-126287483D01*
X113227937Y-126283483D01*
X113232937Y-126280483D01*
X113238937Y-126277483D01*
X113243937Y-126274483D01*
X113261937Y-126268483D01*
X113267937Y-126267483D01*
X113273937Y-126265483D01*
X113279937Y-126265483D01*
X113286937Y-126264483D01*
X113438937Y-126264483D01*
X113445937Y-126265483D01*
G36*
X114445937Y-123465483D02*
G01*
X114451937Y-123465483D01*
X114457937Y-123467483D01*
X114463937Y-123468483D01*
X114481937Y-123474483D01*
X114486937Y-123477483D01*
X114492937Y-123480483D01*
X114497937Y-123483483D01*
X114503937Y-123487483D01*
X114508937Y-123491483D01*
X114512937Y-123495483D01*
X114517937Y-123499483D01*
X114521937Y-123504483D01*
X114525937Y-123508483D01*
X114529937Y-123513483D01*
X114533937Y-123519483D01*
X114536937Y-123524483D01*
X114539937Y-123530483D01*
X114542937Y-123535483D01*
X114548937Y-123553483D01*
X114549937Y-123559483D01*
X114551937Y-123565483D01*
X114551937Y-123571483D01*
X114552937Y-123578483D01*
X114552937Y-124090483D01*
X114551937Y-124097483D01*
X114551937Y-124103483D01*
X114549937Y-124109483D01*
X114548937Y-124115483D01*
X114542937Y-124133483D01*
X114539937Y-124138483D01*
X114536937Y-124144483D01*
X114533937Y-124149483D01*
X114529937Y-124155483D01*
X114525937Y-124160483D01*
X114521937Y-124164483D01*
X114517937Y-124169483D01*
X114512937Y-124173483D01*
X114508937Y-124177483D01*
X114503937Y-124181483D01*
X114497937Y-124185483D01*
X114492937Y-124188483D01*
X114486937Y-124191483D01*
X114481937Y-124194483D01*
X114463937Y-124200483D01*
X114457937Y-124201483D01*
X114451937Y-124203483D01*
X114445937Y-124203483D01*
X114438937Y-124204483D01*
X114286937Y-124204483D01*
X114279937Y-124203483D01*
X114273937Y-124203483D01*
X114267937Y-124201483D01*
X114261937Y-124200483D01*
X114243937Y-124194483D01*
X114238937Y-124191483D01*
X114232937Y-124188483D01*
X114227937Y-124185483D01*
X114221937Y-124181483D01*
X114216937Y-124177483D01*
X114212937Y-124173483D01*
X114207937Y-124169483D01*
X114203937Y-124164483D01*
X114199937Y-124160483D01*
X114195937Y-124155483D01*
X114191937Y-124149483D01*
X114188937Y-124144483D01*
X114185937Y-124138483D01*
X114182937Y-124133483D01*
X114176937Y-124115483D01*
X114175937Y-124109483D01*
X114173937Y-124103483D01*
X114173937Y-124097483D01*
X114172937Y-124090483D01*
X114172937Y-123578483D01*
X114173937Y-123571483D01*
X114173937Y-123565483D01*
X114175937Y-123559483D01*
X114176937Y-123553483D01*
X114182937Y-123535483D01*
X114185937Y-123530483D01*
X114188937Y-123524483D01*
X114191937Y-123519483D01*
X114195937Y-123513483D01*
X114199937Y-123508483D01*
X114203937Y-123504483D01*
X114207937Y-123499483D01*
X114212937Y-123495483D01*
X114216937Y-123491483D01*
X114221937Y-123487483D01*
X114227937Y-123483483D01*
X114232937Y-123480483D01*
X114238937Y-123477483D01*
X114243937Y-123474483D01*
X114261937Y-123468483D01*
X114267937Y-123467483D01*
X114273937Y-123465483D01*
X114279937Y-123465483D01*
X114286937Y-123464483D01*
X114438937Y-123464483D01*
X114445937Y-123465483D01*
G37*
X114445937Y-123465483D02*
X114451937Y-123465483D01*
X114457937Y-123467483D01*
X114463937Y-123468483D01*
X114481937Y-123474483D01*
X114486937Y-123477483D01*
X114492937Y-123480483D01*
X114497937Y-123483483D01*
X114503937Y-123487483D01*
X114508937Y-123491483D01*
X114512937Y-123495483D01*
X114517937Y-123499483D01*
X114521937Y-123504483D01*
X114525937Y-123508483D01*
X114529937Y-123513483D01*
X114533937Y-123519483D01*
X114536937Y-123524483D01*
X114539937Y-123530483D01*
X114542937Y-123535483D01*
X114548937Y-123553483D01*
X114549937Y-123559483D01*
X114551937Y-123565483D01*
X114551937Y-123571483D01*
X114552937Y-123578483D01*
X114552937Y-124090483D01*
X114551937Y-124097483D01*
X114551937Y-124103483D01*
X114549937Y-124109483D01*
X114548937Y-124115483D01*
X114542937Y-124133483D01*
X114539937Y-124138483D01*
X114536937Y-124144483D01*
X114533937Y-124149483D01*
X114529937Y-124155483D01*
X114525937Y-124160483D01*
X114521937Y-124164483D01*
X114517937Y-124169483D01*
X114512937Y-124173483D01*
X114508937Y-124177483D01*
X114503937Y-124181483D01*
X114497937Y-124185483D01*
X114492937Y-124188483D01*
X114486937Y-124191483D01*
X114481937Y-124194483D01*
X114463937Y-124200483D01*
X114457937Y-124201483D01*
X114451937Y-124203483D01*
X114445937Y-124203483D01*
X114438937Y-124204483D01*
X114286937Y-124204483D01*
X114279937Y-124203483D01*
X114273937Y-124203483D01*
X114267937Y-124201483D01*
X114261937Y-124200483D01*
X114243937Y-124194483D01*
X114238937Y-124191483D01*
X114232937Y-124188483D01*
X114227937Y-124185483D01*
X114221937Y-124181483D01*
X114216937Y-124177483D01*
X114212937Y-124173483D01*
X114207937Y-124169483D01*
X114203937Y-124164483D01*
X114199937Y-124160483D01*
X114195937Y-124155483D01*
X114191937Y-124149483D01*
X114188937Y-124144483D01*
X114185937Y-124138483D01*
X114182937Y-124133483D01*
X114176937Y-124115483D01*
X114175937Y-124109483D01*
X114173937Y-124103483D01*
X114173937Y-124097483D01*
X114172937Y-124090483D01*
X114172937Y-123578483D01*
X114173937Y-123571483D01*
X114173937Y-123565483D01*
X114175937Y-123559483D01*
X114176937Y-123553483D01*
X114182937Y-123535483D01*
X114185937Y-123530483D01*
X114188937Y-123524483D01*
X114191937Y-123519483D01*
X114195937Y-123513483D01*
X114199937Y-123508483D01*
X114203937Y-123504483D01*
X114207937Y-123499483D01*
X114212937Y-123495483D01*
X114216937Y-123491483D01*
X114221937Y-123487483D01*
X114227937Y-123483483D01*
X114232937Y-123480483D01*
X114238937Y-123477483D01*
X114243937Y-123474483D01*
X114261937Y-123468483D01*
X114267937Y-123467483D01*
X114273937Y-123465483D01*
X114279937Y-123465483D01*
X114286937Y-123464483D01*
X114438937Y-123464483D01*
X114445937Y-123465483D01*
G36*
X114445937Y-126265483D02*
G01*
X114451937Y-126265483D01*
X114457937Y-126267483D01*
X114463937Y-126268483D01*
X114481937Y-126274483D01*
X114486937Y-126277483D01*
X114492937Y-126280483D01*
X114497937Y-126283483D01*
X114503937Y-126287483D01*
X114508937Y-126291483D01*
X114512937Y-126295483D01*
X114517937Y-126299483D01*
X114521937Y-126304483D01*
X114525937Y-126308483D01*
X114529937Y-126313483D01*
X114533937Y-126319483D01*
X114536937Y-126324483D01*
X114539937Y-126330483D01*
X114542937Y-126335483D01*
X114548937Y-126353483D01*
X114549937Y-126359483D01*
X114551937Y-126365483D01*
X114551937Y-126371483D01*
X114552937Y-126378483D01*
X114552937Y-126890483D01*
X114551937Y-126897483D01*
X114551937Y-126903483D01*
X114549937Y-126909483D01*
X114548937Y-126915483D01*
X114542937Y-126933483D01*
X114539937Y-126938483D01*
X114536937Y-126944483D01*
X114533937Y-126949483D01*
X114529937Y-126955483D01*
X114525937Y-126960483D01*
X114521937Y-126964483D01*
X114517937Y-126969483D01*
X114512937Y-126973483D01*
X114508937Y-126977483D01*
X114503937Y-126981483D01*
X114497937Y-126985483D01*
X114492937Y-126988483D01*
X114486937Y-126991483D01*
X114481937Y-126994483D01*
X114463937Y-127000483D01*
X114457937Y-127001483D01*
X114451937Y-127003483D01*
X114445937Y-127003483D01*
X114438937Y-127004483D01*
X114286937Y-127004483D01*
X114279937Y-127003483D01*
X114273937Y-127003483D01*
X114267937Y-127001483D01*
X114261937Y-127000483D01*
X114243937Y-126994483D01*
X114238937Y-126991483D01*
X114232937Y-126988483D01*
X114227937Y-126985483D01*
X114221937Y-126981483D01*
X114216937Y-126977483D01*
X114212937Y-126973483D01*
X114207937Y-126969483D01*
X114203937Y-126964483D01*
X114199937Y-126960483D01*
X114195937Y-126955483D01*
X114191937Y-126949483D01*
X114188937Y-126944483D01*
X114185937Y-126938483D01*
X114182937Y-126933483D01*
X114176937Y-126915483D01*
X114175937Y-126909483D01*
X114173937Y-126903483D01*
X114173937Y-126897483D01*
X114172937Y-126890483D01*
X114172937Y-126378483D01*
X114173937Y-126371483D01*
X114173937Y-126365483D01*
X114175937Y-126359483D01*
X114176937Y-126353483D01*
X114182937Y-126335483D01*
X114185937Y-126330483D01*
X114188937Y-126324483D01*
X114191937Y-126319483D01*
X114195937Y-126313483D01*
X114199937Y-126308483D01*
X114203937Y-126304483D01*
X114207937Y-126299483D01*
X114212937Y-126295483D01*
X114216937Y-126291483D01*
X114221937Y-126287483D01*
X114227937Y-126283483D01*
X114232937Y-126280483D01*
X114238937Y-126277483D01*
X114243937Y-126274483D01*
X114261937Y-126268483D01*
X114267937Y-126267483D01*
X114273937Y-126265483D01*
X114279937Y-126265483D01*
X114286937Y-126264483D01*
X114438937Y-126264483D01*
X114445937Y-126265483D01*
G37*
X114445937Y-126265483D02*
X114451937Y-126265483D01*
X114457937Y-126267483D01*
X114463937Y-126268483D01*
X114481937Y-126274483D01*
X114486937Y-126277483D01*
X114492937Y-126280483D01*
X114497937Y-126283483D01*
X114503937Y-126287483D01*
X114508937Y-126291483D01*
X114512937Y-126295483D01*
X114517937Y-126299483D01*
X114521937Y-126304483D01*
X114525937Y-126308483D01*
X114529937Y-126313483D01*
X114533937Y-126319483D01*
X114536937Y-126324483D01*
X114539937Y-126330483D01*
X114542937Y-126335483D01*
X114548937Y-126353483D01*
X114549937Y-126359483D01*
X114551937Y-126365483D01*
X114551937Y-126371483D01*
X114552937Y-126378483D01*
X114552937Y-126890483D01*
X114551937Y-126897483D01*
X114551937Y-126903483D01*
X114549937Y-126909483D01*
X114548937Y-126915483D01*
X114542937Y-126933483D01*
X114539937Y-126938483D01*
X114536937Y-126944483D01*
X114533937Y-126949483D01*
X114529937Y-126955483D01*
X114525937Y-126960483D01*
X114521937Y-126964483D01*
X114517937Y-126969483D01*
X114512937Y-126973483D01*
X114508937Y-126977483D01*
X114503937Y-126981483D01*
X114497937Y-126985483D01*
X114492937Y-126988483D01*
X114486937Y-126991483D01*
X114481937Y-126994483D01*
X114463937Y-127000483D01*
X114457937Y-127001483D01*
X114451937Y-127003483D01*
X114445937Y-127003483D01*
X114438937Y-127004483D01*
X114286937Y-127004483D01*
X114279937Y-127003483D01*
X114273937Y-127003483D01*
X114267937Y-127001483D01*
X114261937Y-127000483D01*
X114243937Y-126994483D01*
X114238937Y-126991483D01*
X114232937Y-126988483D01*
X114227937Y-126985483D01*
X114221937Y-126981483D01*
X114216937Y-126977483D01*
X114212937Y-126973483D01*
X114207937Y-126969483D01*
X114203937Y-126964483D01*
X114199937Y-126960483D01*
X114195937Y-126955483D01*
X114191937Y-126949483D01*
X114188937Y-126944483D01*
X114185937Y-126938483D01*
X114182937Y-126933483D01*
X114176937Y-126915483D01*
X114175937Y-126909483D01*
X114173937Y-126903483D01*
X114173937Y-126897483D01*
X114172937Y-126890483D01*
X114172937Y-126378483D01*
X114173937Y-126371483D01*
X114173937Y-126365483D01*
X114175937Y-126359483D01*
X114176937Y-126353483D01*
X114182937Y-126335483D01*
X114185937Y-126330483D01*
X114188937Y-126324483D01*
X114191937Y-126319483D01*
X114195937Y-126313483D01*
X114199937Y-126308483D01*
X114203937Y-126304483D01*
X114207937Y-126299483D01*
X114212937Y-126295483D01*
X114216937Y-126291483D01*
X114221937Y-126287483D01*
X114227937Y-126283483D01*
X114232937Y-126280483D01*
X114238937Y-126277483D01*
X114243937Y-126274483D01*
X114261937Y-126268483D01*
X114267937Y-126267483D01*
X114273937Y-126265483D01*
X114279937Y-126265483D01*
X114286937Y-126264483D01*
X114438937Y-126264483D01*
X114445937Y-126265483D01*
G36*
X113945937Y-123465483D02*
G01*
X113951937Y-123465483D01*
X113957937Y-123467483D01*
X113963937Y-123468483D01*
X113981937Y-123474483D01*
X113986937Y-123477483D01*
X113992937Y-123480483D01*
X113997937Y-123483483D01*
X114003937Y-123487483D01*
X114008937Y-123491483D01*
X114012937Y-123495483D01*
X114017937Y-123499483D01*
X114021937Y-123504483D01*
X114025937Y-123508483D01*
X114029937Y-123513483D01*
X114033937Y-123519483D01*
X114036937Y-123524483D01*
X114039937Y-123530483D01*
X114042937Y-123535483D01*
X114048937Y-123553483D01*
X114049937Y-123559483D01*
X114051937Y-123565483D01*
X114051937Y-123571483D01*
X114052937Y-123578483D01*
X114052937Y-124090483D01*
X114051937Y-124097483D01*
X114051937Y-124103483D01*
X114049937Y-124109483D01*
X114048937Y-124115483D01*
X114042937Y-124133483D01*
X114039937Y-124138483D01*
X114036937Y-124144483D01*
X114033937Y-124149483D01*
X114029937Y-124155483D01*
X114025937Y-124160483D01*
X114021937Y-124164483D01*
X114017937Y-124169483D01*
X114012937Y-124173483D01*
X114008937Y-124177483D01*
X114003937Y-124181483D01*
X113997937Y-124185483D01*
X113992937Y-124188483D01*
X113986937Y-124191483D01*
X113981937Y-124194483D01*
X113963937Y-124200483D01*
X113957937Y-124201483D01*
X113951937Y-124203483D01*
X113945937Y-124203483D01*
X113938937Y-124204483D01*
X113786937Y-124204483D01*
X113779937Y-124203483D01*
X113773937Y-124203483D01*
X113767937Y-124201483D01*
X113761937Y-124200483D01*
X113743937Y-124194483D01*
X113738937Y-124191483D01*
X113732937Y-124188483D01*
X113727937Y-124185483D01*
X113721937Y-124181483D01*
X113716937Y-124177483D01*
X113712937Y-124173483D01*
X113707937Y-124169483D01*
X113703937Y-124164483D01*
X113699937Y-124160483D01*
X113695937Y-124155483D01*
X113691937Y-124149483D01*
X113688937Y-124144483D01*
X113685937Y-124138483D01*
X113682937Y-124133483D01*
X113676937Y-124115483D01*
X113675937Y-124109483D01*
X113673937Y-124103483D01*
X113673937Y-124097483D01*
X113672937Y-124090483D01*
X113672937Y-123578483D01*
X113673937Y-123571483D01*
X113673937Y-123565483D01*
X113675937Y-123559483D01*
X113676937Y-123553483D01*
X113682937Y-123535483D01*
X113685937Y-123530483D01*
X113688937Y-123524483D01*
X113691937Y-123519483D01*
X113695937Y-123513483D01*
X113699937Y-123508483D01*
X113703937Y-123504483D01*
X113707937Y-123499483D01*
X113712937Y-123495483D01*
X113716937Y-123491483D01*
X113721937Y-123487483D01*
X113727937Y-123483483D01*
X113732937Y-123480483D01*
X113738937Y-123477483D01*
X113743937Y-123474483D01*
X113761937Y-123468483D01*
X113767937Y-123467483D01*
X113773937Y-123465483D01*
X113779937Y-123465483D01*
X113786937Y-123464483D01*
X113938937Y-123464483D01*
X113945937Y-123465483D01*
G37*
X113945937Y-123465483D02*
X113951937Y-123465483D01*
X113957937Y-123467483D01*
X113963937Y-123468483D01*
X113981937Y-123474483D01*
X113986937Y-123477483D01*
X113992937Y-123480483D01*
X113997937Y-123483483D01*
X114003937Y-123487483D01*
X114008937Y-123491483D01*
X114012937Y-123495483D01*
X114017937Y-123499483D01*
X114021937Y-123504483D01*
X114025937Y-123508483D01*
X114029937Y-123513483D01*
X114033937Y-123519483D01*
X114036937Y-123524483D01*
X114039937Y-123530483D01*
X114042937Y-123535483D01*
X114048937Y-123553483D01*
X114049937Y-123559483D01*
X114051937Y-123565483D01*
X114051937Y-123571483D01*
X114052937Y-123578483D01*
X114052937Y-124090483D01*
X114051937Y-124097483D01*
X114051937Y-124103483D01*
X114049937Y-124109483D01*
X114048937Y-124115483D01*
X114042937Y-124133483D01*
X114039937Y-124138483D01*
X114036937Y-124144483D01*
X114033937Y-124149483D01*
X114029937Y-124155483D01*
X114025937Y-124160483D01*
X114021937Y-124164483D01*
X114017937Y-124169483D01*
X114012937Y-124173483D01*
X114008937Y-124177483D01*
X114003937Y-124181483D01*
X113997937Y-124185483D01*
X113992937Y-124188483D01*
X113986937Y-124191483D01*
X113981937Y-124194483D01*
X113963937Y-124200483D01*
X113957937Y-124201483D01*
X113951937Y-124203483D01*
X113945937Y-124203483D01*
X113938937Y-124204483D01*
X113786937Y-124204483D01*
X113779937Y-124203483D01*
X113773937Y-124203483D01*
X113767937Y-124201483D01*
X113761937Y-124200483D01*
X113743937Y-124194483D01*
X113738937Y-124191483D01*
X113732937Y-124188483D01*
X113727937Y-124185483D01*
X113721937Y-124181483D01*
X113716937Y-124177483D01*
X113712937Y-124173483D01*
X113707937Y-124169483D01*
X113703937Y-124164483D01*
X113699937Y-124160483D01*
X113695937Y-124155483D01*
X113691937Y-124149483D01*
X113688937Y-124144483D01*
X113685937Y-124138483D01*
X113682937Y-124133483D01*
X113676937Y-124115483D01*
X113675937Y-124109483D01*
X113673937Y-124103483D01*
X113673937Y-124097483D01*
X113672937Y-124090483D01*
X113672937Y-123578483D01*
X113673937Y-123571483D01*
X113673937Y-123565483D01*
X113675937Y-123559483D01*
X113676937Y-123553483D01*
X113682937Y-123535483D01*
X113685937Y-123530483D01*
X113688937Y-123524483D01*
X113691937Y-123519483D01*
X113695937Y-123513483D01*
X113699937Y-123508483D01*
X113703937Y-123504483D01*
X113707937Y-123499483D01*
X113712937Y-123495483D01*
X113716937Y-123491483D01*
X113721937Y-123487483D01*
X113727937Y-123483483D01*
X113732937Y-123480483D01*
X113738937Y-123477483D01*
X113743937Y-123474483D01*
X113761937Y-123468483D01*
X113767937Y-123467483D01*
X113773937Y-123465483D01*
X113779937Y-123465483D01*
X113786937Y-123464483D01*
X113938937Y-123464483D01*
X113945937Y-123465483D01*
G36*
X112445937Y-126265483D02*
G01*
X112451937Y-126265483D01*
X112457937Y-126267483D01*
X112463937Y-126268483D01*
X112481937Y-126274483D01*
X112486937Y-126277483D01*
X112492937Y-126280483D01*
X112497937Y-126283483D01*
X112503937Y-126287483D01*
X112508937Y-126291483D01*
X112512937Y-126295483D01*
X112517937Y-126299483D01*
X112521937Y-126304483D01*
X112525937Y-126308483D01*
X112529937Y-126313483D01*
X112533937Y-126319483D01*
X112536937Y-126324483D01*
X112539937Y-126330483D01*
X112542937Y-126335483D01*
X112548937Y-126353483D01*
X112549937Y-126359483D01*
X112551937Y-126365483D01*
X112551937Y-126371483D01*
X112552937Y-126378483D01*
X112552937Y-126890483D01*
X112551937Y-126897483D01*
X112551937Y-126903483D01*
X112549937Y-126909483D01*
X112548937Y-126915483D01*
X112542937Y-126933483D01*
X112539937Y-126938483D01*
X112536937Y-126944483D01*
X112533937Y-126949483D01*
X112529937Y-126955483D01*
X112525937Y-126960483D01*
X112521937Y-126964483D01*
X112517937Y-126969483D01*
X112512937Y-126973483D01*
X112508937Y-126977483D01*
X112503937Y-126981483D01*
X112497937Y-126985483D01*
X112492937Y-126988483D01*
X112486937Y-126991483D01*
X112481937Y-126994483D01*
X112463937Y-127000483D01*
X112457937Y-127001483D01*
X112451937Y-127003483D01*
X112445937Y-127003483D01*
X112438937Y-127004483D01*
X112286937Y-127004483D01*
X112279937Y-127003483D01*
X112273937Y-127003483D01*
X112267937Y-127001483D01*
X112261937Y-127000483D01*
X112243937Y-126994483D01*
X112238937Y-126991483D01*
X112232937Y-126988483D01*
X112227937Y-126985483D01*
X112221937Y-126981483D01*
X112216937Y-126977483D01*
X112212937Y-126973483D01*
X112207937Y-126969483D01*
X112203937Y-126964483D01*
X112199937Y-126960483D01*
X112195937Y-126955483D01*
X112191937Y-126949483D01*
X112188937Y-126944483D01*
X112185937Y-126938483D01*
X112182937Y-126933483D01*
X112176937Y-126915483D01*
X112175937Y-126909483D01*
X112173937Y-126903483D01*
X112173937Y-126897483D01*
X112172937Y-126890483D01*
X112172937Y-126378483D01*
X112173937Y-126371483D01*
X112173937Y-126365483D01*
X112175937Y-126359483D01*
X112176937Y-126353483D01*
X112182937Y-126335483D01*
X112185937Y-126330483D01*
X112188937Y-126324483D01*
X112191937Y-126319483D01*
X112195937Y-126313483D01*
X112199937Y-126308483D01*
X112203937Y-126304483D01*
X112207937Y-126299483D01*
X112212937Y-126295483D01*
X112216937Y-126291483D01*
X112221937Y-126287483D01*
X112227937Y-126283483D01*
X112232937Y-126280483D01*
X112238937Y-126277483D01*
X112243937Y-126274483D01*
X112261937Y-126268483D01*
X112267937Y-126267483D01*
X112273937Y-126265483D01*
X112279937Y-126265483D01*
X112286937Y-126264483D01*
X112438937Y-126264483D01*
X112445937Y-126265483D01*
G37*
X112445937Y-126265483D02*
X112451937Y-126265483D01*
X112457937Y-126267483D01*
X112463937Y-126268483D01*
X112481937Y-126274483D01*
X112486937Y-126277483D01*
X112492937Y-126280483D01*
X112497937Y-126283483D01*
X112503937Y-126287483D01*
X112508937Y-126291483D01*
X112512937Y-126295483D01*
X112517937Y-126299483D01*
X112521937Y-126304483D01*
X112525937Y-126308483D01*
X112529937Y-126313483D01*
X112533937Y-126319483D01*
X112536937Y-126324483D01*
X112539937Y-126330483D01*
X112542937Y-126335483D01*
X112548937Y-126353483D01*
X112549937Y-126359483D01*
X112551937Y-126365483D01*
X112551937Y-126371483D01*
X112552937Y-126378483D01*
X112552937Y-126890483D01*
X112551937Y-126897483D01*
X112551937Y-126903483D01*
X112549937Y-126909483D01*
X112548937Y-126915483D01*
X112542937Y-126933483D01*
X112539937Y-126938483D01*
X112536937Y-126944483D01*
X112533937Y-126949483D01*
X112529937Y-126955483D01*
X112525937Y-126960483D01*
X112521937Y-126964483D01*
X112517937Y-126969483D01*
X112512937Y-126973483D01*
X112508937Y-126977483D01*
X112503937Y-126981483D01*
X112497937Y-126985483D01*
X112492937Y-126988483D01*
X112486937Y-126991483D01*
X112481937Y-126994483D01*
X112463937Y-127000483D01*
X112457937Y-127001483D01*
X112451937Y-127003483D01*
X112445937Y-127003483D01*
X112438937Y-127004483D01*
X112286937Y-127004483D01*
X112279937Y-127003483D01*
X112273937Y-127003483D01*
X112267937Y-127001483D01*
X112261937Y-127000483D01*
X112243937Y-126994483D01*
X112238937Y-126991483D01*
X112232937Y-126988483D01*
X112227937Y-126985483D01*
X112221937Y-126981483D01*
X112216937Y-126977483D01*
X112212937Y-126973483D01*
X112207937Y-126969483D01*
X112203937Y-126964483D01*
X112199937Y-126960483D01*
X112195937Y-126955483D01*
X112191937Y-126949483D01*
X112188937Y-126944483D01*
X112185937Y-126938483D01*
X112182937Y-126933483D01*
X112176937Y-126915483D01*
X112175937Y-126909483D01*
X112173937Y-126903483D01*
X112173937Y-126897483D01*
X112172937Y-126890483D01*
X112172937Y-126378483D01*
X112173937Y-126371483D01*
X112173937Y-126365483D01*
X112175937Y-126359483D01*
X112176937Y-126353483D01*
X112182937Y-126335483D01*
X112185937Y-126330483D01*
X112188937Y-126324483D01*
X112191937Y-126319483D01*
X112195937Y-126313483D01*
X112199937Y-126308483D01*
X112203937Y-126304483D01*
X112207937Y-126299483D01*
X112212937Y-126295483D01*
X112216937Y-126291483D01*
X112221937Y-126287483D01*
X112227937Y-126283483D01*
X112232937Y-126280483D01*
X112238937Y-126277483D01*
X112243937Y-126274483D01*
X112261937Y-126268483D01*
X112267937Y-126267483D01*
X112273937Y-126265483D01*
X112279937Y-126265483D01*
X112286937Y-126264483D01*
X112438937Y-126264483D01*
X112445937Y-126265483D01*
G36*
X112945937Y-123465483D02*
G01*
X112951937Y-123465483D01*
X112957937Y-123467483D01*
X112963937Y-123468483D01*
X112981937Y-123474483D01*
X112986937Y-123477483D01*
X112992937Y-123480483D01*
X112997937Y-123483483D01*
X113003937Y-123487483D01*
X113008937Y-123491483D01*
X113012937Y-123495483D01*
X113017937Y-123499483D01*
X113021937Y-123504483D01*
X113025937Y-123508483D01*
X113029937Y-123513483D01*
X113033937Y-123519483D01*
X113036937Y-123524483D01*
X113039937Y-123530483D01*
X113042937Y-123535483D01*
X113048937Y-123553483D01*
X113049937Y-123559483D01*
X113051937Y-123565483D01*
X113051937Y-123571483D01*
X113052937Y-123578483D01*
X113052937Y-124090483D01*
X113051937Y-124097483D01*
X113051937Y-124103483D01*
X113049937Y-124109483D01*
X113048937Y-124115483D01*
X113042937Y-124133483D01*
X113039937Y-124138483D01*
X113036937Y-124144483D01*
X113033937Y-124149483D01*
X113029937Y-124155483D01*
X113025937Y-124160483D01*
X113021937Y-124164483D01*
X113017937Y-124169483D01*
X113012937Y-124173483D01*
X113008937Y-124177483D01*
X113003937Y-124181483D01*
X112997937Y-124185483D01*
X112992937Y-124188483D01*
X112986937Y-124191483D01*
X112981937Y-124194483D01*
X112963937Y-124200483D01*
X112957937Y-124201483D01*
X112951937Y-124203483D01*
X112945937Y-124203483D01*
X112938937Y-124204483D01*
X112786937Y-124204483D01*
X112779937Y-124203483D01*
X112773937Y-124203483D01*
X112767937Y-124201483D01*
X112761937Y-124200483D01*
X112743937Y-124194483D01*
X112738937Y-124191483D01*
X112732937Y-124188483D01*
X112727937Y-124185483D01*
X112721937Y-124181483D01*
X112716937Y-124177483D01*
X112712937Y-124173483D01*
X112707937Y-124169483D01*
X112703937Y-124164483D01*
X112699937Y-124160483D01*
X112695937Y-124155483D01*
X112691937Y-124149483D01*
X112688937Y-124144483D01*
X112685937Y-124138483D01*
X112682937Y-124133483D01*
X112676937Y-124115483D01*
X112675937Y-124109483D01*
X112673937Y-124103483D01*
X112673937Y-124097483D01*
X112672937Y-124090483D01*
X112672937Y-123578483D01*
X112673937Y-123571483D01*
X112673937Y-123565483D01*
X112675937Y-123559483D01*
X112676937Y-123553483D01*
X112682937Y-123535483D01*
X112685937Y-123530483D01*
X112688937Y-123524483D01*
X112691937Y-123519483D01*
X112695937Y-123513483D01*
X112699937Y-123508483D01*
X112703937Y-123504483D01*
X112707937Y-123499483D01*
X112712937Y-123495483D01*
X112716937Y-123491483D01*
X112721937Y-123487483D01*
X112727937Y-123483483D01*
X112732937Y-123480483D01*
X112738937Y-123477483D01*
X112743937Y-123474483D01*
X112761937Y-123468483D01*
X112767937Y-123467483D01*
X112773937Y-123465483D01*
X112779937Y-123465483D01*
X112786937Y-123464483D01*
X112938937Y-123464483D01*
X112945937Y-123465483D01*
G37*
X112945937Y-123465483D02*
X112951937Y-123465483D01*
X112957937Y-123467483D01*
X112963937Y-123468483D01*
X112981937Y-123474483D01*
X112986937Y-123477483D01*
X112992937Y-123480483D01*
X112997937Y-123483483D01*
X113003937Y-123487483D01*
X113008937Y-123491483D01*
X113012937Y-123495483D01*
X113017937Y-123499483D01*
X113021937Y-123504483D01*
X113025937Y-123508483D01*
X113029937Y-123513483D01*
X113033937Y-123519483D01*
X113036937Y-123524483D01*
X113039937Y-123530483D01*
X113042937Y-123535483D01*
X113048937Y-123553483D01*
X113049937Y-123559483D01*
X113051937Y-123565483D01*
X113051937Y-123571483D01*
X113052937Y-123578483D01*
X113052937Y-124090483D01*
X113051937Y-124097483D01*
X113051937Y-124103483D01*
X113049937Y-124109483D01*
X113048937Y-124115483D01*
X113042937Y-124133483D01*
X113039937Y-124138483D01*
X113036937Y-124144483D01*
X113033937Y-124149483D01*
X113029937Y-124155483D01*
X113025937Y-124160483D01*
X113021937Y-124164483D01*
X113017937Y-124169483D01*
X113012937Y-124173483D01*
X113008937Y-124177483D01*
X113003937Y-124181483D01*
X112997937Y-124185483D01*
X112992937Y-124188483D01*
X112986937Y-124191483D01*
X112981937Y-124194483D01*
X112963937Y-124200483D01*
X112957937Y-124201483D01*
X112951937Y-124203483D01*
X112945937Y-124203483D01*
X112938937Y-124204483D01*
X112786937Y-124204483D01*
X112779937Y-124203483D01*
X112773937Y-124203483D01*
X112767937Y-124201483D01*
X112761937Y-124200483D01*
X112743937Y-124194483D01*
X112738937Y-124191483D01*
X112732937Y-124188483D01*
X112727937Y-124185483D01*
X112721937Y-124181483D01*
X112716937Y-124177483D01*
X112712937Y-124173483D01*
X112707937Y-124169483D01*
X112703937Y-124164483D01*
X112699937Y-124160483D01*
X112695937Y-124155483D01*
X112691937Y-124149483D01*
X112688937Y-124144483D01*
X112685937Y-124138483D01*
X112682937Y-124133483D01*
X112676937Y-124115483D01*
X112675937Y-124109483D01*
X112673937Y-124103483D01*
X112673937Y-124097483D01*
X112672937Y-124090483D01*
X112672937Y-123578483D01*
X112673937Y-123571483D01*
X112673937Y-123565483D01*
X112675937Y-123559483D01*
X112676937Y-123553483D01*
X112682937Y-123535483D01*
X112685937Y-123530483D01*
X112688937Y-123524483D01*
X112691937Y-123519483D01*
X112695937Y-123513483D01*
X112699937Y-123508483D01*
X112703937Y-123504483D01*
X112707937Y-123499483D01*
X112712937Y-123495483D01*
X112716937Y-123491483D01*
X112721937Y-123487483D01*
X112727937Y-123483483D01*
X112732937Y-123480483D01*
X112738937Y-123477483D01*
X112743937Y-123474483D01*
X112761937Y-123468483D01*
X112767937Y-123467483D01*
X112773937Y-123465483D01*
X112779937Y-123465483D01*
X112786937Y-123464483D01*
X112938937Y-123464483D01*
X112945937Y-123465483D01*
%TO.C,U1*%
G36*
X113556637Y-126157983D02*
G01*
X113169237Y-126157983D01*
X113169237Y-124310983D01*
X113556637Y-124310983D01*
X113556637Y-126157983D01*
G37*
D15*
X113556637Y-126157983D02*
X113169237Y-126157983D01*
X113169237Y-124310983D01*
X113556637Y-124310983D01*
X113556637Y-126157983D01*
G36*
X114516437Y-126157983D02*
G01*
X113956637Y-126157983D01*
X113956637Y-124310983D01*
X114516437Y-124310983D01*
X114516437Y-126157983D01*
G37*
X114516437Y-126157983D02*
X113956637Y-126157983D01*
X113956637Y-124310983D01*
X114516437Y-124310983D01*
X114516437Y-126157983D01*
G36*
X114516437Y-124640783D02*
G01*
X112209437Y-124640783D01*
X112209437Y-124310983D01*
X114516437Y-124310983D01*
X114516437Y-124640783D01*
G37*
X114516437Y-124640783D02*
X112209437Y-124640783D01*
X112209437Y-124310983D01*
X114516437Y-124310983D01*
X114516437Y-124640783D01*
G36*
X112769237Y-126157983D02*
G01*
X112209437Y-126157983D01*
X112209437Y-124310983D01*
X112769237Y-124310983D01*
X112769237Y-126157983D01*
G37*
X112769237Y-126157983D02*
X112209437Y-126157983D01*
X112209437Y-124310983D01*
X112769237Y-124310983D01*
X112769237Y-126157983D01*
G36*
X114516437Y-126157983D02*
G01*
X112209437Y-126157983D01*
X112209437Y-125828183D01*
X114516437Y-125828183D01*
X114516437Y-126157983D01*
G37*
X114516437Y-126157983D02*
X112209437Y-126157983D01*
X112209437Y-125828183D01*
X114516437Y-125828183D01*
X114516437Y-126157983D01*
G36*
X114516437Y-125428183D02*
G01*
X112209437Y-125428183D01*
X112209437Y-125040783D01*
X114516437Y-125040783D01*
X114516437Y-125428183D01*
G37*
X114516437Y-125428183D02*
X112209437Y-125428183D01*
X112209437Y-125040783D01*
X114516437Y-125040783D01*
X114516437Y-125428183D01*
%TD*%
D17*
%TO.C,R3*%
X89500000Y-122750000D03*
X89500000Y-120750000D03*
%TD*%
D18*
%TO.C,A0*%
X121900000Y-131620000D03*
D19*
X123200000Y-131620000D03*
D20*
X124500000Y-131620000D03*
%TD*%
D21*
%TO.C,C3*%
X105937500Y-119240000D03*
X101662500Y-119240000D03*
%TD*%
D22*
%TO.C,C1*%
X113750000Y-116720000D03*
X119150000Y-116720000D03*
%TD*%
D23*
%TO.C,R2*%
X93000000Y-134500000D03*
X95000000Y-134500000D03*
%TD*%
D24*
%TO.C,C2*%
X112182500Y-121180000D03*
X110457500Y-121180000D03*
%TD*%
D25*
%TO.C,U1*%
X114362938Y-123059484D03*
X113862936Y-123059484D03*
X113362937Y-123059484D03*
X112862938Y-123059484D03*
X112362936Y-123059484D03*
X112362936Y-127409482D03*
X112862938Y-127409482D03*
X113362937Y-127409482D03*
X113862936Y-127409482D03*
X114362938Y-127409482D03*
D26*
X112969237Y-124840783D03*
X113756637Y-125628183D03*
X112969237Y-125628183D03*
X113756637Y-124840783D03*
%TD*%
D18*
%TO.C,A1*%
X121880000Y-128650000D03*
D19*
X123180000Y-128650000D03*
D20*
X124480000Y-128650000D03*
%TD*%
D27*
%TO.C,R1*%
X95000000Y-136500000D03*
X93000000Y-136500000D03*
%TD*%
D28*
%TO.C,J1*%
X107940000Y-137252500D03*
D29*
X107940000Y-134712500D03*
X110480000Y-137252500D03*
X110480000Y-134712500D03*
X113020000Y-137252500D03*
X113020000Y-134712500D03*
X115560000Y-137252500D03*
X115560000Y-134712500D03*
%TD*%
D30*
%TO.C,U2*%
X90000000Y-128250000D03*
D31*
X88095000Y-131125000D03*
X89365000Y-131125000D03*
X90635000Y-131125000D03*
X91905000Y-131125000D03*
X91905000Y-125375000D03*
X90635000Y-125375000D03*
X89365000Y-125375000D03*
X88095000Y-125375000D03*
D32*
X90000000Y-128900000D03*
X88700000Y-128900000D03*
X91300000Y-127600000D03*
X88700000Y-127600000D03*
X90000000Y-127600000D03*
X91300000Y-128900000D03*
%TD*%
D33*
%TO.C,C4*%
X100000000Y-124200000D03*
X100000000Y-129800000D03*
%TD*%
D34*
%TO.C,L2*%
X107675000Y-128500000D03*
X104725000Y-128500000D03*
%TD*%
%TO.C,L1*%
X107665000Y-123840000D03*
X104715000Y-123840000D03*
%TD*%
D35*
%TO.C,RV1*%
X79500000Y-134000000D03*
D36*
X79500000Y-129000000D03*
X79500000Y-124000000D03*
X84500000Y-134000000D03*
X84500000Y-129000000D03*
X84500000Y-124000000D03*
D37*
X98530000Y-119350000D03*
X98510000Y-134570000D03*
D36*
X119660000Y-124680000D03*
X119620000Y-134080000D03*
%TD*%
M02*
