%TF.GenerationSoftware,KiCad,Pcbnew,(6.0.9-0)*%
%TF.CreationDate,2022-12-01T16:18:30+01:00*%
%TF.ProjectId,Hlabs motor cotrol,486c6162-7320-46d6-9f74-6f7220636f74,rev?*%
%TF.SameCoordinates,Original*%
%TF.FileFunction,Other,Comment*%
%FSLAX46Y46*%
G04 Gerber Fmt 4.6, Leading zero omitted, Abs format (unit mm)*
G04 Created by KiCad (PCBNEW (6.0.9-0)) date 2022-12-01 16:18:30*
%MOMM*%
%LPD*%
G01*
G04 APERTURE LIST*
%ADD10C,0.150000*%
%ADD11C,0.002000*%
%ADD12C,0.100000*%
G04 APERTURE END LIST*
D10*
%TO.C,U1*%
X108852317Y-128511864D02*
X108852317Y-128416626D01*
X108899937Y-128321388D01*
X108947556Y-128273769D01*
X109042794Y-128226150D01*
X109233270Y-128178531D01*
X109471365Y-128178531D01*
X109661841Y-128226150D01*
X109757079Y-128273769D01*
X109804698Y-128321388D01*
X109852317Y-128416626D01*
X109852317Y-128511864D01*
X109804698Y-128607103D01*
X109757079Y-128654722D01*
X109661841Y-128702341D01*
X109471365Y-128749960D01*
X109233270Y-128749960D01*
X109042794Y-128702341D01*
X108947556Y-128654722D01*
X108899937Y-128607103D01*
X108852317Y-128511864D01*
X109757079Y-127749960D02*
X109804698Y-127702341D01*
X109852317Y-127749960D01*
X109804698Y-127797579D01*
X109757079Y-127749960D01*
X109852317Y-127749960D01*
X108852317Y-127083293D02*
X108852317Y-126988055D01*
X108899937Y-126892817D01*
X108947556Y-126845198D01*
X109042794Y-126797579D01*
X109233270Y-126749960D01*
X109471365Y-126749960D01*
X109661841Y-126797579D01*
X109757079Y-126845198D01*
X109804698Y-126892817D01*
X109852317Y-126988055D01*
X109852317Y-127083293D01*
X109804698Y-127178531D01*
X109757079Y-127226150D01*
X109661841Y-127273769D01*
X109471365Y-127321388D01*
X109233270Y-127321388D01*
X109042794Y-127273769D01*
X108947556Y-127226150D01*
X108899937Y-127178531D01*
X108852317Y-127083293D01*
X108852317Y-125845198D02*
X108852317Y-126321388D01*
X109328508Y-126369007D01*
X109280889Y-126321388D01*
X109233270Y-126226150D01*
X109233270Y-125988055D01*
X109280889Y-125892817D01*
X109328508Y-125845198D01*
X109423746Y-125797579D01*
X109661841Y-125797579D01*
X109757079Y-125845198D01*
X109804698Y-125892817D01*
X109852317Y-125988055D01*
X109852317Y-126226150D01*
X109804698Y-126321388D01*
X109757079Y-126369007D01*
X108852317Y-124892817D02*
X108852317Y-125369007D01*
X109328508Y-125416626D01*
X109280889Y-125369007D01*
X109233270Y-125273769D01*
X109233270Y-125035674D01*
X109280889Y-124940436D01*
X109328508Y-124892817D01*
X109423746Y-124845198D01*
X109661841Y-124845198D01*
X109757079Y-124892817D01*
X109804698Y-124940436D01*
X109852317Y-125035674D01*
X109852317Y-125273769D01*
X109804698Y-125369007D01*
X109757079Y-125416626D01*
X109852317Y-124416626D02*
X109185651Y-124416626D01*
X108852317Y-124416626D02*
X108899937Y-124464245D01*
X108947556Y-124416626D01*
X108899937Y-124369007D01*
X108852317Y-124416626D01*
X108947556Y-124416626D01*
X109185651Y-123940436D02*
X109852317Y-123940436D01*
X109280889Y-123940436D02*
X109233270Y-123892817D01*
X109185651Y-123797579D01*
X109185651Y-123654722D01*
X109233270Y-123559484D01*
X109328508Y-123511864D01*
X109852317Y-123511864D01*
X108804698Y-122321388D02*
X110090413Y-123178531D01*
X109852317Y-121464245D02*
X109852317Y-122035674D01*
X109852317Y-121749960D02*
X108852317Y-121749960D01*
X108995175Y-121845198D01*
X109090413Y-121940436D01*
X109138032Y-122035674D01*
X109757079Y-121035674D02*
X109804698Y-120988055D01*
X109852317Y-121035674D01*
X109804698Y-121083293D01*
X109757079Y-121035674D01*
X109852317Y-121035674D01*
X109185651Y-120130912D02*
X109852317Y-120130912D01*
X108804698Y-120369007D02*
X109518984Y-120607103D01*
X109518984Y-119988055D01*
X109852317Y-119607103D02*
X109185651Y-119607103D01*
X109280889Y-119607103D02*
X109233270Y-119559484D01*
X109185651Y-119464245D01*
X109185651Y-119321388D01*
X109233270Y-119226150D01*
X109328508Y-119178531D01*
X109852317Y-119178531D01*
X109328508Y-119178531D02*
X109233270Y-119130912D01*
X109185651Y-119035674D01*
X109185651Y-118892817D01*
X109233270Y-118797579D01*
X109328508Y-118749960D01*
X109852317Y-118749960D01*
X109852317Y-118273769D02*
X109185651Y-118273769D01*
X109280889Y-118273769D02*
X109233270Y-118226150D01*
X109185651Y-118130912D01*
X109185651Y-117988055D01*
X109233270Y-117892817D01*
X109328508Y-117845198D01*
X109852317Y-117845198D01*
X109328508Y-117845198D02*
X109233270Y-117797579D01*
X109185651Y-117702341D01*
X109185651Y-117559484D01*
X109233270Y-117464245D01*
X109328508Y-117416626D01*
X109852317Y-117416626D01*
X107582317Y-131163054D02*
X107582317Y-131067816D01*
X107629937Y-130972578D01*
X107677556Y-130924959D01*
X107772794Y-130877340D01*
X107963270Y-130829721D01*
X108201365Y-130829721D01*
X108391841Y-130877340D01*
X108487079Y-130924959D01*
X108534698Y-130972578D01*
X108582317Y-131067816D01*
X108582317Y-131163054D01*
X108534698Y-131258292D01*
X108487079Y-131305911D01*
X108391841Y-131353530D01*
X108201365Y-131401149D01*
X107963270Y-131401149D01*
X107772794Y-131353530D01*
X107677556Y-131305911D01*
X107629937Y-131258292D01*
X107582317Y-131163054D01*
X108487079Y-130401149D02*
X108534698Y-130353530D01*
X108582317Y-130401149D01*
X108534698Y-130448768D01*
X108487079Y-130401149D01*
X108582317Y-130401149D01*
X107582317Y-129734483D02*
X107582317Y-129639244D01*
X107629937Y-129544006D01*
X107677556Y-129496387D01*
X107772794Y-129448768D01*
X107963270Y-129401149D01*
X108201365Y-129401149D01*
X108391841Y-129448768D01*
X108487079Y-129496387D01*
X108534698Y-129544006D01*
X108582317Y-129639244D01*
X108582317Y-129734483D01*
X108534698Y-129829721D01*
X108487079Y-129877340D01*
X108391841Y-129924959D01*
X108201365Y-129972578D01*
X107963270Y-129972578D01*
X107772794Y-129924959D01*
X107677556Y-129877340D01*
X107629937Y-129829721D01*
X107582317Y-129734483D01*
X107582317Y-128544006D02*
X107582317Y-128734483D01*
X107629937Y-128829721D01*
X107677556Y-128877340D01*
X107820413Y-128972578D01*
X108010889Y-129020197D01*
X108391841Y-129020197D01*
X108487079Y-128972578D01*
X108534698Y-128924959D01*
X108582317Y-128829721D01*
X108582317Y-128639244D01*
X108534698Y-128544006D01*
X108487079Y-128496387D01*
X108391841Y-128448768D01*
X108153746Y-128448768D01*
X108058508Y-128496387D01*
X108010889Y-128544006D01*
X107963270Y-128639244D01*
X107963270Y-128829721D01*
X108010889Y-128924959D01*
X108058508Y-128972578D01*
X108153746Y-129020197D01*
X108010889Y-127877340D02*
X107963270Y-127972578D01*
X107915651Y-128020197D01*
X107820413Y-128067816D01*
X107772794Y-128067816D01*
X107677556Y-128020197D01*
X107629937Y-127972578D01*
X107582317Y-127877340D01*
X107582317Y-127686863D01*
X107629937Y-127591625D01*
X107677556Y-127544006D01*
X107772794Y-127496387D01*
X107820413Y-127496387D01*
X107915651Y-127544006D01*
X107963270Y-127591625D01*
X108010889Y-127686863D01*
X108010889Y-127877340D01*
X108058508Y-127972578D01*
X108106127Y-128020197D01*
X108201365Y-128067816D01*
X108391841Y-128067816D01*
X108487079Y-128020197D01*
X108534698Y-127972578D01*
X108582317Y-127877340D01*
X108582317Y-127686863D01*
X108534698Y-127591625D01*
X108487079Y-127544006D01*
X108391841Y-127496387D01*
X108201365Y-127496387D01*
X108106127Y-127544006D01*
X108058508Y-127591625D01*
X108010889Y-127686863D01*
X108582317Y-127067816D02*
X107915651Y-127067816D01*
X107582317Y-127067816D02*
X107629937Y-127115435D01*
X107677556Y-127067816D01*
X107629937Y-127020197D01*
X107582317Y-127067816D01*
X107677556Y-127067816D01*
X107915651Y-126591625D02*
X108582317Y-126591625D01*
X108010889Y-126591625D02*
X107963270Y-126544006D01*
X107915651Y-126448768D01*
X107915651Y-126305911D01*
X107963270Y-126210673D01*
X108058508Y-126163054D01*
X108582317Y-126163054D01*
X107534698Y-124972578D02*
X108820413Y-125829721D01*
X108582317Y-124115435D02*
X108582317Y-124686863D01*
X108582317Y-124401149D02*
X107582317Y-124401149D01*
X107725175Y-124496387D01*
X107820413Y-124591625D01*
X107868032Y-124686863D01*
X108487079Y-123686863D02*
X108534698Y-123639244D01*
X108582317Y-123686863D01*
X108534698Y-123734483D01*
X108487079Y-123686863D01*
X108582317Y-123686863D01*
X107582317Y-123305911D02*
X107582317Y-122639244D01*
X108582317Y-123067816D01*
X107677556Y-122305911D02*
X107629937Y-122258292D01*
X107582317Y-122163054D01*
X107582317Y-121924959D01*
X107629937Y-121829721D01*
X107677556Y-121782102D01*
X107772794Y-121734483D01*
X107868032Y-121734483D01*
X108010889Y-121782102D01*
X108582317Y-122353530D01*
X108582317Y-121734483D01*
X108582317Y-121305911D02*
X107915651Y-121305911D01*
X108010889Y-121305911D02*
X107963270Y-121258292D01*
X107915651Y-121163054D01*
X107915651Y-121020197D01*
X107963270Y-120924959D01*
X108058508Y-120877340D01*
X108582317Y-120877340D01*
X108058508Y-120877340D02*
X107963270Y-120829721D01*
X107915651Y-120734483D01*
X107915651Y-120591625D01*
X107963270Y-120496387D01*
X108058508Y-120448768D01*
X108582317Y-120448768D01*
X108582317Y-119972578D02*
X107915651Y-119972578D01*
X108010889Y-119972578D02*
X107963270Y-119924959D01*
X107915651Y-119829721D01*
X107915651Y-119686863D01*
X107963270Y-119591625D01*
X108058508Y-119544006D01*
X108582317Y-119544006D01*
X108058508Y-119544006D02*
X107963270Y-119496387D01*
X107915651Y-119401149D01*
X107915651Y-119258292D01*
X107963270Y-119163054D01*
X108058508Y-119115435D01*
X108582317Y-119115435D01*
X112815317Y-138301053D02*
X112815317Y-138205815D01*
X112862937Y-138110577D01*
X112910556Y-138062958D01*
X113005794Y-138015339D01*
X113196270Y-137967720D01*
X113434365Y-137967720D01*
X113624841Y-138015339D01*
X113720079Y-138062958D01*
X113767698Y-138110577D01*
X113815317Y-138205815D01*
X113815317Y-138301053D01*
X113767698Y-138396291D01*
X113720079Y-138443910D01*
X113624841Y-138491529D01*
X113434365Y-138539148D01*
X113196270Y-138539148D01*
X113005794Y-138491529D01*
X112910556Y-138443910D01*
X112862937Y-138396291D01*
X112815317Y-138301053D01*
X113720079Y-137539148D02*
X113767698Y-137491529D01*
X113815317Y-137539148D01*
X113767698Y-137586767D01*
X113720079Y-137539148D01*
X113815317Y-137539148D01*
X112815317Y-136872482D02*
X112815317Y-136777243D01*
X112862937Y-136682005D01*
X112910556Y-136634386D01*
X113005794Y-136586767D01*
X113196270Y-136539148D01*
X113434365Y-136539148D01*
X113624841Y-136586767D01*
X113720079Y-136634386D01*
X113767698Y-136682005D01*
X113815317Y-136777243D01*
X113815317Y-136872482D01*
X113767698Y-136967720D01*
X113720079Y-137015339D01*
X113624841Y-137062958D01*
X113434365Y-137110577D01*
X113196270Y-137110577D01*
X113005794Y-137062958D01*
X112910556Y-137015339D01*
X112862937Y-136967720D01*
X112815317Y-136872482D01*
X113243889Y-135967720D02*
X113196270Y-136062958D01*
X113148651Y-136110577D01*
X113053413Y-136158196D01*
X113005794Y-136158196D01*
X112910556Y-136110577D01*
X112862937Y-136062958D01*
X112815317Y-135967720D01*
X112815317Y-135777243D01*
X112862937Y-135682005D01*
X112910556Y-135634386D01*
X113005794Y-135586767D01*
X113053413Y-135586767D01*
X113148651Y-135634386D01*
X113196270Y-135682005D01*
X113243889Y-135777243D01*
X113243889Y-135967720D01*
X113291508Y-136062958D01*
X113339127Y-136110577D01*
X113434365Y-136158196D01*
X113624841Y-136158196D01*
X113720079Y-136110577D01*
X113767698Y-136062958D01*
X113815317Y-135967720D01*
X113815317Y-135777243D01*
X113767698Y-135682005D01*
X113720079Y-135634386D01*
X113624841Y-135586767D01*
X113434365Y-135586767D01*
X113339127Y-135634386D01*
X113291508Y-135682005D01*
X113243889Y-135777243D01*
X112815317Y-134729624D02*
X112815317Y-134920101D01*
X112862937Y-135015339D01*
X112910556Y-135062958D01*
X113053413Y-135158196D01*
X113243889Y-135205815D01*
X113624841Y-135205815D01*
X113720079Y-135158196D01*
X113767698Y-135110577D01*
X113815317Y-135015339D01*
X113815317Y-134824862D01*
X113767698Y-134729624D01*
X113720079Y-134682005D01*
X113624841Y-134634386D01*
X113386746Y-134634386D01*
X113291508Y-134682005D01*
X113243889Y-134729624D01*
X113196270Y-134824862D01*
X113196270Y-135015339D01*
X113243889Y-135110577D01*
X113291508Y-135158196D01*
X113386746Y-135205815D01*
X113815317Y-134205815D02*
X113148651Y-134205815D01*
X112815317Y-134205815D02*
X112862937Y-134253434D01*
X112910556Y-134205815D01*
X112862937Y-134158196D01*
X112815317Y-134205815D01*
X112910556Y-134205815D01*
X113148651Y-133729624D02*
X113815317Y-133729624D01*
X113243889Y-133729624D02*
X113196270Y-133682005D01*
X113148651Y-133586767D01*
X113148651Y-133443910D01*
X113196270Y-133348672D01*
X113291508Y-133301053D01*
X113815317Y-133301053D01*
X112767698Y-132110577D02*
X114053413Y-132967720D01*
X112910556Y-131824862D02*
X112862937Y-131777243D01*
X112815317Y-131682005D01*
X112815317Y-131443910D01*
X112862937Y-131348672D01*
X112910556Y-131301053D01*
X113005794Y-131253434D01*
X113101032Y-131253434D01*
X113243889Y-131301053D01*
X113815317Y-131872482D01*
X113815317Y-131253434D01*
X113720079Y-130824862D02*
X113767698Y-130777243D01*
X113815317Y-130824862D01*
X113767698Y-130872482D01*
X113720079Y-130824862D01*
X113815317Y-130824862D01*
X113815317Y-129824862D02*
X113815317Y-130396291D01*
X113815317Y-130110577D02*
X112815317Y-130110577D01*
X112958175Y-130205815D01*
X113053413Y-130301053D01*
X113101032Y-130396291D01*
X113243889Y-129253434D02*
X113196270Y-129348672D01*
X113148651Y-129396291D01*
X113053413Y-129443910D01*
X113005794Y-129443910D01*
X112910556Y-129396291D01*
X112862937Y-129348672D01*
X112815317Y-129253434D01*
X112815317Y-129062958D01*
X112862937Y-128967720D01*
X112910556Y-128920101D01*
X113005794Y-128872482D01*
X113053413Y-128872482D01*
X113148651Y-128920101D01*
X113196270Y-128967720D01*
X113243889Y-129062958D01*
X113243889Y-129253434D01*
X113291508Y-129348672D01*
X113339127Y-129396291D01*
X113434365Y-129443910D01*
X113624841Y-129443910D01*
X113720079Y-129396291D01*
X113767698Y-129348672D01*
X113815317Y-129253434D01*
X113815317Y-129062958D01*
X113767698Y-128967720D01*
X113720079Y-128920101D01*
X113624841Y-128872482D01*
X113434365Y-128872482D01*
X113339127Y-128920101D01*
X113291508Y-128967720D01*
X113243889Y-129062958D01*
X113815317Y-128443910D02*
X113148651Y-128443910D01*
X113243889Y-128443910D02*
X113196270Y-128396291D01*
X113148651Y-128301053D01*
X113148651Y-128158196D01*
X113196270Y-128062958D01*
X113291508Y-128015339D01*
X113815317Y-128015339D01*
X113291508Y-128015339D02*
X113196270Y-127967720D01*
X113148651Y-127872482D01*
X113148651Y-127729624D01*
X113196270Y-127634386D01*
X113291508Y-127586767D01*
X113815317Y-127586767D01*
X113815317Y-127110577D02*
X113148651Y-127110577D01*
X113243889Y-127110577D02*
X113196270Y-127062958D01*
X113148651Y-126967720D01*
X113148651Y-126824862D01*
X113196270Y-126729624D01*
X113291508Y-126682005D01*
X113815317Y-126682005D01*
X113291508Y-126682005D02*
X113196270Y-126634386D01*
X113148651Y-126539148D01*
X113148651Y-126396291D01*
X113196270Y-126301053D01*
X113291508Y-126253434D01*
X113815317Y-126253434D01*
X113815317Y-136386053D02*
X113815317Y-136290815D01*
X113862937Y-136195577D01*
X113910556Y-136147958D01*
X114005794Y-136100339D01*
X114196270Y-136052720D01*
X114434365Y-136052720D01*
X114624841Y-136100339D01*
X114720079Y-136147958D01*
X114767698Y-136195577D01*
X114815317Y-136290815D01*
X114815317Y-136386053D01*
X114767698Y-136481291D01*
X114720079Y-136528910D01*
X114624841Y-136576529D01*
X114434365Y-136624148D01*
X114196270Y-136624148D01*
X114005794Y-136576529D01*
X113910556Y-136528910D01*
X113862937Y-136481291D01*
X113815317Y-136386053D01*
X114720079Y-135624148D02*
X114767698Y-135576529D01*
X114815317Y-135624148D01*
X114767698Y-135671767D01*
X114720079Y-135624148D01*
X114815317Y-135624148D01*
X113815317Y-134957482D02*
X113815317Y-134862243D01*
X113862937Y-134767005D01*
X113910556Y-134719386D01*
X114005794Y-134671767D01*
X114196270Y-134624148D01*
X114434365Y-134624148D01*
X114624841Y-134671767D01*
X114720079Y-134719386D01*
X114767698Y-134767005D01*
X114815317Y-134862243D01*
X114815317Y-134957482D01*
X114767698Y-135052720D01*
X114720079Y-135100339D01*
X114624841Y-135147958D01*
X114434365Y-135195577D01*
X114196270Y-135195577D01*
X114005794Y-135147958D01*
X113910556Y-135100339D01*
X113862937Y-135052720D01*
X113815317Y-134957482D01*
X114815317Y-133671767D02*
X114815317Y-134243196D01*
X114815317Y-133957482D02*
X113815317Y-133957482D01*
X113958175Y-134052720D01*
X114053413Y-134147958D01*
X114101032Y-134243196D01*
X114815317Y-132719386D02*
X114815317Y-133290815D01*
X114815317Y-133005101D02*
X113815317Y-133005101D01*
X113958175Y-133100339D01*
X114053413Y-133195577D01*
X114101032Y-133290815D01*
X114815317Y-132290815D02*
X114148651Y-132290815D01*
X113815317Y-132290815D02*
X113862937Y-132338434D01*
X113910556Y-132290815D01*
X113862937Y-132243196D01*
X113815317Y-132290815D01*
X113910556Y-132290815D01*
X114148651Y-131814624D02*
X114815317Y-131814624D01*
X114243889Y-131814624D02*
X114196270Y-131767005D01*
X114148651Y-131671767D01*
X114148651Y-131528910D01*
X114196270Y-131433672D01*
X114291508Y-131386053D01*
X114815317Y-131386053D01*
X113767698Y-130195577D02*
X115053413Y-131052720D01*
X113815317Y-129671767D02*
X113815317Y-129576529D01*
X113862937Y-129481291D01*
X113910556Y-129433672D01*
X114005794Y-129386053D01*
X114196270Y-129338434D01*
X114434365Y-129338434D01*
X114624841Y-129386053D01*
X114720079Y-129433672D01*
X114767698Y-129481291D01*
X114815317Y-129576529D01*
X114815317Y-129671767D01*
X114767698Y-129767005D01*
X114720079Y-129814624D01*
X114624841Y-129862243D01*
X114434365Y-129909862D01*
X114196270Y-129909862D01*
X114005794Y-129862243D01*
X113910556Y-129814624D01*
X113862937Y-129767005D01*
X113815317Y-129671767D01*
X114720079Y-128909862D02*
X114767698Y-128862243D01*
X114815317Y-128909862D01*
X114767698Y-128957482D01*
X114720079Y-128909862D01*
X114815317Y-128909862D01*
X113910556Y-128481291D02*
X113862937Y-128433672D01*
X113815317Y-128338434D01*
X113815317Y-128100339D01*
X113862937Y-128005101D01*
X113910556Y-127957482D01*
X114005794Y-127909862D01*
X114101032Y-127909862D01*
X114243889Y-127957482D01*
X114815317Y-128528910D01*
X114815317Y-127909862D01*
X113815317Y-127576529D02*
X113815317Y-126909862D01*
X114815317Y-127338434D01*
X114815317Y-126528910D02*
X114148651Y-126528910D01*
X114243889Y-126528910D02*
X114196270Y-126481291D01*
X114148651Y-126386053D01*
X114148651Y-126243196D01*
X114196270Y-126147958D01*
X114291508Y-126100339D01*
X114815317Y-126100339D01*
X114291508Y-126100339D02*
X114196270Y-126052720D01*
X114148651Y-125957482D01*
X114148651Y-125814624D01*
X114196270Y-125719386D01*
X114291508Y-125671767D01*
X114815317Y-125671767D01*
X114815317Y-125195577D02*
X114148651Y-125195577D01*
X114243889Y-125195577D02*
X114196270Y-125147958D01*
X114148651Y-125052720D01*
X114148651Y-124909862D01*
X114196270Y-124814624D01*
X114291508Y-124767005D01*
X114815317Y-124767005D01*
X114291508Y-124767005D02*
X114196270Y-124719386D01*
X114148651Y-124624148D01*
X114148651Y-124481291D01*
X114196270Y-124386053D01*
X114291508Y-124338434D01*
X114815317Y-124338434D01*
X116778317Y-131163054D02*
X116778317Y-131067816D01*
X116825937Y-130972578D01*
X116873556Y-130924959D01*
X116968794Y-130877340D01*
X117159270Y-130829721D01*
X117397365Y-130829721D01*
X117587841Y-130877340D01*
X117683079Y-130924959D01*
X117730698Y-130972578D01*
X117778317Y-131067816D01*
X117778317Y-131163054D01*
X117730698Y-131258292D01*
X117683079Y-131305911D01*
X117587841Y-131353530D01*
X117397365Y-131401149D01*
X117159270Y-131401149D01*
X116968794Y-131353530D01*
X116873556Y-131305911D01*
X116825937Y-131258292D01*
X116778317Y-131163054D01*
X117683079Y-130401149D02*
X117730698Y-130353530D01*
X117778317Y-130401149D01*
X117730698Y-130448768D01*
X117683079Y-130401149D01*
X117778317Y-130401149D01*
X117778317Y-129401149D02*
X117778317Y-129972578D01*
X117778317Y-129686863D02*
X116778317Y-129686863D01*
X116921175Y-129782102D01*
X117016413Y-129877340D01*
X117064032Y-129972578D01*
X116778317Y-129067816D02*
X116778317Y-128401149D01*
X117778317Y-128829721D01*
X117778317Y-127496387D02*
X117778317Y-128067816D01*
X117778317Y-127782102D02*
X116778317Y-127782102D01*
X116921175Y-127877340D01*
X117016413Y-127972578D01*
X117064032Y-128067816D01*
X117778317Y-127067816D02*
X117111651Y-127067816D01*
X116778317Y-127067816D02*
X116825937Y-127115435D01*
X116873556Y-127067816D01*
X116825937Y-127020197D01*
X116778317Y-127067816D01*
X116873556Y-127067816D01*
X117111651Y-126591625D02*
X117778317Y-126591625D01*
X117206889Y-126591625D02*
X117159270Y-126544006D01*
X117111651Y-126448768D01*
X117111651Y-126305911D01*
X117159270Y-126210673D01*
X117254508Y-126163054D01*
X117778317Y-126163054D01*
X116730698Y-124972578D02*
X118016413Y-125829721D01*
X117111651Y-124210673D02*
X117778317Y-124210673D01*
X116730698Y-124448768D02*
X117444984Y-124686863D01*
X117444984Y-124067816D01*
X117683079Y-123686863D02*
X117730698Y-123639244D01*
X117778317Y-123686863D01*
X117730698Y-123734483D01*
X117683079Y-123686863D01*
X117778317Y-123686863D01*
X116778317Y-123305911D02*
X116778317Y-122686863D01*
X117159270Y-123020197D01*
X117159270Y-122877340D01*
X117206889Y-122782102D01*
X117254508Y-122734483D01*
X117349746Y-122686863D01*
X117587841Y-122686863D01*
X117683079Y-122734483D01*
X117730698Y-122782102D01*
X117778317Y-122877340D01*
X117778317Y-123163054D01*
X117730698Y-123258292D01*
X117683079Y-123305911D01*
X116778317Y-121782102D02*
X116778317Y-122258292D01*
X117254508Y-122305911D01*
X117206889Y-122258292D01*
X117159270Y-122163054D01*
X117159270Y-121924959D01*
X117206889Y-121829721D01*
X117254508Y-121782102D01*
X117349746Y-121734483D01*
X117587841Y-121734483D01*
X117683079Y-121782102D01*
X117730698Y-121829721D01*
X117778317Y-121924959D01*
X117778317Y-122163054D01*
X117730698Y-122258292D01*
X117683079Y-122305911D01*
X117778317Y-121305911D02*
X117111651Y-121305911D01*
X117206889Y-121305911D02*
X117159270Y-121258292D01*
X117111651Y-121163054D01*
X117111651Y-121020197D01*
X117159270Y-120924959D01*
X117254508Y-120877340D01*
X117778317Y-120877340D01*
X117254508Y-120877340D02*
X117159270Y-120829721D01*
X117111651Y-120734483D01*
X117111651Y-120591625D01*
X117159270Y-120496387D01*
X117254508Y-120448768D01*
X117778317Y-120448768D01*
X117778317Y-119972578D02*
X117111651Y-119972578D01*
X117206889Y-119972578D02*
X117159270Y-119924959D01*
X117111651Y-119829721D01*
X117111651Y-119686863D01*
X117159270Y-119591625D01*
X117254508Y-119544006D01*
X117778317Y-119544006D01*
X117254508Y-119544006D02*
X117159270Y-119496387D01*
X117111651Y-119401149D01*
X117111651Y-119258292D01*
X117159270Y-119163054D01*
X117254508Y-119115435D01*
X117778317Y-119115435D01*
X113565317Y-124987674D02*
X113565317Y-124892436D01*
X113612937Y-124797198D01*
X113660556Y-124749579D01*
X113755794Y-124701960D01*
X113946270Y-124654341D01*
X114184365Y-124654341D01*
X114374841Y-124701960D01*
X114470079Y-124749579D01*
X114517698Y-124797198D01*
X114565317Y-124892436D01*
X114565317Y-124987674D01*
X114517698Y-125082912D01*
X114470079Y-125130531D01*
X114374841Y-125178150D01*
X114184365Y-125225769D01*
X113946270Y-125225769D01*
X113755794Y-125178150D01*
X113660556Y-125130531D01*
X113612937Y-125082912D01*
X113565317Y-124987674D01*
X114470079Y-124225769D02*
X114517698Y-124178150D01*
X114565317Y-124225769D01*
X114517698Y-124273388D01*
X114470079Y-124225769D01*
X114565317Y-124225769D01*
X113565317Y-123559103D02*
X113565317Y-123463864D01*
X113612937Y-123368626D01*
X113660556Y-123321007D01*
X113755794Y-123273388D01*
X113946270Y-123225769D01*
X114184365Y-123225769D01*
X114374841Y-123273388D01*
X114470079Y-123321007D01*
X114517698Y-123368626D01*
X114565317Y-123463864D01*
X114565317Y-123559103D01*
X114517698Y-123654341D01*
X114470079Y-123701960D01*
X114374841Y-123749579D01*
X114184365Y-123797198D01*
X113946270Y-123797198D01*
X113755794Y-123749579D01*
X113660556Y-123701960D01*
X113612937Y-123654341D01*
X113565317Y-123559103D01*
X113660556Y-122844817D02*
X113612937Y-122797198D01*
X113565317Y-122701960D01*
X113565317Y-122463864D01*
X113612937Y-122368626D01*
X113660556Y-122321007D01*
X113755794Y-122273388D01*
X113851032Y-122273388D01*
X113993889Y-122321007D01*
X114565317Y-122892436D01*
X114565317Y-122273388D01*
X114565317Y-121844817D02*
X113898651Y-121844817D01*
X113565317Y-121844817D02*
X113612937Y-121892436D01*
X113660556Y-121844817D01*
X113612937Y-121797198D01*
X113565317Y-121844817D01*
X113660556Y-121844817D01*
X113898651Y-121368626D02*
X114565317Y-121368626D01*
X113993889Y-121368626D02*
X113946270Y-121321007D01*
X113898651Y-121225769D01*
X113898651Y-121082912D01*
X113946270Y-120987674D01*
X114041508Y-120940055D01*
X114565317Y-120940055D01*
X113517698Y-119749579D02*
X114803413Y-120606722D01*
X113565317Y-119225769D02*
X113565317Y-119130531D01*
X113612937Y-119035293D01*
X113660556Y-118987674D01*
X113755794Y-118940055D01*
X113946270Y-118892436D01*
X114184365Y-118892436D01*
X114374841Y-118940055D01*
X114470079Y-118987674D01*
X114517698Y-119035293D01*
X114565317Y-119130531D01*
X114565317Y-119225769D01*
X114517698Y-119321007D01*
X114470079Y-119368626D01*
X114374841Y-119416245D01*
X114184365Y-119463864D01*
X113946270Y-119463864D01*
X113755794Y-119416245D01*
X113660556Y-119368626D01*
X113612937Y-119321007D01*
X113565317Y-119225769D01*
X114470079Y-118463864D02*
X114517698Y-118416245D01*
X114565317Y-118463864D01*
X114517698Y-118511484D01*
X114470079Y-118463864D01*
X114565317Y-118463864D01*
X113565317Y-117511484D02*
X113565317Y-117987674D01*
X114041508Y-118035293D01*
X113993889Y-117987674D01*
X113946270Y-117892436D01*
X113946270Y-117654341D01*
X113993889Y-117559103D01*
X114041508Y-117511484D01*
X114136746Y-117463864D01*
X114374841Y-117463864D01*
X114470079Y-117511484D01*
X114517698Y-117559103D01*
X114565317Y-117654341D01*
X114565317Y-117892436D01*
X114517698Y-117987674D01*
X114470079Y-118035293D01*
X114565317Y-117035293D02*
X113898651Y-117035293D01*
X113993889Y-117035293D02*
X113946270Y-116987674D01*
X113898651Y-116892436D01*
X113898651Y-116749579D01*
X113946270Y-116654341D01*
X114041508Y-116606722D01*
X114565317Y-116606722D01*
X114041508Y-116606722D02*
X113946270Y-116559103D01*
X113898651Y-116463864D01*
X113898651Y-116321007D01*
X113946270Y-116225769D01*
X114041508Y-116178150D01*
X114565317Y-116178150D01*
X114565317Y-115701960D02*
X113898651Y-115701960D01*
X113993889Y-115701960D02*
X113946270Y-115654341D01*
X113898651Y-115559103D01*
X113898651Y-115416245D01*
X113946270Y-115321007D01*
X114041508Y-115273388D01*
X114565317Y-115273388D01*
X114041508Y-115273388D02*
X113946270Y-115225769D01*
X113898651Y-115130531D01*
X113898651Y-114987674D01*
X113946270Y-114892436D01*
X114041508Y-114844817D01*
X114565317Y-114844817D01*
D11*
X113408294Y-127880316D02*
X113414341Y-127886363D01*
X113420389Y-127904506D01*
X113420389Y-127916602D01*
X113414341Y-127934744D01*
X113402246Y-127946840D01*
X113390151Y-127952887D01*
X113365960Y-127958935D01*
X113347817Y-127958935D01*
X113323627Y-127952887D01*
X113311532Y-127946840D01*
X113299437Y-127934744D01*
X113293389Y-127916602D01*
X113293389Y-127904506D01*
X113299437Y-127886363D01*
X113305484Y-127880316D01*
X113420389Y-127807744D02*
X113414341Y-127819840D01*
X113408294Y-127825887D01*
X113396198Y-127831935D01*
X113359913Y-127831935D01*
X113347817Y-127825887D01*
X113341770Y-127819840D01*
X113335722Y-127807744D01*
X113335722Y-127789602D01*
X113341770Y-127777506D01*
X113347817Y-127771459D01*
X113359913Y-127765411D01*
X113396198Y-127765411D01*
X113408294Y-127771459D01*
X113414341Y-127777506D01*
X113420389Y-127789602D01*
X113420389Y-127807744D01*
X113335722Y-127710983D02*
X113462722Y-127710983D01*
X113341770Y-127710983D02*
X113335722Y-127698887D01*
X113335722Y-127674697D01*
X113341770Y-127662602D01*
X113347817Y-127656554D01*
X113359913Y-127650506D01*
X113396198Y-127650506D01*
X113408294Y-127656554D01*
X113414341Y-127662602D01*
X113420389Y-127674697D01*
X113420389Y-127698887D01*
X113414341Y-127710983D01*
X113335722Y-127608173D02*
X113420389Y-127577935D01*
X113335722Y-127547697D02*
X113420389Y-127577935D01*
X113450627Y-127590030D01*
X113456675Y-127596078D01*
X113462722Y-127608173D01*
X113420389Y-127499316D02*
X113335722Y-127499316D01*
X113359913Y-127499316D02*
X113347817Y-127493268D01*
X113341770Y-127487221D01*
X113335722Y-127475125D01*
X113335722Y-127463030D01*
X113420389Y-127420697D02*
X113335722Y-127420697D01*
X113293389Y-127420697D02*
X113299437Y-127426744D01*
X113305484Y-127420697D01*
X113299437Y-127414649D01*
X113293389Y-127420697D01*
X113305484Y-127420697D01*
X113335722Y-127305792D02*
X113438532Y-127305792D01*
X113450627Y-127311840D01*
X113456675Y-127317887D01*
X113462722Y-127329983D01*
X113462722Y-127348125D01*
X113456675Y-127360221D01*
X113414341Y-127305792D02*
X113420389Y-127317887D01*
X113420389Y-127342078D01*
X113414341Y-127354173D01*
X113408294Y-127360221D01*
X113396198Y-127366268D01*
X113359913Y-127366268D01*
X113347817Y-127360221D01*
X113341770Y-127354173D01*
X113335722Y-127342078D01*
X113335722Y-127317887D01*
X113341770Y-127305792D01*
X113420389Y-127245316D02*
X113293389Y-127245316D01*
X113420389Y-127190887D02*
X113353865Y-127190887D01*
X113341770Y-127196935D01*
X113335722Y-127209030D01*
X113335722Y-127227173D01*
X113341770Y-127239268D01*
X113347817Y-127245316D01*
X113335722Y-127148554D02*
X113335722Y-127100173D01*
X113293389Y-127130411D02*
X113402246Y-127130411D01*
X113414341Y-127124363D01*
X113420389Y-127112268D01*
X113420389Y-127100173D01*
X113305484Y-126967125D02*
X113299437Y-126961078D01*
X113293389Y-126948983D01*
X113293389Y-126918744D01*
X113299437Y-126906649D01*
X113305484Y-126900602D01*
X113317579Y-126894554D01*
X113329675Y-126894554D01*
X113347817Y-126900602D01*
X113420389Y-126973173D01*
X113420389Y-126894554D01*
X113293389Y-126815935D02*
X113293389Y-126803840D01*
X113299437Y-126791744D01*
X113305484Y-126785697D01*
X113317579Y-126779649D01*
X113341770Y-126773602D01*
X113372008Y-126773602D01*
X113396198Y-126779649D01*
X113408294Y-126785697D01*
X113414341Y-126791744D01*
X113420389Y-126803840D01*
X113420389Y-126815935D01*
X113414341Y-126828030D01*
X113408294Y-126834078D01*
X113396198Y-126840125D01*
X113372008Y-126846173D01*
X113341770Y-126846173D01*
X113317579Y-126840125D01*
X113305484Y-126834078D01*
X113299437Y-126828030D01*
X113293389Y-126815935D01*
X113305484Y-126725221D02*
X113299437Y-126719173D01*
X113293389Y-126707078D01*
X113293389Y-126676840D01*
X113299437Y-126664744D01*
X113305484Y-126658697D01*
X113317579Y-126652649D01*
X113329675Y-126652649D01*
X113347817Y-126658697D01*
X113420389Y-126731268D01*
X113420389Y-126652649D01*
X113420389Y-126531697D02*
X113420389Y-126604268D01*
X113420389Y-126567983D02*
X113293389Y-126567983D01*
X113311532Y-126580078D01*
X113323627Y-126592173D01*
X113329675Y-126604268D01*
X113384103Y-126386554D02*
X113384103Y-126326078D01*
X113420389Y-126398649D02*
X113293389Y-126356316D01*
X113420389Y-126313983D01*
X113414341Y-126217221D02*
X113420389Y-126229316D01*
X113420389Y-126253506D01*
X113414341Y-126265602D01*
X113408294Y-126271649D01*
X113396198Y-126277697D01*
X113359913Y-126277697D01*
X113347817Y-126271649D01*
X113341770Y-126265602D01*
X113335722Y-126253506D01*
X113335722Y-126229316D01*
X113341770Y-126217221D01*
X113414341Y-126108363D02*
X113420389Y-126120459D01*
X113420389Y-126144649D01*
X113414341Y-126156744D01*
X113408294Y-126162792D01*
X113396198Y-126168840D01*
X113359913Y-126168840D01*
X113347817Y-126162792D01*
X113341770Y-126156744D01*
X113335722Y-126144649D01*
X113335722Y-126120459D01*
X113341770Y-126108363D01*
X113414341Y-126005554D02*
X113420389Y-126017649D01*
X113420389Y-126041840D01*
X113414341Y-126053935D01*
X113402246Y-126059983D01*
X113353865Y-126059983D01*
X113341770Y-126053935D01*
X113335722Y-126041840D01*
X113335722Y-126017649D01*
X113341770Y-126005554D01*
X113353865Y-125999506D01*
X113365960Y-125999506D01*
X113378056Y-126059983D01*
X113420389Y-125926935D02*
X113414341Y-125939030D01*
X113402246Y-125945078D01*
X113293389Y-125945078D01*
X113414341Y-125830173D02*
X113420389Y-125842268D01*
X113420389Y-125866459D01*
X113414341Y-125878554D01*
X113402246Y-125884602D01*
X113353865Y-125884602D01*
X113341770Y-125878554D01*
X113335722Y-125866459D01*
X113335722Y-125842268D01*
X113341770Y-125830173D01*
X113353865Y-125824125D01*
X113365960Y-125824125D01*
X113378056Y-125884602D01*
X113420389Y-125769697D02*
X113335722Y-125769697D01*
X113359913Y-125769697D02*
X113347817Y-125763649D01*
X113341770Y-125757602D01*
X113335722Y-125745506D01*
X113335722Y-125733411D01*
X113420389Y-125636649D02*
X113353865Y-125636649D01*
X113341770Y-125642697D01*
X113335722Y-125654792D01*
X113335722Y-125678983D01*
X113341770Y-125691078D01*
X113414341Y-125636649D02*
X113420389Y-125648744D01*
X113420389Y-125678983D01*
X113414341Y-125691078D01*
X113402246Y-125697125D01*
X113390151Y-125697125D01*
X113378056Y-125691078D01*
X113372008Y-125678983D01*
X113372008Y-125648744D01*
X113365960Y-125636649D01*
X113335722Y-125594316D02*
X113335722Y-125545935D01*
X113293389Y-125576173D02*
X113402246Y-125576173D01*
X113414341Y-125570125D01*
X113420389Y-125558030D01*
X113420389Y-125545935D01*
X113414341Y-125455221D02*
X113420389Y-125467316D01*
X113420389Y-125491506D01*
X113414341Y-125503602D01*
X113402246Y-125509649D01*
X113353865Y-125509649D01*
X113341770Y-125503602D01*
X113335722Y-125491506D01*
X113335722Y-125467316D01*
X113341770Y-125455221D01*
X113353865Y-125449173D01*
X113365960Y-125449173D01*
X113378056Y-125509649D01*
X113420389Y-125340316D02*
X113293389Y-125340316D01*
X113414341Y-125340316D02*
X113420389Y-125352411D01*
X113420389Y-125376602D01*
X113414341Y-125388697D01*
X113408294Y-125394744D01*
X113396198Y-125400792D01*
X113359913Y-125400792D01*
X113347817Y-125394744D01*
X113341770Y-125388697D01*
X113335722Y-125376602D01*
X113335722Y-125352411D01*
X113341770Y-125340316D01*
X113420389Y-125183078D02*
X113293389Y-125183078D01*
X113293389Y-125152840D01*
X113299437Y-125134697D01*
X113311532Y-125122602D01*
X113323627Y-125116554D01*
X113347817Y-125110506D01*
X113365960Y-125110506D01*
X113390151Y-125116554D01*
X113402246Y-125122602D01*
X113414341Y-125134697D01*
X113420389Y-125152840D01*
X113420389Y-125183078D01*
X113414341Y-125007697D02*
X113420389Y-125019792D01*
X113420389Y-125043983D01*
X113414341Y-125056078D01*
X113402246Y-125062125D01*
X113353865Y-125062125D01*
X113341770Y-125056078D01*
X113335722Y-125043983D01*
X113335722Y-125019792D01*
X113341770Y-125007697D01*
X113353865Y-125001649D01*
X113365960Y-125001649D01*
X113378056Y-125062125D01*
X113414341Y-124953268D02*
X113420389Y-124941173D01*
X113420389Y-124916983D01*
X113414341Y-124904887D01*
X113402246Y-124898840D01*
X113396198Y-124898840D01*
X113384103Y-124904887D01*
X113378056Y-124916983D01*
X113378056Y-124935125D01*
X113372008Y-124947221D01*
X113359913Y-124953268D01*
X113353865Y-124953268D01*
X113341770Y-124947221D01*
X113335722Y-124935125D01*
X113335722Y-124916983D01*
X113341770Y-124904887D01*
X113420389Y-124844411D02*
X113335722Y-124844411D01*
X113293389Y-124844411D02*
X113299437Y-124850459D01*
X113305484Y-124844411D01*
X113299437Y-124838363D01*
X113293389Y-124844411D01*
X113305484Y-124844411D01*
X113335722Y-124729506D02*
X113438532Y-124729506D01*
X113450627Y-124735554D01*
X113456675Y-124741602D01*
X113462722Y-124753697D01*
X113462722Y-124771840D01*
X113456675Y-124783935D01*
X113414341Y-124729506D02*
X113420389Y-124741602D01*
X113420389Y-124765792D01*
X113414341Y-124777887D01*
X113408294Y-124783935D01*
X113396198Y-124789983D01*
X113359913Y-124789983D01*
X113347817Y-124783935D01*
X113341770Y-124777887D01*
X113335722Y-124765792D01*
X113335722Y-124741602D01*
X113341770Y-124729506D01*
X113335722Y-124669030D02*
X113420389Y-124669030D01*
X113347817Y-124669030D02*
X113341770Y-124662983D01*
X113335722Y-124650887D01*
X113335722Y-124632744D01*
X113341770Y-124620649D01*
X113353865Y-124614602D01*
X113420389Y-124614602D01*
X113414341Y-124560173D02*
X113420389Y-124548078D01*
X113420389Y-124523887D01*
X113414341Y-124511792D01*
X113402246Y-124505744D01*
X113396198Y-124505744D01*
X113384103Y-124511792D01*
X113378056Y-124523887D01*
X113378056Y-124542030D01*
X113372008Y-124554125D01*
X113359913Y-124560173D01*
X113353865Y-124560173D01*
X113341770Y-124554125D01*
X113335722Y-124542030D01*
X113335722Y-124523887D01*
X113341770Y-124511792D01*
X113408294Y-124451316D02*
X113414341Y-124445268D01*
X113420389Y-124451316D01*
X113414341Y-124457363D01*
X113408294Y-124451316D01*
X113420389Y-124451316D01*
X113384103Y-124300125D02*
X113384103Y-124239649D01*
X113420389Y-124312221D02*
X113293389Y-124269887D01*
X113420389Y-124227554D01*
X113420389Y-124167078D02*
X113414341Y-124179173D01*
X113402246Y-124185221D01*
X113293389Y-124185221D01*
X113420389Y-124100554D02*
X113414341Y-124112649D01*
X113402246Y-124118697D01*
X113293389Y-124118697D01*
X113420389Y-123955411D02*
X113335722Y-123955411D01*
X113359913Y-123955411D02*
X113347817Y-123949363D01*
X113341770Y-123943316D01*
X113335722Y-123931221D01*
X113335722Y-123919125D01*
X113420389Y-123876792D02*
X113335722Y-123876792D01*
X113293389Y-123876792D02*
X113299437Y-123882840D01*
X113305484Y-123876792D01*
X113299437Y-123870744D01*
X113293389Y-123876792D01*
X113305484Y-123876792D01*
X113335722Y-123761887D02*
X113438532Y-123761887D01*
X113450627Y-123767935D01*
X113456675Y-123773983D01*
X113462722Y-123786078D01*
X113462722Y-123804221D01*
X113456675Y-123816316D01*
X113414341Y-123761887D02*
X113420389Y-123773983D01*
X113420389Y-123798173D01*
X113414341Y-123810268D01*
X113408294Y-123816316D01*
X113396198Y-123822363D01*
X113359913Y-123822363D01*
X113347817Y-123816316D01*
X113341770Y-123810268D01*
X113335722Y-123798173D01*
X113335722Y-123773983D01*
X113341770Y-123761887D01*
X113420389Y-123701411D02*
X113293389Y-123701411D01*
X113420389Y-123646983D02*
X113353865Y-123646983D01*
X113341770Y-123653030D01*
X113335722Y-123665125D01*
X113335722Y-123683268D01*
X113341770Y-123695363D01*
X113347817Y-123701411D01*
X113335722Y-123604649D02*
X113335722Y-123556268D01*
X113293389Y-123586506D02*
X113402246Y-123586506D01*
X113414341Y-123580459D01*
X113420389Y-123568363D01*
X113420389Y-123556268D01*
X113414341Y-123519983D02*
X113420389Y-123507887D01*
X113420389Y-123483697D01*
X113414341Y-123471602D01*
X113402246Y-123465554D01*
X113396198Y-123465554D01*
X113384103Y-123471602D01*
X113378056Y-123483697D01*
X113378056Y-123501840D01*
X113372008Y-123513935D01*
X113359913Y-123519983D01*
X113353865Y-123519983D01*
X113341770Y-123513935D01*
X113335722Y-123501840D01*
X113335722Y-123483697D01*
X113341770Y-123471602D01*
X113420389Y-123314363D02*
X113335722Y-123314363D01*
X113359913Y-123314363D02*
X113347817Y-123308316D01*
X113341770Y-123302268D01*
X113335722Y-123290173D01*
X113335722Y-123278078D01*
X113414341Y-123187363D02*
X113420389Y-123199459D01*
X113420389Y-123223649D01*
X113414341Y-123235744D01*
X113402246Y-123241792D01*
X113353865Y-123241792D01*
X113341770Y-123235744D01*
X113335722Y-123223649D01*
X113335722Y-123199459D01*
X113341770Y-123187363D01*
X113353865Y-123181316D01*
X113365960Y-123181316D01*
X113378056Y-123241792D01*
X113414341Y-123132935D02*
X113420389Y-123120840D01*
X113420389Y-123096649D01*
X113414341Y-123084554D01*
X113402246Y-123078506D01*
X113396198Y-123078506D01*
X113384103Y-123084554D01*
X113378056Y-123096649D01*
X113378056Y-123114792D01*
X113372008Y-123126887D01*
X113359913Y-123132935D01*
X113353865Y-123132935D01*
X113341770Y-123126887D01*
X113335722Y-123114792D01*
X113335722Y-123096649D01*
X113341770Y-123084554D01*
X113414341Y-122975697D02*
X113420389Y-122987792D01*
X113420389Y-123011983D01*
X113414341Y-123024078D01*
X113402246Y-123030125D01*
X113353865Y-123030125D01*
X113341770Y-123024078D01*
X113335722Y-123011983D01*
X113335722Y-122987792D01*
X113341770Y-122975697D01*
X113353865Y-122969649D01*
X113365960Y-122969649D01*
X113378056Y-123030125D01*
X113420389Y-122915221D02*
X113335722Y-122915221D01*
X113359913Y-122915221D02*
X113347817Y-122909173D01*
X113341770Y-122903125D01*
X113335722Y-122891030D01*
X113335722Y-122878935D01*
X113335722Y-122848697D02*
X113420389Y-122818459D01*
X113335722Y-122788221D01*
X113414341Y-122691459D02*
X113420389Y-122703554D01*
X113420389Y-122727744D01*
X113414341Y-122739840D01*
X113402246Y-122745887D01*
X113353865Y-122745887D01*
X113341770Y-122739840D01*
X113335722Y-122727744D01*
X113335722Y-122703554D01*
X113341770Y-122691459D01*
X113353865Y-122685411D01*
X113365960Y-122685411D01*
X113378056Y-122745887D01*
X113420389Y-122576554D02*
X113293389Y-122576554D01*
X113414341Y-122576554D02*
X113420389Y-122588649D01*
X113420389Y-122612840D01*
X113414341Y-122624935D01*
X113408294Y-122630983D01*
X113396198Y-122637030D01*
X113359913Y-122637030D01*
X113347817Y-122630983D01*
X113341770Y-122624935D01*
X113335722Y-122612840D01*
X113335722Y-122588649D01*
X113341770Y-122576554D01*
X113408294Y-122516078D02*
X113414341Y-122510030D01*
X113420389Y-122516078D01*
X113414341Y-122522125D01*
X113408294Y-122516078D01*
X113420389Y-122516078D01*
D12*
X109907937Y-123409483D02*
X110034937Y-123663483D01*
X109907937Y-123409483D02*
X109907937Y-124679483D01*
X114912936Y-125234483D02*
X114912936Y-129705483D01*
X111558938Y-129197483D02*
X111558938Y-129451483D01*
X110034937Y-123663483D02*
X109780937Y-123663483D01*
X113862937Y-120519484D02*
X113608937Y-120646484D01*
X114912936Y-129324483D02*
X115166936Y-129197483D01*
X116817937Y-126784482D02*
X116690937Y-127038482D01*
X114362937Y-120519484D02*
X114616937Y-120646484D01*
X116817937Y-126784482D02*
X116817937Y-128054482D01*
X118722937Y-127759483D02*
X118849937Y-127505483D01*
X114362937Y-120519484D02*
X115632937Y-120519484D01*
X114912936Y-129324483D02*
X115166936Y-129451483D01*
X113362937Y-122709483D02*
X119103937Y-122709483D01*
X114616937Y-120392484D02*
X114616937Y-120646484D01*
X113362937Y-123684484D02*
X117198937Y-123684484D01*
X113862937Y-123059484D02*
X113862937Y-120138484D01*
X111812938Y-129324483D02*
X111558938Y-129451483D01*
X114362937Y-123059484D02*
X114362937Y-120138484D01*
X116817937Y-123684484D02*
X116944937Y-123430484D01*
X113362937Y-126784482D02*
X117198937Y-126784482D01*
X113362937Y-122709483D02*
X109526937Y-122709483D01*
X115166936Y-129197483D02*
X115166936Y-129451483D01*
X116817937Y-123684484D02*
X116690937Y-123430484D01*
X114362937Y-120519484D02*
X114616937Y-120392484D01*
X109907937Y-122709483D02*
X110034937Y-122455483D01*
X118722937Y-122709483D02*
X118849937Y-122963483D01*
X111812938Y-125234483D02*
X111812938Y-129705483D01*
X114912936Y-129324483D02*
X116182936Y-129324483D01*
X116944937Y-123430484D02*
X116690937Y-123430484D01*
X118849937Y-127505483D02*
X118595937Y-127505483D01*
X118849937Y-122963483D02*
X118595937Y-122963483D01*
X111812938Y-129324483D02*
X111558938Y-129197483D01*
X118722937Y-127759483D02*
X118595937Y-127505483D01*
X111812938Y-129324483D02*
X110542938Y-129324483D01*
X109907937Y-123409483D02*
X109780937Y-123663483D01*
X113862937Y-120519484D02*
X113608937Y-120392484D01*
X118722937Y-122709483D02*
X118722937Y-127759483D01*
X113362937Y-127759483D02*
X119103937Y-127759483D01*
X116817937Y-126784482D02*
X116944937Y-127038482D01*
X113608937Y-120392484D02*
X113608937Y-120646484D01*
X116944937Y-127038482D02*
X116690937Y-127038482D01*
X116817937Y-123684484D02*
X116817937Y-122414484D01*
X118722937Y-122709483D02*
X118595937Y-122963483D01*
X110034937Y-122455483D02*
X109780937Y-122455483D01*
X113362937Y-123409483D02*
X109526937Y-123409483D01*
X109907937Y-122709483D02*
X109780937Y-122455483D01*
X109907937Y-122709483D02*
X109907937Y-121439483D01*
X113862937Y-120519484D02*
X112592937Y-120519484D01*
%TD*%
M02*
