%TF.GenerationSoftware,KiCad,Pcbnew,(6.0.9-0)*%
%TF.CreationDate,2022-12-01T16:18:30+01:00*%
%TF.ProjectId,Hlabs motor cotrol,486c6162-7320-46d6-9f74-6f7220636f74,rev?*%
%TF.SameCoordinates,Original*%
%TF.FileFunction,Legend,Bot*%
%TF.FilePolarity,Positive*%
%FSLAX46Y46*%
G04 Gerber Fmt 4.6, Leading zero omitted, Abs format (unit mm)*
G04 Created by KiCad (PCBNEW (6.0.9-0)) date 2022-12-01 16:18:30*
%MOMM*%
%LPD*%
G01*
G04 APERTURE LIST*
G04 Aperture macros list*
%AMRoundRect*
0 Rectangle with rounded corners*
0 $1 Rounding radius*
0 $2 $3 $4 $5 $6 $7 $8 $9 X,Y pos of 4 corners*
0 Add a 4 corners polygon primitive as box body*
4,1,4,$2,$3,$4,$5,$6,$7,$8,$9,$2,$3,0*
0 Add four circle primitives for the rounded corners*
1,1,$1+$1,$2,$3*
1,1,$1+$1,$4,$5*
1,1,$1+$1,$6,$7*
1,1,$1+$1,$8,$9*
0 Add four rect primitives between the rounded corners*
20,1,$1+$1,$2,$3,$4,$5,0*
20,1,$1+$1,$4,$5,$6,$7,0*
20,1,$1+$1,$6,$7,$8,$9,0*
20,1,$1+$1,$8,$9,$2,$3,0*%
G04 Aperture macros list end*
%ADD10C,0.150000*%
%ADD11C,0.120000*%
%ADD12C,0.508000*%
%ADD13RoundRect,0.250000X0.600000X-0.600000X0.600000X0.600000X-0.600000X0.600000X-0.600000X-0.600000X0*%
%ADD14C,1.700000*%
%ADD15C,0.770000*%
%ADD16R,3.000000X3.000000*%
%ADD17C,3.000000*%
%ADD18RoundRect,0.625000X-0.625000X1.625000X-0.625000X-1.625000X0.625000X-1.625000X0.625000X1.625000X0*%
G04 APERTURE END LIST*
D10*
%TO.C,RV1*%
X80095237Y-119252381D02*
X80428570Y-118776191D01*
X80666665Y-119252381D02*
X80666665Y-118252381D01*
X80285713Y-118252381D01*
X80190475Y-118300001D01*
X80142856Y-118347620D01*
X80095237Y-118442858D01*
X80095237Y-118585715D01*
X80142856Y-118680953D01*
X80190475Y-118728572D01*
X80285713Y-118776191D01*
X80666665Y-118776191D01*
X79809522Y-118252381D02*
X79476189Y-119252381D01*
X79142856Y-118252381D01*
X78285713Y-119252381D02*
X78857141Y-119252381D01*
X78571427Y-119252381D02*
X78571427Y-118252381D01*
X78666665Y-118395239D01*
X78761903Y-118490477D01*
X78857141Y-118538096D01*
D11*
X75580000Y-132620000D02*
X70580000Y-132620000D01*
X87920000Y-138070000D02*
X75580000Y-138070000D01*
X60580000Y-125880000D02*
X60580000Y-132120000D01*
X75580000Y-125380000D02*
X70580000Y-125380000D01*
X75580000Y-119930000D02*
X75580000Y-138070000D01*
X70580000Y-125880000D02*
X60580000Y-125880000D01*
X87920000Y-119930000D02*
X87920000Y-138070000D01*
X70580000Y-132120000D02*
X60580000Y-132120000D01*
X70580000Y-125380000D02*
X70580000Y-132620000D01*
X87920000Y-119930000D02*
X75580000Y-119930000D01*
%TD*%
%LPC*%
D12*
%TO.C,U1*%
X112969237Y-124840783D03*
X113756637Y-125628183D03*
X112969237Y-125628183D03*
X113756637Y-124840783D03*
%TD*%
D13*
%TO.C,J1*%
X107940000Y-137252500D03*
D14*
X107940000Y-134712500D03*
X110480000Y-137252500D03*
X110480000Y-134712500D03*
X113020000Y-137252500D03*
X113020000Y-134712500D03*
X115560000Y-137252500D03*
X115560000Y-134712500D03*
%TD*%
D15*
%TO.C,U2*%
X90000000Y-128900000D03*
X88700000Y-128900000D03*
X91300000Y-127600000D03*
X88700000Y-127600000D03*
X90000000Y-127600000D03*
X91300000Y-128900000D03*
%TD*%
D16*
%TO.C,RV1*%
X79500000Y-134000000D03*
D17*
X79500000Y-129000000D03*
X79500000Y-124000000D03*
X84500000Y-134000000D03*
X84500000Y-129000000D03*
X84500000Y-124000000D03*
D18*
X98530000Y-119350000D03*
X98510000Y-134570000D03*
D17*
X119660000Y-124680000D03*
X119620000Y-134080000D03*
%TD*%
M02*
